<svg width="60" height="10" viewBox="0 0 60 10" fill="none" xmlns="http://www.w3.org/2000/svg">
<path d="M3.26 9H2.228V3.012C2.228 2.78 2.228 2.584 2.228 2.424C2.236 2.264 2.244 2.116 2.252 1.98C2.26 1.836 2.268 1.688 2.276 1.536C2.148 1.664 2.032 1.772 1.928 1.86C1.824 1.948 1.692 2.06 1.532 2.196L0.62 2.94L0.068 2.232L2.384 0.431999H3.26V9ZM12.1432 4.704C12.1432 5.4 12.0912 6.02 11.9872 6.564C11.8832 7.108 11.7152 7.572 11.4832 7.956C11.2592 8.332 10.9632 8.62 10.5952 8.82C10.2352 9.02 9.79919 9.12 9.28719 9.12C8.64719 9.12 8.11519 8.944 7.69119 8.592C7.27519 8.24 6.96319 7.736 6.75519 7.08C6.55519 6.416 6.45519 5.624 6.45519 4.704C6.45519 3.776 6.54719 2.984 6.73119 2.328C6.92319 1.672 7.22719 1.172 7.64319 0.827999C8.05919 0.476 8.60719 0.3 9.28719 0.3C9.92719 0.3 10.4592 0.476 10.8832 0.827999C11.3072 1.172 11.6232 1.672 11.8312 2.328C12.0392 2.984 12.1432 3.776 12.1432 4.704ZM7.51119 4.704C7.51119 5.488 7.56719 6.14 7.67919 6.66C7.79919 7.18 7.98719 7.572 8.24319 7.836C8.50719 8.092 8.85519 8.22 9.28719 8.22C9.71919 8.22 10.0632 8.092 10.3192 7.836C10.5832 7.58 10.7752 7.192 10.8952 6.672C11.0152 6.144 11.0752 5.488 11.0752 4.704C11.0752 3.92 11.0152 3.272 10.8952 2.76C10.7752 2.24 10.5832 1.852 10.3192 1.596C10.0632 1.332 9.71919 1.2 9.28719 1.2C8.85519 1.2 8.50719 1.332 8.24319 1.596C7.98719 1.852 7.79919 2.24 7.67919 2.76C7.56719 3.272 7.51119 3.92 7.51119 4.704ZM13.5984 8.352C13.5984 8.056 13.6704 7.848 13.8144 7.728C13.9584 7.608 14.1304 7.548 14.3304 7.548C14.5384 7.548 14.7144 7.608 14.8584 7.728C15.0104 7.848 15.0864 8.056 15.0864 8.352C15.0864 8.64 15.0104 8.848 14.8584 8.976C14.7144 9.104 14.5384 9.168 14.3304 9.168C14.1304 9.168 13.9584 9.104 13.8144 8.976C13.6704 8.848 13.5984 8.64 13.5984 8.352ZM20.2053 9H19.1733V3.012C19.1733 2.78 19.1733 2.584 19.1733 2.424C19.1813 2.264 19.1893 2.116 19.1973 1.98C19.2053 1.836 19.2133 1.688 19.2213 1.536C19.0933 1.664 18.9773 1.772 18.8733 1.86C18.7693 1.948 18.6373 2.06 18.4773 2.196L17.5653 2.94L17.0133 2.232L19.3293 0.431999H20.2053V9ZM29.0525 9H23.3885V8.124L25.6325 5.856C26.0645 5.424 26.4285 5.04 26.7245 4.704C27.0205 4.368 27.2445 4.04 27.3965 3.72C27.5485 3.392 27.6245 3.036 27.6245 2.652C27.6245 2.18 27.4845 1.824 27.2045 1.584C26.9245 1.336 26.5605 1.212 26.1125 1.212C25.6965 1.212 25.3285 1.284 25.0085 1.428C24.6965 1.572 24.3765 1.772 24.0485 2.028L23.4845 1.32C23.7085 1.128 23.9525 0.956 24.2165 0.804C24.4885 0.652 24.7805 0.532 25.0925 0.443999C25.4125 0.355999 25.7525 0.312 26.1125 0.312C26.6485 0.312 27.1085 0.404 27.4925 0.588C27.8765 0.772 28.1725 1.036 28.3805 1.38C28.5965 1.716 28.7045 2.12 28.7045 2.592C28.7045 2.928 28.6525 3.248 28.5485 3.552C28.4445 3.848 28.2965 4.14 28.1045 4.428C27.9125 4.716 27.6805 5.008 27.4085 5.304C27.1365 5.6 26.8365 5.908 26.5085 6.228L24.7205 7.992V8.04H29.0525V9ZM30.5437 8.352C30.5437 8.056 30.6157 7.848 30.7597 7.728C30.9037 7.608 31.0757 7.548 31.2757 7.548C31.4837 7.548 31.6597 7.608 31.8037 7.728C31.9557 7.848 32.0317 8.056 32.0317 8.352C32.0317 8.64 31.9557 8.848 31.8037 8.976C31.6597 9.104 31.4837 9.168 31.2757 9.168C31.0757 9.168 30.9037 9.104 30.7597 8.976C30.6157 8.848 30.5437 8.64 30.5437 8.352ZM39.1306 9H33.4666V8.124L35.7106 5.856C36.1426 5.424 36.5066 5.04 36.8026 4.704C37.0986 4.368 37.3226 4.04 37.4746 3.72C37.6266 3.392 37.7026 3.036 37.7026 2.652C37.7026 2.18 37.5626 1.824 37.2826 1.584C37.0026 1.336 36.6386 1.212 36.1906 1.212C35.7746 1.212 35.4066 1.284 35.0866 1.428C34.7746 1.572 34.4546 1.772 34.1266 2.028L33.5626 1.32C33.7866 1.128 34.0306 0.956 34.2946 0.804C34.5666 0.652 34.8586 0.532 35.1706 0.443999C35.4906 0.355999 35.8306 0.312 36.1906 0.312C36.7266 0.312 37.1866 0.404 37.5706 0.588C37.9546 0.772 38.2506 1.036 38.4586 1.38C38.6746 1.716 38.7826 2.12 38.7826 2.592C38.7826 2.928 38.7306 3.248 38.6266 3.552C38.5226 3.848 38.3746 4.14 38.1826 4.428C37.9906 4.716 37.7586 5.008 37.4866 5.304C37.2146 5.6 36.9146 5.908 36.5866 6.228L34.7986 7.992V8.04H39.1306V9ZM46.0338 4.704C46.0338 5.4 45.9818 6.02 45.8778 6.564C45.7738 7.108 45.6058 7.572 45.3738 7.956C45.1498 8.332 44.8538 8.62 44.4858 8.82C44.1258 9.02 43.6898 9.12 43.1778 9.12C42.5378 9.12 42.0058 8.944 41.5818 8.592C41.1658 8.24 40.8538 7.736 40.6458 7.08C40.4458 6.416 40.3458 5.624 40.3458 4.704C40.3458 3.776 40.4378 2.984 40.6218 2.328C40.8138 1.672 41.1178 1.172 41.5338 0.827999C41.9498 0.476 42.4978 0.3 43.1778 0.3C43.8178 0.3 44.3498 0.476 44.7738 0.827999C45.1978 1.172 45.5138 1.672 45.7218 2.328C45.9298 2.984 46.0338 3.776 46.0338 4.704ZM41.4018 4.704C41.4018 5.488 41.4578 6.14 41.5698 6.66C41.6898 7.18 41.8778 7.572 42.1338 7.836C42.3978 8.092 42.7458 8.22 43.1778 8.22C43.6098 8.22 43.9538 8.092 44.2098 7.836C44.4738 7.58 44.6658 7.192 44.7858 6.672C44.9058 6.144 44.9658 5.488 44.9658 4.704C44.9658 3.92 44.9058 3.272 44.7858 2.76C44.6658 2.24 44.4738 1.852 44.2098 1.596C43.9538 1.332 43.6098 1.2 43.1778 1.2C42.7458 1.2 42.3978 1.332 42.1338 1.596C41.8778 1.852 41.6898 2.24 41.5698 2.76C41.4578 3.272 41.4018 3.92 41.4018 4.704ZM52.865 9H47.201V8.124L49.445 5.856C49.877 5.424 50.241 5.04 50.537 4.704C50.833 4.368 51.057 4.04 51.209 3.72C51.361 3.392 51.437 3.036 51.437 2.652C51.437 2.18 51.297 1.824 51.017 1.584C50.737 1.336 50.373 1.212 49.925 1.212C49.509 1.212 49.141 1.284 48.821 1.428C48.509 1.572 48.189 1.772 47.861 2.028L47.297 1.32C47.521 1.128 47.765 0.956 48.029 0.804C48.301 0.652 48.593 0.532 48.905 0.443999C49.225 0.355999 49.565 0.312 49.925 0.312C50.461 0.312 50.921 0.404 51.305 0.588C51.689 0.772 51.985 1.036 52.193 1.38C52.409 1.716 52.517 2.12 52.517 2.592C52.517 2.928 52.465 3.248 52.361 3.552C52.257 3.848 52.109 4.14 51.917 4.428C51.725 4.716 51.493 5.008 51.221 5.304C50.949 5.6 50.649 5.908 50.321 6.228L48.533 7.992V8.04H52.865V9ZM59.7322 9H54.0682V8.124L56.3122 5.856C56.7442 5.424 57.1082 5.04 57.4042 4.704C57.7002 4.368 57.9242 4.04 58.0762 3.72C58.2282 3.392 58.3042 3.036 58.3042 2.652C58.3042 2.18 58.1642 1.824 57.8842 1.584C57.6042 1.336 57.2402 1.212 56.7922 1.212C56.3762 1.212 56.0082 1.284 55.6882 1.428C55.3762 1.572 55.0562 1.772 54.7282 2.028L54.1642 1.32C54.3882 1.128 54.6322 0.956 54.8962 0.804C55.1682 0.652 55.4602 0.532 55.7722 0.443999C56.0922 0.355999 56.4322 0.312 56.7922 0.312C57.3282 0.312 57.7882 0.404 58.1722 0.588C58.5562 0.772 58.8522 1.036 59.0602 1.38C59.2762 1.716 59.3842 2.12 59.3842 2.592C59.3842 2.928 59.3322 3.248 59.2282 3.552C59.1242 3.848 58.9762 4.14 58.7842 4.428C58.5922 4.716 58.3602 5.008 58.0882 5.304C57.8162 5.6 57.5162 5.908 57.1882 6.228L55.4002 7.992V8.04H59.7322V9Z" fill="white"/>
</svg>
