<svg width="15" height="15" viewBox="0 0 15 15" fill="none" xmlns="http://www.w3.org/2000/svg">
<path d="M7.49997 7.50004H0.683167V1.54981C0.683167 1.07118 1.07111 0.683228 1.54975 0.683228H7.49997V7.50004Z" fill="#35ADE3"/>
<path d="M7.5 7.50004V0.683228H13.4502C13.9289 0.683228 14.3168 1.07118 14.3168 1.54981V7.50004H7.5Z" fill="#35ADE3"/>
<path d="M7.49997 7.5H0.683167V13.4502C0.683167 13.9289 1.07111 14.3168 1.54975 14.3168H7.49997V7.5Z" fill="#35ADE3"/>
<path d="M7.5 7.5V14.3168H13.4502C13.9289 14.3168 14.3168 13.9289 14.3168 13.4502V7.5H7.5Z" fill="#E5E1D8"/>
<path d="M14.3168 7.42444H0.683167V7.57559H14.3168V7.42444Z" fill="#6FA4AD"/>
<path d="M7.57553 0.683228H7.42438V14.3168H7.57553V0.683228Z" fill="#6FA4AD"/>
<path d="M5.64592 3.71629H4.44177V2.51214C4.44177 2.45672 4.39643 2.41138 4.341 2.41138H3.78175C3.72633 2.41138 3.68099 2.45672 3.68099 2.51214V3.71629H2.4718C2.41638 3.71629 2.37103 3.76164 2.37103 3.81706V4.36623C2.37103 4.42165 2.41638 4.467 2.4718 4.467H3.68099V5.68627C3.68099 5.74169 3.72633 5.78703 3.78175 5.78703H4.341C4.39643 5.78703 4.44177 5.74169 4.44177 5.68627V4.467H5.64592C5.70134 4.467 5.74669 4.42165 5.74669 4.36623V3.81706C5.74669 3.76164 5.70134 3.71629 5.64592 3.71629Z" fill="white"/>
<path d="M12.5484 3.71631H9.37426C9.31884 3.71631 9.2735 3.76165 9.2735 3.81707V4.36625C9.2735 4.42167 9.31884 4.46701 9.37426 4.46701H12.5484C12.6038 4.46701 12.6492 4.42167 12.6492 4.36625V3.81707C12.6492 3.76165 12.6038 3.71631 12.5484 3.71631Z" fill="white"/>
<path d="M5.46455 10.0041C5.46455 9.97894 5.45447 9.95374 5.43432 9.93359L5.04133 9.54061C5.00102 9.5003 4.94056 9.5003 4.90026 9.54061L4.04879 10.3921L3.19732 9.54061C3.15701 9.5003 3.09655 9.5003 3.05624 9.54061L2.6683 9.92855C2.64814 9.94871 2.63807 9.9739 2.63807 9.99909C2.63807 10.0243 2.64814 10.0495 2.6683 10.0696L3.51977 10.9211L2.65822 11.7826C2.61791 11.8229 2.61791 11.8834 2.65822 11.9237L3.05121 12.3167C3.07136 12.3369 3.09655 12.3469 3.12174 12.3469C3.14693 12.3469 3.17213 12.3369 3.19228 12.3167L4.05383 11.4552L4.9053 12.3066C4.9456 12.3469 5.00606 12.3469 5.04637 12.3066L5.43432 11.9187C5.45447 11.8985 5.46455 11.8733 5.46455 11.8481C5.46455 11.8229 5.45447 11.7978 5.43432 11.7776L4.58285 10.9261L5.43432 10.0747C5.45447 10.0595 5.46455 10.0344 5.46455 10.0041Z" fill="white"/>
<path d="M12.5484 11.0823H9.37426C9.31884 11.0823 9.2735 11.1276 9.2735 11.183V11.7322C9.2735 11.7876 9.31884 11.833 9.37426 11.833H12.5484C12.6038 11.833 12.6492 11.7876 12.6492 11.7322V11.183C12.6492 11.1276 12.6038 11.0823 12.5484 11.0823Z" fill="#A39E95"/>
<path d="M12.5484 9.9436H9.37426C9.31884 9.9436 9.2735 9.98895 9.2735 10.0444V10.5935C9.2735 10.649 9.31884 10.6943 9.37426 10.6943H12.5484C12.6038 10.6943 12.6492 10.649 12.6492 10.5935V10.0444C12.6492 9.98895 12.6038 9.9436 12.5484 9.9436Z" fill="#A39E95"/>
</svg>
