<svg width="136" height="20" viewBox="0 0 136 20" fill="none" xmlns="http://www.w3.org/2000/svg">
<path d="M7 0.759998C9.496 0.759998 11.5333 0.994665 13.112 1.464C14.712 1.93333 15.9493 2.81867 16.824 4.12C17.72 5.42133 18.168 7.288 18.168 9.72C18.168 12.3227 17.6987 14.3067 16.76 15.672C15.8213 17.016 14.5627 17.912 12.984 18.36C11.4053 18.7867 9.41067 19 7 19H0.6V0.759998H7ZM11.288 14.648C11.544 14.392 11.7253 13.7307 11.832 12.664C11.9387 11.5973 11.992 10.616 11.992 9.72C11.992 8.58933 11.9067 7.69333 11.736 7.032C11.5867 6.34933 11.3093 5.80533 10.904 5.4C10.264 4.696 9.16533 4.344 7.608 4.344C7.33067 4.344 6.91467 4.36533 6.36 4.408V15.032C6.72267 15.0747 7.288 15.096 8.056 15.096C8.84533 15.096 9.53867 15.064 10.136 15C10.7547 14.9147 11.1387 14.7973 11.288 14.648ZM34.0163 15H28.7043L27.7443 19H21.8563L27.7443 0.759998H35.2643L40.8963 19H34.9763L34.0163 15ZM31.3283 4.696L29.4403 11.448H33.2483L31.4563 4.696H31.3283ZM51.0315 11.64V19H45.6875V0.759998H51.0955L55.9275 8.12C56.6528 9.208 57.2075 10.1253 57.5915 10.872H57.6875V7.8V0.759998H62.9995V19H57.5595L52.5995 11.32L51.1595 9.144H51.0635L51.0315 11.64ZM78.6117 19H72.8517V4.76H67.6997V0.759998H83.7638V4.76H78.6117V19ZM88.8383 0.759998H94.5983V19H88.8383V0.759998ZM106.286 5.688C106.286 6.136 106.51 6.488 106.958 6.744C107.427 7 108.152 7.27733 109.134 7.576C110.307 7.96 111.267 8.33333 112.014 8.696C112.782 9.05867 113.443 9.624 113.998 10.392C114.574 11.16 114.862 12.1627 114.862 13.4C114.862 17.368 112.28 19.352 107.118 19.352C106.264 19.352 105.219 19.2773 103.982 19.128C102.766 18.9787 101.656 18.7867 100.654 18.552C100.696 18.104 100.782 17.4533 100.91 16.6C101.059 15.7253 101.198 15.0747 101.326 14.648C102.072 14.7547 103.192 14.8827 104.686 15.032C106.2 15.1813 107.342 15.256 108.11 15.256C108.558 15.256 108.824 15.224 108.91 15.16C109.038 15.0747 109.134 14.936 109.198 14.744C109.283 14.5307 109.326 14.3493 109.326 14.2C109.326 13.7733 109.123 13.4533 108.718 13.24C108.312 13.0053 107.619 12.728 106.638 12.408C105.464 12.0453 104.494 11.672 103.726 11.288C102.958 10.904 102.286 10.3067 101.71 9.496C101.134 8.68533 100.846 7.61867 100.846 6.296C100.846 5.35733 101.059 4.44 101.486 3.544C101.912 2.62667 102.35 2.008 102.798 1.688C103.139 1.45333 103.843 1.22933 104.91 1.016C105.976 0.802666 106.979 0.695999 107.918 0.695999C110.307 0.695999 112.259 0.919999 113.774 1.368C113.752 1.79467 113.678 2.38133 113.55 3.128C113.443 3.87467 113.326 4.55733 113.198 5.176L112.462 5.144C109.688 4.952 107.918 4.856 107.15 4.856C106.83 4.856 106.648 4.86667 106.606 4.888C106.52 4.93067 106.446 5.02667 106.382 5.176C106.318 5.32533 106.286 5.496 106.286 5.688ZM129.899 19H124.139V4.76H118.987V0.759998H135.051V4.76H129.899V19Z" fill="#35ADE3"/>
</svg>
