<svg width="21" height="21" viewBox="0 0 21 21" fill="none" xmlns="http://www.w3.org/2000/svg">
<path d="M17.695 10.9008V1.74464H13.8971V0H13.0055V1.74464H9.29761V0H8.40171V1.74464H4.69381V0H3.79792V1.74464H0V16.9835H11.4538C12.0453 19.041 13.9228 20.5585 16.1304 20.5585C18.8095 20.5585 21 18.3252 21 15.5989C21.0043 13.4256 19.6154 11.5695 17.695 10.9008ZM0.895897 2.63625H3.79792V4.55664H4.68953V2.63625H8.40171V4.55664H9.29332V2.63625H13.0012V4.55664H13.8928V2.63625H16.8034V6.74709H0.895897V2.63625ZM11.2909 16.0918H0.895897V16.0876V7.64298H16.8034V10.6865C16.5848 10.6565 16.3619 10.6393 16.1347 10.6393C13.4556 10.6393 11.2652 12.8726 11.2652 15.5989C11.2652 15.7661 11.2737 15.929 11.2909 16.0918ZM16.1347 19.6626C13.9443 19.6626 12.1568 17.8322 12.1568 15.5946C12.1568 13.3613 13.9443 11.5266 16.1347 11.5266C18.3252 11.5266 20.1127 13.357 20.1127 15.5946C20.1127 17.8322 18.3209 19.6626 16.1347 19.6626Z" fill="#D0D5D9"/>
<path d="M15.6846 14.973H14.2529V15.8646H16.5805V12.3496H15.6846V14.973Z" fill="#D0D5D9"/>
</svg>
