<svg width="31" height="31" viewBox="0 0 31 31" fill="none" xmlns="http://www.w3.org/2000/svg">
<path d="M25.5032 0.701416C28.2646 0.701416 30.5032 2.93999 30.5032 5.70142V25.7014C30.5032 28.4628 28.2646 30.7014 25.5032 30.7014H5.50317C2.74175 30.7014 0.503174 28.4628 0.503174 25.7014V5.70142C0.503174 2.93999 2.74175 0.701416 5.50317 0.701416H25.5032ZM22.9526 8.9842L12.1698 19.767L8.05372 15.6509C7.56557 15.1627 6.77411 15.1627 6.28596 15.6509C5.7978 16.139 5.7978 16.9305 6.28596 17.4186L11.286 22.4186C11.7741 22.9068 12.5656 22.9068 13.0537 22.4186L24.7204 10.752C25.2085 10.2638 25.2085 9.47235 24.7204 8.9842C24.2322 8.49604 23.4408 8.49604 22.9526 8.9842Z" fill="#35ADE3"/>
</svg>
