<svg width="14" height="14" viewBox="0 0 14 14" fill="none" xmlns="http://www.w3.org/2000/svg">
<path d="M7.00001 0L6.22925 1.43333L7.00001 2.60739C8.44825 2.60739 9.62644 3.78561 9.62644 5.23381C9.62644 6.68202 8.44825 7.86023 7.00001 7.86023L6.42861 10.7653L7.00001 14C7.46015 14 7.92032 13.8211 8.26639 13.4633C9.81533 11.8618 12.2338 8.79162 12.2338 5.23384C12.2338 2.34325 9.89058 0 7.00001 0Z" fill="#35ADE3"/>
<path d="M4.37348 5.23381C4.37348 3.78563 5.55166 2.60739 6.9999 2.60739V0C4.10934 0 1.76611 2.34325 1.76611 5.23378C1.76611 8.79159 4.18459 11.8617 5.73353 13.4632C6.07959 13.8211 6.53976 13.9999 6.9999 13.9999V7.86023C5.55166 7.86023 4.37348 6.68202 4.37348 5.23381Z" fill="#63C8EE"/>
</svg>
