<svg width="25" height="25" viewBox="0 0 25 25" fill="none" xmlns="http://www.w3.org/2000/svg">
<path d="M12.5 12.5H5.68317V6.54981C5.68317 6.07118 6.07111 5.68323 6.54975 5.68323H12.5V12.5Z" fill="#35ADE3"/>
<path d="M12.5 12.5V5.68323H18.4502C18.9289 5.68323 19.3168 6.07118 19.3168 6.54981V12.5H12.5Z" fill="#35ADE3"/>
<path d="M12.5 12.5H5.68317V18.4502C5.68317 18.9289 6.07111 19.3168 6.54975 19.3168H12.5V12.5Z" fill="#35ADE3"/>
<path d="M12.5 12.5V19.3168H18.4502C18.9289 19.3168 19.3168 18.9289 19.3168 18.4502V12.5H12.5Z" fill="#E5E1D8"/>
<path d="M19.3168 12.4244H5.68317V12.5756H19.3168V12.4244Z" fill="#6FA4AD"/>
<path d="M12.5755 5.68323H12.4244V19.3168H12.5755V5.68323Z" fill="#6FA4AD"/>
<path d="M10.6459 8.71629H9.44177V7.51214C9.44177 7.45672 9.39643 7.41138 9.341 7.41138H8.78175C8.72633 7.41138 8.68099 7.45672 8.68099 7.51214V8.71629H7.4718C7.41638 8.71629 7.37103 8.76164 7.37103 8.81706V9.36623C7.37103 9.42165 7.41638 9.467 7.4718 9.467H8.68099V10.6863C8.68099 10.7417 8.72633 10.787 8.78175 10.787H9.341C9.39643 10.787 9.44177 10.7417 9.44177 10.6863V9.467H10.6459C10.7013 9.467 10.7467 9.42165 10.7467 9.36623V8.81706C10.7467 8.76164 10.7013 8.71629 10.6459 8.71629Z" fill="white"/>
<path d="M17.5484 8.71631H14.3743C14.3188 8.71631 14.2735 8.76165 14.2735 8.81707V9.36625C14.2735 9.42167 14.3188 9.46701 14.3743 9.46701H17.5484C17.6038 9.46701 17.6492 9.42167 17.6492 9.36625V8.81707C17.6492 8.76165 17.6038 8.71631 17.5484 8.71631Z" fill="white"/>
<path d="M10.4645 15.0041C10.4645 14.9789 10.4545 14.9537 10.4343 14.9336L10.0413 14.5406C10.001 14.5003 9.94056 14.5003 9.90026 14.5406L9.04879 15.3921L8.19732 14.5406C8.15701 14.5003 8.09655 14.5003 8.05624 14.5406L7.6683 14.9286C7.64814 14.9487 7.63807 14.9739 7.63807 14.9991C7.63807 15.0243 7.64814 15.0495 7.6683 15.0696L8.51977 15.9211L7.65822 16.7826C7.61791 16.8229 7.61791 16.8834 7.65822 16.9237L8.05121 17.3167C8.07136 17.3369 8.09655 17.3469 8.12174 17.3469C8.14693 17.3469 8.17213 17.3369 8.19228 17.3167L9.05383 16.4552L9.9053 17.3066C9.9456 17.3469 10.0061 17.3469 10.0464 17.3066L10.4343 16.9187C10.4545 16.8985 10.4645 16.8733 10.4645 16.8481C10.4645 16.8229 10.4545 16.7978 10.4343 16.7776L9.58285 15.9261L10.4343 15.0747C10.4545 15.0595 10.4645 15.0344 10.4645 15.0041Z" fill="white"/>
<path d="M17.5484 16.0823H14.3743C14.3188 16.0823 14.2735 16.1276 14.2735 16.183V16.7322C14.2735 16.7876 14.3188 16.833 14.3743 16.833H17.5484C17.6038 16.833 17.6492 16.7876 17.6492 16.7322V16.183C17.6492 16.1276 17.6038 16.0823 17.5484 16.0823Z" fill="#A39E95"/>
<path d="M17.5484 14.9436H14.3743C14.3188 14.9436 14.2735 14.9889 14.2735 15.0444V15.5935C14.2735 15.649 14.3188 15.6943 14.3743 15.6943H17.5484C17.6038 15.6943 17.6492 15.649 17.6492 15.5935V15.0444C17.6492 14.9889 17.6038 14.9436 17.5484 14.9436Z" fill="#A39E95"/>
</svg>
