<svg width="28" height="44" viewBox="0 0 28 44" fill="none" xmlns="http://www.w3.org/2000/svg">
<path d="M18.1251 33.5V31.3438C18.1251 28.7383 20.8355 26.2739 22.5938 24.5157C25.0722 22.0387 26.3751 18.7109 26.3751 14.8126C26.3751 7.62505 20.8983 1.87505 14.0001 1.87505C12.3737 1.87031 10.7624 2.20171 9.25898 2.8502C7.75553 3.49869 6.38952 4.45148 5.23949 5.65378C4.08946 6.85608 3.17809 8.28419 2.5578 9.85598C1.9375 11.4278 1.62051 13.1122 1.62505 14.8126C1.62505 18.5716 2.98372 22.1249 5.4063 24.5157C7.15513 26.2416 9.87505 28.7114 9.87505 31.3438V33.5M11.25 42.125H16.75M9.87505 37.8125H18.125M14 33.5V22M14 22C15.4172 22 17.2657 20.5625 17.2657 20.5625M14 22C12.5829 22 10.7344 20.5625 10.7344 20.5625" stroke="#EFCB6C" stroke-opacity="0.6" stroke-width="3" stroke-linecap="round" stroke-linejoin="round"/>
</svg>
