<svg width="209" height="69" viewBox="0 0 209 69" fill="none" xmlns="http://www.w3.org/2000/svg">
<path d="M78 27.76C80.496 27.76 82.5333 27.9947 84.112 28.464C85.712 28.9333 86.9493 29.8187 87.824 31.12C88.72 32.4213 89.168 34.288 89.168 36.72C89.168 39.3227 88.6987 41.3067 87.76 42.672C86.8213 44.016 85.5627 44.912 83.984 45.36C82.4053 45.7867 80.4107 46 78 46H71.6V27.76H78ZM82.288 41.648C82.544 41.392 82.7253 40.7307 82.832 39.664C82.9387 38.5973 82.992 37.616 82.992 36.72C82.992 35.5893 82.9067 34.6933 82.736 34.032C82.5867 33.3493 82.3093 32.8053 81.904 32.4C81.264 31.696 80.1653 31.344 78.608 31.344C78.3307 31.344 77.9147 31.3653 77.36 31.408V42.032C77.7227 42.0747 78.288 42.096 79.056 42.096C79.8453 42.096 80.5387 42.064 81.136 42C81.7547 41.9147 82.1387 41.7973 82.288 41.648ZM105.016 42H99.7043L98.7443 46H92.8563L98.7443 27.76H106.264L111.896 46H105.976L105.016 42ZM102.328 31.696L100.44 38.448H104.248L102.456 31.696H102.328ZM122.032 38.64V46H116.688V27.76H122.096L126.928 35.12C127.653 36.208 128.208 37.1253 128.592 37.872H128.688V34.8V27.76H134V46H128.56L123.6 38.32L122.16 36.144H122.064L122.032 38.64ZM149.612 46H143.852V31.76H138.7V27.76H154.764V31.76H149.612V46ZM159.838 27.76H165.598V46H159.838V27.76ZM177.286 32.688C177.286 33.136 177.51 33.488 177.958 33.744C178.427 34 179.152 34.2773 180.134 34.576C181.307 34.96 182.267 35.3333 183.014 35.696C183.782 36.0587 184.443 36.624 184.998 37.392C185.574 38.16 185.862 39.1627 185.862 40.4C185.862 44.368 183.28 46.352 178.118 46.352C177.264 46.352 176.219 46.2773 174.982 46.128C173.766 45.9787 172.656 45.7867 171.654 45.552C171.696 45.104 171.782 44.4533 171.91 43.6C172.059 42.7253 172.198 42.0747 172.326 41.648C173.072 41.7547 174.192 41.8827 175.686 42.032C177.2 42.1813 178.342 42.256 179.11 42.256C179.558 42.256 179.824 42.224 179.91 42.16C180.038 42.0747 180.134 41.936 180.198 41.744C180.283 41.5307 180.326 41.3493 180.326 41.2C180.326 40.7733 180.123 40.4533 179.718 40.24C179.312 40.0053 178.619 39.728 177.638 39.408C176.464 39.0453 175.494 38.672 174.726 38.288C173.958 37.904 173.286 37.3067 172.71 36.496C172.134 35.6853 171.846 34.6187 171.846 33.296C171.846 32.3573 172.059 31.44 172.486 30.544C172.912 29.6267 173.35 29.008 173.798 28.688C174.139 28.4533 174.843 28.2293 175.91 28.016C176.976 27.8027 177.979 27.696 178.918 27.696C181.307 27.696 183.259 27.92 184.774 28.368C184.752 28.7947 184.678 29.3813 184.55 30.128C184.443 30.8747 184.326 31.5573 184.198 32.176L183.462 32.144C180.688 31.952 178.918 31.856 178.15 31.856C177.83 31.856 177.648 31.8667 177.606 31.888C177.52 31.9307 177.446 32.0267 177.382 32.176C177.318 32.3253 177.286 32.496 177.286 32.688ZM200.899 46H195.139V31.76H189.987V27.76H206.051V31.76H200.899V46Z" fill="#35ADE3"/>
<path d="M51.75 51.75C61.2769 42.2231 61.2769 26.7769 51.75 17.25C42.2231 7.72308 26.7769 7.72309 17.25 17.25C7.72309 26.7769 7.72309 42.2231 17.25 51.75C26.7769 61.2769 42.2231 61.2769 51.75 51.75Z" fill="#35ADE3"/>
<path fill-rule="evenodd" clip-rule="evenodd" d="M26.8267 57.6616C31.1759 59.1019 35.8429 59.2887 40.2933 58.2006C44.7438 57.1124 48.798 54.7933 51.992 51.5085C55.1859 48.2238 57.3906 44.1062 58.3537 39.627C59.3168 35.1478 58.9993 30.488 57.4377 26.1807C56.6559 25.4677 55.7665 24.8826 54.8022 24.4469C54.6809 24.8717 52.606 31.7348 45.5551 33.7836C38.7237 35.7689 33.4182 31.4343 33.0165 31.0933C32.0712 31.4357 31.1692 31.8876 30.329 32.4399C29.4633 33.0153 28.6714 33.6946 27.971 34.4627C22.0644 40.7537 21.3246 40.7104 21.1512 41.9761C20.4924 46.6141 29.8031 49.5934 29.02 54.402C28.7512 56.0202 27.4711 56.9102 26.8267 57.6616Z" fill="white"/>
<path d="M49.7785 44.7909C49.5618 46.7231 48.8458 48.5655 47.7008 50.1369C48.0861 50.921 48.4772 51.7022 48.8741 52.4805L46.308 54.7923L43.0426 52.992L43.7795 50.3277C42.293 49.3913 41.0932 48.0635 40.3118 46.4901C40.6764 46.1083 41.0814 45.7672 41.5197 45.4729C44.6868 43.3547 48.6313 44.4326 49.7785 44.7909Z" fill="#F2D52F" stroke="black" stroke-width="0.1" stroke-miterlimit="10"/>
<path d="M34.2173 39.3783C34.0342 40.5032 33.9789 41.6451 34.0526 42.7824C34.1206 43.9162 34.3244 45.0377 34.6594 46.1229C34.9881 47.2088 35.4308 48.2569 35.9801 49.2496C36.5344 50.2384 37.1776 51.1747 37.9017 52.0469L37.6561 52.1452C37.6037 51.2402 37.7173 50.3333 37.9913 49.4693C38.2658 48.6024 38.7376 47.8111 39.3697 47.1575C39.6818 46.8309 40.0199 46.5362 40.3551 46.2472C40.6906 45.9532 41.0407 45.6764 41.4041 45.4178C42.1315 44.8986 42.9054 44.4478 43.7159 44.0712C42.935 44.4912 42.1899 44.9745 41.4879 45.5161C41.1411 45.7906 40.8001 46.0738 40.4736 46.383C40.1471 46.6922 39.8205 46.9812 39.5258 47.3049C38.94 47.9538 38.5013 48.7217 38.2398 49.556C37.9849 50.3978 37.887 51.2794 37.9509 52.1567L37.974 52.5671L37.7052 52.2521C36.9601 51.3726 36.3075 50.4188 35.7576 49.4057C35.2089 48.3956 34.7691 47.33 34.4456 46.227C34.1359 45.118 33.9584 43.9764 33.9168 42.8258C33.8734 41.6686 33.9743 40.5105 34.2173 39.3783V39.3783Z" fill="black"/>
<path d="M33.665 34.9512C33.3067 38.4825 34.5955 40.1961 35.029 40.7018C36.0809 41.8443 37.3362 42.7811 38.7308 43.4644C39.3525 43.7151 39.9361 44.0517 40.4646 44.4643C41.4269 45.2676 41.4818 45.8484 42.2158 46.4524C43.2359 47.2933 44.5276 47.3193 45.0217 47.3193C46.9954 47.3511 49.0124 46.2357 49.8331 44.7474C50.0512 44.2703 50.3103 43.8129 50.6076 43.3806C51.0307 42.8084 51.5294 42.2961 52.09 41.8577C53.0648 40.9784 53.8956 39.9516 54.5521 38.8148C55.3279 37.4188 55.7048 35.8362 55.6415 34.2404C55.9531 34.1255 56.2181 33.9112 56.3957 33.6306C56.9014 32.781 56.0721 31.8303 56.6211 30.7409C56.7974 30.397 56.861 30.5299 57.0604 30.1629C57.5516 29.2469 57.0604 28.6516 57.3782 27.5362C57.4881 27.1605 57.4996 27.3772 58.0024 26.282C58.4619 25.2851 58.5804 24.7967 58.4619 24.3112C58.4205 24.0938 58.2974 23.9005 58.118 23.7708C58.0111 23.71 57.8928 23.672 57.7704 23.659C57.6481 23.6461 57.5244 23.6586 57.4071 23.6957C57.4071 23.6668 57.4303 23.4963 57.4332 23.4703L57.5805 22.2075C56.46 20.7569 54.988 19.6161 53.3037 18.893C52.7836 18.6762 51.2347 18.0838 46.6573 18.3526C42.3054 18.6098 39.5254 18.7716 36.3669 20.4534C34.6295 21.3875 33.0656 22.6133 31.7434 24.0771L31.8821 25.0192C31.0701 25.0914 30.7609 25.3746 30.6221 25.5972C30.2436 26.1751 30.677 26.9062 31.7347 29.5965C32.3126 31.0645 32.6016 31.7956 32.6392 32.1337C32.7779 33.3272 32.5091 34.3675 33.1073 34.7923C33.2723 34.9017 33.4672 34.9573 33.665 34.9512V34.9512Z" fill="#F9EDD3" stroke="black" stroke-width="0.1" stroke-miterlimit="10"/>
<path opacity="0.7" d="M44.8239 39.3928L43.6362 39.2396C44.4251 39.0778 44.6303 38.8784 44.6563 38.7137C44.6823 38.549 44.6043 38.3756 44.7141 38.2889C44.746 38.2662 44.7848 38.255 44.8239 38.2571C44.6873 38.1846 44.5725 38.0769 44.4916 37.9451C44.3813 37.7198 44.3557 37.4623 44.4193 37.2197C44.4345 37.1092 44.4647 37.0013 44.5089 36.899C44.639 36.61 44.7545 36.5349 44.7314 36.4337C44.6967 36.2546 44.2777 36.2459 43.9916 36.1592C43.6391 36.0552 43.1825 35.7488 42.778 34.8212C43.0605 35.1748 43.4175 35.4617 43.8236 35.6615C44.2297 35.8613 44.6748 35.9691 45.1273 35.9771C45.2052 35.9828 45.2835 35.9828 45.3614 35.9771C46.578 35.9309 47.4044 34.5005 47.6529 34.0323C47.5819 34.471 47.4087 34.8868 47.1472 35.246C46.7757 35.7436 46.2523 36.1067 45.6561 36.2806C45.4426 36.523 45.3103 36.8261 45.2776 37.1475C45.2676 37.3842 45.3101 37.6201 45.4021 37.8384C45.494 38.0567 45.6331 38.252 45.8093 38.4103C46.0721 38.6437 46.3962 38.7971 46.7434 38.8523C47.0905 38.9076 47.4462 38.8626 47.7685 38.7224C46.8821 39.2505 45.8518 39.4861 44.8239 39.3957V39.3928Z" fill="#E8D2A5"/>
<path d="M36.2081 21.3809C42.1191 19.8608 48.2668 19.4881 54.3181 20.2828C53.395 19.9032 52.4444 19.5941 51.4746 19.3581C44.9872 17.7745 39.2135 19.936 36.2081 21.3809Z" fill="#E8D2A5"/>
<path d="M32.2509 28.4579C32.2278 28.7051 32.2533 28.9545 32.3261 29.1919C32.4561 29.6138 32.6873 29.8161 32.7306 30.3015C32.739 30.3977 32.739 30.4944 32.7306 30.5905C32.7075 30.9662 32.852 31.6337 33.5138 32.9023L33.1323 29.923L32.2509 28.4579Z" fill="#E8D2A5"/>
<path d="M56.4157 27.0708C56.7827 28.2614 56.6613 28.8624 56.4591 29.1919C56.2314 29.521 56.0921 29.9031 56.0545 30.3015C56.0478 30.3977 56.0478 30.4943 56.0545 30.5905C56.0718 30.9431 55.9707 31.5123 55.4303 32.4602C55.4119 31.9653 55.4497 31.4699 55.543 30.9835C55.6106 30.6351 55.7073 30.2929 55.832 29.9605L56.4157 27.0708Z" fill="#E8D2A5"/>
<path d="M35.3067 24.1666C35.5215 23.7477 35.8676 23.4106 36.2921 23.2072C36.6966 22.9976 37.149 22.898 37.6041 22.9182C39.0085 22.9558 39.9592 24.0481 40.1557 24.2822C39.5833 23.9718 38.9706 23.7422 38.3352 23.6002C37.7919 23.4788 37.422 23.4702 37.2255 23.6753C37.1273 23.7765 37.1619 23.84 37.0492 23.9787C36.8614 24.2099 36.5955 24.2475 36.1158 24.3573C35.8962 24.4064 35.5668 24.4873 35.1536 24.6087C35.1866 24.4557 35.238 24.3072 35.3067 24.1666Z" fill="#E8D2A5"/>
<path d="M53.4605 22.9299C53.2336 22.9248 53.0102 22.8727 52.8045 22.7768C52.6561 22.701 52.5198 22.6036 52.3999 22.4878C52.0185 22.1989 51.4059 22.3 50.9377 22.3867C50.0556 22.5774 49.2242 22.9537 48.4988 23.4906C48.6777 23.4863 48.8562 23.4718 49.0334 23.4472C49.7674 23.3432 49.9292 23.1207 50.5332 23.0716C50.8235 23.0537 51.115 23.074 51.4001 23.1322C51.718 23.1871 51.7729 23.2363 52.2323 23.3345C52.5069 23.3923 53.1339 23.5223 53.1917 23.3836C53.2119 23.3374 53.1513 23.2998 53.1657 23.242C53.1946 23.1207 53.472 23.0773 53.7812 23.0629L53.4605 22.9299Z" fill="#E8D2A5"/>
<path d="M39.7742 25.6056C39.9591 25.5767 40.4446 25.5016 40.7105 25.7703C40.9763 26.0391 40.7105 26.4667 40.9995 26.8684C41.2884 27.2701 41.9213 27.2267 41.9213 27.4117C41.9213 27.5966 41.4589 27.614 40.5111 28.1804L40.4677 28.2064C39.6991 28.66 39.2772 28.4693 38.9535 28.7843C38.7223 29.0097 38.8697 29.1715 38.6645 29.316C38.156 29.6888 36.6417 28.9577 36.1563 27.7729C36.0754 27.5684 36.0248 27.3533 36.006 27.1343C37.6156 26.7962 38.4102 26.3743 38.8408 26.0333C39.1091 25.8115 39.431 25.664 39.7742 25.6056Z" fill="#E8D2A5"/>
<path d="M50.7001 24.2418C50.1464 24.1646 49.5822 24.2427 49.0703 24.4672C48.9951 25.4584 48.9171 25.7011 48.8593 25.7271C48.8037 25.7473 48.7504 25.7735 48.7004 25.8051L48.6368 25.8485C48.5095 25.9315 48.3739 26.0013 48.2322 26.0566C48.0271 26.149 47.9259 26.1953 47.9231 26.2242C47.9057 26.3571 48.397 26.438 49.3332 26.9957L49.3737 27.0188C50.7694 27.8598 50.9631 28.1516 51.3243 28.114C51.6855 28.0765 51.5844 27.7384 52.2663 27.3223C52.9483 26.9061 53.3991 27.0188 53.6765 26.5912C53.7923 26.3983 53.8449 26.1739 53.8268 25.9496C53.4858 25.7127 53.0119 25.3948 52.4339 25.0509C51.2636 24.3516 50.8966 24.2736 50.7001 24.2418Z" fill="#E8D2A5"/>
<path d="M57.2345 23.9007C56.9321 24.0732 56.6661 24.3029 56.4514 24.5769C56.0642 25.0899 55.8652 25.7205 55.8879 26.3628C55.5007 25.308 55.1308 24.4758 54.8678 23.9123C54.2349 22.5686 53.839 21.9877 53.9778 21.1873C54.0798 20.6834 54.3364 20.2238 54.7117 19.8724L57.7142 21.2046C57.6188 21.5485 57.5235 21.8953 57.4252 22.242L57.2345 23.9007Z" fill="#595959"/>
<path d="M34.5905 22.222C34.6676 22.8753 34.5872 23.5376 34.3559 24.1535C34.1246 24.7693 33.7493 25.3209 33.2612 25.762C33.0533 25.511 32.7774 25.3254 32.4666 25.2274C32.3288 25.1849 32.1859 25.1616 32.0418 25.158C32.0273 25.0597 32.0042 24.9153 31.9782 24.739C31.9377 24.4731 31.9031 24.2564 31.8915 24.1842C31.8135 23.7102 31.669 23.1207 31.6025 22.8433L34.4403 21.3638L34.5905 22.222Z" fill="#595959"/>
<path d="M42.4305 32.5557C42.1074 32.6077 41.8123 32.7701 41.5954 33.0151C41.4885 33.1296 41.4111 33.2683 41.3698 33.4193C41.3286 33.5704 41.3246 33.7292 41.3584 33.8821C41.4019 34.0294 41.4758 34.1659 41.5753 34.2829C41.6749 34.3999 41.7979 34.4947 41.9364 34.5611C42.21 34.6981 42.5236 34.7329 42.8206 34.6594L42.8986 34.6421L42.9478 34.7085C43.2298 35.098 43.6055 35.4101 44.0401 35.6159C44.4721 35.8106 44.9547 35.8632 45.4185 35.7662C45.8875 35.6717 46.3226 35.4531 46.6784 35.1333C46.8569 34.9717 47.0177 34.7915 47.1581 34.5958C47.2946 34.3971 47.4126 34.1862 47.5107 33.9659L47.5453 33.8878H47.6263C47.9012 33.9112 48.1773 33.8613 48.4267 33.7434C48.6745 33.6265 48.8687 33.42 48.97 33.1654C49.0739 32.9013 49.0921 32.6111 49.022 32.3361C48.9514 32.0529 48.8067 31.7936 48.603 31.5847C48.8255 31.7752 48.9897 32.0246 49.0769 32.3043C49.1731 32.5971 49.1731 32.913 49.0769 33.2059C48.9763 33.5077 48.7644 33.7598 48.4845 33.911C48.2052 34.0576 47.8925 34.1293 47.5771 34.119L47.6956 34.0468C47.5087 34.5327 47.212 34.9688 46.8287 35.3211C46.4414 35.6794 45.9656 35.9278 45.4503 36.0407C44.9273 36.149 44.3833 36.083 43.9014 35.8529C43.4292 35.6222 43.0228 35.2764 42.7195 34.8472L42.8466 34.8935C42.4927 34.9684 42.1235 34.9109 41.8092 34.7316C41.653 34.6461 41.5163 34.5289 41.4078 34.3876C41.2994 34.2463 41.2215 34.084 41.1793 33.911C41.1497 33.7376 41.1638 33.5597 41.2203 33.3932C41.2768 33.2267 41.3739 33.0769 41.5029 32.9573C41.7501 32.7108 42.0816 32.5673 42.4305 32.5557Z" fill="black"/>
<path d="M43.8743 29.6514C43.5378 29.1716 43.3369 28.6101 43.2926 28.0258C43.2484 27.4415 43.3625 26.856 43.6229 26.3311C43.7385 26.0407 43.9402 25.7926 44.2008 25.6202C44.3498 25.5382 44.5199 25.503 44.6892 25.5191C44.8511 25.5385 45.0058 25.597 45.14 25.6896C45.3952 25.8619 45.6077 26.0902 45.7613 26.3571C45.9171 26.6256 45.9979 26.931 45.9954 27.2413C45.9825 27.8076 46.0047 28.3741 46.0618 28.9376C46.1244 29.4935 46.2665 30.0375 46.4837 30.553C46.5924 30.8084 46.7311 31.05 46.897 31.2725C47.0887 31.491 47.2536 31.7316 47.3882 31.9892C47.6105 32.5273 47.6785 33.1167 47.5847 33.6913C47.6238 33.1261 47.5121 32.5606 47.2611 32.0528C47.1197 31.8101 46.9489 31.5859 46.7525 31.3852C46.5679 31.1573 46.4099 30.9091 46.2814 30.6455C45.7613 29.5849 45.7035 28.377 45.7035 27.25C45.7124 26.9858 45.6495 26.7242 45.5214 26.4929C45.3899 26.2646 45.2105 26.0674 44.9955 25.9149C44.9011 25.8403 44.7873 25.7941 44.6675 25.7818C44.5477 25.7695 44.4269 25.7916 44.3193 25.8456C44.1044 25.9905 43.9319 26.19 43.8194 26.4235C43.5604 26.9182 43.4274 27.469 43.4322 28.0273C43.4531 28.5954 43.6044 29.1511 43.8743 29.6514Z" fill="black"/>
<path d="M44.6817 36.5175C44.6009 36.7127 44.5418 36.9162 44.5054 37.1243C44.4649 37.3265 44.4649 37.5347 44.5054 37.7369C44.5166 37.8326 44.5508 37.9241 44.6052 38.0037C44.6595 38.0832 44.7324 38.1483 44.8175 38.1935C45.0153 38.252 45.2266 38.247 45.4214 38.1791C45.3283 38.2416 45.2233 38.2844 45.1129 38.3048C45.0026 38.3252 44.8893 38.3227 44.7799 38.2975C44.669 38.2547 44.5718 38.1826 44.4986 38.089C44.4253 37.9954 44.3787 37.8837 44.3638 37.7658C44.3206 37.545 44.3315 37.3169 44.3956 37.1012C44.4542 36.8907 44.5512 36.6928 44.6817 36.5175V36.5175Z" fill="black"/>
<path d="M37.4615 37.0809C37.3015 37.497 37.1966 37.9322 37.1494 38.3755C37.1165 38.8209 37.1408 39.2685 37.2216 39.7077C36.9464 39.3115 36.8196 38.831 36.8635 38.3507C36.9073 37.8703 37.1191 37.4207 37.4615 37.0809V37.0809Z" fill="black"/>
<path d="M50.1984 33.2347C50.2313 33.645 50.3621 34.0414 50.5798 34.3906C50.8043 34.7409 51.1095 35.0323 51.4698 35.2402C51.0496 35.113 50.6895 34.8383 50.4558 34.4666C50.2222 34.0949 50.1307 33.6512 50.1984 33.2174V33.2347Z" fill="black"/>
<path d="M40.9315 33.0757C40.8615 33.586 40.6432 34.0646 40.3036 34.4519C39.964 34.8393 39.5182 35.1184 39.0214 35.2545C39.4661 35.0323 39.8643 34.7273 40.1946 34.3558C40.5213 33.9812 40.7716 33.5463 40.9315 33.0757Z" fill="black"/>
<path d="M47.4241 23.4615C47.6179 23.4014 47.7977 23.3032 47.9529 23.1725C48.0974 23.0223 48.1494 22.8547 48.2419 22.8835C48.3343 22.9124 48.3026 23.0367 48.3806 23.0569C48.4586 23.0772 48.5684 22.7969 48.8198 22.7275C48.9845 22.6842 49.0308 22.7853 49.1608 22.7275C49.2908 22.6697 49.3053 22.4703 49.5018 22.3576C49.5827 22.3114 49.6029 22.3345 49.7272 22.294C50.1318 22.1698 50.204 21.8548 50.4843 21.8606C50.5883 21.8606 50.5855 21.9068 50.7242 21.9097C50.8672 21.8973 51.0075 21.8632 51.1403 21.8086C51.3339 21.7681 51.4004 21.849 51.6575 21.8808C52.0303 21.9299 52.0448 21.7826 52.3424 21.8201C52.7065 21.8635 52.6603 22.0802 53.3018 22.3778C53.3914 22.4212 53.6052 22.5137 53.5908 22.6033C53.5763 22.6928 53.4983 22.6668 53.4896 22.7188C53.4636 22.8518 53.9809 23.0078 53.9636 23.0916C53.9462 23.1754 53.6746 23.1667 53.3654 23.1118C53.0834 23.043 52.8114 22.9381 52.5563 22.7998C52.0761 22.5716 51.5393 22.4902 51.0131 22.5657C50.8336 22.621 50.6571 22.6857 50.4843 22.7593C49.3804 23.187 48.947 23.3835 48.947 23.3835C48.8063 23.4576 48.6518 23.5018 48.4933 23.5135C48.2823 23.5135 48.2274 23.4528 47.976 23.4384C47.6524 23.4037 47.4327 23.4875 47.4241 23.4615Z" fill="#595959"/>
<path d="M41.0126 24.4643C40.8446 24.2932 40.7025 24.0985 40.5907 23.8863C40.5242 23.739 40.4924 23.5974 40.4375 23.5974C40.3826 23.5974 40.374 23.8054 40.2873 23.8343C40.1341 23.8806 39.9983 23.2853 39.4579 22.8258C39.0909 22.5195 38.88 22.5744 38.6459 22.2479C38.5852 22.167 38.4927 22.0225 38.3772 22.0311C38.2616 22.0398 38.2471 22.2016 38.0882 22.2508C37.9292 22.2999 37.7819 22.1207 37.5651 22.1843C37.4929 22.2074 37.49 22.2334 37.3975 22.2883C37.2069 22.3702 37.001 22.4106 36.7936 22.4068C36.5599 22.4535 36.3444 22.5657 36.1723 22.7304C35.8833 22.9934 35.9324 23.1812 35.6695 23.3084C35.4816 23.3951 35.3025 23.3691 35.2649 23.4789C35.2273 23.5887 35.3516 23.6465 35.3169 23.7303C35.2649 23.8603 34.9499 23.7939 34.9152 23.9008C34.8806 24.0077 35.0915 24.0713 35.0828 24.2042C35.0828 24.4007 34.6031 24.4672 34.6147 24.5597C34.6263 24.6521 35.0597 24.7619 35.3054 24.5597C35.473 24.4296 35.421 24.2534 35.6232 24.1204C35.7706 24.0222 35.8544 24.0857 36.0076 24.0019C36.2243 23.8835 36.2272 23.6638 36.3428 23.4789C36.6722 22.9501 37.7038 23.0397 37.8223 23.0512C38.2379 23.1059 38.6343 23.2595 38.9782 23.4991C39.7642 23.9817 40.1919 24.6319 40.3797 24.5192C40.4751 24.4643 40.4144 24.2678 40.53 24.2158C40.6947 24.158 40.9837 24.4845 41.0126 24.4643Z" fill="#595959"/>
<path d="M40.4701 21.6379C40.9923 21.9534 41.5942 22.1119 42.2039 22.0945C42.359 22.0716 42.5154 22.0581 42.6721 22.0541C42.8357 22.0603 42.9979 22.0875 43.1547 22.135C43.4515 22.2449 43.7301 22.3988 43.9811 22.5916C44.099 22.6684 44.2313 22.7204 44.3699 22.7442C44.5086 22.7681 44.6506 22.7633 44.7874 22.7303C45.0619 22.6493 45.3653 22.5106 45.6543 22.4413C46.2598 22.2925 46.8859 22.2466 47.5066 22.3055C46.894 22.3269 46.2864 22.424 45.6976 22.5944C45.4087 22.684 45.1399 22.8025 44.8307 22.9065C44.6676 22.9503 44.4972 22.9601 44.3302 22.9353C44.1632 22.9104 44.003 22.8514 43.8598 22.7621C43.6264 22.5719 43.3652 22.4189 43.0853 22.3084C42.9472 22.2615 42.8033 22.2342 42.6576 22.2274C42.5189 22.2274 42.3687 22.2448 42.2039 22.2477C41.5745 22.2415 40.9648 22.0271 40.4701 21.6379V21.6379Z" fill="black"/>
<path d="M31.2117 26.9524C31.2162 26.7598 31.2625 26.5705 31.3475 26.3976C31.3641 26.3705 31.3896 26.35 31.4197 26.3398C31.4377 26.3353 31.4564 26.335 31.4745 26.339C31.4926 26.343 31.5094 26.3512 31.5238 26.3629C31.5653 26.3982 31.5979 26.4428 31.6191 26.493C31.6597 26.5795 31.6954 26.6683 31.726 26.7588C31.8474 27.1114 31.9601 27.4639 32.1075 27.7991C32.249 28.1347 32.4171 28.4584 32.6103 28.7672C32.8357 29.0743 33.0293 29.4035 33.1883 29.7497C33.3306 30.1087 33.4145 30.4882 33.4368 30.8738L33.4801 31.4315C33.5003 31.6165 33.5177 31.8014 33.535 31.9864L33.6333 33.096C33.6564 33.4659 33.6882 33.8387 33.7026 34.2115C33.6246 33.8474 33.5639 33.4804 33.4946 33.1134L33.3125 32.0095C33.2461 31.6425 33.2027 31.2697 33.1651 30.8998C33.1492 30.7211 33.1221 30.5435 33.0842 30.3681C33.0411 30.194 32.9861 30.0231 32.9195 29.8566C32.7698 29.5252 32.5889 29.2087 32.3791 28.9117C32.1853 28.585 32.0256 28.2393 31.9023 27.88C31.7752 27.5246 31.6827 27.1576 31.5931 26.7993C31.57 26.7097 31.5498 26.6201 31.5209 26.5363C31.5095 26.4993 31.4909 26.4648 31.466 26.4352C31.4486 26.4178 31.4371 26.412 31.4053 26.4352C31.3126 26.5957 31.2472 26.7705 31.2117 26.9524V26.9524Z" fill="black"/>
<path d="M57.6958 24.6724C57.4964 25.0162 57.2884 25.3543 57.1179 25.704C56.925 26.0467 56.7532 26.4009 56.6035 26.7645C56.4521 27.1217 56.3463 27.4964 56.2885 27.88L56.092 29.0561C56.014 29.4462 55.9475 29.8421 55.8551 30.2293L55.6961 30.8073C55.6469 30.9973 55.6102 31.1904 55.5863 31.3852C55.5379 31.7753 55.5157 32.1683 55.5199 32.5614C55.5199 32.9572 55.5199 33.3531 55.5199 33.7519C55.3752 32.9641 55.3199 32.1624 55.3551 31.3621C55.367 31.1578 55.396 30.9548 55.4418 30.7553L55.5805 30.1773C55.6643 29.793 55.725 29.4029 55.8002 29.0214L56.0111 27.8655C56.0816 27.4638 56.2101 27.0744 56.3926 26.7096C56.7455 25.9817 57.183 25.298 57.6958 24.6724V24.6724Z" fill="black"/>
<path d="M31.3503 20.2829C31.3127 19.1819 31.3069 18.63 31.1364 18.0607C30.8041 16.9511 30.3909 16.873 30.2522 16.061C29.9892 14.5324 31.1856 13.1973 31.2636 13.1106C31.6624 12.68 32.0207 12.498 34.0348 11.6831C35.7225 11.0011 36.5663 10.6601 37.0084 10.5098C39.0168 9.81918 40.6437 9.25857 42.7098 9.06496C44.0247 8.94359 44.9263 9.0274 46.7237 9.19789C49.8186 9.48686 50.1567 9.89431 55.8842 11.6137C56.4689 11.7574 56.9857 12.0995 57.3464 12.5818C57.505 12.8122 57.6042 13.0782 57.6353 13.3562C57.6535 13.705 57.5669 14.0511 57.3868 14.3503C56.6731 15.6882 58.0948 18.2572 57.6498 21.7972C57.6238 21.9994 57.5978 22.1613 57.5862 22.2422C56.6816 21.4378 55.6642 20.77 54.5664 20.2598C50.9225 18.578 47.0965 19.0635 43.6548 19.5027C42.7676 19.6154 41.8632 19.7917 41.8632 19.7917C40.7622 19.994 39.8837 20.2136 39.1641 20.3927C36.9882 20.9447 35.8698 21.2597 34.5781 21.9821C33.5215 22.5665 32.559 23.3069 31.7231 24.1783C31.5827 23.7249 31.4784 23.2611 31.411 22.7912C31.2954 21.8752 31.3878 21.5168 31.3503 20.2829Z" fill="white" stroke="black" stroke-width="0.1" stroke-miterlimit="10"/>
<path d="M40.5227 26.9929C40.2866 27.3926 39.9587 27.7304 39.5662 27.9783C39.2149 28.2023 38.8178 28.3445 38.4041 28.3945C37.9905 28.4445 37.5709 28.401 37.1764 28.2672C37.0404 28.214 36.9105 28.1462 36.7891 28.065C36.4448 27.8272 36.1792 27.4922 36.0262 27.1027L36.2545 26.9091C36.3873 26.7365 36.5485 26.588 36.7313 26.4698C37.0001 26.2935 37.3815 26.23 38.1358 26.1086C38.5923 26.0335 38.757 26.0248 38.942 26.1086C39.1137 26.197 39.2637 26.3224 39.3812 26.4756C39.6997 26.7609 40.0982 26.9415 40.5227 26.9929Z" fill="white"/>
<path d="M53.6144 25.8195L53.8745 25.964L53.6057 26.1865C53.2752 26.2322 52.9553 26.3359 52.6608 26.4928C52.0452 26.8194 52.0626 27.1084 51.6465 27.1922C51.2303 27.276 50.7795 27.0795 50.1814 26.8252C50.1293 26.8049 49.9993 26.7472 49.8144 26.6836C49.6203 26.6156 49.4225 26.5586 49.222 26.5131C49.1584 26.3484 49.115 26.3079 49.0833 26.3108C49.0515 26.3137 49.0457 26.3484 49.0255 26.3426C49.0052 26.3368 48.9735 26.2357 48.9706 26.2154C48.9378 26.0557 48.8607 25.9085 48.748 25.7906L49.2653 25.5739C49.3423 25.4936 49.4119 25.4065 49.4734 25.3138C49.5726 25.1483 49.6567 24.9742 49.7248 24.7937C49.9531 24.3804 50.7189 24.3862 50.8258 24.3862C51.2996 24.4188 51.755 24.5829 52.1406 24.8602C52.3053 24.9584 52.3198 24.9844 52.6463 25.204C53.0509 25.4843 53.389 25.6837 53.6144 25.8195Z" fill="white"/>
<path d="M36.9897 28.1689C37.4078 28.3192 37.8528 28.3803 38.2959 28.3481C38.7379 28.3053 39.168 28.1809 39.5645 27.9811C39.3915 28.1274 39.1964 28.2454 38.9866 28.3307C38.7724 28.4179 38.5464 28.4724 38.3161 28.4926C37.8504 28.5338 37.3841 28.42 36.9897 28.1689V28.1689Z" fill="black"/>
<path d="M37.2289 26.2993C37.0758 26.4392 36.9741 26.6264 36.9399 26.831C36.9278 26.963 36.9432 27.0961 36.9849 27.2219C37.0267 27.3477 37.094 27.4635 37.1827 27.5621C37.3671 27.7809 37.623 27.9273 37.9051 27.9753C38.1072 28.0136 38.3152 28.0076 38.5148 27.9578C38.7143 27.9079 38.9007 27.8153 39.061 27.6864C39.2439 27.5347 39.3685 27.3243 39.4135 27.0911C39.427 26.9083 39.3968 26.7249 39.3255 26.5561C39.2541 26.3873 39.1437 26.2378 39.0032 26.1201" fill="#8EBADA"/>
<path d="M37.2289 26.2993C37.0758 26.4392 36.9741 26.6264 36.9399 26.831C36.9278 26.963 36.9432 27.0961 36.9849 27.2219C37.0267 27.3477 37.094 27.4635 37.1827 27.5621C37.3671 27.7809 37.623 27.9273 37.9051 27.9753C38.1072 28.0136 38.3152 28.0076 38.5148 27.9578C38.7143 27.9079 38.9007 27.8153 39.061 27.6864C39.2439 27.5347 39.3685 27.3243 39.4135 27.0911C39.427 26.9083 39.3968 26.7249 39.3255 26.5561C39.2541 26.3873 39.1437 26.2378 39.0032 26.1201" stroke="black" stroke-width="0.1" stroke-miterlimit="10"/>
<path d="M49.1558 26.4957C49.5571 26.5589 49.9524 26.6556 50.3377 26.7846C50.5313 26.8482 50.7191 26.9262 50.9156 27.0043C51.0863 27.094 51.2749 27.1443 51.4676 27.1516C51.8519 27.1516 52.1149 26.7789 52.4819 26.591C52.8387 26.3844 53.2305 26.2453 53.6378 26.1807C53.2539 26.2981 52.8882 26.4683 52.5512 26.6864C52.3836 26.7991 52.2304 26.9175 52.0715 27.0476C51.9117 27.1921 51.7084 27.2795 51.4936 27.2961C51.2802 27.2851 51.072 27.2268 50.8838 27.1256C50.7018 27.0418 50.5139 26.9667 50.329 26.8887C49.9244 26.7471 49.543 26.617 49.1558 26.4957Z" fill="black"/>
<path d="M52.4241 25.0595C52.1469 24.8361 51.8369 24.6568 51.5051 24.5278C51.2067 24.4136 50.8933 24.3435 50.5746 24.3197L50.3492 24.4758C50.2106 24.6078 50.1 24.7665 50.024 24.9422C49.948 25.118 49.9083 25.3072 49.9071 25.4987C49.9262 25.8018 50.0438 26.0903 50.242 26.3204C50.4403 26.5505 50.7083 26.7094 51.0052 26.7731C51.1809 26.8142 51.3634 26.8171 51.5404 26.7817C51.7173 26.7464 51.8847 26.6734 52.0311 26.5679C52.2425 26.3865 52.3934 26.1448 52.4637 25.8752C52.5339 25.6056 52.5201 25.321 52.4241 25.0595Z" fill="#8EBADA" stroke="black" stroke-width="0.1" stroke-miterlimit="10"/>
<path d="M37.8052 26.1721C38.0437 26.1251 38.2784 26.0604 38.5074 25.9785C38.7311 25.8973 38.946 25.7937 39.1489 25.6693C39.376 25.536 39.6373 25.4727 39.9002 25.4873C40.1542 25.4998 40.4012 25.5742 40.6198 25.704C40.1607 25.5833 39.673 25.639 39.2529 25.86C39.0367 25.993 38.8006 26.0906 38.5536 26.149C38.3077 26.2028 38.054 26.2106 37.8052 26.1721Z" fill="black"/>
<path d="M49.0547 24.4759C49.2485 24.311 49.4735 24.1867 49.7162 24.1103C49.9589 24.0339 50.2145 24.0068 50.4678 24.0308C50.9764 24.0754 51.4522 24.301 51.8086 24.6666C51.3853 24.4426 50.9235 24.3005 50.4475 24.2476C49.9717 24.2111 49.494 24.2894 49.0547 24.4759V24.4759Z" fill="black"/>
<path d="M35.7548 26.6606C36.6217 24.9268 38.8815 24.9268 39.89 24.9268C40.572 24.9268 41.358 24.9268 41.9446 25.5047C42.6295 26.1549 42.6063 27.1403 42.5948 27.6229C42.5948 27.8107 42.4705 30.9172 40.0894 31.6396C39.4358 31.8189 38.7451 31.8116 38.0955 31.6185C37.4458 31.4255 36.8632 31.0544 36.4136 30.5473C35.4947 29.5041 35.1219 27.909 35.7548 26.6606Z" stroke="black" stroke-width="0.1" stroke-miterlimit="10"/>
<path d="M48.1692 24.6176C47.6804 25.0102 47.2904 25.512 47.0306 26.0827C46.7691 26.6392 46.6873 27.2634 46.7966 27.8685C46.9109 28.4632 47.2151 29.0047 47.6635 29.4116C48.1181 29.822 48.6565 30.1286 49.2413 30.3103C49.8208 30.5069 50.4347 30.5817 51.0445 30.53C51.653 30.4837 52.236 30.2663 52.7263 29.9029C53.216 29.5299 53.5775 29.0138 53.7608 28.4262C53.9514 27.83 53.996 27.1967 53.8909 26.5797C54.0498 27.1986 54.0498 27.8477 53.8909 28.4667C53.7225 29.0981 53.3608 29.6609 52.8564 30.0763C52.3437 30.488 51.7199 30.7375 51.0647 30.7929C50.4174 30.8577 49.7637 30.7858 49.1459 30.582C48.5257 30.3815 47.9567 30.0482 47.4785 29.6052C46.9886 29.1597 46.6654 28.5603 46.5625 27.9061C46.4702 27.2596 46.5835 26.6006 46.8862 26.022C47.1896 25.4539 47.6307 24.971 48.1692 24.6176Z" fill="black"/>
<path d="M42.9667 26.1607C43.106 25.8089 43.3476 25.5069 43.6602 25.2938C43.9758 25.0709 44.3547 24.9553 44.741 24.9644C45.1327 24.9748 45.5074 25.1267 45.7957 25.392C46.0728 25.6479 46.2688 25.9795 46.3592 26.3456C46.1992 26.0243 45.9703 25.7421 45.6888 25.5192C45.4142 25.3154 45.0829 25.2022 44.741 25.1955C44.3935 25.1877 44.0506 25.2757 43.7498 25.4498C43.4396 25.6262 43.1721 25.8689 42.9667 26.1607V26.1607Z" fill="black"/>
<path d="M33.2433 25.6116C33.6727 25.8855 34.0718 26.2041 34.4339 26.5623C34.8047 26.911 35.137 27.2985 35.425 27.7182C34.9942 27.4441 34.594 27.1244 34.2316 26.7646C33.8624 26.4162 33.5311 26.0297 33.2433 25.6116V25.6116Z" fill="black"/>
<path d="M54.0747 25.7415C54.237 25.5591 54.434 25.4109 54.6544 25.3057C54.8747 25.2005 55.1139 25.1404 55.3578 25.1289C55.2003 25.3159 55.0027 25.465 54.7798 25.5653C54.5605 25.675 54.3198 25.7351 54.0747 25.7415V25.7415Z" fill="black"/>
<path d="M41.0833 38.8321C41.3777 39.5078 41.8403 40.0967 42.427 40.5428C43.2329 41.1057 44.1933 41.4054 45.1764 41.4007C46.1594 41.3961 47.1169 41.0873 47.9175 40.5168C48.6977 39.9304 49.2755 39.1152 49.5704 38.1848C48.7526 38.5027 48.0591 38.7396 47.5476 38.9015C46.4524 39.2569 45.8947 39.4332 45.3023 39.4794C45.1029 39.4794 44.7532 39.4996 43.3055 39.2627C42.4299 39.1066 41.6785 38.9593 41.0833 38.8321Z" fill="#EA9C9A"/>
<path d="M52.3838 36.8352C51.2482 37.3871 50.1009 37.9131 48.9508 38.4332C48.3729 38.6962 47.7949 38.9447 47.1996 39.1672C46.8992 39.284 46.5912 39.3806 46.2778 39.4562C45.9602 39.5235 45.6372 39.5622 45.3126 39.5718C44.675 39.5588 44.0393 39.497 43.4112 39.3868C42.7826 39.3016 42.1594 39.181 41.5444 39.0256C40.3281 38.7046 39.0523 38.6818 37.8253 38.9592C38.4308 38.7688 39.0582 38.6571 39.6921 38.6268C40.3301 38.6063 40.9682 38.6675 41.5906 38.8089C42.2091 38.9303 42.8217 39.0545 43.4459 39.1268C44.0615 39.2241 44.6835 39.2763 45.3069 39.2828C45.9244 39.2701 46.5352 39.1518 47.1129 38.9331C47.6909 38.7251 48.2688 38.4708 48.8641 38.2396C50.0316 37.7512 51.2019 37.2773 52.3838 36.8352Z" fill="black"/>
<path d="M43.9329 40.2222C43.8504 40.159 43.7902 40.0711 43.7611 39.9713C43.732 39.8715 43.7355 39.7651 43.7711 39.6674C43.8069 39.5707 43.8729 39.4882 43.9593 39.432C44.0457 39.3758 44.1479 39.3489 44.2508 39.3553C44.093 39.4315 43.9701 39.5647 43.9069 39.7281C43.8569 39.8907 43.8661 40.0658 43.9329 40.2222V40.2222Z" fill="black"/>
<path d="M45.4329 40.5371C45.4958 40.1544 45.4958 39.764 45.4329 39.3812C45.5628 39.5454 45.6312 39.7499 45.6265 39.9592C45.6303 40.1683 45.5619 40.3724 45.4329 40.5371V40.5371Z" fill="black"/>
<path d="M46.3557 39.9938C46.3268 39.8608 46.3094 39.751 46.2748 39.6412C46.2401 39.5314 46.1996 39.4331 46.1505 39.3031C46.2131 39.3309 46.2689 39.372 46.314 39.4234C46.3592 39.4749 46.3927 39.5355 46.4122 39.6012C46.4317 39.6668 46.4367 39.7359 46.427 39.8037C46.4172 39.8714 46.3929 39.9363 46.3557 39.9938V39.9938Z" fill="black"/>
<path d="M35.8746 27.3163C36.0583 26.8837 36.3778 26.5226 36.7849 26.2876C37.215 26.1066 37.6719 25.9973 38.1373 25.9639C38.3705 25.9276 38.6064 25.9111 38.8424 25.9148C39.0958 25.9711 39.3198 26.118 39.4724 26.328C39.7424 26.6791 40.1342 26.9162 40.5705 26.9927C40.3381 27.0072 40.1053 26.9708 39.8885 26.8858C39.6709 26.7918 39.4744 26.6552 39.3105 26.4841C39.2356 26.4098 39.1544 26.3421 39.0678 26.2818C38.9918 26.2324 38.9061 26.1999 38.8164 26.1864C38.6014 26.1934 38.3871 26.2147 38.1749 26.25L37.516 26.3512C37.3033 26.3745 37.0945 26.425 36.8947 26.5014C36.4936 26.6863 36.1435 26.966 35.8746 27.3163V27.3163Z" fill="black"/>
<path d="M48.7003 26.3513C48.6535 26.2908 48.6192 26.2215 48.5994 26.1476C48.5795 26.0737 48.5745 25.9966 48.5847 25.9207C48.5938 25.8797 48.6116 25.8411 48.6371 25.8076C48.6625 25.7742 48.695 25.7467 48.7321 25.7271C48.801 25.6926 48.8725 25.6636 48.946 25.6404C49.0788 25.6003 49.1985 25.5255 49.2927 25.4237C49.3773 25.3152 49.4357 25.1886 49.4632 25.0538C49.5006 24.8967 49.5738 24.7503 49.6771 24.6261C49.7849 24.5005 49.9205 24.4016 50.073 24.3372C50.3692 24.2321 50.6858 24.1974 50.9977 24.236C51.3087 24.2657 51.607 24.3741 51.8646 24.551C52.1218 24.7099 52.3645 24.8775 52.6073 25.048C53.0985 25.3803 53.5869 25.7127 54.0521 26.0681C53.5291 25.7791 53.0147 25.4901 52.5061 25.1867C52.2489 25.0365 52.0033 24.8717 51.749 24.7273C51.5159 24.5655 51.2454 24.466 50.963 24.4383C50.6842 24.401 50.4006 24.4277 50.1337 24.5163C50.0061 24.5635 49.8918 24.6407 49.8003 24.7412C49.7088 24.8418 49.6427 24.9629 49.6077 25.0943C49.5617 25.2472 49.4828 25.3883 49.3765 25.5075C49.2611 25.6172 49.1184 25.694 48.9633 25.73C48.8159 25.7647 48.6743 25.7878 48.6252 25.9236C48.5969 26.0706 48.6237 26.2228 48.7003 26.3513V26.3513Z" fill="black"/>
<path d="M38.8419 26.9666C38.8233 27.064 38.7774 27.154 38.7096 27.2263C38.6418 27.2985 38.5549 27.35 38.459 27.3748C38.363 27.3996 38.262 27.3966 38.1677 27.3662C38.0734 27.3358 37.9897 27.2792 37.9263 27.203C37.8628 27.1269 37.8224 27.0343 37.8096 26.936C37.7968 26.8378 37.8121 26.7379 37.8539 26.648C37.8956 26.5581 37.962 26.482 38.0454 26.4284C38.1287 26.3748 38.2256 26.346 38.3247 26.3453C38.475 26.3607 38.6133 26.4344 38.71 26.5505C38.8067 26.6666 38.8541 26.816 38.8419 26.9666Z" fill="black"/>
<path d="M38.7275 26.9092C38.7275 27.0595 38.6784 27.1808 38.6148 27.1808C38.5513 27.1808 38.5021 27.0595 38.4993 26.9092C38.4964 26.7589 38.5513 26.6376 38.612 26.6376C38.6726 26.6376 38.7275 26.7589 38.7275 26.9092Z" fill="white"/>
<path d="M51.5723 25.5624C51.5584 25.6675 51.5146 25.7664 51.446 25.8472C51.3774 25.9281 51.287 25.9874 51.1856 26.0183C51.0842 26.0491 50.976 26.0501 50.8741 26.0211C50.7721 25.9921 50.6807 25.9343 50.6107 25.8547C50.5407 25.7751 50.495 25.6771 50.4793 25.5722C50.4635 25.4674 50.4783 25.3603 50.5218 25.2636C50.5653 25.167 50.6357 25.0849 50.7246 25.0272C50.8136 24.9695 50.9172 24.9386 51.0232 24.9382C51.1007 24.9419 51.1767 24.9611 51.2466 24.9947C51.3165 25.0283 51.3789 25.0756 51.4302 25.1338C51.4814 25.1921 51.5204 25.2601 51.5448 25.3337C51.5692 25.4073 51.5786 25.4851 51.5723 25.5624V25.5624Z" fill="black"/>
<path d="M50.9545 25.5768C50.9545 25.7271 50.9054 25.8484 50.8418 25.8484C50.7782 25.8484 50.7291 25.7271 50.7291 25.5768C50.7291 25.4265 50.7782 25.3052 50.8418 25.3052C50.9054 25.3052 50.9545 25.4265 50.9545 25.5768Z" fill="white"/>
<path d="M35.9858 18.1764C41.2943 17.8065 50.5559 16.8297 50.9142 14.0642C50.9493 13.6013 50.802 13.1429 50.5039 12.787" fill="white"/>
<path d="M35.9858 18.1764C37.4307 18.0145 38.8756 17.8643 40.306 17.6793C41.7364 17.4944 43.1784 17.2979 44.5944 17.0147C46.0169 16.7761 47.4125 16.3986 48.7614 15.8877C49.4342 15.6501 50.0426 15.2593 50.5386 14.7462C50.7732 14.4808 50.8964 14.1351 50.8824 13.7811C50.8435 13.4227 50.7131 13.0804 50.5039 12.787C50.7425 13.0688 50.8994 13.4106 50.9576 13.7753C50.996 14.1542 50.8862 14.5332 50.6513 14.8329C50.1561 15.3871 49.5388 15.8185 48.8481 16.0929C48.1732 16.3871 47.4767 16.6286 46.7646 16.8153C46.0624 17.006 45.3515 17.1649 44.6377 17.3065C43.2044 17.5666 41.7653 17.767 40.3205 17.9076C38.8842 18.0377 37.4365 18.133 35.9858 18.1764Z" fill="black"/>
<path d="M56.4893 32.2203C57.2026 33.4974 57.4672 34.9768 57.2406 36.422C57.1165 37.1351 56.9476 37.8397 56.7349 38.5315L56.157 40.6064C55.7669 41.9906 55.3796 43.3776 54.9693 44.756C54.559 46.1344 54.1717 47.5186 53.7498 48.8941L53.6053 49.3652L53.5389 48.8797C53.4107 47.9841 53.0171 47.1475 52.4087 46.4779C51.8004 45.8082 51.0053 45.3363 50.1261 45.123C50.811 45.2458 51.4573 45.5282 52.0126 45.9474C52.5678 46.3667 53.0165 46.9109 53.3222 47.536C53.5305 47.9534 53.6756 48.3994 53.7527 48.8595L53.5418 48.845C53.9146 47.4551 54.3191 46.0738 54.6977 44.6896C55.0762 43.3054 55.4923 41.9241 55.8969 40.5428L56.5038 38.4737C56.731 37.7959 56.9172 37.1049 57.0615 36.4047C57.3207 34.9845 57.1203 33.5187 56.4893 32.2203V32.2203Z" fill="black"/>
<path d="M44.9241 50.3188C45.2943 50.3638 45.6666 50.3888 46.0395 50.3939C46.2245 50.3939 46.4036 50.3939 46.5886 50.3737C46.7637 50.3735 46.9379 50.3482 47.1058 50.2986C47.4319 50.179 47.714 49.9634 47.915 49.6801C47.97 49.6101 48.0193 49.5357 48.0623 49.4577V49.4577C48.0623 49.4577 48.0623 49.4576 48.0623 49.4345C48.0742 49.4206 48.0895 49.4101 48.1068 49.404C48.124 49.3979 48.1426 49.3965 48.1606 49.3999C48.1953 49.3999 48.1895 49.3999 48.1866 49.3999V49.4172L48.1519 49.4865L48.0768 49.6252C47.9768 49.8097 47.8523 49.9798 47.7069 50.1309C47.7672 49.9758 47.8521 49.8314 47.9583 49.7033L48.0392 49.6079L48.0826 49.5588H48.1115C48.1282 49.5636 48.146 49.5637 48.1628 49.5591C48.1796 49.5545 48.1948 49.5454 48.2068 49.5328C48.2242 49.5068 48.2068 49.5183 48.2068 49.5183V49.5357C48.1705 49.6276 48.127 49.7165 48.0768 49.8015C47.8751 50.1584 47.5521 50.4311 47.1665 50.5702C46.9724 50.6218 46.772 50.6461 46.5712 50.6424C46.3781 50.6436 46.1851 50.633 45.9933 50.6107C45.6245 50.5663 45.2643 50.4679 44.9241 50.3188V50.3188Z" fill="black"/>
<path d="M39.6682 49.368C40.1451 50.3451 40.8179 51.2137 41.6448 51.9197C42.0679 52.2601 42.5119 52.5738 42.9741 52.8588C43.4307 53.1536 43.9007 53.4339 44.3843 53.6998C43.8552 53.5359 43.344 53.319 42.8585 53.0525C42.3632 52.7962 41.8947 52.4913 41.4599 52.1422C41.0282 51.7812 40.6532 51.3575 40.3473 50.8852C40.0459 50.4165 39.817 49.905 39.6682 49.368V49.368Z" fill="black"/>
<path d="M17.1477 14.1218C17.0307 14.7778 16.9775 15.4436 16.9888 16.1099C17.0263 18.5142 17.9279 20.222 19.2428 23.0453C20.6298 26.0188 21.3234 27.5042 21.4852 27.8162C26.1232 36.6502 29.9955 40.3953 28.6922 42.5279C28.4726 42.8891 27.8975 43.5451 27.2473 43.5104C26.4035 43.4671 25.8343 42.2678 25.5886 41.7361C22.4591 34.9539 20.8957 31.5613 20.6212 30.6482C19.9392 28.3682 18.8671 24.8687 17.4078 20.4272C16.7239 18.9234 16.3316 17.3034 16.2519 15.6533C16.2201 15.0017 16.2394 14.3485 16.3097 13.6999C15.9839 13.363 15.7294 12.964 15.5612 12.5266C15.3876 12.1018 15.3059 11.645 15.3213 11.1863C15.3367 10.7276 15.449 10.2774 15.6508 9.86518C15.8604 9.46077 16.1602 9.10995 16.5269 8.83987C16.8937 8.5698 17.3177 8.38768 17.7661 8.30761C18.1383 8.25214 18.5181 8.27564 18.8807 8.37659C19.2432 8.47753 19.5805 8.65367 19.8705 8.89353C20.1605 9.13338 20.3968 9.4316 20.5639 9.76877C20.7311 10.106 20.8254 10.4745 20.8408 10.8506C20.9009 11.52 20.7514 12.1915 20.4131 12.7723C20.338 12.8936 19.5462 14.1738 18.1302 14.2634C17.7967 14.2797 17.4631 14.2316 17.1477 14.1218V14.1218Z" fill="#C7E8F1" stroke="black" stroke-width="0.1" stroke-miterlimit="10"/>
<path d="M16.6182 9.37699C15.4103 10.3653 15.6328 12.3043 16.5344 13.1828C16.9397 13.5572 17.4681 13.7701 18.0198 13.7809C18.3767 13.763 18.7251 13.6652 19.0392 13.4947C19.3533 13.3241 19.6251 13.0852 19.8345 12.7956C20.4616 11.972 20.7939 10.4317 19.8172 9.46368C18.9474 8.60253 17.4996 8.65744 16.6182 9.37699Z" fill="#EDF8FA" stroke="black" stroke-width="0.1" stroke-miterlimit="10"/>
<path d="M16.4954 11.5964C17.4817 11.1785 18.3336 10.4965 18.9574 9.62561Z" fill="#EDF8FA"/>
<path d="M16.4943 11.5964C16.9455 11.3223 17.3797 11.0212 17.7947 10.6948C18.2013 10.3621 18.5873 10.0051 18.9506 9.62561C18.6967 10.105 18.3472 10.5272 17.9238 10.8661C17.5003 11.2051 17.0118 11.4537 16.4885 11.5964H16.4943Z" fill="black"/>
<path d="M16.8289 12.313C17.326 12.101 17.7917 11.822 18.213 11.4836C18.6229 11.1543 18.9856 10.7702 19.2909 10.3422" fill="#EDF8FA"/>
<path d="M16.8289 12.313C17.2937 12.0619 17.7365 11.7719 18.1524 11.4461C18.3575 11.2814 18.554 11.1051 18.7303 10.923C18.9066 10.741 19.0973 10.5445 19.2765 10.3451C19.006 10.811 18.6501 11.2218 18.2275 11.5559C17.812 11.8924 17.3378 12.1491 16.8289 12.313V12.313Z" fill="black"/>
<path d="M17.1692 13.0583C18.1558 12.6409 19.0079 11.9588 19.6312 11.0875Z" fill="#EDF8FA"/>
<path d="M17.1692 13.0583C18.1298 12.5984 18.9721 11.9242 19.6312 11.0875C19.0431 11.9915 18.18 12.6824 17.1692 13.0583V13.0583Z" fill="black"/>
<path d="M28.1829 34.2027C29.2526 32.8027 30.7486 31.7885 32.4452 31.313C31.6852 31.7407 30.9455 32.1655 30.2404 32.648C29.5353 33.1306 28.862 33.6595 28.1829 34.2027Z" fill="black"/>
<path d="M25.6055 37.6849C25.7934 37.8467 26.0535 38.0808 26.3598 38.3698C26.9608 38.9477 27.2642 39.2367 27.3481 39.4505C27.6081 40.121 27.3192 40.9821 26.8019 41.4994C26.601 41.6987 26.3609 41.8542 26.0968 41.9559C26.1768 42.2695 26.3286 42.5601 26.5403 42.8048C26.7519 43.0496 27.0176 43.2417 27.3163 43.3661L27.6052 43.4904C27.961 43.367 28.2752 43.1469 28.5126 42.8546C28.8237 42.4224 28.973 41.8947 28.9345 41.3635C28.9345 40.2076 28.4201 39.3147 27.9116 38.4738C27.296 37.4422 26.5216 36.214 25.5709 34.8472L22.7216 30.0646C22.6609 29.8624 22.0425 27.7297 23.2417 26.5247C23.3515 26.4178 24.1896 25.6 24.9553 25.8774C25.5333 26.0913 25.7414 26.8079 25.7703 26.9177C25.9032 27.4292 25.6807 27.565 25.6084 28.5013C25.5593 29.1428 25.5131 29.7179 25.7847 30.3189C25.9668 30.7177 26.117 30.7553 26.2615 31.1859C26.432 31.7089 26.3106 31.9545 26.3684 32.3649C26.4782 33.1856 27.1776 33.7375 27.8566 34.275C28.7871 35.009 29.1281 34.8529 29.5905 35.4453C29.9922 35.9626 29.8795 36.2863 30.1395 37.2948C30.6597 39.3725 31.5093 39.6066 31.5035 40.9908C31.5035 41.7392 31.255 41.5687 31.0065 42.8807C30.8129 43.9007 30.4892 45.5883 31.2954 46.7847C31.8156 47.5563 32.3271 47.4118 32.983 48.0215C34.477 49.4086 34.636 52.7925 33.0495 55.0233C31.2174 57.5605 27.403 58.2223 26.6083 57.2716C26.3627 56.9826 26.5707 56.6936 26.2644 56.1157C25.672 55.0407 24.5045 54.6708 23.7995 54.4107C20.6959 53.2548 17.653 50.9661 17.8524 49.5906C17.8899 49.319 18.0633 49.0358 17.9477 48.6139C17.8321 48.192 17.5056 48.036 16.9652 47.5418C16.4248 47.0477 15.4914 46.2096 15.4741 45.23C15.4741 44.8399 15.6099 44.7994 15.555 44.4469C15.4394 43.7216 14.7719 43.4991 14.4887 43.0627C13.8819 42.1351 15.4192 40.8405 15.9336 38.9651C16.8005 35.8413 14.0061 34.0005 15.2429 31.6974C15.6128 31.0067 15.7515 31.3766 17.2022 29.7179C18.595 28.1256 19.0458 27.1171 19.8174 27.1807C20.4127 27.2269 20.8115 27.88 20.8808 28.0014C21.1409 28.4493 21.1698 28.955 20.9906 29.7844C20.6785 31.3246 19.6556 31.758 19.6267 33.1249C19.6208 33.3619 19.6441 33.5987 19.696 33.83C19.9401 33.7799 20.1917 33.7799 20.4358 33.83C21.1553 33.9831 21.375 34.5293 22.0252 35.0697C22.8921 35.7863 23.1637 35.376 24.152 36.1013C24.9033 36.6561 24.6433 36.8064 25.6402 37.7109C26.9695 38.9188 27.2353 39.0026 27.3741 39.4448C27.4577 39.84 27.4184 40.2515 27.2614 40.6238C27.1689 40.933 26.9464 41.6785 26.3337 41.9155C26.2602 41.9443 26.1836 41.9647 26.1055 41.9762C26.1861 42.2589 26.3249 42.5217 26.5129 42.7477C26.7516 43.004 27.0396 43.2094 27.3596 43.3517C27.9722 43.6985 28.6889 44.4729 28.7149 45.2647C28.7467 46.2559 27.6775 46.9667 27.5446 47.0534C27.6884 47.2338 27.8469 47.402 28.0185 47.5563C28.634 48.1111 28.975 48.0909 29.2004 48.4607C29.3114 48.6758 29.3642 48.9162 29.3536 49.158C29.3429 49.3998 29.2692 49.6347 29.1397 49.8392C28.9811 50.0872 28.7538 50.2838 28.4854 50.4049C28.2171 50.526 27.9193 50.5664 27.6284 50.5211C25.4322 50.1975 24.756 49.5588 24.5566 49.0214C24.4468 48.7324 24.4265 48.3047 24.0826 48.0793C23.7388 47.8539 23.3226 48.0475 22.8025 48.0533C22.3546 48.0533 21.6986 47.9059 20.8779 47.1517" fill="#FCF9D7"/>
<path d="M25.6055 37.6849C25.7934 37.8467 26.0535 38.0808 26.3598 38.3698C26.9608 38.9477 27.2642 39.2367 27.3481 39.4505C27.6081 40.121 27.3192 40.9821 26.8019 41.4994C26.601 41.6987 26.3609 41.8542 26.0968 41.9559C26.1768 42.2695 26.3286 42.5601 26.5403 42.8048C26.7519 43.0496 27.0176 43.2417 27.3163 43.3661L27.6052 43.4904C27.961 43.367 28.2752 43.1469 28.5126 42.8546C28.8237 42.4224 28.973 41.8947 28.9345 41.3635C28.9345 40.2076 28.4201 39.3147 27.9116 38.4738C27.296 37.4422 26.5216 36.214 25.5709 34.8472L22.7216 30.0646C22.6609 29.8624 22.0425 27.7297 23.2417 26.5247C23.3515 26.4178 24.1896 25.6 24.9553 25.8774C25.5333 26.0913 25.7414 26.8079 25.7703 26.9177C25.9032 27.4292 25.6807 27.565 25.6084 28.5013C25.5593 29.1428 25.5131 29.7179 25.7847 30.3189C25.9668 30.7177 26.117 30.7553 26.2615 31.1859C26.432 31.7089 26.3106 31.9545 26.3684 32.3649C26.4782 33.1856 27.1776 33.7375 27.8566 34.275C28.7871 35.009 29.1281 34.8529 29.5905 35.4453C29.9922 35.9626 29.8795 36.2863 30.1395 37.2948C30.6597 39.3725 31.5093 39.6066 31.5035 40.9908C31.5035 41.7392 31.255 41.5687 31.0065 42.8807C30.8129 43.9007 30.4892 45.5883 31.2954 46.7847C31.8156 47.5563 32.3271 47.4118 32.983 48.0215C34.477 49.4086 34.636 52.7925 33.0495 55.0233C31.2174 57.5605 27.403 58.2223 26.6083 57.2716C26.3627 56.9826 26.5707 56.6936 26.2644 56.1157C25.672 55.0407 24.5045 54.6708 23.7995 54.4107C20.6959 53.2548 17.653 50.9661 17.8524 49.5906C17.8899 49.319 18.0633 49.0358 17.9477 48.6139C17.8321 48.192 17.5056 48.036 16.9652 47.5418C16.4248 47.0477 15.4914 46.2096 15.4741 45.23C15.4741 44.8399 15.6099 44.7994 15.555 44.4469C15.4394 43.7216 14.7719 43.4991 14.4887 43.0627C13.8819 42.1351 15.4192 40.8405 15.9336 38.9651C16.8005 35.8413 14.0061 34.0005 15.2429 31.6974C15.6128 31.0067 15.7515 31.3766 17.2022 29.7179C18.595 28.1256 19.0458 27.1171 19.8174 27.1807C20.4127 27.2269 20.8115 27.88 20.8808 28.0014C21.1409 28.4493 21.1698 28.955 20.9906 29.7844C20.6785 31.3246 19.6556 31.758 19.6267 33.1249C19.6208 33.3619 19.6441 33.5987 19.696 33.83C19.9401 33.7799 20.1917 33.7799 20.4358 33.83C21.1553 33.9831 21.375 34.5293 22.0252 35.0697C22.8921 35.7863 23.1637 35.376 24.152 36.1013C24.9033 36.6561 24.6433 36.8064 25.6402 37.7109C26.9695 38.9188 27.2353 39.0026 27.3741 39.4448C27.4577 39.84 27.4184 40.2515 27.2614 40.6238C27.1689 40.933 26.9464 41.6785 26.3337 41.9155C26.2602 41.9443 26.1836 41.9647 26.1055 41.9762C26.1861 42.2589 26.3249 42.5217 26.5129 42.7477C26.7516 43.004 27.0396 43.2094 27.3596 43.3517C27.9722 43.6985 28.6889 44.4729 28.7149 45.2647C28.7467 46.2559 27.6775 46.9667 27.5446 47.0534C27.6884 47.2338 27.8469 47.402 28.0185 47.5563C28.634 48.1111 28.975 48.0909 29.2004 48.4607C29.3114 48.6758 29.3642 48.9162 29.3536 49.158C29.3429 49.3998 29.2692 49.6347 29.1397 49.8392C28.9811 50.0872 28.7538 50.2838 28.4854 50.4049C28.2171 50.526 27.9193 50.5664 27.6284 50.5211C25.4322 50.1975 24.756 49.5588 24.5566 49.0214C24.4468 48.7324 24.4265 48.3047 24.0826 48.0793C23.7388 47.8539 23.3226 48.0475 22.8025 48.0533C22.3546 48.0533 21.6986 47.9059 20.8779 47.1517" stroke="black" stroke-width="0.1" stroke-miterlimit="10"/>
<path d="M20.6394 48.8163C20.9861 48.8522 21.3359 48.7923 21.6508 48.6429C21.965 48.4934 22.2312 48.2592 22.4195 47.9667" stroke="black" stroke-width="0.1" stroke-miterlimit="10"/>
<path d="M18.8739 31.3534C19.0807 31.4783 19.2558 31.6494 19.3854 31.8533C19.5166 32.0629 19.6005 32.2986 19.631 32.544C19.657 32.7809 19.6744 32.9977 19.6946 33.2288C19.7238 33.4588 19.7354 33.6907 19.7293 33.9224C19.6245 33.7117 19.5384 33.4922 19.4721 33.2664C19.4116 33.0418 19.3691 32.8128 19.3449 32.5815C19.2807 32.1423 19.1198 31.7229 18.8739 31.3534V31.3534Z" fill="black"/>
<path d="M15.717 39.6817C16.2262 39.0337 16.6425 38.3179 16.9538 37.5549C17.6098 35.9366 17.4653 34.8587 18.3178 34.2172C18.7609 33.9114 19.295 33.7657 19.832 33.804" stroke="black" stroke-width="0.1" stroke-miterlimit="10"/>
<path d="M15.6058 44.5307C16.3787 43.7313 16.9917 42.7917 17.4119 41.7623C17.7674 40.8723 17.8887 40.1094 18.6458 39.2974C18.8944 39.0315 19.4868 38.4304 20.1254 38.5171C20.4779 38.5749 20.6629 38.8235 20.8998 39.0518C21.7668 39.8984 22.6019 39.7655 23.7896 40.2857C24.6927 40.6891 25.4907 41.2952 26.1216 42.0571" stroke="black" stroke-width="0.1" stroke-miterlimit="10"/>
<path d="M17.9171 48.8306C18.3013 48.2102 18.6246 47.5541 18.8823 46.8714C19.5267 45.1866 19.3851 44.3486 20.0382 43.9816C20.278 43.8458 20.3676 43.9123 22.2633 44.207C23.9971 44.4758 24.3959 44.496 24.9247 44.8659C25.3206 45.1549 25.2917 45.2704 25.9072 45.8397C26.4024 46.298 26.946 46.7011 27.5284 47.0419" stroke="black" stroke-width="0.1" stroke-miterlimit="10"/>
<path d="M33.7588 49.3451C34.1691 49.7294 34.5766 50.1224 34.9551 50.5443C35.3198 50.9785 35.653 51.4382 35.9521 51.9198C36.5505 52.8835 36.9951 53.9345 37.2698 55.035C36.8039 54.0181 36.281 53.0282 35.7036 52.0701C35.4146 51.5933 35.0996 51.1338 34.776 50.6802C34.4523 50.2265 34.0853 49.8075 33.7588 49.3451Z" fill="black"/>
<path d="M30.6389 48.6023C30.8031 48.2964 30.9339 47.9738 31.029 47.64C31.1125 47.3041 31.159 46.9601 31.1677 46.6141C31.2651 46.7784 31.3276 46.9608 31.3515 47.1502C31.3753 47.3396 31.36 47.5319 31.3064 47.7151C31.2612 47.9005 31.1786 48.0748 31.0639 48.2273C30.9491 48.3798 30.8045 48.5074 30.6389 48.6023V48.6023Z" fill="black"/>
<path d="M31.1982 49.8362C31.4479 49.4383 31.6031 48.9885 31.6519 48.5213C31.6823 48.0518 31.6215 47.5807 31.4728 47.1343C31.6441 47.3247 31.7742 47.5486 31.8548 47.7918C31.9353 48.035 31.9647 48.2923 31.9409 48.5474C31.9205 48.8038 31.8433 49.0525 31.7148 49.2755C31.5863 49.4984 31.4099 49.6899 31.1982 49.8362Z" fill="black"/>
<path d="M32.3157 49.3767C32.3605 49.0152 32.3288 48.6484 32.2228 48.2999C32.1168 47.9515 31.9387 47.6292 31.7002 47.3539C31.8925 47.4169 32.0642 47.5308 32.1972 47.6833C32.331 47.8364 32.4296 48.0169 32.4862 48.2121C32.5461 48.4095 32.5619 48.6177 32.5324 48.8219C32.5099 49.0226 32.4352 49.2139 32.3157 49.3767V49.3767Z" fill="black"/>
<path d="M14.8397 4.94128C16.1883 6.57495 17.5368 8.20574 18.8854 9.83363L14.6895 13.4776L19.339 10.6283L24.5406 15.7663L20.284 10.0677L24.4741 6.1232L19.5327 9.25279L14.8397 4.94128Z" fill="#D4E9F6"/>
<path d="M41.7868 27.5419C41.256 27.8158 40.7594 28.1514 40.3072 28.5417C39.862 28.9394 39.4644 29.3875 39.1224 29.8768C39.3394 29.2976 39.6981 28.7819 40.1656 28.377C40.6269 27.9664 41.1846 27.6791 41.7868 27.5419Z" fill="black"/>
<path d="M47.6329 27.3107C47.8425 27.8059 48.1675 28.2438 48.5808 28.5879C49.002 28.9258 49.497 29.1595 50.0256 29.2699C49.7489 29.2656 49.475 29.2128 49.2165 29.1139C48.9555 29.0168 48.7123 28.8772 48.497 28.7006C48.0598 28.3486 47.7551 27.8585 47.6329 27.3107Z" fill="black"/>
<path d="M41.7773 45.805C42.494 46.2269 44.3781 47.1978 46.4674 46.6401C46.9875 46.5014 48.5682 46.0621 48.7792 44.9727C48.9901 43.9266 47.8313 42.9904 47.7186 42.9008C46.0657 41.6033 43.647 42.6609 43.5025 42.7245C43.9707 42.554 44.5371 42.291 44.5371 41.9674C44.5371 41.4299 42.9592 40.9906 42.9708 40.9589C42.9824 40.9271 44.0776 41.6004 45.3462 41.5628C46.791 41.5224 47.9296 40.563 47.9701 40.6294C48.0105 40.6959 46.2911 41.6755 46.4298 42.0425C46.5107 42.2535 47.1205 42.0599 47.8198 42.2708C48.6694 42.528 49.1982 43.2504 49.5103 43.811C49.7357 43.5221 50.0882 43.0597 50.5477 42.5482C50.9836 42.0674 51.4467 41.612 51.9348 41.1843C52.5994 40.6063 53.5848 39.5371 54.9892 37.4623C54.8372 37.8779 54.6567 38.2824 54.4489 38.6731C54.0003 39.4821 53.4507 40.2307 52.8133 40.9011C52.4809 41.2681 52.1862 41.5542 52.1371 41.6004C51.4666 42.2535 51.1892 42.398 50.7298 42.9557C50.555 43.1641 50.3948 43.3842 50.2501 43.6145C49.9466 44.1029 49.9177 44.3167 49.5883 44.8282C49.4574 45.0315 49.3116 45.2246 49.152 45.4062C48.8514 45.7442 48.5028 46.0363 48.1174 46.2731C47.7816 46.487 47.4254 46.667 47.054 46.8106C46.7524 46.9232 46.4422 47.0111 46.1264 47.0736C45.8315 47.1366 45.5319 47.1753 45.2306 47.1891C44.8088 47.2034 44.3868 47.1675 43.9735 47.0822C43.6016 47.0134 43.2408 46.8938 42.9015 46.7268C42.6854 46.6218 42.4819 46.4929 42.2946 46.3424C42.1 46.1861 41.9261 46.0055 41.7773 45.805V45.805Z" fill="#E8D2A5"/>
<path d="M43.371 42.8229C43.9554 42.3683 44.6568 42.0887 45.3938 42.0166C46.1303 41.9347 46.8749 42.0672 47.538 42.3981C46.1372 42.1316 44.6891 42.2792 43.371 42.8229V42.8229Z" fill="black"/>
<path d="M49.2638 38.994C48.9786 39.6204 48.5546 40.1738 48.0241 40.6123C47.4944 41.0604 46.8636 41.3728 46.1862 41.5225C45.5035 41.6713 44.7946 41.6485 44.1229 41.4561C43.4595 41.2706 42.8488 40.9321 42.34 40.4678C42.6216 40.6509 42.9195 40.8076 43.23 40.9359C43.5342 41.0645 43.8509 41.1613 44.175 41.2249C44.8176 41.3631 45.4822 41.3631 46.1248 41.2252C46.7675 41.0872 47.3735 40.8142 47.9027 40.4244C48.1715 40.2289 48.4203 40.0073 48.6454 39.7627C48.8754 39.5266 49.0825 39.2693 49.2638 38.994V38.994Z" fill="black"/>
<path d="M18.8875 51.2841C22.9649 51.1627 24.0659 51.677 24.2219 52.229C24.2797 52.4342 24.1901 52.5902 24.3231 52.8243C24.7363 53.5612 26.1089 52.9312 26.9238 53.6218C27.7387 54.3125 27.1145 55.5898 27.8456 56.0579C28.438 56.4364 29.3801 55.9394 30.4724 55.3499C31.7024 54.6821 32.8294 53.8402 33.8187 52.8503C33.5699 53.9111 33.0372 54.8843 32.2778 55.6657C31.5183 56.4471 30.5606 57.0072 29.5072 57.286C29.2973 57.3486 29.0841 57.3998 28.8686 57.4392C28.4777 57.5297 28.0754 57.5609 27.6752 57.5317C27.3544 57.4999 26.8082 57.4479 26.6522 57.1069C26.63 57.0583 26.6154 57.0067 26.6088 56.9537C26.5471 56.4202 26.3278 55.9172 25.9789 55.5088C25.7853 55.2983 25.5636 55.1155 25.32 54.9656C24.9355 54.7278 24.5255 54.5339 24.0977 54.3876C23.0545 53.9657 23.118 53.9975 22.9418 53.9195C22.408 53.6904 21.8888 53.4289 21.3871 53.1364C20.7967 52.8197 20.2349 52.4523 19.7081 52.0383C19.4199 51.8033 19.1459 51.5515 18.8875 51.2841V51.2841Z" fill="#EEEABB"/>
<path d="M22.8394 29.9808C23.4564 30.3746 23.9556 30.9277 24.2842 31.5817C24.4518 31.9314 24.501 32.1857 24.7726 32.7088C24.9945 33.1338 25.2598 33.5348 25.5644 33.9051C25.9978 34.4484 26.7203 35.639 27.9802 38.3322C26.8474 36.5983 25.7166 34.8029 24.5877 32.9457C23.9885 31.9497 23.4057 30.9614 22.8394 29.9808Z" fill="#EEEABB"/>
<path d="M16.7355 37.6762C16.6323 36.7506 16.6663 35.8148 16.8367 34.8992C16.9985 34.0322 17.1112 33.4947 17.5562 33.2433C18.3307 32.8099 19.449 33.6161 19.527 33.6739C19.2295 33.6643 18.9334 33.7206 18.6601 33.8386C18.3361 33.9854 18.054 34.2109 17.8394 34.4946C17.5922 34.8565 17.4329 35.2711 17.3742 35.7054C17.2135 36.3781 17 37.0371 16.7355 37.6762Z" fill="#EEEABB"/>
<path d="M17.6894 40.5545C17.464 39.2223 17.9928 38.0259 18.8828 37.6242C19.3464 37.4186 19.8717 37.401 20.3479 37.5751C20.8594 37.7976 20.8334 38.1531 21.5761 38.731C21.9366 38.9866 22.3141 39.2174 22.706 39.4217L24.0699 40.2106C23.2348 39.9216 22.625 39.7222 22.1829 39.6066C21.9145 39.5425 21.6586 39.4341 21.4258 39.2859C21.2901 39.1987 21.1607 39.1022 21.0386 38.9969C20.8962 38.8728 20.7602 38.7417 20.6311 38.6039C20.5199 38.5107 20.3897 38.4426 20.2497 38.4045C19.7209 38.26 19.2238 38.6068 19.0504 38.7281C18.9298 38.8147 18.8167 38.9114 18.7123 39.0171C18.5306 39.1945 18.3652 39.3879 18.2182 39.5951C18.0023 39.8914 17.8246 40.2137 17.6894 40.5545V40.5545Z" fill="#EEEABB"/>
<path d="M18.7333 46.799C18.1265 45.1056 18.3519 43.5625 19.1697 43.0424C19.6783 42.7216 20.4065 42.7996 20.6348 42.8227C21.4757 42.9123 21.6722 43.2851 22.5218 43.5307C23.5939 43.8428 23.9666 43.4498 24.7093 43.6319C25.3797 43.7995 26.2351 44.4179 26.9575 46.4754C26.67 46.2823 26.3967 46.0689 26.1397 45.8367C25.9923 45.7038 25.8652 45.5766 25.686 45.4004C25.4607 45.1374 25.21 44.8974 24.9376 44.6837C24.7277 44.5565 24.5011 44.4592 24.2643 44.3948C23.971 44.3034 23.6687 44.2443 23.3627 44.2185C22.9986 44.178 22.1634 44.0393 20.4932 43.7648C20.3501 43.7349 20.2017 43.7429 20.0626 43.7879C19.8359 43.8826 19.6512 44.056 19.5424 44.2763C19.3312 44.675 19.1941 45.1087 19.1379 45.5564C19.0414 45.9821 18.9059 46.3981 18.7333 46.799V46.799Z" fill="#EEEABB"/>
<path d="M22.725 49.3739C23.1744 49.4162 23.6256 49.3151 24.0138 49.085C24.1316 49.0313 24.2456 48.9695 24.3548 48.9C24.3385 48.8014 24.3123 48.7046 24.2768 48.6111C24.2423 48.4943 24.1853 48.3853 24.1092 48.2903C24.0302 48.2069 23.9305 48.1461 23.8202 48.114C23.485 48.0071 23.2885 48.1776 22.7886 48.1834C22.6765 48.1851 22.5644 48.1783 22.4534 48.1631C22.387 48.2509 22.3135 48.333 22.2338 48.4088C22.1023 48.5321 21.9533 48.6353 21.7916 48.7151C22.0113 49.0418 22.3436 49.2763 22.725 49.3739V49.3739Z" fill="#EEEABB"/>
</svg>
