<svg width="81" height="81" viewBox="0 0 81 81" fill="none" xmlns="http://www.w3.org/2000/svg">
<path d="M60.0029 60.5C71.0486 49.4543 71.0486 31.5457 60.0029 20.5C48.9572 9.4543 31.0486 9.4543 20.0029 20.5C8.95723 31.5457 8.95723 49.4543 20.0029 60.5C31.0486 71.5457 48.9572 71.5457 60.0029 60.5Z" fill="#35ADE3"/>
<path fill-rule="evenodd" clip-rule="evenodd" d="M31.1048 67.354C36.1474 69.024 41.5584 69.2406 46.7183 67.979C51.8783 66.7173 56.5788 64.0285 60.282 60.2201C63.9851 56.4117 66.5413 51.6377 67.6579 46.4444C68.7745 41.2512 68.4064 35.8484 66.5958 30.8545C65.6894 30.0279 64.6582 29.3494 63.5403 28.8443C63.3995 29.3368 60.9939 37.2941 52.8189 39.6695C44.8985 41.9712 38.7471 36.9456 38.2814 36.5503C37.1854 36.9472 36.1396 37.4712 35.1655 38.1116C34.1618 38.7786 33.2436 39.5663 32.4316 40.4569C25.5833 47.7507 24.7256 47.7005 24.5246 49.168C23.7607 54.5454 34.5558 57.9997 33.6478 63.5748C33.3362 65.451 31.852 66.4829 31.1048 67.354Z" fill="white"/>
<path d="M57.7172 52.4312C57.4659 54.6714 56.6357 56.8075 55.3082 58.6295C55.755 59.5385 56.2084 60.4443 56.6685 61.3466L53.6933 64.027L49.9074 61.9397L50.7617 58.8506C49.0383 57.7649 47.6472 56.2255 46.7412 54.4012C47.1639 53.9585 47.6335 53.5631 48.1417 53.2219C51.8137 50.766 56.3871 52.0157 57.7172 52.4312Z" fill="#F2D52F" stroke="black" stroke-width="0.1" stroke-miterlimit="10"/>
<path d="M39.6752 46.1558C39.4629 47.4599 39.3988 48.784 39.4843 50.1025C39.5632 51.4171 39.7994 52.7174 40.1878 53.9756C40.5689 55.2346 41.0822 56.4498 41.719 57.6008C42.3617 58.7472 43.1075 59.8328 43.947 60.844L43.6622 60.9579C43.6014 59.9087 43.7332 58.8572 44.0509 57.8554C44.3691 56.8504 44.9162 55.9329 45.649 55.1751C46.0109 54.7965 46.4029 54.4547 46.7915 54.1197C47.1805 53.7789 47.5864 53.4579 48.0077 53.1581C48.8511 52.5562 49.7484 52.0335 50.6881 51.5968C49.7827 52.0838 48.9188 52.6441 48.1049 53.2721C47.7029 53.5903 47.3075 53.9187 46.9289 54.2772C46.5503 54.6357 46.1717 54.9707 45.83 55.346C45.1508 56.0984 44.6422 56.9887 44.339 57.9559C44.0435 58.932 43.9299 59.9542 44.004 60.9713L44.0308 61.4471L43.7192 61.0819C42.8553 60.0622 42.0986 58.9563 41.461 57.7817C40.8249 56.6106 40.315 55.3752 39.9399 54.0963C39.5808 52.8105 39.375 51.4869 39.3268 50.1528C39.2764 48.8112 39.3935 47.4685 39.6752 46.1558Z" fill="black"/>
<path d="M39.0349 41.0231C38.6195 45.1173 40.1138 47.1041 40.6163 47.6904C41.8359 49.0151 43.2913 50.1012 44.9082 50.8934C45.6291 51.1842 46.3058 51.5744 46.9185 52.0527C48.0342 52.9841 48.0978 53.6576 48.9488 54.3578C50.1315 55.3328 51.6292 55.3629 52.2021 55.3629C54.4904 55.3998 56.829 54.1065 57.7805 52.381C58.0334 51.8278 58.3338 51.2975 58.6784 50.7963C59.169 50.1328 59.7472 49.5389 60.3972 49.0306C61.5274 48.0111 62.4906 46.8207 63.2518 45.5026C64.1513 43.884 64.5883 42.0492 64.5149 40.1989C64.8761 40.0657 65.1834 39.8173 65.3893 39.492C65.9757 38.5069 65.0141 37.4046 65.6507 36.1415C65.855 35.7428 65.9288 35.897 66.1599 35.4715C66.7295 34.4094 66.1599 33.7192 66.5285 32.4259C66.6558 31.9904 66.6692 32.2416 67.2522 30.9718C67.7849 29.8159 67.9223 29.2497 67.7849 28.6868C67.7369 28.4348 67.5942 28.2106 67.3862 28.0603C67.2622 27.9898 67.125 27.9457 66.9832 27.9307C66.8414 27.9157 66.698 27.9302 66.562 27.9732C66.562 27.9397 66.5888 27.742 66.5921 27.7119L66.763 26.2477C65.4639 24.5659 63.7572 23.2432 61.8044 22.4048C61.2013 22.1535 59.4055 21.4667 54.0984 21.7783C49.0527 22.0765 45.8296 22.2641 42.1676 24.214C40.1532 25.2971 38.3399 26.7182 36.8069 28.4155L36.9677 29.5077C36.0262 29.5915 35.6677 29.9198 35.5069 30.1778C35.068 30.8479 35.5706 31.6955 36.7968 34.8148C37.4669 36.5168 37.802 37.3644 37.8455 37.7564C38.0063 39.1402 37.6947 40.3463 38.3883 40.8388C38.5796 40.9657 38.8055 41.0301 39.0349 41.0231Z" fill="#F9EDD3" stroke="black" stroke-width="0.1" stroke-miterlimit="10"/>
<path opacity="0.7" d="M51.9742 46.1726L50.5971 45.995C51.5118 45.8073 51.7497 45.5762 51.7798 45.3852C51.81 45.1942 51.7195 44.9932 51.8468 44.8927C51.8839 44.8664 51.9288 44.8534 51.9742 44.8558C51.8157 44.7718 51.6827 44.6468 51.5889 44.494C51.461 44.2328 51.4313 43.9343 51.5051 43.653C51.5227 43.5249 51.5577 43.3998 51.609 43.2811C51.7597 42.9461 51.8937 42.859 51.8669 42.7417C51.8267 42.534 51.3409 42.5239 51.0092 42.4234C50.6005 42.3028 50.0711 41.9477 49.6021 40.8722C49.9296 41.2821 50.3435 41.6147 50.8144 41.8464C51.2852 42.078 51.8013 42.203 52.3259 42.2123C52.4163 42.2189 52.507 42.2189 52.5973 42.2123C54.0079 42.1587 54.9661 40.5003 55.2542 39.9575C55.1719 40.4661 54.971 40.9481 54.6679 41.3647C54.2371 41.9416 53.6303 42.3625 52.9391 42.5641C52.6915 42.8452 52.5381 43.1967 52.5002 43.5693C52.4886 43.8437 52.5379 44.1172 52.6445 44.3703C52.7511 44.6235 52.9123 44.8499 53.1167 45.0334C53.4214 45.304 53.7972 45.4818 54.1996 45.5459C54.6021 45.61 55.0145 45.5578 55.3882 45.3952C54.3604 46.0076 53.1659 46.2807 51.9742 46.1759V46.1726Z" fill="#E8D2A5"/>
<path d="M41.9829 25.2893C48.8363 23.5269 55.9639 23.0947 62.98 24.0162C61.9097 23.576 60.8076 23.2176 59.6832 22.944C52.1615 21.108 45.4674 23.6141 41.9829 25.2893Z" fill="#E8D2A5"/>
<path d="M37.3963 33.4947C37.3695 33.7814 37.3991 34.0705 37.4834 34.3457C37.6342 34.8349 37.9022 35.0694 37.9525 35.6323C37.9622 35.7438 37.9622 35.8559 37.9525 35.9673C37.9257 36.4029 38.0932 37.1768 38.8604 38.6477L38.4182 35.1934L37.3963 33.4947Z" fill="#E8D2A5"/>
<path d="M65.4124 31.8867C65.8379 33.2671 65.6972 33.964 65.4626 34.3459C65.1988 34.7276 65.0372 35.1706 64.9936 35.6325C64.9859 35.744 64.9859 35.856 64.9936 35.9675C65.0137 36.3763 64.8964 37.0363 64.2699 38.1353C64.2485 37.5615 64.2924 36.9871 64.4006 36.4232C64.4789 36.0192 64.591 35.6224 64.7356 35.2371L65.4124 31.8867Z" fill="#E8D2A5"/>
<path d="M40.9378 28.5192C41.1868 28.0335 41.5881 27.6428 42.0803 27.4069C42.5493 27.1639 43.0738 27.0484 43.6014 27.0718C45.2297 27.1154 46.332 28.3818 46.5598 28.6532C45.8962 28.2933 45.1858 28.0272 44.4491 27.8625C43.8192 27.7218 43.3903 27.7118 43.1625 27.9496C43.0486 28.0669 43.0888 28.1406 42.9581 28.3014C42.7404 28.5695 42.4321 28.613 41.8759 28.7403C41.6213 28.7973 41.2394 28.8911 40.7603 29.0318C40.7985 28.8544 40.8581 28.6823 40.9378 28.5192Z" fill="#E8D2A5"/>
<path d="M61.9856 27.0852C61.7225 27.0792 61.4636 27.0187 61.225 26.9076C61.053 26.8197 60.8949 26.7068 60.756 26.5725C60.3137 26.2375 59.6034 26.3548 59.0607 26.4553C58.0379 26.6764 57.074 27.1126 56.2329 27.7351C56.4403 27.7302 56.6473 27.7134 56.8527 27.6849C57.7037 27.5643 57.8914 27.3063 58.5916 27.2493C58.9283 27.2286 59.2662 27.2522 59.5967 27.3197C59.9653 27.3833 60.0289 27.4403 60.5617 27.5542C60.88 27.6212 61.607 27.772 61.674 27.6112C61.6974 27.5576 61.6271 27.514 61.6438 27.447C61.6773 27.3063 61.999 27.256 62.3575 27.2393L61.9856 27.0852Z" fill="#E8D2A5"/>
<path d="M46.1175 30.188C46.3319 30.1545 46.8948 30.0673 47.203 30.3789C47.5113 30.6905 47.203 31.1864 47.5381 31.6521C47.8731 32.1178 48.6069 32.0675 48.6069 32.282C48.6069 32.4964 48.0708 32.5165 46.9718 33.1732L46.9216 33.2033C46.0304 33.7294 45.5412 33.5082 45.166 33.8734C44.8979 34.1348 45.0688 34.3224 44.8309 34.4899C44.2413 34.9221 42.4856 34.0745 41.9228 32.7008C41.8291 32.4637 41.7704 32.2143 41.7485 31.9603C43.6147 31.5683 44.5361 31.0792 45.0353 30.6838C45.3464 30.4267 45.7196 30.2556 46.1175 30.188Z" fill="#E8D2A5"/>
<path d="M58.7857 28.6063C58.1438 28.5168 57.4896 28.6073 56.8961 28.8676C56.809 30.0168 56.7185 30.2982 56.6515 30.3284C56.587 30.3518 56.5252 30.3821 56.4672 30.4188L56.3935 30.4691C56.2458 30.5654 56.0886 30.6462 55.9244 30.7103C55.6866 30.8175 55.5693 30.8712 55.5659 30.9047C55.5458 31.0588 56.1154 31.1526 57.201 31.7992L57.2479 31.826C58.8661 32.801 59.0906 33.1394 59.5094 33.0958C59.9282 33.0523 59.8109 32.6603 60.6016 32.1778C61.3923 31.6954 61.915 31.826 62.2366 31.3302C62.3709 31.1065 62.4318 30.8464 62.4109 30.5864C62.0155 30.3116 61.466 29.9431 60.7959 29.5444C59.439 28.7336 59.0135 28.6431 58.7857 28.6063Z" fill="#E8D2A5"/>
<path d="M66.3612 28.2111C66.0106 28.4111 65.7022 28.6774 65.4533 28.9951C65.0043 29.5899 64.7736 30.3209 64.7999 31.0657C64.351 29.8428 63.9221 28.8778 63.6173 28.2245C62.8835 26.6666 62.4245 25.9931 62.5853 25.0651C62.7037 24.4808 63.0011 23.948 63.4363 23.5406L66.9174 25.0852C66.8069 25.4839 66.6963 25.8859 66.5824 26.288L66.3612 28.2111Z" fill="#595959"/>
<path d="M40.1069 26.2646C40.1963 27.0221 40.103 27.7899 39.8349 28.504C39.5667 29.218 39.1316 29.8575 38.5657 30.3689C38.3246 30.0779 38.0047 29.8627 37.6444 29.749C37.4846 29.6998 37.3189 29.6728 37.1518 29.6686C37.1351 29.5547 37.1083 29.3872 37.0781 29.1828C37.0312 28.8746 36.991 28.6233 36.9776 28.5395C36.8872 27.9901 36.7196 27.3066 36.6426 26.9849L39.9327 25.2695L40.1069 26.2646Z" fill="#595959"/>
<path d="M49.1967 38.2459C48.8221 38.3062 48.4799 38.4944 48.2284 38.7786C48.1046 38.9113 48.0148 39.0721 47.967 39.2472C47.9191 39.4223 47.9145 39.6065 47.9537 39.7837C48.0041 39.9545 48.0898 40.1128 48.2052 40.2485C48.3206 40.3841 48.4632 40.494 48.6238 40.571C48.9411 40.7298 49.3046 40.7702 49.649 40.685L49.7395 40.6649L49.7964 40.7419C50.1235 41.1935 50.559 41.5553 51.0629 41.794C51.5638 42.0196 52.1233 42.0806 52.661 41.9682C53.2048 41.8586 53.7093 41.6052 54.1218 41.2344C54.3288 41.047 54.5153 40.8382 54.678 40.6113C54.8363 40.3808 54.9731 40.1363 55.0868 39.8809L55.127 39.7904H55.2208C55.5395 39.8174 55.8597 39.7596 56.1488 39.6229C56.4361 39.4874 56.6613 39.2479 56.7787 38.9528C56.8992 38.6466 56.9203 38.3101 56.839 37.9912C56.7571 37.663 56.5895 37.3623 56.3532 37.1201C56.6112 37.341 56.8016 37.6302 56.9027 37.9544C57.0142 38.2939 57.0142 38.6602 56.9027 38.9997C56.786 39.3496 56.5404 39.6419 56.2159 39.8172C55.892 39.9873 55.5295 40.0704 55.1638 40.0584L55.3012 39.9747C55.0845 40.5381 54.7405 41.0437 54.2961 41.4522C53.847 41.8675 53.2954 42.1555 52.6979 42.2865C52.0916 42.412 51.4608 42.3355 50.9021 42.0687C50.3547 41.8013 49.8834 41.4003 49.5318 40.9028L49.6792 40.9564C49.2688 41.0433 48.8408 40.9765 48.4764 40.7687C48.2953 40.6695 48.1368 40.5337 48.011 40.3698C47.8853 40.206 47.795 40.0178 47.746 39.8172C47.7117 39.6162 47.7281 39.4099 47.7936 39.2169C47.8591 39.0238 47.9717 38.8501 48.1212 38.7116C48.4078 38.4257 48.7922 38.2593 49.1967 38.2459Z" fill="black"/>
<path d="M50.8717 34.8785C50.4816 34.3222 50.2486 33.6711 50.1973 32.9937C50.146 32.3162 50.2783 31.6375 50.5802 31.0288C50.7142 30.6922 50.9481 30.4045 51.2503 30.2046C51.423 30.1096 51.6203 30.0687 51.8165 30.0874C52.0042 30.1099 52.1836 30.1778 52.3392 30.285C52.6351 30.4848 52.8815 30.7495 53.0595 31.059C53.2401 31.3703 53.3339 31.7244 53.3309 32.0842C53.316 32.7408 53.3418 33.3976 53.408 34.0509C53.4805 34.6954 53.6453 35.3261 53.8971 35.9238C54.0231 36.2199 54.184 36.5 54.3762 36.7581C54.5985 37.0114 54.7897 37.2903 54.9458 37.589C55.2035 38.2129 55.2824 38.8962 55.1736 39.5624C55.219 38.9071 55.0895 38.2515 54.7984 37.6627C54.6345 37.3814 54.4364 37.1214 54.2087 36.8887C53.9948 36.6244 53.8115 36.3367 53.6626 36.031C53.0595 34.8014 52.9925 33.4009 52.9925 32.0943C53.0028 31.788 52.9299 31.4846 52.7814 31.2165C52.6289 30.9517 52.4209 30.7231 52.1717 30.5464C52.0622 30.4598 51.9302 30.4062 51.7914 30.392C51.6525 30.3777 51.5125 30.4034 51.3877 30.466C51.1385 30.634 50.9384 30.8653 50.808 31.136C50.5078 31.7095 50.3536 32.3482 50.3591 32.9955C50.3833 33.6542 50.5587 34.2984 50.8717 34.8785Z" fill="black"/>
<path d="M51.8068 42.8389C51.7131 43.0652 51.6446 43.3012 51.6024 43.5425C51.5555 43.7769 51.5555 44.0183 51.6024 44.2528C51.6154 44.3637 51.6551 44.4698 51.7181 44.562C51.7811 44.6542 51.8656 44.7297 51.9642 44.7821C52.1936 44.85 52.4386 44.8441 52.6645 44.7654C52.5565 44.8379 52.4347 44.8875 52.3068 44.9111C52.1789 44.9348 52.0475 44.9319 51.9207 44.9027C51.7921 44.8531 51.6794 44.7695 51.5945 44.661C51.5095 44.5525 51.4555 44.423 51.4382 44.2863C51.3882 44.0302 51.4008 43.7658 51.4751 43.5157C51.543 43.2716 51.6555 43.0421 51.8068 42.8389Z" fill="black"/>
<path d="M43.4375 43.4922C43.2521 43.9746 43.1304 44.4792 43.0757 44.9932C43.0376 45.5095 43.0657 46.0285 43.1595 46.5377C42.8404 46.0784 42.6934 45.5213 42.7442 44.9643C42.7951 44.4074 43.0406 43.8861 43.4375 43.4922Z" fill="black"/>
<path d="M58.2029 39.0328C58.2411 39.5084 58.3928 39.968 58.6452 40.373C58.9054 40.7791 59.2593 41.1169 59.6771 41.358C59.1899 41.2105 58.7724 40.892 58.5015 40.461C58.2306 40.03 58.1245 39.5157 58.2029 39.0127V39.0328Z" fill="black"/>
<path d="M47.4578 38.8487C47.3767 39.4404 47.1235 39.9952 46.7298 40.4443C46.3361 40.8934 45.8192 41.217 45.2432 41.3749C45.7587 41.1173 46.2204 40.7636 46.6034 40.3329C46.9822 39.8985 47.2724 39.3943 47.4578 38.8487Z" fill="black"/>
<path d="M54.9863 27.7017C55.211 27.6321 55.4195 27.5182 55.5995 27.3667C55.767 27.1925 55.8273 26.9982 55.9345 27.0317C56.0417 27.0652 56.0049 27.2092 56.0953 27.2327C56.1858 27.2561 56.3131 26.9312 56.6046 26.8507C56.7956 26.8005 56.8492 26.9178 56.9999 26.8507C57.1507 26.7837 57.1675 26.5526 57.3953 26.4219C57.4891 26.3683 57.5125 26.3951 57.6566 26.3482C58.1257 26.2041 58.2094 25.8389 58.5344 25.8456C58.655 25.8456 58.6517 25.8992 58.8125 25.9026C58.9784 25.8882 59.141 25.8486 59.295 25.7853C59.5195 25.7384 59.5965 25.8322 59.8947 25.8691C60.3269 25.926 60.3437 25.7552 60.6887 25.7987C61.1109 25.849 61.0573 26.1002 61.8011 26.4453C61.905 26.4956 62.1529 26.6028 62.1361 26.7067C62.1194 26.8105 62.0289 26.7804 62.0189 26.8407C61.9887 26.9948 62.5884 27.1757 62.5683 27.2729C62.5482 27.37 62.2333 27.36 61.8748 27.2963C61.5478 27.2165 61.2325 27.0949 60.9367 26.9345C60.38 26.67 59.7576 26.5756 59.1476 26.6631C58.9394 26.7273 58.7348 26.8022 58.5344 26.8876C57.2546 27.3835 56.752 27.6113 56.752 27.6113C56.5889 27.6972 56.4098 27.7485 56.226 27.7621C55.9814 27.7621 55.9177 27.6917 55.6263 27.6749C55.251 27.6347 54.9964 27.7319 54.9863 27.7017Z" fill="#595959"/>
<path d="M47.5553 28.8645C47.3605 28.6661 47.1957 28.4403 47.0661 28.1944C46.9891 28.0235 46.9522 27.8593 46.8885 27.8593C46.8249 27.8593 46.8148 28.1006 46.7143 28.1341C46.5368 28.1877 46.3793 27.4975 45.7528 26.9648C45.3273 26.6096 45.0827 26.6733 44.8113 26.2947C44.7409 26.2009 44.6337 26.0334 44.4997 26.0434C44.3657 26.0535 44.3489 26.2411 44.1647 26.298C43.9804 26.355 43.8095 26.1473 43.5582 26.221C43.4745 26.2478 43.4711 26.2779 43.3639 26.3416C43.1429 26.4365 42.9042 26.4834 42.6637 26.479C42.3928 26.5331 42.1429 26.6632 41.9433 26.8542C41.6083 27.1591 41.6652 27.3769 41.3603 27.5243C41.1426 27.6248 40.9348 27.5947 40.8913 27.722C40.8477 27.8493 40.9918 27.9163 40.9516 28.0135C40.8913 28.1642 40.5261 28.0872 40.4859 28.2111C40.4457 28.3351 40.6903 28.4088 40.6802 28.5629C40.6802 28.7908 40.124 28.8678 40.1374 28.975C40.1508 29.0822 40.6534 29.2096 40.9382 28.975C41.1325 28.8243 41.0722 28.6199 41.3068 28.4658C41.4776 28.3519 41.5748 28.4256 41.7524 28.3284C42.0036 28.191 42.007 27.9364 42.141 27.722C42.523 27.1088 43.719 27.2127 43.8564 27.2261C44.3382 27.2896 44.7978 27.4676 45.1966 27.7454C46.1079 28.3049 46.6038 29.0588 46.8215 28.9281C46.9321 28.8645 46.8617 28.6366 46.9958 28.5763C47.1867 28.5093 47.5218 28.8879 47.5553 28.8645Z" fill="#595959"/>
<path d="M46.9248 25.5879C47.5302 25.9536 48.2281 26.1374 48.9351 26.1173C49.1149 26.0906 49.2961 26.075 49.4778 26.0704C49.6676 26.0776 49.8556 26.1091 50.0374 26.1642C50.3815 26.2916 50.7045 26.4701 50.9956 26.6935C51.1322 26.7827 51.2856 26.8429 51.4463 26.8706C51.6071 26.8982 51.7718 26.8927 51.9303 26.8543C52.2486 26.7605 52.6004 26.5997 52.9355 26.5193C53.6375 26.3468 54.3634 26.2936 55.0831 26.3618C54.3728 26.3867 53.6684 26.4993 52.9857 26.6969C52.6507 26.8007 52.3391 26.9381 51.9806 27.0587C51.7915 27.1095 51.594 27.1208 51.4003 27.092C51.2066 27.0632 51.021 26.9949 50.8549 26.8912C50.5843 26.6708 50.2815 26.4934 49.9569 26.3652C49.7969 26.3108 49.6299 26.2792 49.4611 26.2714C49.3003 26.2714 49.126 26.2915 48.9351 26.2948C48.2053 26.2877 47.4984 26.0391 46.9248 25.5879Z" fill="black"/>
<path d="M36.1904 31.7492C36.1957 31.5259 36.2494 31.3063 36.3479 31.1059C36.3671 31.0744 36.3968 31.0507 36.4317 31.0389C36.4525 31.0336 36.4742 31.0333 36.4952 31.0379C36.5161 31.0426 36.5357 31.0521 36.5523 31.0657C36.6004 31.1066 36.6382 31.1583 36.6628 31.2164C36.7099 31.3168 36.7513 31.4197 36.7868 31.5247C36.9275 31.9334 37.0582 32.3422 37.2291 32.7308C37.3931 33.1199 37.5881 33.4953 37.812 33.8532C38.0733 34.2093 38.2979 34.591 38.4821 34.9924C38.6471 35.4086 38.7444 35.8487 38.7703 36.2957L38.8205 36.9423C38.844 37.1567 38.8641 37.3712 38.8842 37.5856L38.9981 38.8722C39.0249 39.301 39.0617 39.7332 39.0785 40.1654C38.988 39.7433 38.9177 39.3178 38.8373 38.8923L38.6262 37.6124C38.5491 37.1869 38.4989 36.7547 38.4553 36.3258C38.4368 36.1186 38.4055 35.9127 38.3615 35.7094C38.3115 35.5075 38.2477 35.3094 38.1705 35.1163C37.997 34.732 37.7872 34.3652 37.544 34.0207C37.3193 33.642 37.1341 33.2412 36.9912 32.8246C36.8438 32.4125 36.7366 31.987 36.6327 31.5716C36.6059 31.4677 36.5824 31.3639 36.5489 31.2667C36.5358 31.2237 36.5141 31.1838 36.4853 31.1494C36.4652 31.1293 36.4518 31.1226 36.4149 31.1494C36.3074 31.3355 36.2316 31.5382 36.1904 31.7492Z" fill="black"/>
<path d="M66.8972 29.1055C66.666 29.5042 66.4247 29.8962 66.2271 30.3016C66.0035 30.6989 65.8043 31.1096 65.6307 31.5312C65.4552 31.9452 65.3325 32.3797 65.2655 32.8244L65.0377 34.1881C64.9472 34.6404 64.8702 35.0994 64.7629 35.5483L64.5787 36.2184C64.5215 36.4387 64.479 36.6626 64.4514 36.8885C64.3953 37.3408 64.3695 37.7964 64.3743 38.2521C64.3743 38.7111 64.3743 39.1701 64.3743 39.6325C64.2065 38.719 64.1425 37.7896 64.1833 36.8617C64.1971 36.6248 64.2307 36.3894 64.2838 36.1581L64.4447 35.488C64.5418 35.0424 64.6122 34.5901 64.6993 34.1479L64.9439 32.8077C65.0256 32.3419 65.1746 31.8905 65.3861 31.4675C65.7954 30.6236 66.3025 29.8308 66.8972 29.1055Z" fill="black"/>
<path d="M36.3515 24.0162C36.308 22.7397 36.3013 22.0998 36.1036 21.4398C35.7183 20.1532 35.2392 20.0627 35.0784 19.1213C34.7735 17.3489 36.1606 15.801 36.251 15.7005C36.7134 15.2013 37.1288 14.9902 39.4641 14.0454C41.4207 13.2547 42.399 12.8593 42.9117 12.6851C45.2402 11.8844 47.1265 11.2344 49.5221 11.0099C51.0465 10.8692 52.0918 10.9663 54.1758 11.164C57.7641 11.4991 58.1561 11.9715 64.7966 13.965C65.4746 14.1316 66.0738 14.5282 66.4919 15.0874C66.6758 15.3545 66.7909 15.663 66.827 15.9853C66.848 16.3896 66.7477 16.791 66.5389 17.1378C65.7113 18.6891 67.3597 21.6676 66.8437 25.7719C66.8136 26.0064 66.7834 26.194 66.77 26.2878C65.7212 25.3553 64.5416 24.5809 63.2688 23.9894C59.044 22.0395 54.608 22.6024 50.6176 23.1116C49.5891 23.2423 48.5404 23.4467 48.5404 23.4467C47.2639 23.6812 46.2453 23.9358 45.4111 24.1436C42.8882 24.7835 41.5916 25.1487 40.094 25.9863C38.8688 26.6639 37.7529 27.5223 36.7837 28.5326C36.6211 28.0069 36.5001 27.4691 36.4219 26.9244C36.2879 25.8623 36.3951 25.4469 36.3515 24.0162Z" fill="white" stroke="black" stroke-width="0.1" stroke-miterlimit="10"/>
<path d="M46.9857 31.796C46.712 32.2595 46.3318 32.6511 45.8767 32.9385C45.4694 33.1983 45.009 33.3632 44.5294 33.4212C44.0499 33.4792 43.5634 33.4287 43.1059 33.2736C42.9483 33.2119 42.7977 33.1332 42.657 33.0391C42.2577 32.7634 41.9498 32.3749 41.7725 31.9234L42.0371 31.6989C42.1911 31.4989 42.378 31.3266 42.59 31.1896C42.9016 30.9852 43.3438 30.9115 44.2183 30.7708C44.7476 30.6837 44.9386 30.6737 45.153 30.7708C45.3521 30.8733 45.526 31.0187 45.6623 31.1963C46.0316 31.5271 46.4935 31.7365 46.9857 31.796Z" fill="white"/>
<path d="M62.1631 30.4357L62.4647 30.6032L62.1531 30.8612C61.7698 30.9142 61.3989 31.0344 61.0575 31.2164C60.3438 31.595 60.3639 31.93 59.8815 32.0272C59.399 32.1243 58.8764 31.8965 58.1828 31.6017C58.1225 31.5782 57.9717 31.5112 57.7573 31.4375C57.5323 31.3587 57.303 31.2927 57.0705 31.2398C56.9968 31.0489 56.9465 31.002 56.9096 31.0053C56.8728 31.0087 56.8661 31.0489 56.8426 31.0422C56.8192 31.0355 56.7823 30.9182 56.779 30.8948C56.741 30.7096 56.6516 30.5389 56.521 30.4022L57.1207 30.1509C57.21 30.0578 57.2907 29.9569 57.362 29.8494C57.477 29.6575 57.5745 29.4557 57.6534 29.2463C57.9181 28.7672 58.806 28.7739 58.93 28.7739C59.4793 28.8116 60.0073 29.0019 60.4544 29.3234C60.6454 29.4373 60.6621 29.4675 61.0407 29.7221C61.5098 30.0471 61.9018 30.2783 62.1631 30.4357Z" fill="white"/>
<path d="M42.8911 33.1597C43.3758 33.334 43.8917 33.4048 44.4055 33.3674C44.9179 33.3179 45.4166 33.1736 45.8763 32.9419C45.6758 33.1116 45.4496 33.2484 45.2063 33.3473C44.958 33.4484 44.696 33.5116 44.429 33.535C43.889 33.5828 43.3484 33.4509 42.8911 33.1597Z" fill="black"/>
<path d="M43.1659 30.9919C42.9884 31.1542 42.8704 31.3712 42.8308 31.6084C42.8168 31.7615 42.8346 31.9158 42.883 32.0616C42.9314 32.2075 43.0095 32.3418 43.1122 32.4561C43.3261 32.7097 43.6228 32.8795 43.9499 32.9352C44.1842 32.9796 44.4253 32.9727 44.6567 32.9148C44.8881 32.857 45.1042 32.7496 45.29 32.6001C45.5021 32.4243 45.6466 32.1804 45.6988 31.9099C45.7144 31.698 45.6794 31.4854 45.5967 31.2897C45.514 31.094 45.3859 30.9207 45.223 30.7842" fill="#8EBADA"/>
<path d="M43.1659 30.9919C42.9884 31.1542 42.8704 31.3712 42.8308 31.6084C42.8168 31.7615 42.8346 31.9158 42.883 32.0616C42.9314 32.2075 43.0095 32.3418 43.1122 32.4561C43.3261 32.7097 43.6228 32.8795 43.9499 32.9352C44.1842 32.9796 44.4253 32.9727 44.6567 32.9148C44.8881 32.857 45.1042 32.7496 45.29 32.6001C45.5021 32.4243 45.6466 32.1804 45.6988 31.9099C45.7144 31.698 45.6794 31.4854 45.5967 31.2897C45.514 31.094 45.3859 30.9207 45.223 30.7842" stroke="black" stroke-width="0.1" stroke-miterlimit="10"/>
<path d="M56.9932 31.2197C57.4585 31.2931 57.9168 31.4051 58.3635 31.5548C58.588 31.6285 58.8057 31.719 59.0336 31.8094C59.2315 31.9134 59.4501 31.9718 59.6735 31.9803C60.1191 31.9803 60.424 31.5481 60.8495 31.3303C61.2632 31.0908 61.7175 30.9295 62.1897 30.8545C61.7446 30.9907 61.3207 31.188 60.9299 31.4409C60.7356 31.5715 60.558 31.7089 60.3737 31.8597C60.1884 32.0272 59.9527 32.1286 59.7037 32.1478C59.4563 32.135 59.2149 32.0675 58.9967 31.9501C58.7856 31.853 58.5679 31.7659 58.3534 31.6754C57.8844 31.5112 57.4421 31.3605 56.9932 31.2197Z" fill="black"/>
<path d="M60.7859 29.5545C60.4645 29.2955 60.1051 29.0876 59.7205 28.938C59.3745 28.8057 59.011 28.7244 58.6416 28.6968L58.3803 28.8777C58.2195 29.0308 58.0913 29.2148 58.0032 29.4185C57.9151 29.6223 57.869 29.8418 57.8677 30.0638C57.8898 30.4152 58.0262 30.7497 58.256 31.0164C58.4858 31.2832 58.7966 31.4675 59.1408 31.5413C59.3446 31.5889 59.5562 31.5924 59.7613 31.5513C59.9665 31.5103 60.1605 31.4258 60.3302 31.3034C60.5754 31.0931 60.7504 30.8128 60.8318 30.5003C60.9132 30.1877 60.8972 29.8577 60.7859 29.5545Z" fill="#8EBADA" stroke="black" stroke-width="0.1" stroke-miterlimit="10"/>
<path d="M43.8359 30.8443C44.1125 30.7897 44.3846 30.7147 44.6501 30.6198C44.9094 30.5256 45.1586 30.4055 45.3939 30.2613C45.6572 30.1068 45.9602 30.0333 46.265 30.0502C46.5594 30.0648 46.8458 30.151 47.0992 30.3015C46.567 30.1616 46.0016 30.2261 45.5145 30.4824C45.2638 30.6366 44.9901 30.7497 44.7037 30.8175C44.4186 30.8798 44.1244 30.8889 43.8359 30.8443Z" fill="black"/>
<path d="M56.8794 28.8778C57.1042 28.6867 57.365 28.5426 57.6463 28.454C57.9277 28.3654 58.224 28.3341 58.5178 28.3619C59.1075 28.4135 59.6591 28.6751 60.0723 29.099C59.5815 28.8393 59.0462 28.6745 58.4943 28.6132C57.9426 28.5709 57.3888 28.6617 56.8794 28.8778Z" fill="black"/>
<path d="M41.4573 31.4106C42.4624 29.4004 45.0825 29.4004 46.2517 29.4004C47.0424 29.4004 47.9538 29.4004 48.6339 30.0705C49.428 30.8243 49.4012 31.9668 49.3878 32.5263C49.3878 32.7441 49.2437 36.3458 46.4829 37.1834C45.7252 37.3912 44.9244 37.3828 44.1712 37.1589C43.418 36.9351 42.7425 36.5049 42.2212 35.917C41.1558 34.7075 40.7236 32.858 41.4573 31.4106Z" stroke="black" stroke-width="0.1" stroke-miterlimit="10"/>
<path d="M55.8507 29.042C55.284 29.4972 54.8319 30.079 54.5307 30.7406C54.2275 31.3859 54.1326 32.1096 54.2593 32.8112C54.3918 33.5007 54.7445 34.1285 55.2644 34.6003C55.7915 35.0761 56.4157 35.4316 57.0937 35.6423C57.7657 35.8702 58.4774 35.9569 59.1844 35.897C59.8899 35.8433 60.5659 35.5912 61.1343 35.1699C61.702 34.7374 62.1212 34.1391 62.3338 33.4578C62.5547 32.7665 62.6064 32.0323 62.4846 31.3169C62.6688 32.0345 62.6688 32.7871 62.4846 33.5047C62.2894 34.2368 61.8699 34.8893 61.2851 35.3709C60.6907 35.8483 59.9675 36.1376 59.2079 36.2018C58.4573 36.2769 57.6994 36.1936 56.9832 35.9573C56.2641 35.7248 55.6044 35.3384 55.05 34.8248C54.4819 34.3083 54.1072 33.6132 53.9879 32.8548C53.8809 32.1053 54.0122 31.3411 54.3631 30.6703C54.715 30.0116 55.2264 29.4517 55.8507 29.042Z" fill="black"/>
<path d="M49.8198 30.831C49.9814 30.4231 50.2615 30.073 50.6239 29.8259C50.9898 29.5674 51.4291 29.4335 51.877 29.4439C52.3312 29.456 52.7656 29.6321 53.0999 29.9398C53.4212 30.2365 53.6483 30.6209 53.7532 31.0454C53.5676 30.6728 53.3022 30.3457 52.9759 30.0872C52.6576 29.8509 52.2734 29.7197 51.877 29.712C51.4741 29.7029 51.0765 29.8049 50.7278 30.0068C50.3681 30.2113 50.0581 30.4927 49.8198 30.831Z" fill="black"/>
<path d="M38.5459 30.1948C39.0437 30.5124 39.5065 30.8819 39.9263 31.2971C40.3562 31.7014 40.7415 32.1507 41.0755 32.6373C40.5759 32.3195 40.112 31.9488 39.6917 31.5316C39.2637 31.1277 38.8796 30.6796 38.5459 30.1948Z" fill="black"/>
<path d="M62.6992 30.3455C62.8873 30.134 63.1158 29.9622 63.3713 29.8402C63.6268 29.7182 63.904 29.6485 64.1868 29.6353C64.0042 29.852 63.7752 30.0249 63.5167 30.1412C63.2625 30.2684 62.9834 30.3381 62.6992 30.3455Z" fill="black"/>
<path d="M47.6357 45.5225C47.9771 46.3058 48.5135 46.9887 49.1937 47.5059C50.1281 48.1585 51.2416 48.506 52.3814 48.5006C53.5211 48.4952 54.6313 48.1372 55.5595 47.4758C56.4641 46.7959 57.134 45.8507 57.4759 44.772C56.5278 45.1405 55.7237 45.4152 55.1306 45.6029C53.8608 46.015 53.2142 46.2193 52.5274 46.273C52.2962 46.273 51.8908 46.2964 50.2122 46.0217C49.197 45.8408 48.3259 45.6699 47.6357 45.5225Z" fill="#EA9C9A"/>
<path d="M60.7388 43.2076C59.4221 43.8475 58.092 44.4573 56.7585 45.0604C56.0884 45.3652 55.4183 45.6534 54.7281 45.9114C54.3798 46.0468 54.0227 46.1587 53.6594 46.2464C53.2911 46.3244 52.9166 46.3693 52.5403 46.3804C51.8011 46.3654 51.064 46.2937 50.3357 46.166C49.607 46.0671 48.8844 45.9273 48.1714 45.7472C46.7612 45.375 45.282 45.3486 43.8594 45.6701C44.5613 45.4495 45.2888 45.32 46.0237 45.2848C46.7635 45.261 47.5032 45.3319 48.225 45.4959C48.942 45.6366 49.6523 45.7807 50.3759 45.8645C51.0898 45.9774 51.8109 46.0378 52.5336 46.0454C53.2496 46.0306 53.9578 45.8935 54.6276 45.64C55.2977 45.3987 55.9678 45.1039 56.658 44.8359C58.0116 44.2697 59.3685 43.7202 60.7388 43.2076Z" fill="black"/>
<path d="M50.9391 47.1341C50.8435 47.0608 50.7737 46.9589 50.7399 46.8432C50.7062 46.7275 50.7102 46.6041 50.7515 46.4909C50.793 46.3788 50.8695 46.2831 50.9697 46.2179C51.0699 46.1527 51.1884 46.1216 51.3077 46.129C51.1248 46.2173 50.9822 46.3718 50.909 46.5612C50.851 46.7497 50.8617 46.9527 50.9391 47.1341Z" fill="black"/>
<path d="M52.6777 47.4993C52.7507 47.0556 52.7507 46.6029 52.6777 46.1592C52.8283 46.3496 52.9077 46.5866 52.9022 46.8293C52.9066 47.0718 52.8273 47.3084 52.6777 47.4993Z" fill="black"/>
<path d="M53.7501 46.8696C53.7166 46.7155 53.6965 46.5882 53.6563 46.4608C53.6161 46.3335 53.5692 46.2196 53.5122 46.0688C53.5847 46.1011 53.6494 46.1487 53.7018 46.2084C53.7542 46.268 53.793 46.3383 53.8156 46.4144C53.8382 46.4905 53.8441 46.5706 53.8328 46.6492C53.8214 46.7278 53.7932 46.803 53.7501 46.8696Z" fill="black"/>
<path d="M41.5981 32.1715C41.8111 31.6698 42.1816 31.2511 42.6535 30.9787C43.1522 30.7689 43.6819 30.6421 44.2215 30.6034C44.4919 30.5613 44.7654 30.5422 45.039 30.5465C45.3328 30.6117 45.5926 30.7821 45.7694 31.0256C46.0825 31.4326 46.5368 31.7075 47.0426 31.7962C46.7731 31.8131 46.5032 31.7708 46.2519 31.6722C45.9997 31.5633 45.7718 31.405 45.5818 31.2065C45.4949 31.1204 45.4007 31.0419 45.3004 30.972C45.2122 30.9147 45.1128 30.877 45.0089 30.8614C44.7596 30.8695 44.5111 30.8941 44.2651 30.9351L43.5012 31.0524C43.2546 31.0795 43.0125 31.138 42.7808 31.2266C42.3158 31.441 41.9099 31.7652 41.5981 32.1715Z" fill="black"/>
<path d="M56.4676 31.0523C56.4134 30.9821 56.3736 30.9018 56.3506 30.8161C56.3276 30.7304 56.3218 30.641 56.3336 30.5531C56.3441 30.5055 56.3648 30.4608 56.3943 30.422C56.4238 30.3832 56.4614 30.3514 56.5045 30.3286C56.5843 30.2886 56.6672 30.2549 56.7524 30.2281C56.9064 30.1816 57.0452 30.0948 57.1545 29.9768C57.2525 29.851 57.3202 29.7042 57.3521 29.548C57.3955 29.3658 57.4804 29.1961 57.6001 29.0521C57.7252 28.9065 57.8823 28.7918 58.0591 28.7171C58.4025 28.5952 58.7696 28.5551 59.1312 28.5998C59.4918 28.6343 59.8377 28.7599 60.1363 28.965C60.4345 29.1493 60.716 29.3436 60.9974 29.5413C61.567 29.9266 62.1332 30.3119 62.6726 30.724C62.0662 30.3889 61.4698 30.0539 60.8801 29.7021C60.582 29.5279 60.2972 29.3369 60.0023 29.1694C59.7321 28.9819 59.4184 28.8665 59.091 28.8343C58.7678 28.7911 58.4389 28.822 58.1294 28.9248C57.9816 28.9795 57.8491 29.069 57.7429 29.1856C57.6368 29.3022 57.5603 29.4425 57.5197 29.5949C57.4663 29.7722 57.3748 29.9357 57.2516 30.074C57.1178 30.2012 56.9524 30.2902 56.7725 30.332C56.6016 30.3722 56.4375 30.399 56.3805 30.5565C56.3477 30.7268 56.3787 30.9033 56.4676 31.0523Z" fill="black"/>
<path d="M45.0355 31.7658C45.014 31.8786 44.9608 31.983 44.8822 32.0668C44.8035 32.1506 44.7027 32.2103 44.5915 32.239C44.4803 32.2677 44.3631 32.2643 44.2538 32.229C44.1445 32.1937 44.0474 32.1281 43.9739 32.0398C43.9004 31.9515 43.8534 31.8442 43.8386 31.7303C43.8237 31.6163 43.8415 31.5005 43.8899 31.3963C43.9383 31.2921 44.0153 31.2038 44.112 31.1417C44.2086 31.0796 44.3209 31.0462 44.4358 31.0454C44.6101 31.0632 44.7705 31.1486 44.8826 31.2833C44.9947 31.4179 45.0496 31.5911 45.0355 31.7658Z" fill="black"/>
<path d="M44.9049 31.6987C44.9049 31.873 44.848 32.0137 44.7743 32.0137C44.7006 32.0137 44.6436 31.873 44.6403 31.6987C44.6369 31.5245 44.7006 31.3838 44.7709 31.3838C44.8413 31.3838 44.9049 31.5245 44.9049 31.6987Z" fill="white"/>
<path d="M59.7973 30.1378C59.7812 30.2596 59.7304 30.3742 59.6509 30.468C59.5714 30.5617 59.4666 30.6305 59.349 30.6663C59.2314 30.702 59.106 30.7031 58.9878 30.6695C58.8696 30.6359 58.7636 30.5689 58.6824 30.4767C58.6012 30.3844 58.5483 30.2707 58.5301 30.1491C58.5118 30.0276 58.5289 29.9034 58.5793 29.7913C58.6298 29.6792 58.7114 29.5841 58.8145 29.5172C58.9176 29.4503 59.0378 29.4145 59.1607 29.4141C59.2506 29.4183 59.3386 29.4405 59.4197 29.4795C59.5008 29.5184 59.5732 29.5733 59.6326 29.6408C59.692 29.7084 59.7372 29.7872 59.7655 29.8726C59.7938 29.9579 59.8046 30.0481 59.7973 30.1378Z" fill="black"/>
<path d="M59.0802 30.1544C59.0802 30.3286 59.0232 30.4693 58.9495 30.4693C58.8758 30.4693 58.8188 30.3286 58.8188 30.1544C58.8188 29.9802 58.8758 29.8394 58.9495 29.8394C59.0232 29.8394 59.0802 29.9802 59.0802 30.1544Z" fill="white"/>
<path d="M41.7251 21.5737C47.8798 21.1449 58.6179 20.0124 59.0334 16.8061C59.074 16.2693 58.9033 15.7379 58.5576 15.3252" fill="white"/>
<path d="M41.7251 21.5737C43.4003 21.3861 45.0755 21.2119 46.734 20.9975C48.3924 20.783 50.0643 20.5552 51.706 20.2269C53.3553 19.9502 54.9734 19.5125 56.5373 18.9202C57.3174 18.6447 58.0228 18.1917 58.5978 17.5968C58.8699 17.289 59.0127 16.8882 58.9965 16.4777C58.9514 16.0623 58.8002 15.6654 58.5576 15.3252C58.8343 15.652 59.0162 16.0482 59.0836 16.471C59.1281 16.9103 59.0009 17.3498 58.7285 17.6973C58.1544 18.3399 57.4386 18.84 56.6378 19.1581C55.8554 19.4992 55.0478 19.7792 54.2222 19.9957C53.408 20.2168 52.5838 20.4011 51.7563 20.5653C50.0945 20.8668 48.4259 21.0991 46.7507 21.2622C45.0856 21.4129 43.407 21.5235 41.7251 21.5737Z" fill="black"/>
<path d="M65.4968 37.857C66.3238 39.3377 66.6305 41.0529 66.3679 42.7285C66.224 43.5552 66.0281 44.3721 65.7816 45.1743L65.1115 47.5799C64.6592 49.1848 64.2102 50.7929 63.7345 52.3911C63.2587 53.9893 62.8097 55.5941 62.3206 57.1889L62.1531 57.735L62.076 57.1722C61.9274 56.1338 61.471 55.1638 60.7657 54.3875C60.0603 53.6111 59.1385 53.0639 58.1191 52.8166C58.9132 52.9589 59.6625 53.2864 60.3063 53.7725C60.9502 54.2585 61.4703 54.8895 61.8247 55.6142C62.0662 56.0981 62.2345 56.6153 62.3239 57.1487L62.0793 57.132C62.5115 55.5204 62.9806 53.9189 63.4195 52.314C63.8584 50.7092 64.3409 49.1077 64.8099 47.5062L65.5135 45.1073C65.777 44.3213 65.9929 43.5203 66.1602 42.7084C66.4608 41.0618 66.2284 39.3624 65.4968 37.857Z" fill="black"/>
<path d="M52.0884 58.8404C52.5176 58.8926 52.9493 58.9217 53.3816 58.9276C53.5961 58.9276 53.8038 58.9276 54.0182 58.9041C54.2213 58.9039 54.4232 58.8745 54.6179 58.817C54.996 58.6784 55.3231 58.4284 55.5561 58.1C55.6199 58.0188 55.677 57.9325 55.7269 57.842C55.7269 57.842 55.7269 57.842 55.7269 57.8152C55.7407 57.7991 55.7585 57.7869 55.7785 57.7798C55.7985 57.7728 55.82 57.7711 55.8408 57.775C55.8811 57.775 55.8744 57.775 55.871 57.775V57.7951L55.8308 57.8755L55.7437 58.0363C55.6277 58.2502 55.4835 58.4474 55.3148 58.6227C55.3847 58.4428 55.4832 58.2754 55.6063 58.1268L55.7001 58.0162L55.7504 57.9593H55.7839C55.8033 57.9648 55.8239 57.965 55.8434 57.9597C55.8629 57.9543 55.8805 57.9438 55.8945 57.9291C55.9146 57.899 55.8945 57.9124 55.8945 57.9124V57.9325C55.8524 58.039 55.802 58.1421 55.7437 58.2407C55.5098 58.6545 55.1354 58.9707 54.6883 59.1319C54.4632 59.1917 54.2309 59.2199 53.9981 59.2157C53.7742 59.217 53.5504 59.2047 53.328 59.1788C52.9005 59.1274 52.4828 59.0134 52.0884 58.8404Z" fill="black"/>
<path d="M45.9937 57.7383C46.5466 58.8712 47.3266 59.8782 48.2853 60.6967C48.7759 61.0914 49.2906 61.4551 49.8265 61.7856C50.3559 62.1273 50.9009 62.4523 51.4615 62.7606C50.8481 62.5706 50.2554 62.3191 49.6925 62.0101C49.1183 61.713 48.5751 61.3594 48.0709 60.9547C47.5705 60.5361 47.1356 60.0449 46.781 59.4973C46.4316 58.9539 46.1661 58.3609 45.9937 57.7383Z" fill="black"/>
<path d="M19.8839 16.8731C19.7483 17.6338 19.6866 18.4057 19.6996 19.1782C19.7432 21.9658 20.7885 23.9459 22.3129 27.2193C23.9211 30.6668 24.7252 32.389 24.9129 32.7508C30.2903 42.9931 34.7798 47.3352 33.2688 49.8078C33.0142 50.2266 32.3474 50.9872 31.5936 50.947C30.6153 50.8967 29.9552 49.5063 29.6705 48.8898C26.0419 41.0264 24.2294 37.093 23.9111 36.0342C23.1204 33.3907 21.8774 29.3334 20.1854 24.1838C19.3925 22.4402 18.9377 20.562 18.8452 18.6489C18.8084 17.8933 18.8308 17.136 18.9122 16.384C18.5346 15.9935 18.2394 15.5308 18.0445 15.0237C17.8432 14.5311 17.7484 14.0016 17.7663 13.4697C17.7842 12.9379 17.9144 12.4159 18.1484 11.938C18.3913 11.4691 18.7389 11.0624 19.1641 10.7492C19.5894 10.4361 20.081 10.2249 20.6009 10.1321C21.0324 10.0678 21.4727 10.095 21.8931 10.2121C22.3134 10.3291 22.7044 10.5333 23.0407 10.8114C23.3769 11.0895 23.6509 11.4353 23.8447 11.8262C24.0385 12.2171 24.1479 12.6445 24.1657 13.0805C24.2353 13.8566 24.0621 14.6352 23.6698 15.3085C23.5827 15.4492 22.6647 16.9335 21.023 17.0373C20.6363 17.0562 20.2495 17.0005 19.8839 16.8731Z" fill="#C7E8F1" stroke="black" stroke-width="0.1" stroke-miterlimit="10"/>
<path d="M19.2709 11.3719C17.8705 12.5177 18.1285 14.7659 19.1738 15.7844C19.6436 16.2186 20.2563 16.4653 20.8959 16.4779C21.3098 16.4572 21.7137 16.3437 22.0779 16.146C22.4421 15.9483 22.7572 15.6713 23 15.3354C23.727 14.3806 24.1123 12.5948 22.9799 11.4724C21.9714 10.474 20.2928 10.5376 19.2709 11.3719Z" fill="#EDF8FA" stroke="black" stroke-width="0.1" stroke-miterlimit="10"/>
<path d="M19.127 13.9451C20.2705 13.4606 21.2583 12.6699 21.9815 11.6602L19.127 13.9451Z" fill="#EDF8FA"/>
<path d="M19.1268 13.9451C19.6499 13.6273 20.1534 13.2783 20.6345 12.8998C21.1059 12.5141 21.5534 12.1001 21.9747 11.6602C21.6803 12.2159 21.2752 12.7054 20.7842 13.0985C20.2932 13.4915 19.7269 13.7796 19.1201 13.9451H19.1268Z" fill="black"/>
<path d="M19.5151 14.7757C20.0915 14.53 20.6314 14.2064 21.12 13.8141C21.5952 13.4323 22.0157 12.987 22.3697 12.4907" fill="#EDF8FA"/>
<path d="M19.5151 14.7758C20.0541 14.4847 20.5674 14.1484 21.0496 13.7707C21.2875 13.5797 21.5153 13.3753 21.7197 13.1642C21.9241 12.9531 22.1452 12.7253 22.3529 12.4941C22.0393 13.0343 21.6267 13.5106 21.1367 13.898C20.655 14.2881 20.1052 14.5857 19.5151 14.7758Z" fill="black"/>
<path d="M19.9072 15.6405C21.0512 15.1565 22.0391 14.3657 22.7618 13.3555L19.9072 15.6405Z" fill="#EDF8FA"/>
<path d="M19.9072 15.6405C21.021 15.1072 21.9976 14.3255 22.7618 13.3555C22.0799 14.4035 21.0792 15.2046 19.9072 15.6405Z" fill="black"/>
<path d="M32.6792 40.1556C33.9195 38.5324 35.654 37.3565 37.6211 36.8052C36.7399 37.301 35.8822 37.7935 35.0647 38.3531C34.2472 38.9126 33.4665 39.5257 32.6792 40.1556Z" fill="black"/>
<path d="M29.6906 44.1926C29.9083 44.3802 30.2099 44.6516 30.565 44.9867C31.2619 45.6567 31.6137 45.9918 31.7109 46.2397C32.0124 47.017 31.6774 48.0154 31.0776 48.6152C30.8448 48.8463 30.5664 49.0266 30.2601 49.1445C30.3529 49.508 30.5289 49.845 30.7743 50.1287C31.0197 50.4125 31.3277 50.6353 31.674 50.7795L32.0091 50.9236C32.4215 50.7806 32.7858 50.5253 33.0611 50.1865C33.4218 49.6854 33.5949 49.0735 33.5503 48.4577C33.5503 47.1175 32.9539 46.0822 32.3642 45.1073C31.6506 43.9112 30.7527 42.4872 29.6504 40.9025L26.3468 35.3575C26.2765 35.123 25.5595 32.6504 26.9499 31.2533C27.0772 31.1293 28.0489 30.1811 28.9367 30.5028C29.6068 30.7507 29.848 31.5816 29.8815 31.7089C30.0357 32.302 29.7777 32.4594 29.6939 33.545C29.637 34.2887 29.5834 34.9555 29.8983 35.6524C30.1094 36.1147 30.2836 36.1583 30.4511 36.6575C30.6488 37.2639 30.5081 37.5487 30.5751 38.0245C30.7024 38.976 31.5132 39.6159 32.3005 40.2391C33.3794 41.0901 33.7747 40.9092 34.3108 41.596C34.7765 42.1957 34.6458 42.571 34.9474 43.7403C35.5505 46.1492 36.5355 46.4206 36.5288 48.0255C36.5288 48.8932 36.2406 48.6956 35.9525 50.2167C35.728 51.3994 35.3528 53.356 36.2876 54.7431C36.8906 55.6376 37.4837 55.4701 38.2442 56.1771C39.9764 57.7853 40.1606 61.7086 38.3213 64.2951C36.1971 67.2368 31.7745 68.0041 30.8532 66.9018C30.5684 66.5667 30.8096 66.2317 30.4545 65.5616C29.7676 64.3152 28.4141 63.8864 27.5966 63.5848C23.9982 62.2447 20.4702 59.5911 20.7014 57.9963C20.7449 57.6814 20.946 57.3531 20.8119 56.8639C20.6779 56.3747 20.2993 56.1938 19.6728 55.6209C19.0463 55.048 17.9641 54.0764 17.944 52.9406C17.944 52.4883 18.1015 52.4413 18.0378 52.0326C17.9038 51.1916 17.1298 50.9337 16.8015 50.4277C16.0979 49.3523 17.8803 47.8513 18.4767 45.6768C19.4818 42.055 16.242 39.9208 17.6759 37.2505C18.1048 36.4498 18.2656 36.8786 19.9475 34.9555C21.5624 33.1094 22.0851 31.9401 22.9797 32.0138C23.6699 32.0674 24.1322 32.8246 24.2126 32.9653C24.5142 33.4847 24.5477 34.071 24.3399 35.0325C23.9781 36.8183 22.792 37.3209 22.7585 38.9056C22.7517 39.1804 22.7787 39.455 22.839 39.7231C23.1219 39.6651 23.4137 39.6651 23.6967 39.7231C24.5309 39.9007 24.7856 40.5339 25.5394 41.1605C26.5445 41.9914 26.8595 41.5156 28.0053 42.3566C28.8764 42.9998 28.5749 43.1741 29.7308 44.2227C31.272 45.6232 31.5802 45.7204 31.741 46.233C31.838 46.6913 31.7924 47.1683 31.6104 47.6C31.5031 47.9585 31.2452 48.8229 30.5349 49.0976C30.4496 49.131 30.3608 49.1546 30.2702 49.168C30.3637 49.4958 30.5246 49.8005 30.7426 50.0625C31.0193 50.3597 31.3532 50.5978 31.7243 50.7628C32.4346 51.1648 33.2655 52.0627 33.2956 52.9808C33.3325 54.13 32.0928 54.9542 31.9387 55.0547C32.1055 55.2638 32.2893 55.4588 32.4882 55.6376C33.2018 56.2809 33.5972 56.2575 33.8585 56.6863C33.9872 56.9357 34.0485 57.2144 34.0361 57.4948C34.0238 57.7751 33.9383 58.0474 33.7881 58.2845C33.6043 58.5721 33.3407 58.8 33.0296 58.9404C32.7184 59.0808 32.3732 59.1276 32.0359 59.0752C29.4895 58.6999 28.7055 57.9595 28.4744 57.3363C28.347 57.0013 28.3236 56.5054 27.9249 56.2441C27.5262 55.9827 27.0437 56.2072 26.4407 56.2139C25.9213 56.2139 25.1608 56.043 24.2093 55.1686" fill="#FCF9D7"/>
<path d="M29.6906 44.1926C29.9083 44.3802 30.2099 44.6516 30.565 44.9867C31.2619 45.6567 31.6137 45.9918 31.7109 46.2397C32.0124 47.017 31.6774 48.0154 31.0776 48.6151C30.8448 48.8463 30.5664 49.0266 30.2601 49.1445C30.3529 49.508 30.5289 49.845 30.7743 50.1287C31.0197 50.4125 31.3277 50.6353 31.674 50.7795L32.0091 50.9236C32.4215 50.7806 32.7858 50.5253 33.0611 50.1865C33.4218 49.6854 33.5949 49.0735 33.5503 48.4577C33.5503 47.1175 32.9539 46.0822 32.3642 45.1073C31.6506 43.9112 30.7527 42.4872 29.6504 40.9025L26.3468 35.3575C26.2765 35.123 25.5595 32.6504 26.9499 31.2533C27.0772 31.1293 28.0489 30.1811 28.9367 30.5028C29.6068 30.7507 29.848 31.5816 29.8815 31.7089C30.0357 32.302 29.7777 32.4594 29.6939 33.545C29.637 34.2887 29.5834 34.9555 29.8983 35.6524C30.1094 36.1147 30.2836 36.1583 30.4511 36.6575C30.6488 37.2639 30.5081 37.5487 30.5751 38.0245C30.7024 38.976 31.5132 39.6159 32.3005 40.2391C33.3794 41.0901 33.7747 40.9092 34.3108 41.596C34.7765 42.1957 34.6458 42.571 34.9474 43.7403C35.5505 46.1492 36.5355 46.4206 36.5288 48.0255C36.5288 48.8932 36.2406 48.6956 35.9525 50.2167C35.728 51.3994 35.3528 53.356 36.2876 54.7431C36.8906 55.6376 37.4837 55.4701 38.2442 56.1771C39.9764 57.7853 40.1606 61.7086 38.3213 64.2951C36.1971 67.2368 31.7745 68.0041 30.8532 66.9018C30.5684 66.5667 30.8096 66.2317 30.4545 65.5616C29.7676 64.3152 28.4141 63.8864 27.5966 63.5848C23.9982 62.2447 20.4702 59.5911 20.7014 57.9963C20.7449 57.6814 20.946 57.3531 20.8119 56.8639C20.6779 56.3747 20.2993 56.1938 19.6728 55.6209C19.0463 55.048 17.9641 54.0764 17.944 52.9406C17.944 52.4883 18.1015 52.4413 18.0378 52.0326C17.9038 51.1916 17.1298 50.9337 16.8015 50.4277C16.0979 49.3523 17.8803 47.8513 18.4767 45.6768C19.4818 42.055 16.242 39.9208 17.6759 37.2505C18.1048 36.4498 18.2656 36.8786 19.9475 34.9555C21.5624 33.1094 22.0851 31.9401 22.9797 32.0138C23.6699 32.0674 24.1322 32.8246 24.2126 32.9653C24.5142 33.4847 24.5477 34.071 24.3399 35.0325C23.9781 36.8183 22.792 37.3209 22.7585 38.9056C22.7517 39.1804 22.7787 39.455 22.839 39.7231C23.1219 39.6651 23.4137 39.6651 23.6967 39.7231C24.5309 39.9007 24.7856 40.5339 25.5394 41.1605C26.5445 41.9914 26.8595 41.5156 28.0053 42.3566C28.8764 42.9998 28.5749 43.1741 29.7308 44.2228C31.272 45.6232 31.5802 45.7204 31.741 46.233C31.838 46.6913 31.7924 47.1683 31.6104 47.6C31.5031 47.9585 31.2452 48.8229 30.5349 49.0976C30.4496 49.131 30.3608 49.1546 30.2702 49.168C30.3637 49.4958 30.5246 49.8005 30.7426 50.0625C31.0193 50.3597 31.3532 50.5978 31.7243 50.7628C32.4346 51.1648 33.2655 52.0627 33.2956 52.9808C33.3325 54.13 32.0928 54.9542 31.9387 55.0547C32.1055 55.2638 32.2893 55.4588 32.4882 55.6376C33.2018 56.2809 33.5972 56.2575 33.8585 56.6863C33.9872 56.9357 34.0485 57.2144 34.0361 57.4948C34.0238 57.7751 33.9383 58.0474 33.7881 58.2845C33.6043 58.5721 33.3407 58.8 33.0296 58.9404C32.7184 59.0808 32.3732 59.1276 32.0359 59.0752C29.4895 58.6999 28.7055 57.9595 28.4744 57.3363C28.347 57.0013 28.3236 56.5054 27.9249 56.2441C27.5262 55.9827 27.0437 56.2072 26.4407 56.2139C25.9213 56.2139 25.1608 56.043 24.2093 55.1686" stroke="black" stroke-width="0.1" stroke-miterlimit="10"/>
<path d="M23.9346 57.0983C24.3365 57.14 24.7421 57.0705 25.1072 56.8973C25.4714 56.724 25.7801 56.4524 25.9984 56.1133" stroke="black" stroke-width="0.1" stroke-miterlimit="10"/>
<path d="M21.8872 36.8521C22.127 36.9968 22.33 37.1952 22.4802 37.4317C22.6324 37.6746 22.7296 37.9479 22.765 38.2324C22.7952 38.5072 22.8153 38.7584 22.8387 39.0265C22.8726 39.2931 22.886 39.5619 22.8789 39.8306C22.7574 39.5863 22.6577 39.3318 22.5807 39.07C22.5106 38.8097 22.4613 38.5442 22.4333 38.276C22.3589 37.7668 22.1724 37.2804 21.8872 36.8521Z" fill="black"/>
<path d="M18.2256 46.5078C18.8159 45.7565 19.2985 44.9265 19.6596 44.0419C20.4201 42.1656 20.2526 40.9159 21.241 40.1721C21.7548 39.8176 22.3739 39.6486 22.9966 39.693" stroke="black" stroke-width="0.1" stroke-miterlimit="10"/>
<path d="M18.0947 52.13C18.9908 51.2032 19.7015 50.1138 20.1887 48.9203C20.6008 47.8884 20.7416 47.0039 21.6194 46.0624C21.9075 45.7542 22.5943 45.0573 23.3348 45.1578C23.7435 45.2248 23.958 45.5129 24.2327 45.7776C25.2378 46.7593 26.2061 46.6052 27.5831 47.2082C28.6302 47.6759 29.5555 48.3787 30.2869 49.262" stroke="black" stroke-width="0.1" stroke-miterlimit="10"/>
<path d="M20.7754 57.1152C21.2209 56.3959 21.5956 55.6351 21.8944 54.8436C22.6416 52.8903 22.4774 51.9187 23.2346 51.4932C23.5127 51.3357 23.6165 51.4127 25.8144 51.7545C27.8247 52.0661 28.287 52.0895 28.9002 52.5184C29.3592 52.8534 29.3257 52.9874 30.0393 53.6475C30.6135 54.1788 31.2437 54.6462 31.9189 55.0412" stroke="black" stroke-width="0.1" stroke-miterlimit="10"/>
<path d="M39.1455 57.7114C39.6213 58.157 40.0937 58.6127 40.5326 59.1018C40.9554 59.6052 41.3417 60.1382 41.6885 60.6966C42.3823 61.8139 42.8977 63.0324 43.2163 64.3084C42.676 63.1294 42.0698 61.9817 41.4003 60.8709C41.0653 60.3181 40.7001 59.7853 40.3249 59.2593C39.9496 58.7333 39.5241 58.2475 39.1455 57.7114Z" fill="black"/>
<path d="M35.5269 56.8505C35.7172 56.4959 35.8688 56.1219 35.9792 55.7348C36.0759 55.3454 36.1298 54.9466 36.14 54.5454C36.2528 54.7358 36.3253 54.9474 36.353 55.167C36.3807 55.3866 36.3629 55.6095 36.3008 55.822C36.2483 56.0369 36.1526 56.239 36.0195 56.4158C35.8865 56.5926 35.7189 56.7405 35.5269 56.8505Z" fill="black"/>
<path d="M36.1768 58.2812C36.4662 57.8199 36.6462 57.2984 36.7028 56.7567C36.738 56.2123 36.6675 55.6662 36.495 55.1485C36.6937 55.3693 36.8445 55.6289 36.938 55.9109C37.0314 56.1929 37.0654 56.4911 37.0378 56.7869C37.0141 57.0842 36.9246 57.3726 36.7757 57.6311C36.6267 57.8895 36.4222 58.1116 36.1768 58.2812Z" fill="black"/>
<path d="M37.4705 57.7486C37.5224 57.3295 37.4857 56.9042 37.3628 56.5002C37.2398 56.0962 37.0334 55.7225 36.7568 55.4033C36.9798 55.4764 37.1789 55.6084 37.3331 55.7853C37.4882 55.9628 37.6026 56.172 37.6682 56.3984C37.7376 56.6273 37.7559 56.8686 37.7218 57.1053C37.6956 57.338 37.609 57.5598 37.4705 57.7486Z" fill="black"/>
<path d="M17.2069 6.22897C18.7705 8.12308 20.334 10.0139 21.8975 11.9013L17.0327 16.1261L22.4235 12.8226L28.4543 18.7797L23.5191 12.1726L28.3772 7.59931L22.648 11.2278L17.2069 6.22897Z" fill="#D4E9F6"/>
<path d="M48.4494 32.4326C47.8341 32.7503 47.2583 33.1394 46.734 33.5919C46.2178 34.053 45.7569 34.5725 45.3604 35.1398C45.6119 34.4682 46.0277 33.8704 46.5699 33.4009C47.1047 32.9248 47.7513 32.5917 48.4494 32.4326Z" fill="black"/>
<path d="M55.228 32.1646C55.471 32.7388 55.8478 33.2465 56.327 33.6455C56.8153 34.0372 57.3893 34.3081 58.0022 34.4362C57.6813 34.4312 57.3638 34.37 57.0641 34.2553C56.7614 34.1428 56.4795 33.9809 56.2298 33.7761C55.7229 33.368 55.3697 32.7998 55.228 32.1646Z" fill="black"/>
<path d="M48.4395 53.6073C49.2704 54.0964 51.4548 55.2222 53.8772 54.5755C54.4803 54.4147 56.313 53.9054 56.5575 52.6423C56.8021 51.4295 55.4586 50.3439 55.3279 50.2401C53.4115 48.7357 50.6072 49.962 50.4397 50.0357C50.9824 49.838 51.6391 49.5331 51.6391 49.1579C51.6391 48.5347 49.8098 48.0254 49.8232 47.9886C49.8366 47.9517 51.1064 48.7324 52.5772 48.6888C54.2524 48.6419 55.5725 47.5296 55.6194 47.6066C55.6663 47.6837 53.6728 48.8195 53.8336 49.245C53.9274 49.4896 54.6344 49.2651 55.4452 49.5097C56.4302 49.8079 57.0433 50.6455 57.4052 51.2955C57.6665 50.9604 58.0753 50.4243 58.608 49.8313C59.1134 49.2739 59.6503 48.7459 60.2162 48.2499C60.9868 47.5798 62.1293 46.3402 63.7576 43.9346C63.5814 44.4164 63.372 44.8855 63.1311 45.3384C62.611 46.2764 61.9738 47.1444 61.2347 47.9216C60.8494 48.3471 60.5077 48.6788 60.4507 48.7324C59.6734 49.4896 59.3518 49.6571 58.8191 50.3037C58.6165 50.5454 58.4307 50.8006 58.2629 51.0676C57.9111 51.6339 57.8776 51.8818 57.4956 52.4748C57.3439 52.7104 57.1748 52.9344 56.9897 53.1449C56.6412 53.5368 56.2371 53.8755 55.7903 54.15C55.4009 54.398 54.9879 54.6067 54.5573 54.7732C54.2077 54.9038 53.848 55.0057 53.4818 55.0781C53.1399 55.1512 52.7925 55.196 52.4432 55.2121C51.9542 55.2286 51.465 55.187 50.9858 55.0881C50.5545 55.0084 50.1363 54.8697 49.7428 54.676C49.4923 54.5543 49.2563 54.4048 49.0392 54.2304C48.8135 54.0492 48.6119 53.8397 48.4395 53.6073Z" fill="#E8D2A5"/>
<path d="M50.2891 50.1497C50.9667 49.6226 51.7799 49.2985 52.6344 49.2149C53.4883 49.1199 54.3515 49.2735 55.1204 49.6572C53.4963 49.3482 51.8174 49.5193 50.2891 50.1497Z" fill="black"/>
<path d="M57.1204 45.7104C56.7897 46.4367 56.2982 47.0783 55.6831 47.5867C55.0689 48.1062 54.3376 48.4684 53.5522 48.6421C52.7607 48.8146 51.9387 48.7881 51.16 48.565C50.3908 48.35 49.6827 47.9575 49.0928 47.4192C49.4193 47.6315 49.7647 47.8132 50.1247 47.9619C50.4774 48.111 50.8445 48.2233 51.2203 48.297C51.9653 48.4572 52.7359 48.4573 53.481 48.2973C54.2261 48.1373 54.9287 47.8209 55.5423 47.3689C55.854 47.1423 56.1424 46.8852 56.4034 46.6017C56.6701 46.328 56.9102 46.0296 57.1204 45.7104Z" fill="black"/>
<path d="M21.9009 59.9597C26.6283 59.819 27.9048 60.4154 28.0858 61.0553C28.1528 61.2932 28.0489 61.4741 28.203 61.7455C28.6821 62.5998 30.2736 61.8694 31.2184 62.6702C32.1632 63.4709 31.4395 64.9518 32.2872 65.4946C32.974 65.9335 34.0663 65.3572 35.3327 64.6737C36.7587 63.8995 38.0655 62.9234 39.2125 61.7756C38.924 63.0056 38.3064 64.134 37.4259 65.0399C36.5453 65.9458 35.435 66.5952 34.2137 66.9185C33.9703 66.9911 33.7231 67.0504 33.4732 67.0961C33.02 67.2011 32.5535 67.2372 32.0895 67.2033C31.7176 67.1665 31.0844 67.1062 30.9035 66.7108C30.8778 66.6545 30.8608 66.5947 30.8532 66.5332C30.7817 65.9147 30.5274 65.3314 30.1228 64.858C29.8984 64.6139 29.6413 64.402 29.3589 64.2282C28.9131 63.9524 28.4377 63.7277 27.9417 63.5581C26.7322 63.0689 26.8059 63.1058 26.6015 63.0153C25.9827 62.7497 25.3808 62.4465 24.799 62.1073C24.1145 61.7402 23.4631 61.3142 22.8524 60.8342C22.5182 60.5617 22.2005 60.2698 21.9009 59.9597Z" fill="#EEEABB"/>
<path d="M26.4844 35.2603C27.1998 35.7168 27.7786 36.3581 28.1596 37.1164C28.3539 37.5218 28.4109 37.8166 28.7258 38.4231C28.983 38.9159 29.2907 39.3808 29.6438 39.8101C30.1464 40.44 30.984 41.8204 32.4448 44.943C31.1314 42.9327 29.8203 40.851 28.5114 38.6978C27.8167 37.543 27.1411 36.3972 26.4844 35.2603Z" fill="#EEEABB"/>
<path d="M19.405 44.1824C19.2853 43.1092 19.3248 42.0242 19.5223 40.9626C19.7099 39.9575 19.8406 39.3343 20.3565 39.0428C21.2544 38.5403 22.551 39.475 22.6415 39.5421C22.2965 39.531 21.9533 39.5962 21.6364 39.733C21.2607 39.9032 20.9336 40.1647 20.6849 40.4936C20.3982 40.9131 20.2135 41.3938 20.1454 41.8974C19.9592 42.6774 19.7116 43.4414 19.405 44.1824Z" fill="#EEEABB"/>
<path d="M20.5138 47.5194C20.2525 45.9749 20.8656 44.5878 21.8975 44.1221C22.435 43.8837 23.044 43.8633 23.5962 44.0652C24.1892 44.3231 24.1591 44.7352 25.0201 45.4053C25.4381 45.7017 25.8758 45.9692 26.3301 46.2061L27.9115 47.1207C26.9433 46.7857 26.2363 46.5545 25.7237 46.4205C25.4125 46.3461 25.1158 46.2205 24.8459 46.0486C24.6886 45.9476 24.5386 45.8356 24.3969 45.7136C24.2319 45.5698 24.0742 45.4177 23.9245 45.2579C23.7955 45.1498 23.6447 45.071 23.4823 45.0267C22.8692 44.8592 22.2929 45.2613 22.0919 45.402C21.952 45.5024 21.8208 45.6145 21.6999 45.737C21.4891 45.9427 21.2974 46.167 21.1269 46.4071C20.8766 46.7506 20.6706 47.1244 20.5138 47.5194Z" fill="#EEEABB"/>
<path d="M21.7237 54.7601C21.0201 52.7967 21.2814 51.0076 22.2296 50.4045C22.8192 50.0326 23.6636 50.1231 23.9282 50.1499C24.9032 50.2537 25.131 50.6859 26.1161 50.9707C27.3591 51.3326 27.7913 50.8769 28.6523 51.088C29.4296 51.2823 30.4214 51.9993 31.259 54.3848C30.9256 54.161 30.6088 53.9135 30.3108 53.6444C30.1399 53.4902 29.9925 53.3428 29.7848 53.1384C29.5236 52.8336 29.2329 52.5553 28.917 52.3075C28.6737 52.16 28.411 52.0472 28.1364 51.9725C27.7964 51.8666 27.4459 51.7981 27.091 51.7681C26.6689 51.7212 25.7006 51.5604 23.7641 51.2421C23.5982 51.2075 23.4261 51.2168 23.2649 51.2689C23.0021 51.3787 22.7878 51.5798 22.6618 51.8351C22.4169 52.2974 22.258 52.8003 22.1927 53.3194C22.0808 53.813 21.9238 54.2952 21.7237 54.7601Z" fill="#EEEABB"/>
<path d="M26.3507 57.7451C26.8717 57.7941 27.3949 57.6768 27.845 57.4101C27.9816 57.3478 28.1137 57.2762 28.2404 57.1957C28.2214 57.0812 28.1911 56.969 28.1499 56.8606C28.1099 56.7252 28.0439 56.5989 27.9556 56.4887C27.864 56.3921 27.7484 56.3215 27.6206 56.2843C27.2319 56.1604 27.0041 56.358 26.4245 56.3647C26.2945 56.3667 26.1646 56.3589 26.0358 56.3413C25.9588 56.443 25.8736 56.5382 25.7812 56.6261C25.6287 56.769 25.456 56.8887 25.2686 56.9812C25.5233 57.3601 25.9085 57.6319 26.3507 57.7451Z" fill="#EEEABB"/>
</svg>
