<svg width="340" height="269" viewBox="0 0 340 269" fill="none" xmlns="http://www.w3.org/2000/svg">
<g filter="url(#filter0_ddddd_1_115)">
<rect x="5" y="1" width="330" height="251" rx="8" fill="white"/>
</g>
<rect x="25" y="25" width="194" height="14" rx="7" fill="#35ADE3" fill-opacity="0.2"/>
<path d="M29.418 19.148C30.486 19.148 31.38 19.25 32.1 19.454C32.832 19.658 33.378 19.994 33.738 20.462C34.11 20.93 34.296 21.554 34.296 22.334C34.296 22.838 34.2 23.288 34.008 23.684C33.828 24.068 33.552 24.392 33.18 24.656C32.82 24.908 32.376 25.082 31.848 25.178V25.268C32.388 25.352 32.874 25.508 33.306 25.736C33.75 25.964 34.098 26.288 34.35 26.708C34.602 27.128 34.728 27.674 34.728 28.346C34.728 29.126 34.548 29.792 34.188 30.344C33.828 30.884 33.312 31.298 32.64 31.586C31.98 31.862 31.188 32 30.264 32H25.746V19.148H29.418ZM29.742 24.62C30.846 24.62 31.602 24.446 32.01 24.098C32.418 23.738 32.622 23.21 32.622 22.514C32.622 21.806 32.37 21.302 31.866 21.002C31.374 20.69 30.582 20.534 29.49 20.534H27.366V24.62H29.742ZM27.366 25.97V30.632H29.958C31.098 30.632 31.89 30.41 32.334 29.966C32.778 29.522 33 28.94 33 28.22C33 27.764 32.898 27.368 32.694 27.032C32.502 26.696 32.172 26.438 31.704 26.258C31.248 26.066 30.624 25.97 29.832 25.97H27.366Z" fill="black"/>
<path d="M37.237 32V22.352H38.821V26.312H41.323C42.163 26.312 42.853 26.414 43.393 26.618C43.933 26.822 44.335 27.128 44.599 27.536C44.863 27.932 44.995 28.436 44.995 29.048C44.995 29.648 44.863 30.17 44.599 30.614C44.347 31.058 43.945 31.4 43.393 31.64C42.853 31.88 42.139 32 41.251 32H37.237ZM41.107 30.722C41.791 30.722 42.349 30.608 42.781 30.38C43.213 30.14 43.429 29.726 43.429 29.138C43.429 28.55 43.231 28.154 42.835 27.95C42.439 27.734 41.869 27.626 41.125 27.626H38.821V30.722H41.107ZM46.597 32V22.352H48.181V32H46.597ZM50.7428 26.204C50.7428 24.8 50.8808 23.606 51.1568 22.622C51.4448 21.626 51.8828 20.834 52.4708 20.246C53.0708 19.646 53.8388 19.244 54.7748 19.04C55.5548 18.872 56.3168 18.722 57.0608 18.59C57.8048 18.458 58.5008 18.338 59.1488 18.23L59.4188 19.616C59.1068 19.664 58.7588 19.724 58.3748 19.796C57.9908 19.856 57.6008 19.922 57.2048 19.994C56.8088 20.054 56.4248 20.12 56.0528 20.192C55.6928 20.252 55.3748 20.312 55.0988 20.372C54.7028 20.456 54.3488 20.6 54.0368 20.804C53.7248 20.996 53.4548 21.26 53.2268 21.596C53.0108 21.932 52.8368 22.346 52.7048 22.838C52.5728 23.33 52.4948 23.912 52.4708 24.584H52.5788C52.7468 24.356 52.9748 24.122 53.2628 23.882C53.5628 23.642 53.9168 23.438 54.3248 23.27C54.7448 23.102 55.2188 23.018 55.7468 23.018C56.5868 23.018 57.2828 23.204 57.8348 23.576C58.3988 23.936 58.8188 24.44 59.0948 25.088C59.3828 25.736 59.5268 26.492 59.5268 27.356C59.5268 28.424 59.3408 29.318 58.9688 30.038C58.5968 30.758 58.0808 31.298 57.4208 31.658C56.7608 32.006 55.9928 32.18 55.1168 32.18C54.4568 32.18 53.8568 32.054 53.3168 31.802C52.7768 31.538 52.3148 31.154 51.9308 30.65C51.5468 30.146 51.2528 29.522 51.0488 28.778C50.8448 28.034 50.7428 27.176 50.7428 26.204ZM55.2428 30.866C55.7708 30.866 56.2268 30.758 56.6108 30.542C57.0068 30.326 57.3128 29.972 57.5288 29.48C57.7448 28.988 57.8528 28.334 57.8528 27.518C57.8528 26.534 57.6668 25.76 57.2948 25.196C56.9348 24.62 56.3348 24.332 55.4948 24.332C54.9668 24.332 54.4868 24.452 54.0548 24.692C53.6228 24.92 53.2628 25.184 52.9748 25.484C52.6868 25.784 52.4828 26.036 52.3628 26.24C52.3628 26.828 52.4048 27.398 52.4888 27.95C52.5728 28.502 52.7168 29 52.9208 29.444C53.1368 29.876 53.4308 30.224 53.8028 30.488C54.1868 30.74 54.6668 30.866 55.2428 30.866ZM66.6122 22.172C67.8002 22.172 68.7542 22.586 69.4742 23.414C70.2062 24.242 70.5722 25.49 70.5722 27.158C70.5722 28.25 70.4042 29.174 70.0682 29.93C69.7442 30.674 69.2822 31.238 68.6822 31.622C68.0942 31.994 67.3982 32.18 66.5942 32.18C66.1022 32.18 65.6642 32.114 65.2802 31.982C64.8962 31.85 64.5662 31.682 64.2902 31.478C64.0262 31.262 63.7982 31.028 63.6062 30.776H63.4982C63.5222 30.98 63.5462 31.238 63.5702 31.55C63.5942 31.862 63.6062 32.132 63.6062 32.36V36.32H62.0222V22.352H63.3182L63.5342 23.666H63.6062C63.7982 23.39 64.0262 23.138 64.2902 22.91C64.5662 22.682 64.8902 22.502 65.2622 22.37C65.6462 22.238 66.0962 22.172 66.6122 22.172ZM66.3242 23.504C65.6762 23.504 65.1542 23.63 64.7582 23.882C64.3622 24.122 64.0742 24.488 63.8942 24.98C63.7142 25.472 63.6182 26.096 63.6062 26.852V27.158C63.6062 27.95 63.6902 28.622 63.8582 29.174C64.0262 29.726 64.3082 30.146 64.7042 30.434C65.1122 30.722 65.6642 30.866 66.3602 30.866C66.9482 30.866 67.4282 30.704 67.8002 30.38C68.1842 30.056 68.4662 29.618 68.6462 29.066C68.8382 28.502 68.9342 27.86 68.9342 27.14C68.9342 26.036 68.7182 25.154 68.2862 24.494C67.8662 23.834 67.2122 23.504 66.3242 23.504ZM76.7504 22.19C77.9264 22.19 78.7964 22.448 79.3604 22.964C79.9244 23.48 80.2064 24.302 80.2064 25.43V32H79.0544L78.7484 30.632H78.6764C78.4004 30.98 78.1124 31.274 77.8124 31.514C77.5244 31.742 77.1884 31.91 76.8044 32.018C76.4324 32.126 75.9764 32.18 75.4364 32.18C74.8604 32.18 74.3384 32.078 73.8704 31.874C73.4144 31.67 73.0544 31.358 72.7904 30.938C72.5264 30.506 72.3944 29.966 72.3944 29.318C72.3944 28.358 72.7724 27.62 73.5284 27.104C74.2844 26.576 75.4484 26.288 77.0204 26.24L78.6584 26.186V25.61C78.6584 24.806 78.4844 24.248 78.1364 23.936C77.7884 23.624 77.2964 23.468 76.6604 23.468C76.1564 23.468 75.6764 23.546 75.2204 23.702C74.7644 23.846 74.3384 24.014 73.9424 24.206L73.4564 23.018C73.8764 22.79 74.3744 22.598 74.9504 22.442C75.5264 22.274 76.1264 22.19 76.7504 22.19ZM77.2184 27.338C76.0184 27.386 75.1844 27.578 74.7164 27.914C74.2604 28.25 74.0324 28.724 74.0324 29.336C74.0324 29.876 74.1944 30.272 74.5184 30.524C74.8544 30.776 75.2804 30.902 75.7964 30.902C76.6124 30.902 77.2904 30.68 77.8304 30.236C78.3704 29.78 78.6404 29.084 78.6404 28.148V27.284L77.2184 27.338ZM84.7703 22.352V26.366H90.0083V22.352H91.5923V32H90.0083V27.698H84.7703V32H83.1863V22.352H84.7703ZM96.2312 22.352V26.366H101.469V22.352H103.053V32H101.469V27.698H96.2312V32H94.6472V22.352H96.2312ZM106.108 32V22.352H107.692V26.312H110.194C111.034 26.312 111.724 26.414 112.264 26.618C112.804 26.822 113.206 27.128 113.47 27.536C113.734 27.932 113.866 28.436 113.866 29.048C113.866 29.648 113.734 30.17 113.47 30.614C113.218 31.058 112.816 31.4 112.264 31.64C111.724 31.88 111.01 32 110.122 32H106.108ZM109.978 30.722C110.662 30.722 111.22 30.608 111.652 30.38C112.084 30.14 112.3 29.726 112.3 29.138C112.3 28.55 112.102 28.154 111.706 27.95C111.31 27.734 110.74 27.626 109.996 27.626H107.692V30.722H109.978ZM115.468 32V22.352H117.052V32H115.468ZM123.844 22.172C124.672 22.172 125.38 22.352 125.968 22.712C126.568 23.072 127.024 23.582 127.336 24.242C127.66 24.89 127.822 25.652 127.822 26.528V27.482H121.216C121.24 28.574 121.516 29.408 122.044 29.984C122.584 30.548 123.334 30.83 124.294 30.83C124.906 30.83 125.446 30.776 125.914 30.668C126.394 30.548 126.886 30.38 127.39 30.164V31.55C126.898 31.766 126.412 31.922 125.932 32.018C125.452 32.126 124.882 32.18 124.222 32.18C123.31 32.18 122.5 31.994 121.792 31.622C121.096 31.25 120.55 30.698 120.154 29.966C119.77 29.222 119.578 28.316 119.578 27.248C119.578 26.192 119.752 25.286 120.1 24.53C120.46 23.774 120.958 23.192 121.594 22.784C122.242 22.376 122.992 22.172 123.844 22.172ZM123.826 23.468C123.07 23.468 122.47 23.714 122.026 24.206C121.594 24.686 121.336 25.358 121.252 26.222H126.166C126.166 25.67 126.082 25.19 125.914 24.782C125.746 24.374 125.488 24.056 125.14 23.828C124.804 23.588 124.366 23.468 123.826 23.468ZM133.442 22.352H135.134L137.222 27.842C137.342 28.166 137.45 28.478 137.546 28.778C137.654 29.078 137.75 29.372 137.834 29.66C137.918 29.936 137.984 30.206 138.032 30.47H138.104C138.176 30.17 138.29 29.78 138.446 29.3C138.602 28.808 138.764 28.316 138.932 27.824L140.894 22.352H142.604L138.446 33.332C138.218 33.932 137.948 34.454 137.636 34.898C137.336 35.354 136.964 35.702 136.52 35.942C136.088 36.194 135.56 36.32 134.936 36.32C134.648 36.32 134.396 36.302 134.18 36.266C133.964 36.242 133.778 36.212 133.622 36.176V34.916C133.754 34.94 133.91 34.964 134.09 34.988C134.282 35.012 134.48 35.024 134.684 35.024C135.056 35.024 135.374 34.952 135.638 34.808C135.914 34.676 136.148 34.478 136.34 34.214C136.532 33.962 136.694 33.662 136.826 33.314L137.33 32.036L133.442 22.352ZM148 32.18C147.148 32.18 146.386 32.006 145.714 31.658C145.054 31.31 144.532 30.77 144.148 30.038C143.776 29.306 143.59 28.37 143.59 27.23C143.59 26.042 143.788 25.076 144.184 24.332C144.58 23.588 145.114 23.042 145.786 22.694C146.47 22.346 147.244 22.172 148.108 22.172C148.6 22.172 149.074 22.226 149.53 22.334C149.986 22.43 150.358 22.55 150.646 22.694L150.16 24.008C149.872 23.9 149.536 23.798 149.152 23.702C148.768 23.606 148.408 23.558 148.072 23.558C147.424 23.558 146.89 23.696 146.47 23.972C146.05 24.248 145.738 24.656 145.534 25.196C145.33 25.736 145.228 26.408 145.228 27.212C145.228 27.98 145.33 28.634 145.534 29.174C145.738 29.714 146.044 30.122 146.452 30.398C146.86 30.674 147.37 30.812 147.982 30.812C148.51 30.812 148.972 30.758 149.368 30.65C149.776 30.542 150.148 30.41 150.484 30.254V31.658C150.16 31.826 149.8 31.952 149.404 32.036C149.02 32.132 148.552 32.18 148 32.18ZM160.122 32H158.52V23.666H155.676C155.556 25.19 155.406 26.492 155.226 27.572C155.046 28.64 154.818 29.51 154.542 30.182C154.266 30.854 153.936 31.346 153.552 31.658C153.168 31.97 152.718 32.126 152.202 32.126C152.046 32.126 151.89 32.114 151.734 32.09C151.59 32.078 151.47 32.048 151.374 32V30.812C151.446 30.836 151.524 30.854 151.608 30.866C151.692 30.878 151.776 30.884 151.86 30.884C152.124 30.884 152.364 30.776 152.58 30.56C152.796 30.344 152.988 30.014 153.156 29.57C153.336 29.126 153.498 28.568 153.642 27.896C153.786 27.212 153.912 26.408 154.02 25.484C154.128 24.56 154.224 23.516 154.308 22.352H160.122V32ZM161.672 22.352H163.364L165.452 27.842C165.572 28.166 165.68 28.478 165.776 28.778C165.884 29.078 165.98 29.372 166.064 29.66C166.148 29.936 166.214 30.206 166.262 30.47H166.334C166.406 30.17 166.52 29.78 166.676 29.3C166.832 28.808 166.994 28.316 167.162 27.824L169.124 22.352H170.834L166.676 33.332C166.448 33.932 166.178 34.454 165.866 34.898C165.566 35.354 165.194 35.702 164.75 35.942C164.318 36.194 163.79 36.32 163.166 36.32C162.878 36.32 162.626 36.302 162.41 36.266C162.194 36.242 162.008 36.212 161.852 36.176V34.916C161.984 34.94 162.14 34.964 162.32 34.988C162.512 35.012 162.71 35.024 162.914 35.024C163.286 35.024 163.604 34.952 163.868 34.808C164.144 34.676 164.378 34.478 164.57 34.214C164.762 33.962 164.924 33.662 165.056 33.314L165.56 32.036L161.672 22.352ZM178.246 22.352V23.684H173.944V32H172.36V22.352H178.246ZM181.641 28.238C181.641 28.346 181.635 28.502 181.623 28.706C181.623 28.898 181.617 29.108 181.605 29.336C181.593 29.552 181.581 29.762 181.569 29.966C181.557 30.158 181.545 30.314 181.533 30.434L186.699 22.352H188.643V32H187.167V26.312C187.167 26.12 187.167 25.868 187.167 25.556C187.179 25.244 187.191 24.938 187.203 24.638C187.215 24.326 187.227 24.092 187.239 23.936L182.109 32H180.147V22.352H181.641V28.238ZM191.48 31.028C191.48 30.584 191.588 30.272 191.804 30.092C192.02 29.912 192.278 29.822 192.578 29.822C192.89 29.822 193.154 29.912 193.37 30.092C193.598 30.272 193.712 30.584 193.712 31.028C193.712 31.46 193.598 31.772 193.37 31.964C193.154 32.156 192.89 32.252 192.578 32.252C192.278 32.252 192.02 32.156 191.804 31.964C191.588 31.772 191.48 31.46 191.48 31.028ZM191.48 23.324C191.48 22.868 191.588 22.55 191.804 22.37C192.02 22.19 192.278 22.1 192.578 22.1C192.89 22.1 193.154 22.19 193.37 22.37C193.598 22.55 193.712 22.868 193.712 23.324C193.712 23.756 193.598 24.068 193.37 24.26C193.154 24.452 192.89 24.548 192.578 24.548C192.278 24.548 192.02 24.452 191.804 24.26C191.588 24.068 191.48 23.756 191.48 23.324Z" fill="black" fill-opacity="0.75"/>
<path d="M37.9825 76.7139C37.9825 82.2368 33.8451 86.7139 28.7413 86.7139C23.6375 86.7139 19.5 82.2368 19.5 76.7139C19.5 71.1911 23.6375 66.7139 28.7413 66.7139C33.8451 66.7139 37.9825 71.1911 37.9825 76.7139Z" fill="#35ADE3" fill-opacity="0.27"/>
<path d="M38.4825 124C38.4825 129.523 34.3451 134 29.2413 134C24.1375 134 20 129.523 20 124C20 118.477 24.1375 114 29.2413 114C34.3451 114 38.4825 118.477 38.4825 124Z" fill="#35ADE3" fill-opacity="0.27"/>
<path d="M105.483 99.9999C105.483 105.523 101.345 110 96.2413 110C91.1375 110 87 105.523 87 99.9999C87 94.4771 91.1375 89.9999 96.2413 89.9999C101.345 89.9999 105.483 94.4771 105.483 99.9999Z" fill="#35ADE3" fill-opacity="0.27"/>
<path d="M32.9724 82H32.0604V71.408H28.0124C27.9591 71.952 27.8897 72.5333 27.8044 73.152C27.7297 73.7707 27.6497 74.3947 27.5644 75.024C27.4791 75.6533 27.3884 76.272 27.2924 76.88C27.2071 77.4773 27.1164 78.032 27.0204 78.544C26.8817 79.2693 26.7164 79.904 26.5244 80.448C26.3324 80.992 26.0764 81.4187 25.7564 81.728C25.4471 82.0267 25.0257 82.176 24.4924 82.176C24.3111 82.176 24.1404 82.16 23.9804 82.128C23.8311 82.096 23.6924 82.0587 23.5644 82.016V81.2C23.6817 81.2533 23.8097 81.296 23.9484 81.328C24.0871 81.36 24.2417 81.376 24.4124 81.376C24.7751 81.376 25.0631 81.2373 25.2764 80.96C25.4897 80.6827 25.6604 80.3147 25.7884 79.856C25.9271 79.3867 26.0497 78.8693 26.1564 78.304C26.2524 77.7707 26.3484 77.1947 26.4444 76.576C26.5404 75.9467 26.6311 75.296 26.7164 74.624C26.8124 73.9413 26.9031 73.2587 26.9884 72.576C27.0844 71.8933 27.1697 71.2267 27.2444 70.576H32.9724V82ZM39.1892 73.328C39.9252 73.328 40.5332 73.4987 41.0132 73.84C41.5038 74.1707 41.8718 74.6293 42.1172 75.216C42.3732 75.8027 42.5012 76.48 42.5012 77.248V77.856H36.4212C36.4212 78.9973 36.6825 79.8667 37.2052 80.464C37.7385 81.0613 38.4905 81.36 39.4612 81.36C39.9945 81.36 40.4585 81.3173 40.8532 81.232C41.2478 81.1467 41.6798 80.9973 42.1492 80.784V81.616C41.7225 81.808 41.3012 81.9467 40.8852 82.032C40.4692 82.1173 39.9838 82.16 39.4292 82.16C38.5865 82.16 37.8665 81.984 37.2692 81.632C36.6825 81.28 36.2345 80.7787 35.9252 80.128C35.6265 79.4667 35.4772 78.6987 35.4772 77.824C35.4772 76.9493 35.6212 76.176 35.9092 75.504C36.1972 74.832 36.6185 74.304 37.1732 73.92C37.7278 73.5253 38.3998 73.328 39.1892 73.328ZM39.1892 74.096C38.3998 74.096 37.7652 74.3573 37.2852 74.88C36.8052 75.392 36.5225 76.1333 36.4372 77.104H41.5572C41.5572 76.5067 41.4718 75.984 41.3012 75.536C41.1305 75.088 40.8692 74.736 40.5172 74.48C40.1758 74.224 39.7332 74.096 39.1892 74.096ZM45.5693 76.384C45.5693 77.0667 45.7346 77.5627 46.0653 77.872C46.4066 78.1813 46.9079 78.336 47.5693 78.336C48.1346 78.336 48.6466 78.2453 49.1053 78.064C49.5746 77.8827 50.0279 77.6427 50.4653 77.344V73.488H51.3613V82H50.4653V78.096C49.9959 78.416 49.5266 78.6667 49.0573 78.848C48.5986 79.0187 48.0493 79.104 47.4093 79.104C46.5133 79.104 45.8306 78.8747 45.3613 78.416C44.8919 77.9467 44.6573 77.3013 44.6573 76.48V73.488H45.5693V76.384ZM57.3923 73.328C58.1283 73.328 58.7363 73.4987 59.2163 73.84C59.7069 74.1707 60.0749 74.6293 60.3203 75.216C60.5763 75.8027 60.7043 76.48 60.7043 77.248V77.856H54.6243C54.6243 78.9973 54.8856 79.8667 55.4083 80.464C55.9416 81.0613 56.6936 81.36 57.6643 81.36C58.1976 81.36 58.6616 81.3173 59.0563 81.232C59.4509 81.1467 59.8829 80.9973 60.3523 80.784V81.616C59.9256 81.808 59.5043 81.9467 59.0883 82.032C58.6723 82.1173 58.1869 82.16 57.6323 82.16C56.7896 82.16 56.0696 81.984 55.4723 81.632C54.8856 81.28 54.4376 80.7787 54.1283 80.128C53.8296 79.4667 53.6803 78.6987 53.6803 77.824C53.6803 76.9493 53.8243 76.176 54.1123 75.504C54.4003 74.832 54.8216 74.304 55.3763 73.92C55.9309 73.5253 56.6029 73.328 57.3923 73.328ZM57.3923 74.096C56.6029 74.096 55.9683 74.3573 55.4883 74.88C55.0083 75.392 54.7256 76.1333 54.6403 77.104H59.7603C59.7603 76.5067 59.6749 75.984 59.5043 75.536C59.3336 75.088 59.0723 74.736 58.7203 74.48C58.3789 74.224 57.9363 74.096 57.3923 74.096ZM63.9164 73.488V77.184H69.1324V73.488H70.0444V82H69.1324V77.968H63.9164V82H63.0044V73.488H63.9164ZM73.7278 79.424C73.7278 79.5307 73.7278 79.6533 73.7278 79.792C73.7278 79.9307 73.7224 80.0747 73.7118 80.224C73.7118 80.3627 73.7064 80.5013 73.6958 80.64C73.6851 80.768 73.6798 80.8907 73.6798 81.008L78.6558 73.488H79.7758V82H78.9118V76.064C78.9118 75.904 78.9118 75.728 78.9118 75.536C78.9118 75.344 78.9171 75.152 78.9278 74.96C78.9384 74.768 78.9438 74.6027 78.9438 74.464L73.9678 82H72.8638V73.488H73.7278V79.424ZM85.8142 73.328C86.5502 73.328 87.1582 73.4987 87.6382 73.84C88.1288 74.1707 88.4968 74.6293 88.7422 75.216C88.9982 75.8027 89.1262 76.48 89.1262 77.248V77.856H83.0462C83.0462 78.9973 83.3075 79.8667 83.8302 80.464C84.3635 81.0613 85.1155 81.36 86.0862 81.36C86.6195 81.36 87.0835 81.3173 87.4782 81.232C87.8728 81.1467 88.3048 80.9973 88.7742 80.784V81.616C88.3475 81.808 87.9262 81.9467 87.5102 82.032C87.0942 82.1173 86.6088 82.16 86.0542 82.16C85.2115 82.16 84.4915 81.984 83.8942 81.632C83.3075 81.28 82.8595 80.7787 82.5502 80.128C82.2515 79.4667 82.1022 78.6987 82.1022 77.824C82.1022 76.9493 82.2462 76.176 82.5342 75.504C82.8222 74.832 83.2435 74.304 83.7982 73.92C84.3528 73.5253 85.0248 73.328 85.8142 73.328ZM85.8142 74.096C85.0248 74.096 84.3902 74.3573 83.9102 74.88C83.4302 75.392 83.1475 76.1333 83.0622 77.104H88.1822C88.1822 76.5067 88.0968 75.984 87.9262 75.536C87.7555 75.088 87.4942 74.736 87.1422 74.48C86.8008 74.224 86.3582 74.096 85.8142 74.096ZM100.287 73.488H101.327L97.5185 77.616L101.567 82H100.463L96.4945 77.696V82H95.5825V73.488H96.4945V77.632L100.287 73.488ZM106.153 73.344C107.113 73.344 107.828 73.5787 108.297 74.048C108.766 74.5173 109.001 75.264 109.001 76.288V82H108.313L108.153 80.56H108.105C107.902 80.88 107.668 81.1627 107.401 81.408C107.145 81.6427 106.83 81.8293 106.457 81.968C106.094 82.096 105.646 82.16 105.113 82.16C104.58 82.16 104.116 82.0693 103.721 81.888C103.326 81.696 103.022 81.424 102.809 81.072C102.596 80.72 102.489 80.288 102.489 79.776C102.489 78.9333 102.836 78.2933 103.529 77.856C104.222 77.408 105.23 77.152 106.553 77.088L108.105 77.024V76.416C108.105 75.5733 107.934 74.9813 107.593 74.64C107.262 74.288 106.766 74.112 106.105 74.112C105.668 74.112 105.246 74.1707 104.841 74.288C104.446 74.3947 104.046 74.5493 103.641 74.752L103.353 74.032C103.748 73.8293 104.185 73.664 104.665 73.536C105.145 73.408 105.641 73.344 106.153 73.344ZM106.649 77.76C105.572 77.8133 104.766 78.0053 104.233 78.336C103.7 78.656 103.433 79.1413 103.433 79.792C103.433 80.3147 103.598 80.7147 103.929 80.992C104.26 81.2587 104.708 81.392 105.273 81.392C106.18 81.392 106.873 81.1413 107.353 80.64C107.844 80.1387 108.094 79.4347 108.105 78.528V77.696L106.649 77.76ZM115.531 73.328C116.619 73.328 117.467 73.696 118.075 74.432C118.694 75.168 119.003 76.256 119.003 77.696C119.003 78.656 118.859 79.472 118.571 80.144C118.283 80.8053 117.872 81.3067 117.339 81.648C116.816 81.9893 116.187 82.16 115.451 82.16C114.95 82.16 114.512 82.0853 114.139 81.936C113.766 81.7867 113.456 81.5893 113.211 81.344C112.966 81.0987 112.774 80.8267 112.635 80.528H112.571C112.592 80.7947 112.608 81.088 112.619 81.408C112.63 81.7173 112.635 82.0053 112.635 82.272V85.776H111.723V73.488H112.475L112.587 75.088H112.635C112.774 74.7787 112.971 74.4907 113.227 74.224C113.483 73.9573 113.798 73.744 114.171 73.584C114.555 73.4133 115.008 73.328 115.531 73.328ZM115.403 74.112C114.774 74.112 114.256 74.2453 113.851 74.512C113.446 74.7787 113.142 75.1733 112.939 75.696C112.736 76.208 112.635 76.8427 112.635 77.6V77.76C112.635 78.56 112.731 79.232 112.923 79.776C113.126 80.3093 113.424 80.7093 113.819 80.976C114.224 81.2427 114.731 81.376 115.339 81.376C115.936 81.376 116.432 81.232 116.827 80.944C117.232 80.6453 117.536 80.224 117.739 79.68C117.952 79.1253 118.059 78.464 118.059 77.696C118.059 76.5333 117.84 75.648 117.403 75.04C116.966 74.4213 116.299 74.112 115.403 74.112ZM122.165 79.424C122.165 79.5307 122.165 79.6533 122.165 79.792C122.165 79.9307 122.16 80.0747 122.149 80.224C122.149 80.3627 122.144 80.5013 122.133 80.64C122.123 80.768 122.117 80.8907 122.117 81.008L127.093 73.488H128.213V82H127.349V76.064C127.349 75.904 127.349 75.728 127.349 75.536C127.349 75.344 127.355 75.152 127.365 74.96C127.376 74.768 127.381 74.6027 127.381 74.464L122.405 82H121.301V73.488H122.165V79.424ZM134.252 73.328C134.988 73.328 135.596 73.4987 136.076 73.84C136.566 74.1707 136.934 74.6293 137.18 75.216C137.436 75.8027 137.564 76.48 137.564 77.248V77.856H131.484C131.484 78.9973 131.745 79.8667 132.268 80.464C132.801 81.0613 133.553 81.36 134.524 81.36C135.057 81.36 135.521 81.3173 135.916 81.232C136.31 81.1467 136.742 80.9973 137.212 80.784V81.616C136.785 81.808 136.364 81.9467 135.948 82.032C135.532 82.1173 135.046 82.16 134.492 82.16C133.649 82.16 132.929 81.984 132.332 81.632C131.745 81.28 131.297 80.7787 130.988 80.128C130.689 79.4667 130.54 78.6987 130.54 77.824C130.54 76.9493 130.684 76.176 130.972 75.504C131.26 74.832 131.681 74.304 132.236 73.92C132.79 73.5253 133.462 73.328 134.252 73.328ZM134.252 74.096C133.462 74.096 132.828 74.3573 132.348 74.88C131.868 75.392 131.585 76.1333 131.5 77.104H136.62C136.62 76.5067 136.534 75.984 136.364 75.536C136.193 75.088 135.932 74.736 135.58 74.48C135.238 74.224 134.796 74.096 134.252 74.096ZM143.272 82.16C142.44 82.16 141.73 81.9893 141.144 81.648C140.568 81.296 140.125 80.7947 139.816 80.144C139.517 79.4933 139.368 78.7093 139.368 77.792C139.368 76.832 139.538 76.0213 139.88 75.36C140.232 74.6987 140.712 74.1973 141.32 73.856C141.928 73.504 142.642 73.328 143.464 73.328C143.869 73.328 144.248 73.3707 144.6 73.456C144.962 73.5307 145.282 73.632 145.56 73.76L145.32 74.528C145.032 74.4107 144.722 74.32 144.392 74.256C144.061 74.1813 143.746 74.144 143.448 74.144C142.765 74.144 142.189 74.2933 141.72 74.592C141.261 74.88 140.909 75.296 140.664 75.84C140.429 76.384 140.312 77.0347 140.312 77.792C140.312 78.496 140.413 79.12 140.616 79.664C140.829 80.1973 141.154 80.6133 141.592 80.912C142.029 81.2107 142.589 81.36 143.272 81.36C143.688 81.36 144.077 81.3173 144.44 81.232C144.813 81.1467 145.154 81.0347 145.464 80.896V81.728C145.186 81.8453 144.866 81.9467 144.504 82.032C144.141 82.1173 143.73 82.16 143.272 82.16ZM150.481 73.344C151.441 73.344 152.156 73.5787 152.625 74.048C153.094 74.5173 153.329 75.264 153.329 76.288V82H152.641L152.481 80.56H152.433C152.23 80.88 151.996 81.1627 151.729 81.408C151.473 81.6427 151.158 81.8293 150.785 81.968C150.422 82.096 149.974 82.16 149.441 82.16C148.908 82.16 148.444 82.0693 148.049 81.888C147.654 81.696 147.35 81.424 147.137 81.072C146.924 80.72 146.817 80.288 146.817 79.776C146.817 78.9333 147.164 78.2933 147.857 77.856C148.55 77.408 149.558 77.152 150.881 77.088L152.433 77.024V76.416C152.433 75.5733 152.262 74.9813 151.921 74.64C151.59 74.288 151.094 74.112 150.433 74.112C149.996 74.112 149.574 74.1707 149.169 74.288C148.774 74.3947 148.374 74.5493 147.969 74.752L147.681 74.032C148.076 73.8293 148.513 73.664 148.993 73.536C149.473 73.408 149.969 73.344 150.481 73.344ZM150.977 77.76C149.9 77.8133 149.094 78.0053 148.561 78.336C148.028 78.656 147.761 79.1413 147.761 79.792C147.761 80.3147 147.926 80.7147 148.257 80.992C148.588 81.2587 149.036 81.392 149.601 81.392C150.508 81.392 151.201 81.1413 151.681 80.64C152.172 80.1387 152.422 79.4347 152.433 78.528V77.696L150.977 77.76ZM162.208 73.328C162.805 73.328 163.317 73.4187 163.744 73.6C164.17 73.7707 164.496 74.0213 164.72 74.352C164.944 74.672 165.056 75.0667 165.056 75.536C165.056 76.0267 164.922 76.432 164.656 76.752C164.389 77.072 164.016 77.3013 163.536 77.44V77.472C163.92 77.568 164.245 77.712 164.512 77.904C164.789 78.096 164.997 78.336 165.136 78.624C165.285 78.9013 165.36 79.232 165.36 79.616C165.36 80.128 165.226 80.576 164.96 80.96C164.704 81.344 164.325 81.6427 163.824 81.856C163.333 82.0587 162.736 82.16 162.032 82.16C161.648 82.16 161.285 82.1333 160.944 82.08C160.602 82.0373 160.293 81.9733 160.016 81.888C159.749 81.8027 159.514 81.7067 159.312 81.6V80.736C159.696 80.928 160.112 81.088 160.56 81.216C161.008 81.3333 161.493 81.392 162.016 81.392C162.485 81.392 162.901 81.328 163.264 81.2C163.637 81.0613 163.925 80.8587 164.128 80.592C164.341 80.3253 164.448 79.984 164.448 79.568C164.448 79.1733 164.352 78.8533 164.16 78.608C163.968 78.3627 163.685 78.1867 163.312 78.08C162.949 77.9627 162.49 77.904 161.936 77.904H160.8V77.136H161.824C162.538 77.136 163.109 77.0133 163.536 76.768C163.962 76.5227 164.176 76.128 164.176 75.584C164.176 75.104 164 74.7413 163.648 74.496C163.306 74.24 162.81 74.112 162.16 74.112C161.701 74.112 161.29 74.1653 160.928 74.272C160.565 74.368 160.186 74.5067 159.792 74.688L159.472 73.936C159.877 73.744 160.298 73.5947 160.736 73.488C161.184 73.3813 161.674 73.328 162.208 73.328ZM166.143 73.488H167.119L169.135 78.784C169.253 79.0933 169.359 79.3813 169.455 79.648C169.551 79.9147 169.637 80.1653 169.711 80.4C169.786 80.624 169.85 80.832 169.903 81.024H169.951C170.026 80.7787 170.127 80.464 170.255 80.08C170.383 79.6853 170.533 79.2587 170.703 78.8L172.687 73.488H173.663L169.823 83.52C169.631 84.0107 169.418 84.432 169.183 84.784C168.949 85.136 168.671 85.4027 168.351 85.584C168.031 85.776 167.647 85.872 167.199 85.872C166.997 85.872 166.81 85.856 166.639 85.824C166.479 85.8027 166.325 85.7707 166.175 85.728V84.96C166.314 84.992 166.453 85.0187 166.591 85.04C166.741 85.072 166.906 85.088 167.087 85.088C167.386 85.088 167.647 85.024 167.871 84.896C168.095 84.7787 168.293 84.592 168.463 84.336C168.634 84.0907 168.789 83.7813 168.927 83.408L169.487 81.968L166.143 73.488ZM174.587 76.896C174.587 75.7867 174.678 74.8373 174.859 74.048C175.041 73.2587 175.318 72.6133 175.691 72.112C176.075 71.6 176.55 71.2213 177.115 70.976C177.691 70.656 178.358 70.4107 179.115 70.24C179.883 70.0587 180.737 69.9093 181.675 69.792L181.819 70.592C181.339 70.6453 180.881 70.7093 180.443 70.784C180.006 70.8587 179.595 70.944 179.211 71.04C178.838 71.1253 178.497 71.2213 178.187 71.328C177.889 71.4347 177.627 71.5573 177.403 71.696C177.126 71.8347 176.875 72.0213 176.651 72.256C176.438 72.4907 176.251 72.7787 176.091 73.12C175.942 73.4613 175.819 73.856 175.723 74.304C175.627 74.752 175.569 75.2533 175.547 75.808H175.611C175.803 75.488 176.049 75.2 176.347 74.944C176.646 74.6773 176.993 74.4693 177.387 74.32C177.793 74.16 178.235 74.08 178.715 74.08C179.43 74.08 180.033 74.2347 180.523 74.544C181.014 74.8427 181.382 75.28 181.627 75.856C181.883 76.4213 182.011 77.1147 182.011 77.936C182.011 78.8 181.867 79.552 181.579 80.192C181.302 80.8213 180.886 81.3067 180.331 81.648C179.787 81.9893 179.115 82.16 178.315 82.16C177.675 82.16 177.121 82.032 176.651 81.776C176.182 81.5093 175.793 81.1413 175.483 80.672C175.174 80.192 174.945 79.632 174.795 78.992C174.657 78.352 174.587 77.6533 174.587 76.896ZM178.379 81.376C178.987 81.376 179.483 81.248 179.867 80.992C180.262 80.7253 180.555 80.3413 180.747 79.84C180.95 79.328 181.051 78.7147 181.051 78C181.051 76.976 180.843 76.1973 180.427 75.664C180.022 75.1307 179.409 74.864 178.587 74.864C178.107 74.864 177.67 74.9547 177.275 75.136C176.891 75.3173 176.55 75.5627 176.251 75.872C175.953 76.1707 175.707 76.496 175.515 76.848C175.515 77.424 175.558 77.984 175.643 78.528C175.729 79.0613 175.873 79.5467 176.075 79.984C176.289 80.4107 176.582 80.752 176.955 81.008C177.339 81.2533 177.814 81.376 178.379 81.376ZM191.437 77.744C191.437 78.4053 191.352 79.008 191.181 79.552C191.021 80.0853 190.776 80.5493 190.445 80.944C190.125 81.328 189.725 81.6267 189.245 81.84C188.765 82.0533 188.216 82.16 187.597 82.16C187.01 82.16 186.482 82.0587 186.013 81.856C185.554 81.6427 185.16 81.344 184.829 80.96C184.498 80.5653 184.248 80.096 184.077 79.552C183.906 79.008 183.821 78.4053 183.821 77.744C183.821 76.816 183.97 76.0267 184.269 75.376C184.578 74.7147 185.021 74.208 185.597 73.856C186.184 73.504 186.877 73.328 187.677 73.328C188.488 73.328 189.17 73.5147 189.725 73.888C190.29 74.2507 190.717 74.7627 191.005 75.424C191.293 76.0853 191.437 76.8587 191.437 77.744ZM184.765 77.744C184.765 78.4693 184.866 79.1093 185.069 79.664C185.272 80.208 185.586 80.6293 186.013 80.928C186.44 81.2267 186.973 81.376 187.613 81.376C188.274 81.376 188.818 81.2267 189.245 80.928C189.672 80.6187 189.986 80.192 190.189 79.648C190.392 79.0933 190.493 78.4587 190.493 77.744C190.493 77.0293 190.397 76.4 190.205 75.856C190.013 75.312 189.709 74.8853 189.293 74.576C188.877 74.2667 188.333 74.112 187.661 74.112C186.69 74.112 185.965 74.432 185.485 75.072C185.005 75.712 184.765 76.6027 184.765 77.744ZM200.218 75.568C200.218 76.1013 200.074 76.5227 199.786 76.832C199.498 77.1413 199.12 77.3547 198.65 77.472V77.52C199.205 77.6053 199.658 77.8133 200.01 78.144C200.362 78.464 200.538 78.9387 200.538 79.568C200.538 79.9413 200.474 80.2773 200.346 80.576C200.218 80.8747 200.026 81.1307 199.77 81.344C199.514 81.5573 199.189 81.7227 198.794 81.84C198.4 81.9467 197.93 82 197.386 82H193.754V73.488H197.306C197.936 73.488 198.464 73.568 198.89 73.728C199.328 73.8773 199.658 74.1067 199.882 74.416C200.106 74.7253 200.218 75.1093 200.218 75.568ZM199.594 79.568C199.594 78.9813 199.392 78.56 198.986 78.304C198.592 78.048 197.994 77.92 197.194 77.92H194.666V81.232H197.258C198.037 81.232 198.618 81.0987 199.002 80.832C199.397 80.5653 199.594 80.144 199.594 79.568ZM199.29 75.664C199.29 75.216 199.136 74.8747 198.826 74.64C198.517 74.3947 197.989 74.272 197.242 74.272H194.666V77.136H197.13C197.866 77.136 198.41 77.0133 198.762 76.768C199.114 76.5227 199.29 76.1547 199.29 75.664ZM210.412 82.16C209.58 82.16 208.871 81.9893 208.284 81.648C207.708 81.296 207.266 80.7947 206.956 80.144C206.658 79.4933 206.508 78.7093 206.508 77.792C206.508 76.832 206.679 76.0213 207.02 75.36C207.372 74.6987 207.852 74.1973 208.46 73.856C209.068 73.504 209.783 73.328 210.604 73.328C211.01 73.328 211.388 73.3707 211.74 73.456C212.103 73.5307 212.423 73.632 212.7 73.76L212.46 74.528C212.172 74.4107 211.863 74.32 211.532 74.256C211.202 74.1813 210.887 74.144 210.588 74.144C209.906 74.144 209.33 74.2933 208.86 74.592C208.402 74.88 208.05 75.296 207.804 75.84C207.57 76.384 207.452 77.0347 207.452 77.792C207.452 78.496 207.554 79.12 207.756 79.664C207.97 80.1973 208.295 80.6133 208.732 80.912C209.17 81.2107 209.73 81.36 210.412 81.36C210.828 81.36 211.218 81.3173 211.58 81.232C211.954 81.1467 212.295 81.0347 212.604 80.896V81.728C212.327 81.8453 212.007 81.9467 211.644 82.032C211.282 82.1173 210.871 82.16 210.412 82.16ZM219.682 73.488V77.184H224.898V73.488H225.81V82H224.898V77.968H219.682V82H218.77V73.488H219.682ZM231.637 73.344C232.597 73.344 233.312 73.5787 233.781 74.048C234.251 74.5173 234.485 75.264 234.485 76.288V82H233.797L233.637 80.56H233.589C233.387 80.88 233.152 81.1627 232.885 81.408C232.629 81.6427 232.315 81.8293 231.941 81.968C231.579 82.096 231.131 82.16 230.597 82.16C230.064 82.16 229.6 82.0693 229.205 81.888C228.811 81.696 228.507 81.424 228.293 81.072C228.08 80.72 227.973 80.288 227.973 79.776C227.973 78.9333 228.32 78.2933 229.013 77.856C229.707 77.408 230.715 77.152 232.037 77.088L233.589 77.024V76.416C233.589 75.5733 233.419 74.9813 233.077 74.64C232.747 74.288 232.251 74.112 231.589 74.112C231.152 74.112 230.731 74.1707 230.325 74.288C229.931 74.3947 229.531 74.5493 229.125 74.752L228.837 74.032C229.232 73.8293 229.669 73.664 230.149 73.536C230.629 73.408 231.125 73.344 231.637 73.344ZM232.133 77.76C231.056 77.8133 230.251 78.0053 229.717 78.336C229.184 78.656 228.917 79.1413 228.917 79.792C228.917 80.3147 229.083 80.7147 229.413 80.992C229.744 81.2587 230.192 81.392 230.757 81.392C231.664 81.392 232.357 81.1413 232.837 80.64C233.328 80.1387 233.579 79.4347 233.589 78.528V77.696L232.133 77.76ZM243.208 82H242.296V74.272H239.416C239.309 75.616 239.186 76.7787 239.048 77.76C238.909 78.7413 238.728 79.552 238.504 80.192C238.29 80.832 238.018 81.3067 237.688 81.616C237.368 81.9253 236.978 82.08 236.52 82.08C236.381 82.08 236.258 82.0747 236.152 82.064C236.045 82.0533 235.954 82.0373 235.88 82.016V81.28C235.944 81.3013 236.013 81.3173 236.088 81.328C236.162 81.3387 236.258 81.344 236.376 81.344C236.632 81.344 236.861 81.2427 237.064 81.04C237.277 80.8373 237.464 80.5333 237.624 80.128C237.784 79.7227 237.922 79.2107 238.04 78.592C238.168 77.9627 238.274 77.2267 238.36 76.384C238.456 75.5307 238.541 74.5653 238.616 73.488H243.208V82ZM253.14 77.744C253.14 78.4053 253.055 79.008 252.884 79.552C252.724 80.0853 252.479 80.5493 252.148 80.944C251.828 81.328 251.428 81.6267 250.948 81.84C250.468 82.0533 249.919 82.16 249.3 82.16C248.713 82.16 248.185 82.0587 247.716 81.856C247.257 81.6427 246.863 81.344 246.532 80.96C246.201 80.5653 245.951 80.096 245.78 79.552C245.609 79.008 245.524 78.4053 245.524 77.744C245.524 76.816 245.673 76.0267 245.972 75.376C246.281 74.7147 246.724 74.208 247.3 73.856C247.887 73.504 248.58 73.328 249.38 73.328C250.191 73.328 250.873 73.5147 251.428 73.888C251.993 74.2507 252.42 74.7627 252.708 75.424C252.996 76.0853 253.14 76.8587 253.14 77.744ZM246.468 77.744C246.468 78.4693 246.569 79.1093 246.772 79.664C246.975 80.208 247.289 80.6293 247.716 80.928C248.143 81.2267 248.676 81.376 249.316 81.376C249.977 81.376 250.521 81.2267 250.948 80.928C251.375 80.6187 251.689 80.192 251.892 79.648C252.095 79.0933 252.196 78.4587 252.196 77.744C252.196 77.0293 252.1 76.4 251.908 75.856C251.716 75.312 251.412 74.8853 250.996 74.576C250.58 74.2667 250.036 74.112 249.364 74.112C248.393 74.112 247.668 74.432 247.188 75.072C246.708 75.712 246.468 76.6027 246.468 77.744ZM264.249 73.488L260.585 77.648L264.537 82H263.465L259.609 77.696V82H258.745V77.696L254.889 82H253.817L257.769 77.648L254.089 73.488H255.129L258.745 77.632V73.488H259.609V77.632L263.225 73.488H264.249ZM268.955 73.328C269.691 73.328 270.299 73.4987 270.779 73.84C271.269 74.1707 271.637 74.6293 271.883 75.216C272.139 75.8027 272.267 76.48 272.267 77.248V77.856H266.187C266.187 78.9973 266.448 79.8667 266.971 80.464C267.504 81.0613 268.256 81.36 269.227 81.36C269.76 81.36 270.224 81.3173 270.619 81.232C271.013 81.1467 271.445 80.9973 271.915 80.784V81.616C271.488 81.808 271.067 81.9467 270.651 82.032C270.235 82.1173 269.749 82.16 269.195 82.16C268.352 82.16 267.632 81.984 267.035 81.632C266.448 81.28 266 80.7787 265.691 80.128C265.392 79.4667 265.243 78.6987 265.243 77.824C265.243 76.9493 265.387 76.176 265.675 75.504C265.963 74.832 266.384 74.304 266.939 73.92C267.493 73.5253 268.165 73.328 268.955 73.328ZM268.955 74.096C268.165 74.096 267.531 74.3573 267.051 74.88C266.571 75.392 266.288 76.1333 266.203 77.104H271.323C271.323 76.5067 271.237 75.984 271.067 75.536C270.896 75.088 270.635 74.736 270.283 74.48C269.941 74.224 269.499 74.096 268.955 74.096ZM275.479 73.488V77.184H280.695V73.488H281.607V82H280.695V77.968H275.479V82H274.567V73.488H275.479ZM285.29 79.424C285.29 79.5307 285.29 79.6533 285.29 79.792C285.29 79.9307 285.285 80.0747 285.274 80.224C285.274 80.3627 285.269 80.5013 285.258 80.64C285.248 80.768 285.242 80.8907 285.242 81.008L290.218 73.488H291.338V82H290.474V76.064C290.474 75.904 290.474 75.728 290.474 75.536C290.474 75.344 290.48 75.152 290.49 74.96C290.501 74.768 290.506 74.6027 290.506 74.464L285.53 82H284.426V73.488H285.29V79.424ZM297.377 73.328C298.113 73.328 298.721 73.4987 299.201 73.84C299.691 74.1707 300.059 74.6293 300.305 75.216C300.561 75.8027 300.689 76.48 300.689 77.248V77.856H294.609C294.609 78.9973 294.87 79.8667 295.393 80.464C295.926 81.0613 296.678 81.36 297.649 81.36C298.182 81.36 298.646 81.3173 299.041 81.232C299.435 81.1467 299.867 80.9973 300.337 80.784V81.616C299.91 81.808 299.489 81.9467 299.073 82.032C298.657 82.1173 298.171 82.16 297.617 82.16C296.774 82.16 296.054 81.984 295.457 81.632C294.87 81.28 294.422 80.7787 294.113 80.128C293.814 79.4667 293.665 78.6987 293.665 77.824C293.665 76.9493 293.809 76.176 294.097 75.504C294.385 74.832 294.806 74.304 295.361 73.92C295.915 73.5253 296.587 73.328 297.377 73.328ZM297.377 74.096C296.587 74.096 295.953 74.3573 295.473 74.88C294.993 75.392 294.71 76.1333 294.625 77.104H299.745C299.745 76.5067 299.659 75.984 299.489 75.536C299.318 75.088 299.057 74.736 298.705 74.48C298.363 74.224 297.921 74.096 297.377 74.096ZM311.437 73.488V82H310.589V76.016C310.589 75.792 310.594 75.5733 310.605 75.36C310.615 75.136 310.626 74.9067 310.637 74.672H310.605L307.581 82H306.797L303.805 74.656H303.757C303.778 74.8907 303.789 75.12 303.789 75.344C303.789 75.568 303.789 75.808 303.789 76.064V82H302.957V73.488H304.189L307.181 80.88L310.205 73.488H311.437ZM31.8684 97.488V106H30.9564V98.288H25.9164V106H25.0044V97.488H31.8684ZM40.6919 106H39.7799V98.272H36.8999C36.7932 99.616 36.6706 100.779 36.5319 101.76C36.3932 102.741 36.2119 103.552 35.9879 104.192C35.7746 104.832 35.5026 105.307 35.1719 105.616C34.8519 105.925 34.4626 106.08 34.0039 106.08C33.8652 106.08 33.7426 106.075 33.6359 106.064C33.5292 106.053 33.4386 106.037 33.3639 106.016V105.28C33.4279 105.301 33.4972 105.317 33.5719 105.328C33.6466 105.339 33.7426 105.344 33.8599 105.344C34.1159 105.344 34.3452 105.243 34.5479 105.04C34.7612 104.837 34.9479 104.533 35.1079 104.128C35.2679 103.723 35.4066 103.211 35.5239 102.592C35.6519 101.963 35.7586 101.227 35.8439 100.384C35.9399 99.5307 36.0252 98.5653 36.0999 97.488H40.6919V106ZM50.6244 101.744C50.6244 102.405 50.5391 103.008 50.3684 103.552C50.2084 104.085 49.9631 104.549 49.6324 104.944C49.3124 105.328 48.9124 105.627 48.4324 105.84C47.9524 106.053 47.4031 106.16 46.7844 106.16C46.1977 106.16 45.6697 106.059 45.2004 105.856C44.7417 105.643 44.3471 105.344 44.0164 104.96C43.6857 104.565 43.4351 104.096 43.2644 103.552C43.0937 103.008 43.0084 102.405 43.0084 101.744C43.0084 100.816 43.1577 100.027 43.4564 99.376C43.7657 98.7147 44.2084 98.208 44.7844 97.856C45.3711 97.504 46.0644 97.328 46.8644 97.328C47.6751 97.328 48.3577 97.5147 48.9124 97.888C49.4777 98.2507 49.9044 98.7627 50.1924 99.424C50.4804 100.085 50.6244 100.859 50.6244 101.744ZM43.9524 101.744C43.9524 102.469 44.0537 103.109 44.2564 103.664C44.4591 104.208 44.7737 104.629 45.2004 104.928C45.6271 105.227 46.1604 105.376 46.8004 105.376C47.4617 105.376 48.0057 105.227 48.4324 104.928C48.8591 104.619 49.1737 104.192 49.3764 103.648C49.5791 103.093 49.6804 102.459 49.6804 101.744C49.6804 101.029 49.5844 100.4 49.3924 99.856C49.2004 99.312 48.8964 98.8853 48.4804 98.576C48.0644 98.2667 47.5204 98.112 46.8484 98.112C45.8777 98.112 45.1524 98.432 44.6724 99.072C44.1924 99.712 43.9524 100.603 43.9524 101.744ZM61.3899 97.488V106H60.5419V100.016C60.5419 99.792 60.5472 99.5733 60.5579 99.36C60.5686 99.136 60.5792 98.9067 60.5899 98.672H60.5579L57.5339 106H56.7499L53.7579 98.656H53.7099C53.7312 98.8907 53.7419 99.12 53.7419 99.344C53.7419 99.568 53.7419 99.808 53.7419 100.064V106H52.9099V97.488H54.1419L57.1339 104.88L60.1579 97.488H61.3899ZM63.5092 100.896C63.5092 99.7867 63.5998 98.8373 63.7812 98.048C63.9625 97.2587 64.2398 96.6133 64.6132 96.112C64.9972 95.6 65.4718 95.2213 66.0372 94.976C66.6132 94.656 67.2798 94.4107 68.0372 94.24C68.8052 94.0587 69.6585 93.9093 70.5972 93.792L70.7412 94.592C70.2612 94.6453 69.8025 94.7093 69.3652 94.784C68.9278 94.8587 68.5172 94.944 68.1332 95.04C67.7598 95.1253 67.4185 95.2213 67.1092 95.328C66.8105 95.4347 66.5492 95.5573 66.3252 95.696C66.0478 95.8347 65.7972 96.0213 65.5732 96.256C65.3598 96.4907 65.1732 96.7787 65.0132 97.12C64.8638 97.4613 64.7412 97.856 64.6452 98.304C64.5492 98.752 64.4905 99.2533 64.4692 99.808H64.5332C64.7252 99.488 64.9705 99.2 65.2692 98.944C65.5678 98.6773 65.9145 98.4693 66.3092 98.32C66.7145 98.16 67.1572 98.08 67.6372 98.08C68.3518 98.08 68.9545 98.2347 69.4452 98.544C69.9358 98.8427 70.3038 99.28 70.5492 99.856C70.8052 100.421 70.9332 101.115 70.9332 101.936C70.9332 102.8 70.7892 103.552 70.5012 104.192C70.2238 104.821 69.8078 105.307 69.2532 105.648C68.7092 105.989 68.0372 106.16 67.2372 106.16C66.5972 106.16 66.0425 106.032 65.5732 105.776C65.1038 105.509 64.7145 105.141 64.4052 104.672C64.0958 104.192 63.8665 103.632 63.7172 102.992C63.5785 102.352 63.5092 101.653 63.5092 100.896ZM67.3012 105.376C67.9092 105.376 68.4052 105.248 68.7892 104.992C69.1838 104.725 69.4772 104.341 69.6692 103.84C69.8718 103.328 69.9732 102.715 69.9732 102C69.9732 100.976 69.7652 100.197 69.3492 99.664C68.9438 99.1307 68.3305 98.864 67.5092 98.864C67.0292 98.864 66.5918 98.9547 66.1972 99.136C65.8132 99.3173 65.4718 99.5627 65.1732 99.872C64.8745 100.171 64.6292 100.496 64.4372 100.848C64.4372 101.424 64.4798 101.984 64.5652 102.528C64.6505 103.061 64.7945 103.547 64.9972 103.984C65.2105 104.411 65.5038 104.752 65.8772 105.008C66.2612 105.253 66.7358 105.376 67.3012 105.376ZM73.2388 106V97.488H74.1508V101.056H76.9188C77.6014 101.056 78.1614 101.152 78.5988 101.344C79.0361 101.525 79.3561 101.797 79.5588 102.16C79.7721 102.512 79.8788 102.939 79.8788 103.44C79.8788 103.973 79.7668 104.432 79.5428 104.816C79.3294 105.2 78.9934 105.493 78.5348 105.696C78.0761 105.899 77.4894 106 76.7748 106H73.2388ZM76.6788 105.232C77.4468 105.232 78.0228 105.093 78.4068 104.816C78.7908 104.528 78.9828 104.08 78.9828 103.472C78.9828 102.907 78.8014 102.496 78.4388 102.24C78.0761 101.973 77.5321 101.84 76.8068 101.84H74.1508V105.232H76.6788ZM81.2548 106V97.488H82.1668V106H81.2548ZM86.1088 104.336C86.0234 104.72 85.9168 105.131 85.7888 105.568C85.6608 106.005 85.5221 106.437 85.3728 106.864C85.2234 107.291 85.0688 107.691 84.9088 108.064H84.2048C84.3434 107.595 84.4661 107.136 84.5728 106.688C84.6794 106.24 84.7754 105.803 84.8608 105.376C84.9461 104.949 85.0154 104.539 85.0688 104.144H86.0288L86.1088 104.336ZM100.579 106H99.4108L93.8588 100.176V106H92.9308V94.576H93.8588V100.112L99.2508 94.576H100.387L94.9948 100.128L100.579 106ZM109.156 101.744C109.156 102.405 109.07 103.008 108.9 103.552C108.74 104.085 108.494 104.549 108.164 104.944C107.844 105.328 107.444 105.627 106.964 105.84C106.484 106.053 105.934 106.16 105.316 106.16C104.729 106.16 104.201 106.059 103.732 105.856C103.273 105.643 102.878 105.344 102.548 104.96C102.217 104.565 101.966 104.096 101.796 103.552C101.625 103.008 101.54 102.405 101.54 101.744C101.54 100.816 101.689 100.027 101.988 99.376C102.297 98.7147 102.74 98.208 103.316 97.856C103.902 97.504 104.596 97.328 105.396 97.328C106.206 97.328 106.889 97.5147 107.444 97.888C108.009 98.2507 108.436 98.7627 108.724 99.424C109.012 100.085 109.156 100.859 109.156 101.744ZM102.484 101.744C102.484 102.469 102.585 103.109 102.788 103.664C102.99 104.208 103.305 104.629 103.732 104.928C104.158 105.227 104.692 105.376 105.332 105.376C105.993 105.376 106.537 105.227 106.964 104.928C107.39 104.619 107.705 104.192 107.908 103.648C108.11 103.093 108.212 102.459 108.212 101.744C108.212 101.029 108.116 100.4 107.924 99.856C107.732 99.312 107.428 98.8853 107.012 98.576C106.596 98.2667 106.052 98.112 105.38 98.112C104.409 98.112 103.684 98.432 103.204 99.072C102.724 99.712 102.484 100.603 102.484 101.744ZM112.385 97.488V101.184H117.601V97.488H118.513V106H117.601V101.968H112.385V106H111.473V97.488H112.385ZM124.741 106.16C123.909 106.16 123.199 105.989 122.613 105.648C122.037 105.296 121.594 104.795 121.285 104.144C120.986 103.493 120.837 102.709 120.837 101.792C120.837 100.832 121.007 100.021 121.349 99.36C121.701 98.6987 122.181 98.1973 122.789 97.856C123.397 97.504 124.111 97.328 124.933 97.328C125.338 97.328 125.717 97.3707 126.069 97.456C126.431 97.5307 126.751 97.632 127.029 97.76L126.789 98.528C126.501 98.4107 126.191 98.32 125.861 98.256C125.53 98.1813 125.215 98.144 124.917 98.144C124.234 98.144 123.658 98.2933 123.189 98.592C122.73 98.88 122.378 99.296 122.133 99.84C121.898 100.384 121.781 101.035 121.781 101.792C121.781 102.496 121.882 103.12 122.085 103.664C122.298 104.197 122.623 104.613 123.061 104.912C123.498 105.211 124.058 105.36 124.741 105.36C125.157 105.36 125.546 105.317 125.909 105.232C126.282 105.147 126.623 105.035 126.933 104.896V105.728C126.655 105.845 126.335 105.947 125.973 106.032C125.61 106.117 125.199 106.16 124.741 106.16ZM127.534 97.488H128.51L130.526 102.784C130.643 103.093 130.75 103.381 130.846 103.648C130.942 103.915 131.027 104.165 131.102 104.4C131.177 104.624 131.241 104.832 131.294 105.024H131.342C131.417 104.779 131.518 104.464 131.646 104.08C131.774 103.685 131.923 103.259 132.094 102.8L134.078 97.488H135.054L131.214 107.52C131.022 108.011 130.809 108.432 130.574 108.784C130.339 109.136 130.062 109.403 129.742 109.584C129.422 109.776 129.038 109.872 128.59 109.872C128.387 109.872 128.201 109.856 128.03 109.824C127.87 109.803 127.715 109.771 127.566 109.728V108.96C127.705 108.992 127.843 109.019 127.982 109.04C128.131 109.072 128.297 109.088 128.478 109.088C128.777 109.088 129.038 109.024 129.262 108.896C129.486 108.779 129.683 108.592 129.854 108.336C130.025 108.091 130.179 107.781 130.318 107.408L130.878 105.968L127.534 97.488ZM142.129 106H141.217V98.272H138.337C138.231 99.616 138.108 100.779 137.969 101.76C137.831 102.741 137.649 103.552 137.425 104.192C137.212 104.832 136.94 105.307 136.609 105.616C136.289 105.925 135.9 106.08 135.441 106.08C135.303 106.08 135.18 106.075 135.073 106.064C134.967 106.053 134.876 106.037 134.801 106.016V105.28C134.865 105.301 134.935 105.317 135.009 105.328C135.084 105.339 135.18 105.344 135.297 105.344C135.553 105.344 135.783 105.243 135.985 105.04C136.199 104.837 136.385 104.533 136.545 104.128C136.705 103.723 136.844 103.211 136.961 102.592C137.089 101.963 137.196 101.227 137.281 100.384C137.377 99.5307 137.463 98.5653 137.537 97.488H142.129V106ZM148.782 101.056C149.465 101.056 150.025 101.152 150.462 101.344C150.91 101.525 151.241 101.797 151.454 102.16C151.678 102.512 151.79 102.939 151.79 103.44C151.79 103.973 151.673 104.432 151.438 104.816C151.214 105.2 150.867 105.493 150.398 105.696C149.939 105.899 149.353 106 148.638 106H144.942V97.488H145.854V101.056H148.782ZM150.878 103.472C150.878 102.907 150.691 102.496 150.318 102.24C149.945 101.973 149.395 101.84 148.67 101.84H145.854V105.232H148.574C149.342 105.232 149.918 105.088 150.302 104.8C150.686 104.512 150.878 104.069 150.878 103.472ZM158.837 98.272H155.973V106H155.077V98.272H152.229V97.488H158.837V98.272ZM163.575 97.344C164.535 97.344 165.25 97.5787 165.719 98.048C166.188 98.5173 166.423 99.264 166.423 100.288V106H165.735L165.575 104.56H165.527C165.324 104.88 165.09 105.163 164.823 105.408C164.567 105.643 164.252 105.829 163.879 105.968C163.516 106.096 163.068 106.16 162.535 106.16C162.002 106.16 161.538 106.069 161.143 105.888C160.748 105.696 160.444 105.424 160.231 105.072C160.018 104.72 159.911 104.288 159.911 103.776C159.911 102.933 160.258 102.293 160.951 101.856C161.644 101.408 162.652 101.152 163.975 101.088L165.527 101.024V100.416C165.527 99.5733 165.356 98.9813 165.015 98.64C164.684 98.288 164.188 98.112 163.527 98.112C163.09 98.112 162.668 98.1707 162.263 98.288C161.868 98.3947 161.468 98.5493 161.063 98.752L160.775 98.032C161.17 97.8293 161.607 97.664 162.087 97.536C162.567 97.408 163.063 97.344 163.575 97.344ZM164.071 101.76C162.994 101.813 162.188 102.005 161.655 102.336C161.122 102.656 160.855 103.141 160.855 103.792C160.855 104.315 161.02 104.715 161.351 104.992C161.682 105.259 162.13 105.392 162.695 105.392C163.602 105.392 164.295 105.141 164.775 104.64C165.266 104.139 165.516 103.435 165.527 102.528V101.696L164.071 101.76ZM177.033 108.896H176.137V106H169.145V97.488H170.057V105.216H174.969V97.488H175.881V105.216H177.033V108.896ZM179.665 103.424C179.665 103.531 179.665 103.653 179.665 103.792C179.665 103.931 179.66 104.075 179.649 104.224C179.649 104.363 179.644 104.501 179.633 104.64C179.623 104.768 179.617 104.891 179.617 105.008L184.593 97.488H185.713V106H184.849V100.064C184.849 99.904 184.849 99.728 184.849 99.536C184.849 99.344 184.855 99.152 184.865 98.96C184.876 98.768 184.881 98.6027 184.881 98.464L179.905 106H178.801V97.488H179.665V103.424ZM188.504 106H187.432L189.976 102.352C189.528 102.288 189.144 102.16 188.824 101.968C188.504 101.776 188.253 101.515 188.072 101.184C187.901 100.853 187.816 100.453 187.816 99.984C187.816 99.152 188.082 98.528 188.616 98.112C189.149 97.696 189.842 97.488 190.696 97.488H194.264V106H193.368V102.448H190.904L188.504 106ZM188.712 99.984C188.712 100.549 188.893 100.976 189.256 101.264C189.618 101.541 190.162 101.68 190.888 101.68H193.368V98.272H190.792C190.098 98.272 189.576 98.4213 189.224 98.72C188.882 99.0187 188.712 99.44 188.712 99.984ZM204.662 106.16C203.83 106.16 203.121 105.989 202.534 105.648C201.958 105.296 201.516 104.795 201.206 104.144C200.908 103.493 200.758 102.709 200.758 101.792C200.758 100.832 200.929 100.021 201.27 99.36C201.622 98.6987 202.102 98.1973 202.71 97.856C203.318 97.504 204.033 97.328 204.854 97.328C205.26 97.328 205.638 97.3707 205.99 97.456C206.353 97.5307 206.673 97.632 206.95 97.76L206.71 98.528C206.422 98.4107 206.113 98.32 205.782 98.256C205.452 98.1813 205.137 98.144 204.838 98.144C204.156 98.144 203.58 98.2933 203.11 98.592C202.652 98.88 202.3 99.296 202.054 99.84C201.82 100.384 201.702 101.035 201.702 101.792C201.702 102.496 201.804 103.12 202.006 103.664C202.22 104.197 202.545 104.613 202.982 104.912C203.42 105.211 203.98 105.36 204.662 105.36C205.078 105.36 205.468 105.317 205.83 105.232C206.204 105.147 206.545 105.035 206.854 104.896V105.728C206.577 105.845 206.257 105.947 205.894 106.032C205.532 106.117 205.121 106.16 204.662 106.16ZM214.368 98.272H211.504V106H210.608V98.272H207.76V97.488H214.368V98.272ZM223.062 101.744C223.062 102.405 222.977 103.008 222.806 103.552C222.646 104.085 222.401 104.549 222.07 104.944C221.75 105.328 221.35 105.627 220.87 105.84C220.39 106.053 219.841 106.16 219.222 106.16C218.635 106.16 218.107 106.059 217.638 105.856C217.179 105.643 216.785 105.344 216.454 104.96C216.123 104.565 215.873 104.096 215.702 103.552C215.531 103.008 215.446 102.405 215.446 101.744C215.446 100.816 215.595 100.027 215.894 99.376C216.203 98.7147 216.646 98.208 217.222 97.856C217.809 97.504 218.502 97.328 219.302 97.328C220.113 97.328 220.795 97.5147 221.35 97.888C221.915 98.2507 222.342 98.7627 222.63 99.424C222.918 100.085 223.062 100.859 223.062 101.744ZM216.39 101.744C216.39 102.469 216.491 103.109 216.694 103.664C216.897 104.208 217.211 104.629 217.638 104.928C218.065 105.227 218.598 105.376 219.238 105.376C219.899 105.376 220.443 105.227 220.87 104.928C221.297 104.619 221.611 104.192 221.814 103.648C222.017 103.093 222.118 102.459 222.118 101.744C222.118 101.029 222.022 100.4 221.83 99.856C221.638 99.312 221.334 98.8853 220.918 98.576C220.502 98.2667 219.958 98.112 219.286 98.112C218.315 98.112 217.59 98.432 217.11 99.072C216.63 99.712 216.39 100.603 216.39 101.744ZM233.827 97.488V106H232.979V100.016C232.979 99.792 232.985 99.5733 232.995 99.36C233.006 99.136 233.017 98.9067 233.027 98.672H232.995L229.971 106H229.187L226.195 98.656H226.147C226.169 98.8907 226.179 99.12 226.179 99.344C226.179 99.568 226.179 99.808 226.179 100.064V106H225.347V97.488H226.579L229.571 104.88L232.595 97.488H233.827ZM239.419 97.344C240.379 97.344 241.093 97.5787 241.563 98.048C242.032 98.5173 242.267 99.264 242.267 100.288V106H241.579L241.419 104.56H241.371C241.168 104.88 240.933 105.163 240.667 105.408C240.411 105.643 240.096 105.829 239.723 105.968C239.36 106.096 238.912 106.16 238.379 106.16C237.845 106.16 237.381 106.069 236.987 105.888C236.592 105.696 236.288 105.424 236.075 105.072C235.861 104.72 235.755 104.288 235.755 103.776C235.755 102.933 236.101 102.293 236.795 101.856C237.488 101.408 238.496 101.152 239.819 101.088L241.371 101.024V100.416C241.371 99.5733 241.2 98.9813 240.859 98.64C240.528 98.288 240.032 98.112 239.371 98.112C238.933 98.112 238.512 98.1707 238.107 98.288C237.712 98.3947 237.312 98.5493 236.907 98.752L236.619 98.032C237.013 97.8293 237.451 97.664 237.931 97.536C238.411 97.408 238.907 97.344 239.419 97.344ZM239.915 101.76C238.837 101.813 238.032 102.005 237.499 102.336C236.965 102.656 236.699 103.141 236.699 103.792C236.699 104.315 236.864 104.715 237.195 104.992C237.525 105.259 237.973 105.392 238.539 105.392C239.445 105.392 240.139 105.141 240.619 104.64C241.109 104.139 241.36 103.435 241.371 102.528V101.696L239.915 101.76ZM250.493 98.272H247.629V106H246.733V98.272H243.885V97.488H250.493V98.272ZM259.187 101.744C259.187 102.405 259.102 103.008 258.931 103.552C258.771 104.085 258.526 104.549 258.195 104.944C257.875 105.328 257.475 105.627 256.995 105.84C256.515 106.053 255.966 106.16 255.347 106.16C254.76 106.16 254.232 106.059 253.763 105.856C253.304 105.643 252.91 105.344 252.579 104.96C252.248 104.565 251.998 104.096 251.827 103.552C251.656 103.008 251.571 102.405 251.571 101.744C251.571 100.816 251.72 100.027 252.019 99.376C252.328 98.7147 252.771 98.208 253.347 97.856C253.934 97.504 254.627 97.328 255.427 97.328C256.238 97.328 256.92 97.5147 257.475 97.888C258.04 98.2507 258.467 98.7627 258.755 99.424C259.043 100.085 259.187 100.859 259.187 101.744ZM252.515 101.744C252.515 102.469 252.616 103.109 252.819 103.664C253.022 104.208 253.336 104.629 253.763 104.928C254.19 105.227 254.723 105.376 255.363 105.376C256.024 105.376 256.568 105.227 256.995 104.928C257.422 104.619 257.736 104.192 257.939 103.648C258.142 103.093 258.243 102.459 258.243 101.744C258.243 101.029 258.147 100.4 257.955 99.856C257.763 99.312 257.459 98.8853 257.043 98.576C256.627 98.2667 256.083 98.112 255.411 98.112C254.44 98.112 253.715 98.432 253.235 99.072C252.755 99.712 252.515 100.603 252.515 101.744ZM267.504 106H266.592V98.272H263.712C263.606 99.616 263.483 100.779 263.344 101.76C263.206 102.741 263.024 103.552 262.8 104.192C262.587 104.832 262.315 105.307 261.984 105.616C261.664 105.925 261.275 106.08 260.816 106.08C260.678 106.08 260.555 106.075 260.448 106.064C260.342 106.053 260.251 106.037 260.176 106.016V105.28C260.24 105.301 260.31 105.317 260.384 105.328C260.459 105.339 260.555 105.344 260.672 105.344C260.928 105.344 261.158 105.243 261.36 105.04C261.574 104.837 261.76 104.533 261.92 104.128C262.08 103.723 262.219 103.211 262.336 102.592C262.464 101.963 262.571 101.227 262.656 100.384C262.752 99.5307 262.838 98.5653 262.912 97.488H267.504V106ZM277.437 101.744C277.437 102.405 277.352 103.008 277.181 103.552C277.021 104.085 276.776 104.549 276.445 104.944C276.125 105.328 275.725 105.627 275.245 105.84C274.765 106.053 274.216 106.16 273.597 106.16C273.01 106.16 272.482 106.059 272.013 105.856C271.554 105.643 271.16 105.344 270.829 104.96C270.498 104.565 270.248 104.096 270.077 103.552C269.906 103.008 269.821 102.405 269.821 101.744C269.821 100.816 269.97 100.027 270.269 99.376C270.578 98.7147 271.021 98.208 271.597 97.856C272.184 97.504 272.877 97.328 273.677 97.328C274.488 97.328 275.17 97.5147 275.725 97.888C276.29 98.2507 276.717 98.7627 277.005 99.424C277.293 100.085 277.437 100.859 277.437 101.744ZM270.765 101.744C270.765 102.469 270.866 103.109 271.069 103.664C271.272 104.208 271.586 104.629 272.013 104.928C272.44 105.227 272.973 105.376 273.613 105.376C274.274 105.376 274.818 105.227 275.245 104.928C275.672 104.619 275.986 104.192 276.189 103.648C276.392 103.093 276.493 102.459 276.493 101.744C276.493 101.029 276.397 100.4 276.205 99.856C276.013 99.312 275.709 98.8853 275.293 98.576C274.877 98.2667 274.333 98.112 273.661 98.112C272.69 98.112 271.965 98.432 271.485 99.072C271.005 99.712 270.765 100.603 270.765 101.744ZM284.794 97.488V98.272H280.666V106H279.754V97.488H284.794ZM289.528 97.344C290.488 97.344 291.203 97.5787 291.672 98.048C292.141 98.5173 292.376 99.264 292.376 100.288V106H291.688L291.528 104.56H291.48C291.277 104.88 291.043 105.163 290.776 105.408C290.52 105.643 290.205 105.829 289.832 105.968C289.469 106.096 289.021 106.16 288.488 106.16C287.955 106.16 287.491 106.069 287.096 105.888C286.701 105.696 286.397 105.424 286.184 105.072C285.971 104.72 285.864 104.288 285.864 103.776C285.864 102.933 286.211 102.293 286.904 101.856C287.597 101.408 288.605 101.152 289.928 101.088L291.48 101.024V100.416C291.48 99.5733 291.309 98.9813 290.968 98.64C290.637 98.288 290.141 98.112 289.48 98.112C289.043 98.112 288.621 98.1707 288.216 98.288C287.821 98.3947 287.421 98.5493 287.016 98.752L286.728 98.032C287.123 97.8293 287.56 97.664 288.04 97.536C288.52 97.408 289.016 97.344 289.528 97.344ZM290.024 101.76C288.947 101.813 288.141 102.005 287.608 102.336C287.075 102.656 286.808 103.141 286.808 103.792C286.808 104.315 286.973 104.715 287.304 104.992C287.635 105.259 288.083 105.392 288.648 105.392C289.555 105.392 290.248 105.141 290.728 104.64C291.219 104.139 291.469 103.435 291.48 102.528V101.696L290.024 101.76ZM296.218 104.336C296.133 104.72 296.026 105.131 295.898 105.568C295.77 106.005 295.631 106.437 295.482 106.864C295.333 107.291 295.178 107.691 295.018 108.064H294.314C294.453 107.595 294.575 107.136 294.682 106.688C294.789 106.24 294.885 105.803 294.97 105.376C295.055 104.949 295.125 104.539 295.178 104.144H296.138L296.218 104.336ZM34.8764 124.272C34.8764 125.147 34.7644 125.941 34.5404 126.656C34.3271 127.371 34.0071 127.995 33.5804 128.528C33.1537 129.051 32.6151 129.456 31.9644 129.744C31.3244 130.021 30.5777 130.16 29.7244 130.16C28.8604 130.16 28.1084 130.016 27.4684 129.728C26.8284 129.44 26.2951 129.035 25.8684 128.512C25.4417 127.989 25.1217 127.371 24.9084 126.656C24.6951 125.931 24.5884 125.131 24.5884 124.256C24.5884 123.093 24.7804 122.075 25.1644 121.2C25.5591 120.325 26.1404 119.643 26.9084 119.152C27.6871 118.651 28.6471 118.4 29.7884 118.4C30.8871 118.4 31.8097 118.64 32.5564 119.12C33.3137 119.589 33.8897 120.261 34.2844 121.136C34.6791 122.011 34.8764 123.056 34.8764 124.272ZM25.5644 124.256C25.5644 125.28 25.7137 126.171 26.0124 126.928C26.3111 127.685 26.7697 128.277 27.3884 128.704C28.0071 129.131 28.7911 129.344 29.7404 129.344C30.7004 129.344 31.4844 129.136 32.0924 128.72C32.7111 128.293 33.1644 127.701 33.4524 126.944C33.7511 126.187 33.9004 125.296 33.9004 124.272C33.9004 122.683 33.5537 121.445 32.8604 120.56C32.1777 119.675 31.1537 119.232 29.7884 119.232C28.8284 119.232 28.0337 119.44 27.4044 119.856C26.7857 120.272 26.3217 120.859 26.0124 121.616C25.7137 122.373 25.5644 123.253 25.5644 124.256ZM36.806 124.896C36.806 123.787 36.8967 122.837 37.078 122.048C37.2594 121.259 37.5367 120.613 37.91 120.112C38.294 119.6 38.7687 119.221 39.334 118.976C39.91 118.656 40.5767 118.411 41.334 118.24C42.102 118.059 42.9554 117.909 43.894 117.792L44.038 118.592C43.558 118.645 43.0994 118.709 42.662 118.784C42.2247 118.859 41.814 118.944 41.43 119.04C41.0567 119.125 40.7154 119.221 40.406 119.328C40.1074 119.435 39.846 119.557 39.622 119.696C39.3447 119.835 39.094 120.021 38.87 120.256C38.6567 120.491 38.47 120.779 38.31 121.12C38.1607 121.461 38.038 121.856 37.942 122.304C37.846 122.752 37.7874 123.253 37.766 123.808H37.83C38.022 123.488 38.2674 123.2 38.566 122.944C38.8647 122.677 39.2114 122.469 39.606 122.32C40.0114 122.16 40.454 122.08 40.934 122.08C41.6487 122.08 42.2514 122.235 42.742 122.544C43.2327 122.843 43.6007 123.28 43.846 123.856C44.102 124.421 44.23 125.115 44.23 125.936C44.23 126.8 44.086 127.552 43.798 128.192C43.5207 128.821 43.1047 129.307 42.55 129.648C42.006 129.989 41.334 130.16 40.534 130.16C39.894 130.16 39.3394 130.032 38.87 129.776C38.4007 129.509 38.0114 129.141 37.702 128.672C37.3927 128.192 37.1634 127.632 37.014 126.992C36.8754 126.352 36.806 125.653 36.806 124.896ZM40.598 129.376C41.206 129.376 41.702 129.248 42.086 128.992C42.4807 128.725 42.774 128.341 42.966 127.84C43.1687 127.328 43.27 126.715 43.27 126C43.27 124.976 43.062 124.197 42.646 123.664C42.2407 123.131 41.6274 122.864 40.806 122.864C40.326 122.864 39.8887 122.955 39.494 123.136C39.11 123.317 38.7687 123.563 38.47 123.872C38.1714 124.171 37.926 124.496 37.734 124.848C37.734 125.424 37.7767 125.984 37.862 126.528C37.9474 127.061 38.0914 127.547 38.294 127.984C38.5074 128.411 38.8007 128.752 39.174 129.008C39.558 129.253 40.0327 129.376 40.598 129.376ZM49.7517 121.328C50.4877 121.328 51.0957 121.499 51.5757 121.84C52.0663 122.171 52.4343 122.629 52.6797 123.216C52.9357 123.803 53.0637 124.48 53.0637 125.248V125.856H46.9837C46.9837 126.997 47.245 127.867 47.7677 128.464C48.301 129.061 49.053 129.36 50.0237 129.36C50.557 129.36 51.021 129.317 51.4157 129.232C51.8103 129.147 52.2423 128.997 52.7117 128.784V129.616C52.285 129.808 51.8637 129.947 51.4477 130.032C51.0317 130.117 50.5463 130.16 49.9917 130.16C49.149 130.16 48.429 129.984 47.8317 129.632C47.245 129.28 46.797 128.779 46.4877 128.128C46.189 127.467 46.0397 126.699 46.0397 125.824C46.0397 124.949 46.1837 124.176 46.4717 123.504C46.7597 122.832 47.181 122.304 47.7357 121.92C48.2903 121.525 48.9623 121.328 49.7517 121.328ZM49.7517 122.096C48.9623 122.096 48.3277 122.357 47.8477 122.88C47.3677 123.392 47.085 124.133 46.9997 125.104H52.1197C52.1197 124.507 52.0343 123.984 51.8637 123.536C51.693 123.088 51.4317 122.736 51.0797 122.48C50.7383 122.224 50.2957 122.096 49.7517 122.096ZM57.3638 121.328C57.9611 121.328 58.4731 121.419 58.8998 121.6C59.3264 121.771 59.6518 122.021 59.8758 122.352C60.0998 122.672 60.2118 123.067 60.2118 123.536C60.2118 124.027 60.0784 124.432 59.8118 124.752C59.5451 125.072 59.1718 125.301 58.6918 125.44V125.472C59.0758 125.568 59.4011 125.712 59.6678 125.904C59.9451 126.096 60.1531 126.336 60.2918 126.624C60.4411 126.901 60.5158 127.232 60.5158 127.616C60.5158 128.128 60.3824 128.576 60.1158 128.96C59.8598 129.344 59.4811 129.643 58.9798 129.856C58.4891 130.059 57.8918 130.16 57.1878 130.16C56.8038 130.16 56.4411 130.133 56.0998 130.08C55.7584 130.037 55.4491 129.973 55.1718 129.888C54.9051 129.803 54.6704 129.707 54.4678 129.6V128.736C54.8518 128.928 55.2678 129.088 55.7158 129.216C56.1638 129.333 56.6491 129.392 57.1718 129.392C57.6411 129.392 58.0571 129.328 58.4198 129.2C58.7931 129.061 59.0811 128.859 59.2838 128.592C59.4971 128.325 59.6038 127.984 59.6038 127.568C59.6038 127.173 59.5078 126.853 59.3158 126.608C59.1238 126.363 58.8411 126.187 58.4678 126.08C58.1051 125.963 57.6464 125.904 57.0918 125.904H55.9558V125.136H56.9798C57.6944 125.136 58.2651 125.013 58.6918 124.768C59.1184 124.523 59.3318 124.128 59.3318 123.584C59.3318 123.104 59.1558 122.741 58.8038 122.496C58.4624 122.24 57.9664 122.112 57.3158 122.112C56.8571 122.112 56.4464 122.165 56.0838 122.272C55.7211 122.368 55.3424 122.507 54.9478 122.688L54.6278 121.936C55.0331 121.744 55.4544 121.595 55.8918 121.488C56.3398 121.381 56.8304 121.328 57.3638 121.328ZM62.2435 124.896C62.2435 123.787 62.3342 122.837 62.5155 122.048C62.6969 121.259 62.9742 120.613 63.3475 120.112C63.7315 119.6 64.2062 119.221 64.7715 118.976C65.3475 118.656 66.0142 118.411 66.7715 118.24C67.5395 118.059 68.3929 117.909 69.3315 117.792L69.4755 118.592C68.9955 118.645 68.5369 118.709 68.0995 118.784C67.6622 118.859 67.2515 118.944 66.8675 119.04C66.4942 119.125 66.1529 119.221 65.8435 119.328C65.5449 119.435 65.2835 119.557 65.0595 119.696C64.7822 119.835 64.5315 120.021 64.3075 120.256C64.0942 120.491 63.9075 120.779 63.7475 121.12C63.5982 121.461 63.4755 121.856 63.3795 122.304C63.2835 122.752 63.2249 123.253 63.2035 123.808H63.2675C63.4595 123.488 63.7049 123.2 64.0035 122.944C64.3022 122.677 64.6489 122.469 65.0435 122.32C65.4489 122.16 65.8915 122.08 66.3715 122.08C67.0862 122.08 67.6889 122.235 68.1795 122.544C68.6702 122.843 69.0382 123.28 69.2835 123.856C69.5395 124.421 69.6675 125.115 69.6675 125.936C69.6675 126.8 69.5235 127.552 69.2355 128.192C68.9582 128.821 68.5422 129.307 67.9875 129.648C67.4435 129.989 66.7715 130.16 65.9715 130.16C65.3315 130.16 64.7769 130.032 64.3075 129.776C63.8382 129.509 63.4489 129.141 63.1395 128.672C62.8302 128.192 62.6009 127.632 62.4515 126.992C62.3129 126.352 62.2435 125.653 62.2435 124.896ZM66.0355 129.376C66.6435 129.376 67.1395 129.248 67.5235 128.992C67.9182 128.725 68.2115 128.341 68.4035 127.84C68.6062 127.328 68.7075 126.715 68.7075 126C68.7075 124.976 68.4995 124.197 68.0835 123.664C67.6782 123.131 67.0649 122.864 66.2435 122.864C65.7635 122.864 65.3262 122.955 64.9315 123.136C64.5475 123.317 64.2062 123.563 63.9075 123.872C63.6089 124.171 63.3635 124.496 63.1715 124.848C63.1715 125.424 63.2142 125.984 63.2995 126.528C63.3849 127.061 63.5289 127.547 63.7315 127.984C63.9449 128.411 64.2382 128.752 64.6115 129.008C64.9955 129.253 65.4702 129.376 66.0355 129.376ZM79.0932 125.744C79.0932 126.405 79.0078 127.008 78.8372 127.552C78.6772 128.085 78.4318 128.549 78.1012 128.944C77.7812 129.328 77.3812 129.627 76.9012 129.84C76.4212 130.053 75.8718 130.16 75.2532 130.16C74.6665 130.16 74.1385 130.059 73.6692 129.856C73.2105 129.643 72.8158 129.344 72.4852 128.96C72.1545 128.565 71.9038 128.096 71.7332 127.552C71.5625 127.008 71.4772 126.405 71.4772 125.744C71.4772 124.816 71.6265 124.027 71.9252 123.376C72.2345 122.715 72.6772 122.208 73.2532 121.856C73.8398 121.504 74.5332 121.328 75.3332 121.328C76.1438 121.328 76.8265 121.515 77.3812 121.888C77.9465 122.251 78.3732 122.763 78.6612 123.424C78.9492 124.085 79.0932 124.859 79.0932 125.744ZM72.4212 125.744C72.4212 126.469 72.5225 127.109 72.7252 127.664C72.9278 128.208 73.2425 128.629 73.6692 128.928C74.0958 129.227 74.6292 129.376 75.2692 129.376C75.9305 129.376 76.4745 129.227 76.9012 128.928C77.3278 128.619 77.6425 128.192 77.8452 127.648C78.0478 127.093 78.1492 126.459 78.1492 125.744C78.1492 125.029 78.0532 124.4 77.8612 123.856C77.6692 123.312 77.3652 122.885 76.9492 122.576C76.5332 122.267 75.9892 122.112 75.3172 122.112C74.3465 122.112 73.6212 122.432 73.1412 123.072C72.6612 123.712 72.4212 124.603 72.4212 125.744ZM87.4107 130H86.4987V122.272H83.6187C83.512 123.616 83.3893 124.779 83.2507 125.76C83.112 126.741 82.9307 127.552 82.7067 128.192C82.4933 128.832 82.2213 129.307 81.8907 129.616C81.5707 129.925 81.1813 130.08 80.7227 130.08C80.584 130.08 80.4613 130.075 80.3547 130.064C80.248 130.053 80.1573 130.037 80.0827 130.016V129.28C80.1467 129.301 80.216 129.317 80.2907 129.328C80.3653 129.339 80.4613 129.344 80.5787 129.344C80.8347 129.344 81.064 129.243 81.2667 129.04C81.48 128.837 81.6667 128.533 81.8267 128.128C81.9867 127.723 82.1253 127.211 82.2427 126.592C82.3707 125.963 82.4773 125.227 82.5627 124.384C82.6587 123.531 82.744 122.565 82.8187 121.488H87.4107V130ZM91.0872 127.424C91.0872 127.531 91.0872 127.653 91.0872 127.792C91.0872 127.931 91.0818 128.075 91.0712 128.224C91.0712 128.363 91.0658 128.501 91.0552 128.64C91.0445 128.768 91.0392 128.891 91.0392 129.008L96.0152 121.488H97.1352V130H96.2712V124.064C96.2712 123.904 96.2712 123.728 96.2712 123.536C96.2712 123.344 96.2765 123.152 96.2872 122.96C96.2978 122.768 96.3032 122.603 96.3032 122.464L91.3272 130H90.2232V121.488H91.0872V127.424ZM106.422 123.568C106.422 124.101 106.278 124.523 105.99 124.832C105.702 125.141 105.323 125.355 104.854 125.472V125.52C105.408 125.605 105.862 125.813 106.214 126.144C106.566 126.464 106.742 126.939 106.742 127.568C106.742 127.941 106.678 128.277 106.55 128.576C106.422 128.875 106.23 129.131 105.974 129.344C105.718 129.557 105.392 129.723 104.998 129.84C104.603 129.947 104.134 130 103.59 130H99.9575V121.488H103.51C104.139 121.488 104.667 121.568 105.094 121.728C105.531 121.877 105.862 122.107 106.086 122.416C106.31 122.725 106.422 123.109 106.422 123.568ZM105.798 127.568C105.798 126.981 105.595 126.56 105.19 126.304C104.795 126.048 104.198 125.92 103.398 125.92H100.87V129.232H103.462C104.24 129.232 104.822 129.099 105.206 128.832C105.6 128.565 105.798 128.144 105.798 127.568ZM105.494 123.664C105.494 123.216 105.339 122.875 105.03 122.64C104.72 122.395 104.192 122.272 103.446 122.272H100.87V125.136H103.334C104.07 125.136 104.614 125.013 104.966 124.768C105.318 124.523 105.494 124.155 105.494 123.664ZM112.059 121.344C113.019 121.344 113.734 121.579 114.203 122.048C114.673 122.517 114.907 123.264 114.907 124.288V130H114.219L114.059 128.56H114.011C113.809 128.88 113.574 129.163 113.307 129.408C113.051 129.643 112.737 129.829 112.363 129.968C112.001 130.096 111.553 130.16 111.019 130.16C110.486 130.16 110.022 130.069 109.627 129.888C109.233 129.696 108.929 129.424 108.715 129.072C108.502 128.72 108.395 128.288 108.395 127.776C108.395 126.933 108.742 126.293 109.435 125.856C110.129 125.408 111.137 125.152 112.459 125.088L114.011 125.024V124.416C114.011 123.573 113.841 122.981 113.499 122.64C113.169 122.288 112.673 122.112 112.011 122.112C111.574 122.112 111.153 122.171 110.747 122.288C110.353 122.395 109.953 122.549 109.547 122.752L109.259 122.032C109.654 121.829 110.091 121.664 110.571 121.536C111.051 121.408 111.547 121.344 112.059 121.344ZM112.555 125.76C111.478 125.813 110.673 126.005 110.139 126.336C109.606 126.656 109.339 127.141 109.339 127.792C109.339 128.315 109.505 128.715 109.835 128.992C110.166 129.259 110.614 129.392 111.179 129.392C112.086 129.392 112.779 129.141 113.259 128.64C113.75 128.139 114.001 127.435 114.011 126.528V125.696L112.555 125.76ZM118.541 121.488V125.184H123.757V121.488H124.669V130H123.757V125.968H118.541V130H117.629V121.488H118.541ZM128.353 127.424C128.353 127.531 128.353 127.653 128.353 127.792C128.353 127.931 128.347 128.075 128.337 128.224C128.337 128.363 128.331 128.501 128.321 128.64C128.31 128.768 128.305 128.891 128.305 129.008L133.281 121.488H134.401V130H133.537V124.064C133.537 123.904 133.537 123.728 133.537 123.536C133.537 123.344 133.542 123.152 133.553 122.96C133.563 122.768 133.569 122.603 133.569 122.464L128.593 130H127.489V121.488H128.353V127.424ZM140.439 121.328C141.175 121.328 141.783 121.499 142.263 121.84C142.754 122.171 143.122 122.629 143.367 123.216C143.623 123.803 143.751 124.48 143.751 125.248V125.856H137.671C137.671 126.997 137.932 127.867 138.455 128.464C138.988 129.061 139.74 129.36 140.711 129.36C141.244 129.36 141.708 129.317 142.103 129.232C142.498 129.147 142.93 128.997 143.399 128.784V129.616C142.972 129.808 142.551 129.947 142.135 130.032C141.719 130.117 141.234 130.16 140.679 130.16C139.836 130.16 139.116 129.984 138.519 129.632C137.932 129.28 137.484 128.779 137.175 128.128C136.876 127.467 136.727 126.699 136.727 125.824C136.727 124.949 136.871 124.176 137.159 123.504C137.447 122.832 137.868 122.304 138.423 121.92C138.978 121.525 139.65 121.328 140.439 121.328ZM140.439 122.096C139.65 122.096 139.015 122.357 138.535 122.88C138.055 123.392 137.772 124.133 137.687 125.104H142.807C142.807 124.507 142.722 123.984 142.551 123.536C142.38 123.088 142.119 122.736 141.767 122.48C141.426 122.224 140.983 122.096 140.439 122.096Z" fill="black"/>
<rect x="19" y="146" width="145" height="30" rx="8" fill="white"/>
<rect x="19.5" y="146.5" width="144" height="29" rx="7.5" stroke="black" stroke-opacity="0.1"/>
<path d="M33.326 161.736H36.238V162.394H33.326V165.362H32.654V162.394H29.742V161.736H32.654V158.754H33.326V161.736ZM39.238 167L43.368 157.732H37.712V157.004H44.222V157.592L40.106 167H39.238ZM49.2068 163.164C49.2068 162.361 49.2815 161.591 49.4308 160.854C49.5895 160.117 49.8228 159.426 50.1308 158.782C50.4388 158.129 50.8121 157.536 51.2508 157.004H52.0628C51.6055 157.564 51.2228 158.175 50.9148 158.838C50.6161 159.501 50.3921 160.196 50.2428 160.924C50.0935 161.643 50.0188 162.385 50.0188 163.15C50.0188 163.897 50.0935 164.629 50.2428 165.348C50.3921 166.057 50.6161 166.734 50.9148 167.378C51.2228 168.031 51.6008 168.643 52.0488 169.212H51.2508C50.8121 168.68 50.4388 168.092 50.1308 167.448C49.8228 166.813 49.5895 166.137 49.4308 165.418C49.2815 164.699 49.2068 163.948 49.2068 163.164ZM58.3816 168.89H52.4876V168.274H58.3816V168.89ZM64.2195 168.89H58.3255V168.274H64.2195V168.89ZM70.0574 168.89H64.1634V168.274H70.0574V168.89ZM73.3473 163.108C73.3473 163.892 73.268 164.653 73.1093 165.39C72.96 166.127 72.7313 166.818 72.4233 167.462C72.1246 168.106 71.7513 168.689 71.3033 169.212H70.5053C70.9626 168.643 71.3406 168.031 71.6393 167.378C71.938 166.725 72.162 166.039 72.3113 165.32C72.4606 164.601 72.5353 163.864 72.5353 163.108C72.5353 162.352 72.4606 161.615 72.3113 160.896C72.162 160.177 71.9333 159.491 71.6253 158.838C71.3266 158.175 70.9486 157.564 70.4913 157.004H71.3033C71.7513 157.545 72.1246 158.138 72.4233 158.782C72.7313 159.426 72.96 160.112 73.1093 160.84C73.268 161.559 73.3473 162.315 73.3473 163.108ZM83.4148 168.89H77.5208V168.274H83.4148V168.89ZM89.2527 168.89H83.3587V168.274H89.2527V168.89ZM95.0906 168.89H89.1966V168.274H95.0906V168.89ZM95.6225 163.584V162.87H99.0105V163.584H95.6225ZM105.44 168.89H99.5462V168.274H105.44V168.89ZM111.278 168.89H105.384V168.274H111.278V168.89ZM111.81 163.584V162.87H115.198V163.584H111.81ZM121.628 168.89H115.734V168.274H121.628V168.89ZM127.466 168.89H121.572V168.274H127.466V168.89Z" fill="black" fill-opacity="0.5"/>
<rect x="176" y="146" width="145" height="30" rx="8" fill="white"/>
<rect x="176.5" y="146.5" width="144" height="29" rx="7.5" stroke="black" stroke-opacity="0.1"/>
<path d="M194.21 161.974C194.21 162.814 194.145 163.556 194.014 164.2C193.893 164.835 193.701 165.371 193.44 165.81C193.179 166.249 192.843 166.58 192.432 166.804C192.031 167.028 191.55 167.14 190.99 167.14C190.29 167.14 189.702 166.944 189.226 166.552C188.75 166.16 188.391 165.581 188.148 164.816C187.905 164.051 187.784 163.103 187.784 161.974C187.784 160.947 187.887 160.051 188.092 159.286C188.307 158.521 188.647 157.923 189.114 157.494C189.59 157.065 190.22 156.85 191.004 156.85C191.769 156.85 192.385 157.06 192.852 157.48C193.328 157.9 193.673 158.497 193.888 159.272C194.103 160.037 194.21 160.938 194.21 161.974ZM188.582 161.974C188.582 162.982 188.666 163.817 188.834 164.48C189.002 165.133 189.263 165.623 189.618 165.95C189.973 166.277 190.43 166.44 190.99 166.44C191.569 166.44 192.031 166.281 192.376 165.964C192.731 165.637 192.987 165.143 193.146 164.48C193.314 163.817 193.398 162.982 193.398 161.974C193.398 161.041 193.323 160.247 193.174 159.594C193.034 158.931 192.787 158.427 192.432 158.082C192.087 157.727 191.611 157.55 191.004 157.55C190.397 157.55 189.917 157.727 189.562 158.082C189.207 158.437 188.955 158.945 188.806 159.608C188.657 160.261 188.582 161.05 188.582 161.974ZM198.834 160.952C199.515 160.952 200.099 161.069 200.584 161.302C201.079 161.535 201.461 161.871 201.732 162.31C202.003 162.739 202.138 163.267 202.138 163.892C202.138 164.564 201.989 165.143 201.69 165.628C201.391 166.113 200.971 166.487 200.43 166.748C199.889 167.009 199.249 167.14 198.512 167.14C197.989 167.14 197.509 167.089 197.07 166.986C196.631 166.883 196.263 166.743 195.964 166.566V165.782C196.291 165.978 196.678 166.137 197.126 166.258C197.574 166.379 198.036 166.44 198.512 166.44C199.081 166.44 199.576 166.347 199.996 166.16C200.416 165.973 200.743 165.693 200.976 165.32C201.209 164.947 201.326 164.489 201.326 163.948C201.326 163.22 201.102 162.655 200.654 162.254C200.215 161.843 199.543 161.638 198.638 161.638C198.293 161.638 197.947 161.666 197.602 161.722C197.266 161.769 196.958 161.829 196.678 161.904L196.244 161.61L196.65 157.004H201.48V157.732H197.322L197.028 161.176C197.224 161.129 197.471 161.083 197.77 161.036C198.078 160.98 198.433 160.952 198.834 160.952ZM204.102 166.468C204.102 166.235 204.153 166.062 204.256 165.95C204.359 165.838 204.503 165.782 204.69 165.782C204.895 165.782 205.049 165.838 205.152 165.95C205.264 166.062 205.32 166.235 205.32 166.468C205.32 166.692 205.264 166.865 205.152 166.986C205.049 167.098 204.895 167.154 204.69 167.154C204.503 167.154 204.359 167.098 204.256 166.986C204.153 166.865 204.102 166.692 204.102 166.468ZM211.132 167H210.362V159.566C210.362 159.295 210.362 159.062 210.362 158.866C210.362 158.67 210.367 158.488 210.376 158.32C210.385 158.152 210.39 157.993 210.39 157.844C210.259 157.965 210.138 158.077 210.026 158.18C209.914 158.273 209.765 158.39 209.578 158.53L208.178 159.608L207.758 159.048L210.474 157.004H211.132V167ZM221.622 161.974C221.622 162.814 221.557 163.556 221.426 164.2C221.305 164.835 221.113 165.371 220.852 165.81C220.591 166.249 220.255 166.58 219.844 166.804C219.443 167.028 218.962 167.14 218.402 167.14C217.702 167.14 217.114 166.944 216.638 166.552C216.162 166.16 215.803 165.581 215.56 164.816C215.317 164.051 215.196 163.103 215.196 161.974C215.196 160.947 215.299 160.051 215.504 159.286C215.719 158.521 216.059 157.923 216.526 157.494C217.002 157.065 217.632 156.85 218.416 156.85C219.181 156.85 219.797 157.06 220.264 157.48C220.74 157.9 221.085 158.497 221.3 159.272C221.515 160.037 221.622 160.938 221.622 161.974ZM215.994 161.974C215.994 162.982 216.078 163.817 216.246 164.48C216.414 165.133 216.675 165.623 217.03 165.95C217.385 166.277 217.842 166.44 218.402 166.44C218.981 166.44 219.443 166.281 219.788 165.964C220.143 165.637 220.399 165.143 220.558 164.48C220.726 163.817 220.81 162.982 220.81 161.974C220.81 161.041 220.735 160.247 220.586 159.594C220.446 158.931 220.199 158.427 219.844 158.082C219.499 157.727 219.023 157.55 218.416 157.55C217.809 157.55 217.329 157.727 216.974 158.082C216.619 158.437 216.367 158.945 216.218 159.608C216.069 160.261 215.994 161.05 215.994 161.974ZM223.516 166.468C223.516 166.235 223.567 166.062 223.67 165.95C223.773 165.838 223.917 165.782 224.104 165.782C224.309 165.782 224.463 165.838 224.566 165.95C224.678 166.062 224.734 166.235 224.734 166.468C224.734 166.692 224.678 166.865 224.566 166.986C224.463 167.098 224.309 167.154 224.104 167.154C223.917 167.154 223.773 167.098 223.67 166.986C223.567 166.865 223.516 166.692 223.516 166.468ZM232.898 167H226.584V166.328L229.454 163.346C229.939 162.861 230.341 162.422 230.658 162.03C230.985 161.629 231.232 161.232 231.4 160.84C231.568 160.439 231.652 160 231.652 159.524C231.652 158.899 231.47 158.418 231.106 158.082C230.742 157.737 230.247 157.564 229.622 157.564C229.183 157.564 228.763 157.643 228.362 157.802C227.97 157.961 227.587 158.189 227.214 158.488L226.78 157.928C227.06 157.704 227.354 157.513 227.662 157.354C227.97 157.195 228.287 157.074 228.614 156.99C228.95 156.906 229.286 156.864 229.622 156.864C230.201 156.864 230.7 156.976 231.12 157.2C231.549 157.415 231.881 157.718 232.114 158.11C232.347 158.493 232.464 158.95 232.464 159.482C232.464 159.893 232.408 160.275 232.296 160.63C232.193 160.975 232.039 161.311 231.834 161.638C231.629 161.955 231.377 162.282 231.078 162.618C230.789 162.945 230.462 163.29 230.098 163.654L227.606 166.23V166.272H232.898V167ZM241.036 161.974C241.036 162.814 240.971 163.556 240.84 164.2C240.719 164.835 240.528 165.371 240.266 165.81C240.005 166.249 239.669 166.58 239.258 166.804C238.857 167.028 238.376 167.14 237.816 167.14C237.116 167.14 236.528 166.944 236.052 166.552C235.576 166.16 235.217 165.581 234.974 164.816C234.732 164.051 234.61 163.103 234.61 161.974C234.61 160.947 234.713 160.051 234.918 159.286C235.133 158.521 235.474 157.923 235.94 157.494C236.416 157.065 237.046 156.85 237.83 156.85C238.596 156.85 239.212 157.06 239.678 157.48C240.154 157.9 240.5 158.497 240.714 159.272C240.929 160.037 241.036 160.938 241.036 161.974ZM235.408 161.974C235.408 162.982 235.492 163.817 235.66 164.48C235.828 165.133 236.09 165.623 236.444 165.95C236.799 166.277 237.256 166.44 237.816 166.44C238.395 166.44 238.857 166.281 239.202 165.964C239.557 165.637 239.814 165.143 239.972 164.48C240.14 163.817 240.224 162.982 240.224 161.974C240.224 161.041 240.15 160.247 240 159.594C239.86 158.931 239.613 158.427 239.258 158.082C238.913 157.727 238.437 157.55 237.83 157.55C237.224 157.55 236.743 157.727 236.388 158.082C236.034 158.437 235.782 158.945 235.632 159.608C235.483 160.261 235.408 161.05 235.408 161.974ZM248.894 167H242.58V166.328L245.45 163.346C245.936 162.861 246.337 162.422 246.654 162.03C246.981 161.629 247.228 161.232 247.396 160.84C247.564 160.439 247.648 160 247.648 159.524C247.648 158.899 247.466 158.418 247.102 158.082C246.738 157.737 246.244 157.564 245.618 157.564C245.18 157.564 244.76 157.643 244.358 157.802C243.966 157.961 243.584 158.189 243.21 158.488L242.776 157.928C243.056 157.704 243.35 157.513 243.658 157.354C243.966 157.195 244.284 157.074 244.61 156.99C244.946 156.906 245.282 156.864 245.618 156.864C246.197 156.864 246.696 156.976 247.116 157.2C247.546 157.415 247.877 157.718 248.11 158.11C248.344 158.493 248.46 158.95 248.46 159.482C248.46 159.893 248.404 160.275 248.292 160.63C248.19 160.975 248.036 161.311 247.83 161.638C247.625 161.955 247.373 162.282 247.074 162.618C246.785 162.945 246.458 163.29 246.094 163.654L243.602 166.23V166.272H248.894V167ZM256.892 167H250.578V166.328L253.448 163.346C253.934 162.861 254.335 162.422 254.652 162.03C254.979 161.629 255.226 161.232 255.394 160.84C255.562 160.439 255.646 160 255.646 159.524C255.646 158.899 255.464 158.418 255.1 158.082C254.736 157.737 254.242 157.564 253.616 157.564C253.178 157.564 252.758 157.643 252.356 157.802C251.964 157.961 251.582 158.189 251.208 158.488L250.774 157.928C251.054 157.704 251.348 157.513 251.656 157.354C251.964 157.195 252.282 157.074 252.608 156.99C252.944 156.906 253.28 156.864 253.616 156.864C254.195 156.864 254.694 156.976 255.114 157.2C255.544 157.415 255.875 157.718 256.108 158.11C256.342 158.493 256.458 158.95 256.458 159.482C256.458 159.893 256.402 160.275 256.29 160.63C256.188 160.975 256.034 161.311 255.828 161.638C255.623 161.955 255.371 162.282 255.072 162.618C254.783 162.945 254.456 163.29 254.092 163.654L251.6 166.23V166.272H256.892V167Z" fill="black" fill-opacity="0.5"/>
<rect x="99.5" y="191.5" width="130" height="35" rx="7.5" fill="white" stroke="#35ADE3"/>
<path d="M129.888 206.248C129.888 207.027 129.653 207.645 129.184 208.104C128.725 208.552 128.107 208.84 127.328 208.968V209.032C128.245 209.16 128.939 209.459 129.408 209.928C129.877 210.397 130.112 211.011 130.112 211.768C130.112 212.44 129.952 213.032 129.632 213.544C129.312 214.045 128.832 214.44 128.192 214.728C127.552 215.016 126.747 215.16 125.776 215.16C125.179 215.16 124.608 215.112 124.064 215.016C123.531 214.931 123.04 214.771 122.592 214.536V213.224C122.901 213.384 123.232 213.523 123.584 213.64C123.947 213.747 124.309 213.832 124.672 213.896C125.045 213.949 125.397 213.976 125.728 213.976C126.688 213.976 127.413 213.784 127.904 213.4C128.395 213.016 128.64 212.472 128.64 211.768C128.64 211.043 128.347 210.515 127.76 210.184C127.173 209.853 126.363 209.688 125.328 209.688H123.824V208.488H125.248C125.963 208.488 126.555 208.403 127.024 208.232C127.493 208.061 127.84 207.821 128.064 207.512C128.299 207.192 128.416 206.819 128.416 206.392C128.416 205.816 128.219 205.373 127.824 205.064C127.429 204.755 126.912 204.6 126.272 204.6C125.611 204.6 125.056 204.691 124.608 204.872C124.16 205.053 123.723 205.288 123.296 205.576L122.624 204.6C122.912 204.376 123.243 204.179 123.616 204.008C123.989 203.827 124.4 203.683 124.848 203.576C125.296 203.469 125.781 203.416 126.304 203.416C127.083 203.416 127.739 203.539 128.272 203.784C128.805 204.029 129.205 204.365 129.472 204.792C129.749 205.208 129.888 205.693 129.888 206.248ZM135.258 206.28C136.24 206.28 136.97 206.509 137.45 206.968C137.941 207.427 138.186 208.157 138.186 209.16V215H137.178L136.906 213.784H136.842C136.608 214.093 136.368 214.355 136.122 214.568C135.888 214.771 135.61 214.92 135.29 215.016C134.981 215.112 134.597 215.16 134.138 215.16C133.658 215.16 133.226 215.069 132.842 214.888C132.458 214.707 132.154 214.429 131.93 214.056C131.706 213.672 131.594 213.192 131.594 212.616C131.594 211.763 131.909 211.107 132.538 210.648C133.168 210.179 134.138 209.923 135.45 209.88L136.81 209.832V209.32C136.81 208.605 136.666 208.109 136.378 207.832C136.101 207.555 135.701 207.416 135.178 207.416C134.762 207.416 134.362 207.485 133.978 207.624C133.605 207.752 133.248 207.901 132.906 208.072L132.474 207.016C132.837 206.813 133.258 206.643 133.738 206.504C134.218 206.355 134.725 206.28 135.258 206.28ZM135.642 210.856C134.661 210.899 133.978 211.069 133.594 211.368C133.221 211.667 133.034 212.088 133.034 212.632C133.034 213.112 133.168 213.464 133.434 213.688C133.701 213.912 134.048 214.024 134.474 214.024C135.136 214.024 135.69 213.827 136.138 213.432C136.586 213.027 136.81 212.408 136.81 211.576V210.808L135.642 210.856ZM147.534 206.424V215H146.142V207.624H142.062V215H140.67V206.424H147.534ZM151.389 211.656C151.389 211.752 151.383 211.891 151.373 212.072C151.373 212.243 151.367 212.429 151.357 212.632C151.346 212.824 151.335 213.011 151.325 213.192C151.314 213.363 151.303 213.501 151.293 213.608L155.581 206.424H157.277V215H155.981V209.944C155.981 209.773 155.981 209.549 155.981 209.272C155.991 208.995 156.002 208.723 156.013 208.456C156.023 208.179 156.034 207.971 156.045 207.832L151.805 215H150.077V206.424H151.389V211.656ZM163.075 215.16C162.349 215.16 161.709 215.005 161.155 214.696C160.6 214.387 160.163 213.907 159.843 213.256C159.533 212.605 159.379 211.773 159.379 210.76C159.379 209.704 159.544 208.845 159.875 208.184C160.205 207.523 160.653 207.037 161.219 206.728C161.795 206.419 162.445 206.264 163.171 206.264C163.587 206.264 163.987 206.312 164.371 206.408C164.765 206.493 165.085 206.6 165.331 206.728L164.899 207.896C164.653 207.8 164.365 207.709 164.035 207.624C163.715 207.539 163.416 207.496 163.139 207.496C162.616 207.496 162.184 207.619 161.843 207.864C161.501 208.109 161.245 208.472 161.075 208.952C160.904 209.432 160.819 210.029 160.819 210.744C160.819 211.427 160.904 212.008 161.075 212.488C161.245 212.968 161.496 213.331 161.827 213.576C162.168 213.821 162.584 213.944 163.075 213.944C163.512 213.944 163.901 213.896 164.243 213.8C164.584 213.704 164.899 213.587 165.187 213.448V214.696C164.909 214.845 164.605 214.957 164.275 215.032C163.944 215.117 163.544 215.16 163.075 215.16ZM170.18 206.28C171.161 206.28 171.892 206.509 172.372 206.968C172.863 207.427 173.108 208.157 173.108 209.16V215H172.1L171.828 213.784H171.764C171.529 214.093 171.289 214.355 171.044 214.568C170.809 214.771 170.532 214.92 170.212 215.016C169.903 215.112 169.519 215.16 169.06 215.16C168.58 215.16 168.148 215.069 167.764 214.888C167.38 214.707 167.076 214.429 166.852 214.056C166.628 213.672 166.516 213.192 166.516 212.616C166.516 211.763 166.831 211.107 167.46 210.648C168.089 210.179 169.06 209.923 170.372 209.88L171.732 209.832V209.32C171.732 208.605 171.588 208.109 171.3 207.832C171.023 207.555 170.623 207.416 170.1 207.416C169.684 207.416 169.284 207.485 168.9 207.624C168.527 207.752 168.169 207.901 167.828 208.072L167.396 207.016C167.759 206.813 168.18 206.643 168.66 206.504C169.14 206.355 169.647 206.28 170.18 206.28ZM170.564 210.856C169.583 210.899 168.9 211.069 168.516 211.368C168.143 211.667 167.956 212.088 167.956 212.632C167.956 213.112 168.089 213.464 168.356 213.688C168.623 213.912 168.969 214.024 169.396 214.024C170.057 214.024 170.612 213.827 171.06 213.432C171.508 213.027 171.732 212.408 171.732 211.576V210.808L170.564 210.856ZM181.256 207.608H178.616V215H177.24V207.608H174.632V206.424H181.256V207.608ZM186.57 209.944C187.274 209.944 187.861 210.035 188.33 210.216C188.799 210.397 189.151 210.669 189.386 211.032C189.631 211.384 189.754 211.832 189.754 212.376C189.754 212.909 189.642 213.373 189.418 213.768C189.194 214.163 188.842 214.467 188.362 214.68C187.893 214.893 187.279 215 186.522 215H182.842V206.424H184.234V209.944H186.57ZM188.362 212.456C188.362 211.933 188.191 211.581 187.85 211.4C187.509 211.208 187.034 211.112 186.426 211.112H184.234V213.864H186.458C187.002 213.864 187.455 213.757 187.818 213.544C188.181 213.331 188.362 212.968 188.362 212.456ZM195.043 215.16C194.318 215.16 193.678 215.005 193.123 214.696C192.569 214.387 192.131 213.907 191.811 213.256C191.502 212.605 191.347 211.773 191.347 210.76C191.347 209.704 191.513 208.845 191.843 208.184C192.174 207.523 192.622 207.037 193.187 206.728C193.763 206.419 194.414 206.264 195.139 206.264C195.555 206.264 195.955 206.312 196.339 206.408C196.734 206.493 197.054 206.6 197.299 206.728L196.867 207.896C196.622 207.8 196.334 207.709 196.003 207.624C195.683 207.539 195.385 207.496 195.107 207.496C194.585 207.496 194.153 207.619 193.811 207.864C193.47 208.109 193.214 208.472 193.043 208.952C192.873 209.432 192.787 210.029 192.787 210.744C192.787 211.427 192.873 212.008 193.043 212.488C193.214 212.968 193.465 213.331 193.795 213.576C194.137 213.821 194.553 213.944 195.043 213.944C195.481 213.944 195.87 213.896 196.211 213.8C196.553 213.704 196.867 213.587 197.155 213.448V214.696C196.878 214.845 196.574 214.957 196.243 215.032C195.913 215.117 195.513 215.16 195.043 215.16ZM199.621 215H198.021L200.309 211.4C200 211.315 199.701 211.181 199.413 211C199.136 210.808 198.906 210.547 198.725 210.216C198.544 209.875 198.453 209.453 198.453 208.952C198.453 208.131 198.714 207.507 199.237 207.08C199.77 206.643 200.474 206.424 201.349 206.424H204.981V215H203.589V211.592H201.685L199.621 215ZM199.813 208.968C199.813 209.459 199.978 209.827 200.309 210.072C200.65 210.307 201.125 210.424 201.733 210.424H203.589V207.592H201.477C200.88 207.592 200.453 207.72 200.197 207.976C199.941 208.232 199.813 208.563 199.813 208.968Z" fill="black"/>
<g opacity="0.5">
<g clip-path="url(#clip0_1_115)">
<rect width="17" height="17" transform="translate(137 152)" fill="white"/>
<path d="M149.041 168.993C149.118 168.997 149.191 169 149.268 169C150.087 169 150.77 168.704 151.307 168.122C151.31 168.118 151.317 168.111 151.321 168.108C151.512 167.878 151.728 167.669 151.958 167.449C152.115 167.299 152.276 167.146 152.425 166.986C153.14 166.24 153.136 165.295 152.418 164.577L150.432 162.591C150.09 162.235 149.682 162.047 149.25 162.047C148.822 162.047 148.41 162.232 148.058 162.584L146.884 163.758C146.779 163.699 146.671 163.647 146.567 163.594C146.434 163.528 146.312 163.465 146.204 163.399C145.127 162.716 144.151 161.824 143.217 160.677C142.747 160.085 142.437 159.59 142.217 159.081C142.524 158.802 142.809 158.513 143.085 158.23C143.186 158.129 143.287 158.025 143.392 157.92C144.137 157.174 144.137 156.251 143.392 155.508L142.405 154.522C142.29 154.407 142.179 154.292 142.067 154.181C141.848 153.958 141.621 153.724 141.394 153.515C141.053 153.173 140.649 152.996 140.22 152.996C139.795 152.996 139.383 153.173 139.028 153.515L137.791 154.749C137.338 155.202 137.08 155.752 137.024 156.39C136.961 157.185 137.108 158.028 137.484 159.046C138.066 160.618 138.941 162.078 140.237 163.64C141.816 165.522 143.712 167.01 145.88 168.059C146.706 168.453 147.811 168.913 149.041 168.993ZM140.896 163.092C139.662 161.608 138.836 160.228 138.289 158.75C137.951 157.84 137.826 157.133 137.878 156.46C137.916 156.024 138.083 155.662 138.397 155.352L139.627 154.121C139.816 153.94 140.021 153.846 140.223 153.846C140.422 153.846 140.617 153.94 140.805 154.125C141.025 154.33 141.238 154.547 141.461 154.773C141.572 154.888 141.687 155.007 141.806 155.122L142.792 156.108C143.196 156.512 143.196 156.91 142.792 157.314C142.688 157.418 142.583 157.523 142.482 157.628C142.175 157.938 141.889 158.23 141.572 158.513C141.565 158.52 141.562 158.523 141.555 158.53C141.272 158.813 141.314 159.084 141.384 159.287C141.388 159.297 141.391 159.304 141.394 159.314C141.649 159.928 142.008 160.51 142.559 161.207C143.552 162.43 144.597 163.382 145.755 164.117C145.897 164.208 146.047 164.284 146.194 164.358C146.326 164.424 146.448 164.487 146.556 164.553C146.57 164.56 146.581 164.567 146.595 164.574C146.706 164.629 146.814 164.657 146.926 164.657C147.201 164.657 147.375 164.483 147.431 164.424L148.668 163.187C148.856 162.998 149.059 162.901 149.257 162.901C149.501 162.901 149.7 163.054 149.829 163.187L151.822 165.18C152.31 165.668 152.087 166.107 151.812 166.396C151.673 166.546 151.526 166.686 151.373 166.836C151.139 167.059 150.899 167.292 150.679 167.554C150.303 167.958 149.857 168.146 149.275 168.146C149.219 168.146 149.16 168.143 149.104 168.139C148.02 168.069 147.016 167.648 146.26 167.289C144.197 166.295 142.395 164.884 140.896 163.092Z" fill="#AFAFAF"/>
<path d="M146.344 155.111C146.11 155.073 145.89 155.23 145.852 155.46C145.814 155.693 145.971 155.913 146.201 155.951C147.159 156.115 148.03 156.568 148.728 157.262C149.421 157.955 149.874 158.83 150.038 159.788C150.073 159.998 150.254 160.144 150.46 160.144C150.484 160.144 150.508 160.14 150.533 160.137C150.766 160.099 150.923 159.876 150.881 159.646C150.69 158.513 150.153 157.478 149.334 156.659C148.508 155.836 147.476 155.303 146.344 155.111Z" fill="#AFAFAF"/>
<path d="M153.562 159.998C153.586 159.998 153.61 159.994 153.635 159.991C153.868 159.952 154.025 159.729 153.983 159.499C153.666 157.624 152.781 155.92 151.425 154.564C150.066 153.208 148.362 152.323 146.486 152.006C146.253 151.967 146.033 152.124 145.995 152.354C145.957 152.588 146.114 152.807 146.344 152.846C148.041 153.135 149.588 153.937 150.819 155.167C152.049 156.397 152.851 157.945 153.14 159.642C153.175 159.851 153.356 159.998 153.562 159.998Z" fill="#AFAFAF"/>
</g>
</g>
<path d="M306.695 162.901V153.745H302.897V152H302.006V153.745H298.298V152H297.402V153.745H293.694V152H292.798V153.745H289V168.983H300.454C301.045 171.041 302.923 172.558 305.13 172.558C307.81 172.558 310 170.325 310 167.599C310.004 165.426 308.615 163.569 306.695 162.901ZM289.896 154.636H292.798V156.557H293.69V154.636H297.402V156.557H298.293V154.636H302.001V156.557H302.893V154.636H305.803V158.747H289.896V154.636ZM300.291 168.092H289.896V168.088V159.643H305.803V162.686C305.585 162.656 305.362 162.639 305.135 162.639C302.456 162.639 300.265 164.873 300.265 167.599C300.265 167.766 300.274 167.929 300.291 168.092ZM305.135 171.663C302.944 171.663 301.157 169.832 301.157 167.595C301.157 165.361 302.944 163.527 305.135 163.527C307.325 163.527 309.113 165.357 309.113 167.595C309.113 169.832 307.321 171.663 305.135 171.663Z" fill="#D0D5D9"/>
<path d="M304.685 166.973H303.253V167.865H305.58V164.35H304.685V166.973Z" fill="#D0D5D9"/>
<defs>
<filter id="filter0_ddddd_1_115" x="0" y="0" width="340" height="269" filterUnits="userSpaceOnUse" color-interpolation-filters="sRGB">
<feFlood flood-opacity="0" result="BackgroundImageFix"/>
<feColorMatrix in="SourceAlpha" type="matrix" values="0 0 0 0 0 0 0 0 0 0 0 0 0 0 0 0 0 0 127 0" result="hardAlpha"/>
<feOffset/>
<feColorMatrix type="matrix" values="0 0 0 0 0 0 0 0 0 0 0 0 0 0 0 0 0 0 0.1 0"/>
<feBlend mode="normal" in2="BackgroundImageFix" result="effect1_dropShadow_1_115"/>
<feColorMatrix in="SourceAlpha" type="matrix" values="0 0 0 0 0 0 0 0 0 0 0 0 0 0 0 0 0 0 127 0" result="hardAlpha"/>
<feOffset dy="1"/>
<feGaussianBlur stdDeviation="1"/>
<feColorMatrix type="matrix" values="0 0 0 0 0 0 0 0 0 0 0 0 0 0 0 0 0 0 0.1 0"/>
<feBlend mode="normal" in2="effect1_dropShadow_1_115" result="effect2_dropShadow_1_115"/>
<feColorMatrix in="SourceAlpha" type="matrix" values="0 0 0 0 0 0 0 0 0 0 0 0 0 0 0 0 0 0 127 0" result="hardAlpha"/>
<feOffset dy="3"/>
<feGaussianBlur stdDeviation="1.5"/>
<feColorMatrix type="matrix" values="0 0 0 0 0 0 0 0 0 0 0 0 0 0 0 0 0 0 0.09 0"/>
<feBlend mode="normal" in2="effect2_dropShadow_1_115" result="effect3_dropShadow_1_115"/>
<feColorMatrix in="SourceAlpha" type="matrix" values="0 0 0 0 0 0 0 0 0 0 0 0 0 0 0 0 0 0 127 0" result="hardAlpha"/>
<feOffset dy="7"/>
<feGaussianBlur stdDeviation="2"/>
<feColorMatrix type="matrix" values="0 0 0 0 0 0 0 0 0 0 0 0 0 0 0 0 0 0 0.05 0"/>
<feBlend mode="normal" in2="effect3_dropShadow_1_115" result="effect4_dropShadow_1_115"/>
<feColorMatrix in="SourceAlpha" type="matrix" values="0 0 0 0 0 0 0 0 0 0 0 0 0 0 0 0 0 0 127 0" result="hardAlpha"/>
<feOffset dy="12"/>
<feGaussianBlur stdDeviation="2.5"/>
<feColorMatrix type="matrix" values="0 0 0 0 0 0 0 0 0 0 0 0 0 0 0 0 0 0 0.01 0"/>
<feBlend mode="normal" in2="effect4_dropShadow_1_115" result="effect5_dropShadow_1_115"/>
<feBlend mode="normal" in="SourceGraphic" in2="effect5_dropShadow_1_115" result="shape"/>
</filter>
<clipPath id="clip0_1_115">
<rect width="17" height="17" fill="white" transform="translate(137 152)"/>
</clipPath>
</defs>
</svg>
