<svg width="330" height="250" viewBox="0 0 330 250" fill="none" xmlns="http://www.w3.org/2000/svg">
<rect width="330" height="250" rx="8" fill="url(#paint0_linear_1_105)"/>
<path d="M36.86 42.04C36.2867 42.04 35.7733 42.1533 35.32 42.38C34.88 42.6067 34.5067 42.9333 34.2 43.36C33.8933 43.7733 33.66 44.28 33.5 44.88C33.3533 45.48 33.28 46.1533 33.28 46.9C33.28 47.9133 33.4 48.78 33.64 49.5C33.8933 50.2067 34.2867 50.7467 34.82 51.12C35.3533 51.4933 36.0333 51.68 36.86 51.68C37.4467 51.68 38.0267 51.6133 38.6 51.48C39.1867 51.3467 39.82 51.16 40.5 50.92V53.46C39.8733 53.7133 39.2533 53.9 38.64 54.02C38.0267 54.14 37.34 54.2 36.58 54.2C35.1133 54.2 33.9 53.9 32.94 53.3C31.9933 52.6867 31.2933 51.8333 30.84 50.74C30.3867 49.6333 30.16 48.3467 30.16 46.88C30.16 45.8 30.3067 44.8133 30.6 43.92C30.8933 43.0133 31.32 42.2333 31.88 41.58C32.4533 40.9267 33.1533 40.42 33.98 40.06C34.82 39.7 35.78 39.52 36.86 39.52C37.5667 39.52 38.2733 39.6133 38.98 39.8C39.7 39.9733 40.3867 40.2133 41.04 40.52L40.06 42.98C39.5267 42.7267 38.9867 42.5067 38.44 42.32C37.9067 42.1333 37.38 42.04 36.86 42.04ZM50.4544 43.08H53.7344L49.4144 48.32L54.1144 54H50.7344L46.2744 48.46V54H43.2944V43.08H46.2744V48.38L50.4544 43.08ZM58.5572 47.4C58.5572 47.6267 58.5439 47.9067 58.5172 48.24C58.5039 48.5733 58.4839 48.9133 58.4572 49.26C58.4439 49.6067 58.4239 49.9133 58.3972 50.18C58.3705 50.4467 58.3505 50.6333 58.3372 50.74L63.3772 43.08H66.9572V54H64.0772V49.64C64.0772 49.28 64.0905 48.8867 64.1172 48.46C64.1439 48.02 64.1705 47.6133 64.1972 47.24C64.2372 46.8533 64.2639 46.56 64.2772 46.36L59.2572 54H55.6772V43.08H58.5572V47.4ZM79.8917 43.08V51.82H81.4917V57.92H78.8117V54H71.4717V57.92H68.7917V51.82H69.7117C70.1917 51.0867 70.5984 50.2533 70.9317 49.32C71.2651 48.3733 71.5317 47.3667 71.7317 46.3C71.9317 45.2333 72.0784 44.16 72.1717 43.08H79.8917ZM74.6717 45.32C74.5651 46.12 74.4317 46.9 74.2717 47.66C74.1117 48.4067 73.9117 49.1267 73.6717 49.82C73.4451 50.5133 73.1651 51.18 72.8317 51.82H76.9117V45.32H74.6717ZM90.513 43.08H93.793L89.473 48.32L94.173 54H90.793L86.333 48.46V54H83.353V43.08H86.333V48.38L90.513 43.08ZM100.216 42.86C101.682 42.86 102.802 43.18 103.576 43.82C104.362 44.4467 104.756 45.4133 104.756 46.72V54H102.676L102.096 52.52H102.016C101.709 52.9067 101.389 53.2267 101.056 53.48C100.736 53.7333 100.362 53.9133 99.9358 54.02C99.5224 54.14 99.0091 54.2 98.3958 54.2C97.7558 54.2 97.1758 54.08 96.6558 53.84C96.1491 53.5867 95.7491 53.2067 95.4558 52.7C95.1624 52.18 95.0158 51.5267 95.0158 50.74C95.0158 49.58 95.4224 48.7267 96.2358 48.18C97.0491 47.62 98.2691 47.3133 99.8958 47.26L101.796 47.2V46.72C101.796 46.1467 101.642 45.7267 101.336 45.46C101.042 45.1933 100.629 45.06 100.096 45.06C99.5624 45.06 99.0424 45.14 98.5358 45.3C98.0291 45.4467 97.5224 45.6333 97.0158 45.86L96.0358 43.84C96.6224 43.5333 97.2691 43.2933 97.9758 43.12C98.6958 42.9467 99.4424 42.86 100.216 42.86ZM100.636 48.98C99.6758 49.0067 99.0091 49.18 98.6358 49.5C98.2624 49.82 98.0758 50.24 98.0758 50.76C98.0758 51.2133 98.2091 51.54 98.4758 51.74C98.7424 51.9267 99.0891 52.02 99.5158 52.02C100.156 52.02 100.696 51.8333 101.136 51.46C101.576 51.0733 101.796 50.5333 101.796 49.84V48.94L100.636 48.98ZM117.441 44.88C118.308 44.88 119.081 45.0467 119.761 45.38C120.441 45.7133 120.975 46.2 121.361 46.84C121.761 47.48 121.961 48.2733 121.961 49.22C121.961 50.2467 121.748 51.1333 121.321 51.88C120.895 52.6267 120.255 53.2 119.401 53.6C118.561 54 117.515 54.2 116.261 54.2C115.515 54.2 114.808 54.1333 114.141 54C113.488 53.8667 112.915 53.6733 112.421 53.42V50.82C112.915 51.0733 113.508 51.2933 114.201 51.48C114.895 51.6533 115.548 51.74 116.161 51.74C116.761 51.74 117.261 51.66 117.661 51.5C118.075 51.34 118.388 51.0933 118.601 50.76C118.815 50.4267 118.921 50 118.921 49.48C118.921 48.7733 118.688 48.24 118.221 47.88C117.755 47.5067 117.035 47.32 116.061 47.32C115.688 47.32 115.301 47.36 114.901 47.44C114.501 47.5067 114.168 47.5733 113.901 47.64L112.701 47L113.241 39.72H120.981V42.28H115.881L115.621 45.08C115.848 45.04 116.088 45 116.341 44.96C116.608 44.9067 116.975 44.88 117.441 44.88ZM128.887 44.88C129.753 44.88 130.527 45.0467 131.207 45.38C131.887 45.7133 132.42 46.2 132.807 46.84C133.207 47.48 133.407 48.2733 133.407 49.22C133.407 50.2467 133.193 51.1333 132.767 51.88C132.34 52.6267 131.7 53.2 130.847 53.6C130.007 54 128.96 54.2 127.707 54.2C126.96 54.2 126.253 54.1333 125.587 54C124.933 53.8667 124.36 53.6733 123.867 53.42V50.82C124.36 51.0733 124.953 51.2933 125.647 51.48C126.34 51.6533 126.993 51.74 127.607 51.74C128.207 51.74 128.707 51.66 129.107 51.5C129.52 51.34 129.833 51.0933 130.047 50.76C130.26 50.4267 130.367 50 130.367 49.48C130.367 48.7733 130.133 48.24 129.667 47.88C129.2 47.5067 128.48 47.32 127.507 47.32C127.133 47.32 126.747 47.36 126.347 47.44C125.947 47.5067 125.613 47.5733 125.347 47.64L124.147 47L124.687 39.72H132.427V42.28H127.327L127.067 45.08C127.293 45.04 127.533 45 127.787 44.96C128.053 44.9067 128.42 44.88 128.887 44.88ZM138.312 39.52C139.432 39.52 140.279 39.9133 140.852 40.7C141.439 41.4733 141.732 42.5667 141.732 43.98C141.732 45.3933 141.459 46.5 140.912 47.3C140.365 48.0867 139.499 48.48 138.312 48.48C137.579 48.48 136.959 48.3 136.452 47.94C135.959 47.58 135.585 47.0667 135.332 46.4C135.079 45.72 134.952 44.9133 134.952 43.98C134.952 42.5667 135.219 41.4733 135.752 40.7C136.285 39.9133 137.139 39.52 138.312 39.52ZM138.332 41.56C138.012 41.56 137.779 41.76 137.632 42.16C137.485 42.56 137.412 43.1733 137.412 44C137.412 44.8133 137.485 45.4267 137.632 45.84C137.779 46.2533 138.012 46.46 138.332 46.46C138.652 46.46 138.885 46.2533 139.032 45.84C139.192 45.4267 139.272 44.8133 139.272 44C139.272 43.1733 139.192 42.56 139.032 42.16C138.885 41.76 138.652 41.56 138.332 41.56ZM148.452 39.72L140.532 54H138.192L146.112 39.72H148.452ZM148.312 45.22C149.059 45.22 149.685 45.4 150.192 45.76C150.699 46.1067 151.079 46.6133 151.332 47.28C151.599 47.9333 151.732 48.7333 151.732 49.68C151.732 51.0933 151.459 52.2 150.912 53C150.365 53.7867 149.499 54.18 148.312 54.18C147.579 54.18 146.959 54 146.452 53.64C145.959 53.28 145.585 52.7667 145.332 52.1C145.079 51.42 144.952 50.6133 144.952 49.68C144.952 48.2667 145.219 47.1733 145.752 46.4C146.285 45.6133 147.139 45.22 148.312 45.22ZM148.332 47.26C148.012 47.26 147.779 47.46 147.632 47.86C147.485 48.26 147.412 48.8733 147.412 49.7C147.412 50.5133 147.485 51.1267 147.632 51.54C147.779 51.9533 148.012 52.16 148.332 52.16C148.652 52.16 148.885 51.96 149.032 51.56C149.192 51.1467 149.272 50.5267 149.272 49.7C149.272 48.8733 149.192 48.26 149.032 47.86C148.885 47.46 148.652 47.26 148.332 47.26ZM162.095 43.08V47.28H166.255V43.08H169.235V54H166.255V49.5H162.095V54H159.115V43.08H162.095ZM176.837 42.86C178.304 42.86 179.424 43.18 180.197 43.82C180.984 44.4467 181.377 45.4133 181.377 46.72V54H179.297L178.717 52.52H178.637C178.33 52.9067 178.01 53.2267 177.677 53.48C177.357 53.7333 176.984 53.9133 176.557 54.02C176.144 54.14 175.63 54.2 175.017 54.2C174.377 54.2 173.797 54.08 173.277 53.84C172.77 53.5867 172.37 53.2067 172.077 52.7C171.784 52.18 171.637 51.5267 171.637 50.74C171.637 49.58 172.044 48.7267 172.857 48.18C173.67 47.62 174.89 47.3133 176.517 47.26L178.417 47.2V46.72C178.417 46.1467 178.264 45.7267 177.957 45.46C177.664 45.1933 177.25 45.06 176.717 45.06C176.184 45.06 175.664 45.14 175.157 45.3C174.65 45.4467 174.144 45.6333 173.637 45.86L172.657 43.84C173.244 43.5333 173.89 43.2933 174.597 43.12C175.317 42.9467 176.064 42.86 176.837 42.86ZM177.257 48.98C176.297 49.0067 175.63 49.18 175.257 49.5C174.884 49.82 174.697 50.24 174.697 50.76C174.697 51.2133 174.83 51.54 175.097 51.74C175.364 51.9267 175.71 52.02 176.137 52.02C176.777 52.02 177.317 51.8333 177.757 51.46C178.197 51.0733 178.417 50.5333 178.417 49.84V48.94L177.257 48.98ZM37.72 70.08H41L36.68 75.32L41.38 81H38L33.54 75.46V81H30.56V70.08H33.54V75.38L37.72 70.08ZM52.4722 75.52C52.4722 76.4267 52.3455 77.2333 52.0922 77.94C51.8522 78.6467 51.4989 79.2467 51.0322 79.74C50.5789 80.22 50.0255 80.5867 49.3722 80.84C48.7189 81.08 47.9789 81.2 47.1522 81.2C46.3922 81.2 45.6855 81.08 45.0322 80.84C44.3922 80.5867 43.8389 80.22 43.3722 79.74C42.9055 79.2467 42.5389 78.6467 42.2722 77.94C42.0189 77.2333 41.8922 76.4267 41.8922 75.52C41.8922 74.3067 42.1055 73.2867 42.5322 72.46C42.9589 71.62 43.5722 70.98 44.3722 70.54C45.1722 70.1 46.1189 69.88 47.2122 69.88C48.2389 69.88 49.1455 70.1 49.9322 70.54C50.7189 70.98 51.3389 71.62 51.7922 72.46C52.2455 73.2867 52.4722 74.3067 52.4722 75.52ZM44.9322 75.52C44.9322 76.24 45.0055 76.8467 45.1522 77.34C45.3122 77.82 45.5589 78.1867 45.8922 78.44C46.2255 78.68 46.6589 78.8 47.1922 78.8C47.7255 78.8 48.1522 78.68 48.4722 78.44C48.8055 78.1867 49.0455 77.82 49.1922 77.34C49.3522 76.8467 49.4322 76.24 49.4322 75.52C49.4322 74.8 49.3522 74.2 49.1922 73.72C49.0455 73.24 48.8055 72.88 48.4722 72.64C48.1389 72.4 47.7055 72.28 47.1722 72.28C46.3855 72.28 45.8122 72.5533 45.4522 73.1C45.1055 73.6333 44.9322 74.44 44.9322 75.52ZM68.695 70.08V81H65.915V75.64C65.915 75.1067 65.9217 74.5867 65.935 74.08C65.9617 73.5733 65.995 73.1067 66.035 72.68H65.975L62.955 81H60.715L57.655 72.66H57.575C57.6283 73.1 57.6617 73.5733 57.675 74.08C57.7017 74.5733 57.715 75.12 57.715 75.72V81H54.935V70.08H59.155L61.875 77.48L64.635 70.08H68.695ZM81.73 70.08V81H78.75V72.32H74.79V81H71.81V70.08H81.73ZM94.6369 81H91.6569V72.32H88.9169C88.7835 73.92 88.6169 75.2867 88.4169 76.42C88.2302 77.54 87.9902 78.4533 87.6969 79.16C87.4169 79.8667 87.0569 80.3867 86.6169 80.72C86.1769 81.04 85.6369 81.2 84.9969 81.2C84.6502 81.2 84.3369 81.1733 84.0569 81.12C83.7769 81.0667 83.5235 80.9867 83.2969 80.88V78.5C83.4435 78.5533 83.5969 78.6 83.7569 78.64C83.9169 78.68 84.0835 78.7 84.2569 78.7C84.4435 78.7 84.6169 78.6267 84.7769 78.48C84.9502 78.3333 85.1102 78.0733 85.2569 77.7C85.4169 77.3267 85.5635 76.8133 85.6969 76.16C85.8302 75.5067 85.9502 74.6867 86.0569 73.7C86.1769 72.7 86.2835 71.4933 86.3769 70.08H94.6369V81ZM102.248 69.88C103.261 69.88 104.128 70.0733 104.848 70.46C105.581 70.8467 106.148 71.4067 106.548 72.14C106.948 72.8733 107.148 73.7733 107.148 74.84V76.28H100.108C100.134 77.12 100.381 77.78 100.848 78.26C101.328 78.74 101.988 78.98 102.828 78.98C103.534 78.98 104.174 78.9133 104.748 78.78C105.321 78.6333 105.914 78.4133 106.528 78.12V80.42C105.994 80.6867 105.428 80.88 104.828 81C104.241 81.1333 103.528 81.2 102.688 81.2C101.594 81.2 100.628 81 99.7875 80.6C98.9475 80.1867 98.2875 79.5667 97.8075 78.74C97.3275 77.9133 97.0875 76.8733 97.0875 75.62C97.0875 74.34 97.3008 73.28 97.7275 72.44C98.1675 71.5867 98.7742 70.9467 99.5475 70.52C100.321 70.0933 101.221 69.88 102.248 69.88ZM102.268 72C101.694 72 101.214 72.1867 100.828 72.56C100.454 72.9333 100.234 73.5133 100.168 74.3H104.348C104.348 73.86 104.268 73.4667 104.108 73.12C103.961 72.7733 103.734 72.5 103.428 72.3C103.121 72.1 102.734 72 102.268 72ZM116.724 70.08H120.004L115.684 75.32L120.384 81H117.004L112.544 75.46V81H109.564V70.08H112.544V75.38L116.724 70.08ZM125.996 81.2C124.916 81.2 123.996 81.0067 123.236 80.62C122.476 80.22 121.896 79.6067 121.496 78.78C121.096 77.9533 120.896 76.8933 120.896 75.6C120.896 74.2667 121.123 73.18 121.576 72.34C122.029 71.5 122.656 70.88 123.456 70.48C124.269 70.08 125.203 69.88 126.256 69.88C127.003 69.88 127.649 69.9533 128.196 70.1C128.756 70.2467 129.243 70.42 129.656 70.62L128.776 72.92C128.309 72.7333 127.869 72.58 127.456 72.46C127.056 72.34 126.656 72.28 126.256 72.28C125.736 72.28 125.303 72.4067 124.956 72.66C124.609 72.9 124.349 73.2667 124.176 73.76C124.016 74.24 123.936 74.8467 123.936 75.58C123.936 76.3 124.023 76.9 124.196 77.38C124.383 77.8467 124.649 78.2 124.996 78.44C125.343 78.6667 125.763 78.78 126.256 78.78C126.883 78.78 127.436 78.7 127.916 78.54C128.396 78.3667 128.863 78.1333 129.316 77.84V80.38C128.863 80.6733 128.383 80.88 127.876 81C127.383 81.1333 126.756 81.2 125.996 81.2ZM134.81 70.08V74.28H138.97V70.08H141.95V81H138.97V76.5H134.81V81H131.83V70.08H134.81ZM145.072 81V70.08H148.052V74.3H149.492C150.612 74.3 151.532 74.42 152.252 74.66C152.972 74.8867 153.505 75.24 153.852 75.72C154.212 76.2 154.392 76.8 154.392 77.52C154.392 78.2267 154.225 78.84 153.892 79.36C153.572 79.88 153.058 80.2867 152.352 80.58C151.658 80.86 150.738 81 149.592 81H145.072ZM149.432 78.94C150.018 78.94 150.492 78.8333 150.852 78.62C151.225 78.4067 151.412 78.0533 151.412 77.56C151.412 77.1333 151.238 76.8267 150.892 76.64C150.558 76.4533 150.058 76.36 149.392 76.36H148.052V78.94H149.432ZM155.972 81V70.08H158.952V81H155.972ZM172.524 65.38C172.457 66.0733 172.264 66.6867 171.944 67.22C171.624 67.74 171.124 68.1467 170.444 68.44C169.764 68.7333 168.851 68.88 167.704 68.88C166.531 68.88 165.611 68.74 164.944 68.46C164.291 68.1667 163.824 67.76 163.544 67.24C163.264 66.72 163.097 66.1 163.044 65.38H165.704C165.771 66.1133 165.957 66.6 166.264 66.84C166.571 67.08 167.071 67.2 167.764 67.2C168.337 67.2 168.804 67.0733 169.164 66.82C169.537 66.5533 169.757 66.0733 169.824 65.38H172.524ZM164.944 74.4C164.944 74.6267 164.931 74.9067 164.904 75.24C164.891 75.5733 164.871 75.9133 164.844 76.26C164.831 76.6067 164.811 76.9133 164.784 77.18C164.757 77.4467 164.737 77.6333 164.724 77.74L169.764 70.08H173.344V81H170.464V76.64C170.464 76.28 170.477 75.8867 170.504 75.46C170.531 75.02 170.557 74.6133 170.584 74.24C170.624 73.8533 170.651 73.56 170.664 73.36L165.644 81H162.064V70.08H164.944V74.4ZM186.134 69.86C187.6 69.86 188.72 70.18 189.494 70.82C190.28 71.4467 190.674 72.4133 190.674 73.72V81H188.594L188.014 79.52H187.934C187.627 79.9067 187.307 80.2267 186.974 80.48C186.654 80.7333 186.28 80.9133 185.854 81.02C185.44 81.14 184.927 81.2 184.314 81.2C183.674 81.2 183.094 81.08 182.574 80.84C182.067 80.5867 181.667 80.2067 181.374 79.7C181.08 79.18 180.934 78.5267 180.934 77.74C180.934 76.58 181.34 75.7267 182.154 75.18C182.967 74.62 184.187 74.3133 185.814 74.26L187.714 74.2V73.72C187.714 73.1467 187.56 72.7267 187.254 72.46C186.96 72.1933 186.547 72.06 186.014 72.06C185.48 72.06 184.96 72.14 184.454 72.3C183.947 72.4467 183.44 72.6333 182.934 72.86L181.954 70.84C182.54 70.5333 183.187 70.2933 183.894 70.12C184.614 69.9467 185.36 69.86 186.134 69.86ZM186.554 75.98C185.594 76.0067 184.927 76.18 184.554 76.5C184.18 76.82 183.994 77.24 183.994 77.76C183.994 78.2133 184.127 78.54 184.394 78.74C184.66 78.9267 185.007 79.02 185.434 79.02C186.074 79.02 186.614 78.8333 187.054 78.46C187.494 78.0733 187.714 77.5333 187.714 76.84V75.94L186.554 75.98ZM196.704 70.08V74.28H200.864V70.08H203.844V81H200.864V76.5H196.704V81H193.724V70.08H196.704ZM211.446 69.86C212.913 69.86 214.033 70.18 214.806 70.82C215.593 71.4467 215.986 72.4133 215.986 73.72V81H213.906L213.326 79.52H213.246C212.94 79.9067 212.62 80.2267 212.286 80.48C211.966 80.7333 211.593 80.9133 211.166 81.02C210.753 81.14 210.24 81.2 209.626 81.2C208.986 81.2 208.406 81.08 207.886 80.84C207.38 80.5867 206.98 80.2067 206.686 79.7C206.393 79.18 206.246 78.5267 206.246 77.74C206.246 76.58 206.653 75.7267 207.466 75.18C208.28 74.62 209.5 74.3133 211.126 74.26L213.026 74.2V73.72C213.026 73.1467 212.873 72.7267 212.566 72.46C212.273 72.1933 211.86 72.06 211.326 72.06C210.793 72.06 210.273 72.14 209.766 72.3C209.26 72.4467 208.753 72.6333 208.246 72.86L207.266 70.84C207.853 70.5333 208.5 70.2933 209.206 70.12C209.926 69.9467 210.673 69.86 211.446 69.86ZM211.866 75.98C210.906 76.0067 210.24 76.18 209.866 76.5C209.493 76.82 209.306 77.24 209.306 77.76C209.306 78.2133 209.44 78.54 209.706 78.74C209.973 78.9267 210.32 79.02 210.746 79.02C211.386 79.02 211.926 78.8333 212.366 78.46C212.806 78.0733 213.026 77.5333 213.026 76.84V75.94L211.866 75.98ZM228.817 81H225.837V72.32H223.097C222.963 73.92 222.797 75.2867 222.597 76.42C222.41 77.54 222.17 78.4533 221.877 79.16C221.597 79.8667 221.237 80.3867 220.797 80.72C220.357 81.04 219.817 81.2 219.177 81.2C218.83 81.2 218.517 81.1733 218.237 81.12C217.957 81.0667 217.703 80.9867 217.477 80.88V78.5C217.623 78.5533 217.777 78.6 217.937 78.64C218.097 78.68 218.263 78.7 218.437 78.7C218.623 78.7 218.797 78.6267 218.957 78.48C219.13 78.3333 219.29 78.0733 219.437 77.7C219.597 77.3267 219.743 76.8133 219.877 76.16C220.01 75.5067 220.13 74.6867 220.237 73.7C220.357 72.7 220.463 71.4933 220.557 70.08H228.817V81ZM234.807 74.4C234.807 74.6267 234.794 74.9067 234.767 75.24C234.754 75.5733 234.734 75.9133 234.707 76.26C234.694 76.6067 234.674 76.9133 234.647 77.18C234.621 77.4467 234.601 77.6333 234.587 77.74L239.627 70.08H243.207V81H240.327V76.64C240.327 76.28 240.341 75.8867 240.367 75.46C240.394 75.02 240.421 74.6133 240.447 74.24C240.487 73.8533 240.514 73.56 240.527 73.36L235.507 81H231.927V70.08H234.807V74.4ZM250.302 69.88C251.088 69.88 251.822 69.9867 252.502 70.2C253.195 70.4 253.748 70.7133 254.162 71.14C254.588 71.5667 254.802 72.1133 254.802 72.78C254.802 73.4333 254.602 73.9533 254.202 74.34C253.815 74.7267 253.288 75.0067 252.622 75.18V75.28C253.088 75.3867 253.508 75.54 253.882 75.74C254.255 75.9267 254.548 76.1867 254.762 76.52C254.988 76.84 255.102 77.2733 255.102 77.82C255.102 78.42 254.908 78.98 254.522 79.5C254.148 80.0067 253.562 80.42 252.762 80.74C251.975 81.0467 250.962 81.2 249.722 81.2C249.135 81.2 248.582 81.1733 248.062 81.12C247.542 81.0667 247.068 80.9933 246.642 80.9C246.215 80.7933 245.842 80.6667 245.522 80.52V78.06C245.975 78.2733 246.528 78.4667 247.182 78.64C247.848 78.8133 248.555 78.9 249.302 78.9C249.848 78.9 250.335 78.86 250.762 78.78C251.202 78.7 251.548 78.5667 251.802 78.38C252.068 78.1933 252.202 77.9467 252.202 77.64C252.202 77.3467 252.088 77.1067 251.862 76.92C251.635 76.72 251.295 76.5733 250.842 76.48C250.388 76.3867 249.808 76.34 249.102 76.34H247.942V74.28H249.042C250.028 74.28 250.788 74.2 251.322 74.04C251.868 73.88 252.142 73.58 252.142 73.14C252.142 72.7933 251.968 72.5333 251.622 72.36C251.275 72.1733 250.708 72.08 249.922 72.08C249.402 72.08 248.835 72.14 248.222 72.26C247.608 72.38 247.028 72.5533 246.482 72.78L245.602 70.7C246.228 70.46 246.915 70.2667 247.662 70.12C248.408 69.96 249.288 69.88 250.302 69.88ZM37.72 97.08H41L36.68 102.32L41.38 108H38L33.54 102.46V108H30.56V97.08H33.54V102.38L37.72 97.08ZM49.0228 96.88C50.2495 96.88 51.2428 97.36 52.0028 98.32C52.7628 99.2667 53.1428 100.667 53.1428 102.52C53.1428 103.76 52.9628 104.807 52.6028 105.66C52.2428 106.5 51.7495 107.133 51.1228 107.56C50.4961 107.987 49.7695 108.2 48.9428 108.2C48.4228 108.2 47.9695 108.133 47.5828 108C47.2095 107.867 46.8895 107.693 46.6228 107.48C46.3561 107.267 46.1228 107.04 45.9228 106.8H45.7628C45.8161 107.053 45.8561 107.32 45.8828 107.6C45.9095 107.867 45.9228 108.133 45.9228 108.4V112.8H42.9428V97.08H45.3628L45.7828 98.5H45.9228C46.1228 98.2067 46.3628 97.94 46.6428 97.7C46.9228 97.4467 47.2561 97.2467 47.6428 97.1C48.0428 96.9533 48.5028 96.88 49.0228 96.88ZM48.0628 99.26C47.5428 99.26 47.1295 99.3667 46.8228 99.58C46.5161 99.7933 46.2895 100.12 46.1428 100.56C46.0095 100.987 45.9361 101.527 45.9228 102.18V102.5C45.9228 103.207 45.9895 103.807 46.1228 104.3C46.2561 104.78 46.4828 105.147 46.8028 105.4C47.1228 105.653 47.5561 105.78 48.1028 105.78C48.5561 105.78 48.9295 105.653 49.2228 105.4C49.5161 105.147 49.7361 104.773 49.8828 104.28C50.0295 103.787 50.1028 103.187 50.1028 102.48C50.1028 101.413 49.9361 100.613 49.6028 100.08C49.2828 99.5333 48.7695 99.26 48.0628 99.26ZM65.5191 102.52C65.5191 103.427 65.3924 104.233 65.1391 104.94C64.8991 105.647 64.5457 106.247 64.0791 106.74C63.6257 107.22 63.0724 107.587 62.4191 107.84C61.7657 108.08 61.0257 108.2 60.1991 108.2C59.4391 108.2 58.7324 108.08 58.0791 107.84C57.4391 107.587 56.8857 107.22 56.4191 106.74C55.9524 106.247 55.5857 105.647 55.3191 104.94C55.0657 104.233 54.9391 103.427 54.9391 102.52C54.9391 101.307 55.1524 100.287 55.5791 99.46C56.0057 98.62 56.6191 97.98 57.4191 97.54C58.2191 97.1 59.1657 96.88 60.2591 96.88C61.2857 96.88 62.1924 97.1 62.9791 97.54C63.7657 97.98 64.3857 98.62 64.8391 99.46C65.2924 100.287 65.5191 101.307 65.5191 102.52ZM57.9791 102.52C57.9791 103.24 58.0524 103.847 58.1991 104.34C58.3591 104.82 58.6057 105.187 58.9391 105.44C59.2724 105.68 59.7057 105.8 60.2391 105.8C60.7724 105.8 61.1991 105.68 61.5191 105.44C61.8524 105.187 62.0924 104.82 62.2391 104.34C62.3991 103.847 62.4791 103.24 62.4791 102.52C62.4791 101.8 62.3991 101.2 62.2391 100.72C62.0924 100.24 61.8524 99.88 61.5191 99.64C61.1857 99.4 60.7524 99.28 60.2191 99.28C59.4324 99.28 58.8591 99.5533 58.4991 100.1C58.1524 100.633 57.9791 101.44 57.9791 102.52ZM77.6619 99.94C77.6619 100.527 77.4752 101.027 77.1019 101.44C76.7419 101.853 76.2019 102.12 75.4819 102.24V102.32C76.2419 102.413 76.8485 102.673 77.3019 103.1C77.7685 103.527 78.0019 104.073 78.0019 104.74C78.0019 105.207 77.9085 105.64 77.7219 106.04C77.5485 106.44 77.2685 106.787 76.8819 107.08C76.4952 107.373 75.9952 107.6 75.3819 107.76C74.7819 107.92 74.0485 108 73.1819 108H67.9819V97.08H73.1819C74.0352 97.08 74.7952 97.1733 75.4619 97.36C76.1419 97.5333 76.6752 97.8267 77.0619 98.24C77.4619 98.6533 77.6619 99.22 77.6619 99.94ZM74.9219 104.58C74.9219 104.153 74.7552 103.847 74.4219 103.66C74.0885 103.46 73.5885 103.36 72.9219 103.36H70.9619V105.94H72.9819C73.5419 105.94 74.0019 105.84 74.3619 105.64C74.7352 105.427 74.9219 105.073 74.9219 104.58ZM74.6419 100.18C74.6419 99.8333 74.5085 99.58 74.2419 99.42C73.9752 99.26 73.5819 99.18 73.0619 99.18H70.9619V101.34H72.7219C73.3485 101.34 73.8219 101.253 74.1419 101.08C74.4752 100.893 74.6419 100.593 74.6419 100.18ZM83.44 101.4C83.44 101.627 83.4267 101.907 83.4 102.24C83.3867 102.573 83.3667 102.913 83.34 103.26C83.3267 103.607 83.3067 103.913 83.28 104.18C83.2533 104.447 83.2333 104.633 83.22 104.74L88.26 97.08H91.84V108H88.96V103.64C88.96 103.28 88.9733 102.887 89 102.46C89.0267 102.02 89.0533 101.613 89.08 101.24C89.12 100.853 89.1467 100.56 89.16 100.36L84.14 108H80.56V97.08H83.44V101.4Z" fill="white"/>
<path d="M37.652 143H36.14L31.618 137.932V143H30.358V133.004H31.618V137.848L36.028 133.004H37.456L33.116 137.862L37.652 143ZM45.3683 139.234C45.3683 139.859 45.2843 140.415 45.1163 140.9C44.9576 141.376 44.7243 141.782 44.4163 142.118C44.1176 142.454 43.749 142.711 43.3103 142.888C42.881 143.056 42.4003 143.14 41.8683 143.14C41.3736 143.14 40.9163 143.056 40.4963 142.888C40.0763 142.711 39.7123 142.454 39.4043 142.118C39.0963 141.782 38.8536 141.376 38.6763 140.9C38.5083 140.415 38.4243 139.859 38.4243 139.234C38.4243 138.403 38.5643 137.703 38.8443 137.134C39.1243 136.555 39.5256 136.117 40.0483 135.818C40.571 135.51 41.1916 135.356 41.9103 135.356C42.5916 135.356 43.189 135.51 43.7023 135.818C44.225 136.117 44.631 136.555 44.9203 137.134C45.219 137.703 45.3683 138.403 45.3683 139.234ZM39.6983 139.234C39.6983 139.822 39.773 140.335 39.9223 140.774C40.081 141.203 40.3236 141.535 40.6503 141.768C40.977 142.001 41.3923 142.118 41.8963 142.118C42.4003 142.118 42.8156 142.001 43.1423 141.768C43.469 141.535 43.707 141.203 43.8563 140.774C44.015 140.335 44.0943 139.822 44.0943 139.234C44.0943 138.637 44.015 138.128 43.8563 137.708C43.6976 137.288 43.455 136.966 43.1283 136.742C42.811 136.509 42.3956 136.392 41.8823 136.392C41.117 136.392 40.5616 136.644 40.2163 137.148C39.871 137.652 39.6983 138.347 39.6983 139.234ZM55.3709 135.496V143H54.2649V138.212C54.2649 138.016 54.2695 137.811 54.2789 137.596C54.2975 137.381 54.3162 137.171 54.3349 136.966H54.2929L51.8429 143H50.8069L48.4269 136.966H48.3849C48.4035 137.171 48.4129 137.381 48.4129 137.596C48.4222 137.811 48.4269 138.03 48.4269 138.254V143H47.3209V135.496H48.9589L51.3249 141.53L53.7329 135.496H55.3709ZM64.1082 135.496V143H62.8762V136.546H58.9982V143H57.7662V135.496H64.1082ZM72.2145 143H70.9685V136.518H68.7565C68.6632 137.703 68.5465 138.716 68.4065 139.556C68.2665 140.387 68.0892 141.063 67.8745 141.586C67.6598 142.109 67.4032 142.491 67.1045 142.734C66.8058 142.977 66.4558 143.098 66.0545 143.098C65.9332 143.098 65.8118 143.089 65.6905 143.07C65.5785 143.061 65.4852 143.037 65.4105 143V142.076C65.4665 142.095 65.5272 142.109 65.5925 142.118C65.6578 142.127 65.7232 142.132 65.7885 142.132C65.9938 142.132 66.1805 142.048 66.3485 141.88C66.5165 141.712 66.6658 141.455 66.7965 141.11C66.9365 140.765 67.0625 140.331 67.1745 139.808C67.2865 139.276 67.3845 138.651 67.4685 137.932C67.5525 137.213 67.6272 136.401 67.6925 135.496H72.2145V143ZM77.4943 135.356C78.1383 135.356 78.6889 135.496 79.1463 135.776C79.6129 136.056 79.9676 136.453 80.2103 136.966C80.4623 137.47 80.5883 138.063 80.5883 138.744V139.486H75.4503C75.4689 140.335 75.6836 140.984 76.0943 141.432C76.5143 141.871 77.0976 142.09 77.8443 142.09C78.3203 142.09 78.7403 142.048 79.1043 141.964C79.4776 141.871 79.8603 141.74 80.2523 141.572V142.65C79.8696 142.818 79.4916 142.939 79.1183 143.014C78.7449 143.098 78.3016 143.14 77.7883 143.14C77.0789 143.14 76.4489 142.995 75.8983 142.706C75.3569 142.417 74.9323 141.987 74.6243 141.418C74.3256 140.839 74.1763 140.135 74.1763 139.304C74.1763 138.483 74.3116 137.778 74.5823 137.19C74.8623 136.602 75.2496 136.149 75.7443 135.832C76.2483 135.515 76.8316 135.356 77.4943 135.356ZM77.4803 136.364C76.8923 136.364 76.4256 136.555 76.0803 136.938C75.7443 137.311 75.5436 137.834 75.4783 138.506H79.3003C79.3003 138.077 79.2349 137.703 79.1043 137.386C78.9736 137.069 78.7729 136.821 78.5023 136.644C78.2409 136.457 77.9003 136.364 77.4803 136.364ZM86.9366 135.496H88.2806L85.0746 139.108L88.5466 143H87.1186L83.7306 139.192V143H82.4986V135.496H83.7306V139.136L86.9366 135.496ZM92.6453 143.14C91.9826 143.14 91.39 143.005 90.8673 142.734C90.354 142.463 89.948 142.043 89.6493 141.474C89.36 140.905 89.2153 140.177 89.2153 139.29C89.2153 138.366 89.3693 137.615 89.6773 137.036C89.9853 136.457 90.4006 136.033 90.9233 135.762C91.4553 135.491 92.0573 135.356 92.7293 135.356C93.112 135.356 93.4806 135.398 93.8353 135.482C94.19 135.557 94.4793 135.65 94.7033 135.762L94.3253 136.784C94.1013 136.7 93.84 136.621 93.5413 136.546C93.2426 136.471 92.9626 136.434 92.7013 136.434C92.1973 136.434 91.782 136.541 91.4553 136.756C91.1286 136.971 90.886 137.288 90.7273 137.708C90.5686 138.128 90.4893 138.651 90.4893 139.276C90.4893 139.873 90.5686 140.382 90.7273 140.802C90.886 141.222 91.124 141.539 91.4413 141.754C91.7586 141.969 92.1553 142.076 92.6313 142.076C93.042 142.076 93.4013 142.034 93.7093 141.95C94.0266 141.866 94.316 141.763 94.5773 141.642V142.734C94.3253 142.865 94.0453 142.963 93.7373 143.028C93.4386 143.103 93.0746 143.14 92.6453 143.14ZM97.5939 135.496V138.618H101.668V135.496H102.9V143H101.668V139.654H97.5939V143H96.3619V135.496H97.5939ZM105.276 143V135.496H106.508V138.576H108.454C109.107 138.576 109.644 138.655 110.064 138.814C110.484 138.973 110.797 139.211 111.002 139.528C111.207 139.836 111.31 140.228 111.31 140.704C111.31 141.171 111.207 141.577 111.002 141.922C110.806 142.267 110.493 142.533 110.064 142.72C109.644 142.907 109.089 143 108.398 143H105.276ZM108.286 142.006C108.818 142.006 109.252 141.917 109.588 141.74C109.924 141.553 110.092 141.231 110.092 140.774C110.092 140.317 109.938 140.009 109.63 139.85C109.322 139.682 108.879 139.598 108.3 139.598H106.508V142.006H108.286ZM112.556 143V135.496H113.788V143H112.556ZM122.248 132.388C122.211 132.855 122.094 133.247 121.898 133.564C121.712 133.881 121.432 134.119 121.058 134.278C120.685 134.437 120.2 134.516 119.602 134.516C118.996 134.516 118.506 134.437 118.132 134.278C117.768 134.119 117.502 133.886 117.334 133.578C117.166 133.261 117.064 132.864 117.026 132.388H118.174C118.221 132.892 118.352 133.233 118.566 133.41C118.79 133.578 119.145 133.662 119.63 133.662C120.06 133.662 120.396 133.573 120.638 133.396C120.89 133.209 121.04 132.873 121.086 132.388H122.248ZM117.334 140.074C117.334 140.158 117.33 140.279 117.32 140.438C117.32 140.587 117.316 140.751 117.306 140.928C117.297 141.096 117.288 141.259 117.278 141.418C117.269 141.567 117.26 141.689 117.25 141.782L121.268 135.496H122.78V143H121.632V138.576C121.632 138.427 121.632 138.231 121.632 137.988C121.642 137.745 121.651 137.507 121.66 137.274C121.67 137.031 121.679 136.849 121.688 136.728L117.698 143H116.172V135.496H117.334V140.074ZM131.647 135.37C132.562 135.37 133.239 135.571 133.677 135.972C134.116 136.373 134.335 137.013 134.335 137.89V143H133.439L133.201 141.936H133.145C132.931 142.207 132.707 142.435 132.473 142.622C132.249 142.799 131.988 142.93 131.689 143.014C131.4 143.098 131.045 143.14 130.625 143.14C130.177 143.14 129.771 143.061 129.407 142.902C129.053 142.743 128.773 142.501 128.567 142.174C128.362 141.838 128.259 141.418 128.259 140.914C128.259 140.167 128.553 139.593 129.141 139.192C129.729 138.781 130.635 138.557 131.857 138.52L133.131 138.478V138.03C133.131 137.405 132.996 136.971 132.725 136.728C132.455 136.485 132.072 136.364 131.577 136.364C131.185 136.364 130.812 136.425 130.457 136.546C130.103 136.658 129.771 136.789 129.463 136.938L129.085 136.014C129.412 135.837 129.799 135.687 130.247 135.566C130.695 135.435 131.162 135.37 131.647 135.37ZM132.011 139.374C131.078 139.411 130.429 139.561 130.065 139.822C129.711 140.083 129.533 140.452 129.533 140.928C129.533 141.348 129.659 141.656 129.911 141.852C130.173 142.048 130.504 142.146 130.905 142.146C131.54 142.146 132.067 141.973 132.487 141.628C132.907 141.273 133.117 140.732 133.117 140.004V139.332L132.011 139.374ZM137.885 135.496V138.618H141.959V135.496H143.191V143H141.959V139.654H137.885V143H136.653V135.496H137.885ZM148.409 135.37C149.324 135.37 150 135.571 150.439 135.972C150.878 136.373 151.097 137.013 151.097 137.89V143H150.201L149.963 141.936H149.907C149.692 142.207 149.468 142.435 149.235 142.622C149.011 142.799 148.75 142.93 148.451 143.014C148.162 143.098 147.807 143.14 147.387 143.14C146.939 143.14 146.533 143.061 146.169 142.902C145.814 142.743 145.534 142.501 145.329 142.174C145.124 141.838 145.021 141.418 145.021 140.914C145.021 140.167 145.315 139.593 145.903 139.192C146.491 138.781 147.396 138.557 148.619 138.52L149.893 138.478V138.03C149.893 137.405 149.758 136.971 149.487 136.728C149.216 136.485 148.834 136.364 148.339 136.364C147.947 136.364 147.574 136.425 147.219 136.546C146.864 136.658 146.533 136.789 146.225 136.938L145.847 136.014C146.174 135.837 146.561 135.687 147.009 135.566C147.457 135.435 147.924 135.37 148.409 135.37ZM148.773 139.374C147.84 139.411 147.191 139.561 146.827 139.822C146.472 140.083 146.295 140.452 146.295 140.928C146.295 141.348 146.421 141.656 146.673 141.852C146.934 142.048 147.266 142.146 147.667 142.146C148.302 142.146 148.829 141.973 149.249 141.628C149.669 141.273 149.879 140.732 149.879 140.004V139.332L148.773 139.374ZM159.127 143H157.881V136.518H155.669C155.575 137.703 155.459 138.716 155.319 139.556C155.179 140.387 155.001 141.063 154.787 141.586C154.572 142.109 154.315 142.491 154.017 142.734C153.718 142.977 153.368 143.098 152.967 143.098C152.845 143.098 152.724 143.089 152.603 143.07C152.491 143.061 152.397 143.037 152.323 143V142.076C152.379 142.095 152.439 142.109 152.505 142.118C152.57 142.127 152.635 142.132 152.701 142.132C152.906 142.132 153.093 142.048 153.261 141.88C153.429 141.712 153.578 141.455 153.709 141.11C153.849 140.765 153.975 140.331 154.087 139.808C154.199 139.276 154.297 138.651 154.381 137.932C154.465 137.213 154.539 136.401 154.605 135.496H159.127V143ZM162.67 140.074C162.67 140.158 162.666 140.279 162.656 140.438C162.656 140.587 162.652 140.751 162.642 140.928C162.633 141.096 162.624 141.259 162.614 141.418C162.605 141.567 162.596 141.689 162.586 141.782L166.604 135.496H168.116V143H166.968V138.576C166.968 138.427 166.968 138.231 166.968 137.988C166.978 137.745 166.987 137.507 166.996 137.274C167.006 137.031 167.015 136.849 167.024 136.728L163.034 143H161.508V135.496H162.67V140.074ZM172.478 135.356C173.048 135.356 173.542 135.435 173.962 135.594C174.382 135.743 174.709 135.967 174.942 136.266C175.176 136.555 175.292 136.91 175.292 137.33C175.292 137.787 175.166 138.151 174.914 138.422C174.662 138.683 174.317 138.875 173.878 138.996V139.052C174.177 139.136 174.452 139.253 174.704 139.402C174.956 139.551 175.157 139.747 175.306 139.99C175.465 140.233 175.544 140.545 175.544 140.928C175.544 141.339 175.428 141.712 175.194 142.048C174.97 142.384 174.62 142.65 174.144 142.846C173.678 143.042 173.076 143.14 172.338 143.14C171.984 143.14 171.643 143.121 171.316 143.084C170.999 143.047 170.71 142.991 170.448 142.916C170.196 142.841 169.972 142.753 169.776 142.65V141.544C170.094 141.693 170.467 141.829 170.896 141.95C171.335 142.071 171.811 142.132 172.324 142.132C172.698 142.132 173.034 142.09 173.332 142.006C173.64 141.922 173.883 141.791 174.06 141.614C174.238 141.427 174.326 141.175 174.326 140.858C174.326 140.569 174.247 140.335 174.088 140.158C173.93 139.971 173.692 139.831 173.374 139.738C173.066 139.645 172.67 139.598 172.184 139.598H171.176V138.59H171.988C172.632 138.59 173.146 138.506 173.528 138.338C173.92 138.161 174.116 137.862 174.116 137.442C174.116 137.087 173.967 136.821 173.668 136.644C173.379 136.467 172.959 136.378 172.408 136.378C171.998 136.378 171.634 136.42 171.316 136.504C171.008 136.579 170.668 136.695 170.294 136.854L169.86 135.874C170.262 135.697 170.682 135.566 171.12 135.482C171.559 135.398 172.012 135.356 172.478 135.356ZM185.442 135.496H186.786L183.58 139.108L187.052 143H185.624L182.236 139.192V143H181.004V135.496H182.236V139.136L185.442 135.496ZM191.985 135.356C192.909 135.356 193.651 135.678 194.211 136.322C194.78 136.966 195.065 137.937 195.065 139.234C195.065 140.083 194.934 140.802 194.673 141.39C194.421 141.969 194.061 142.407 193.595 142.706C193.137 142.995 192.596 143.14 191.971 143.14C191.588 143.14 191.247 143.089 190.949 142.986C190.65 142.883 190.393 142.753 190.179 142.594C189.973 142.426 189.796 142.244 189.647 142.048H189.563C189.581 142.207 189.6 142.407 189.619 142.65C189.637 142.893 189.647 143.103 189.647 143.28V146.36H188.415V135.496H189.423L189.591 136.518H189.647C189.796 136.303 189.973 136.107 190.179 135.93C190.393 135.753 190.645 135.613 190.935 135.51C191.233 135.407 191.583 135.356 191.985 135.356ZM191.761 136.392C191.257 136.392 190.851 136.49 190.543 136.686C190.235 136.873 190.011 137.157 189.871 137.54C189.731 137.923 189.656 138.408 189.647 138.996V139.234C189.647 139.85 189.712 140.373 189.843 140.802C189.973 141.231 190.193 141.558 190.501 141.782C190.818 142.006 191.247 142.118 191.789 142.118C192.246 142.118 192.619 141.992 192.909 141.74C193.207 141.488 193.427 141.147 193.567 140.718C193.716 140.279 193.791 139.78 193.791 139.22C193.791 138.361 193.623 137.675 193.287 137.162C192.96 136.649 192.451 136.392 191.761 136.392ZM203.552 139.234C203.552 139.859 203.468 140.415 203.3 140.9C203.141 141.376 202.908 141.782 202.6 142.118C202.301 142.454 201.933 142.711 201.494 142.888C201.065 143.056 200.584 143.14 200.052 143.14C199.557 143.14 199.1 143.056 198.68 142.888C198.26 142.711 197.896 142.454 197.588 142.118C197.28 141.782 197.037 141.376 196.86 140.9C196.692 140.415 196.608 139.859 196.608 139.234C196.608 138.403 196.748 137.703 197.028 137.134C197.308 136.555 197.709 136.117 198.232 135.818C198.755 135.51 199.375 135.356 200.094 135.356C200.775 135.356 201.373 135.51 201.886 135.818C202.409 136.117 202.815 136.555 203.104 137.134C203.403 137.703 203.552 138.403 203.552 139.234ZM197.882 139.234C197.882 139.822 197.957 140.335 198.106 140.774C198.265 141.203 198.507 141.535 198.834 141.768C199.161 142.001 199.576 142.118 200.08 142.118C200.584 142.118 200.999 142.001 201.326 141.768C201.653 141.535 201.891 141.203 202.04 140.774C202.199 140.335 202.278 139.822 202.278 139.234C202.278 138.637 202.199 138.128 202.04 137.708C201.881 137.288 201.639 136.966 201.312 136.742C200.995 136.509 200.579 136.392 200.066 136.392C199.301 136.392 198.745 136.644 198.4 137.148C198.055 137.652 197.882 138.347 197.882 139.234ZM211.538 137.386C211.538 137.853 211.398 138.217 211.118 138.478C210.838 138.739 210.479 138.917 210.04 139.01V139.066C210.507 139.131 210.913 139.299 211.258 139.57C211.604 139.831 211.776 140.242 211.776 140.802C211.776 141.119 211.716 141.413 211.594 141.684C211.482 141.955 211.305 142.188 211.062 142.384C210.82 142.58 210.507 142.734 210.124 142.846C209.742 142.949 209.28 143 208.738 143H205.504V135.496H208.724C209.256 135.496 209.732 135.557 210.152 135.678C210.582 135.79 210.918 135.986 211.16 136.266C211.412 136.537 211.538 136.91 211.538 137.386ZM210.502 140.802C210.502 140.373 210.339 140.065 210.012 139.878C209.686 139.691 209.205 139.598 208.57 139.598H206.736V142.006H208.598C209.214 142.006 209.686 141.917 210.012 141.74C210.339 141.553 210.502 141.241 210.502 140.802ZM210.292 137.54C210.292 137.185 210.162 136.929 209.9 136.77C209.648 136.602 209.233 136.518 208.654 136.518H206.736V138.576H208.43C209.037 138.576 209.499 138.492 209.816 138.324C210.134 138.156 210.292 137.895 210.292 137.54ZM214.733 140.074C214.733 140.158 214.728 140.279 214.719 140.438C214.719 140.587 214.714 140.751 214.705 140.928C214.696 141.096 214.686 141.259 214.677 141.418C214.668 141.567 214.658 141.689 214.649 141.782L218.667 135.496H220.179V143H219.031V138.576C219.031 138.427 219.031 138.231 219.031 137.988C219.04 137.745 219.05 137.507 219.059 137.274C219.068 137.031 219.078 136.849 219.087 136.728L215.097 143H213.571V135.496H214.733V140.074ZM225.574 139.794V138.702H228.962V139.794H225.574ZM33.97 162H32.766V155.014C32.766 154.743 32.766 154.515 32.766 154.328C32.7753 154.141 32.7847 153.969 32.794 153.81C32.8033 153.642 32.8127 153.469 32.822 153.292C32.6727 153.441 32.5373 153.567 32.416 153.67C32.2947 153.773 32.1407 153.903 31.954 154.062L30.89 154.93L30.246 154.104L32.948 152.004H33.97V162ZM41.0017 151.864C41.5897 151.864 42.1077 151.957 42.5557 152.144C43.0037 152.321 43.3537 152.587 43.6057 152.942C43.8671 153.297 43.9977 153.735 43.9977 154.258C43.9977 154.659 43.9091 155.009 43.7317 155.308C43.5637 155.607 43.3351 155.873 43.0457 156.106C42.7564 156.33 42.4391 156.531 42.0937 156.708C42.5044 156.904 42.8777 157.128 43.2137 157.38C43.5497 157.623 43.8157 157.907 44.0117 158.234C44.2171 158.561 44.3197 158.953 44.3197 159.41C44.3197 159.97 44.1844 160.455 43.9137 160.866C43.6431 161.267 43.2604 161.58 42.7657 161.804C42.2804 162.028 41.7064 162.14 41.0437 162.14C40.3251 162.14 39.7137 162.033 39.2097 161.818C38.7151 161.603 38.3371 161.3 38.0757 160.908C37.8237 160.507 37.6977 160.021 37.6977 159.452C37.6977 158.995 37.7911 158.598 37.9777 158.262C38.1737 157.926 38.4304 157.637 38.7477 157.394C39.0651 157.151 39.4057 156.946 39.7697 156.778C39.4431 156.591 39.1444 156.381 38.8737 156.148C38.6124 155.905 38.4024 155.63 38.2437 155.322C38.0944 155.014 38.0197 154.655 38.0197 154.244C38.0197 153.731 38.1504 153.301 38.4117 152.956C38.6731 152.601 39.0277 152.331 39.4757 152.144C39.9237 151.957 40.4324 151.864 41.0017 151.864ZM38.9017 159.466C38.9017 159.951 39.0744 160.357 39.4197 160.684C39.7651 161.001 40.2971 161.16 41.0157 161.16C41.4731 161.16 41.8557 161.085 42.1637 160.936C42.4717 160.787 42.7051 160.581 42.8637 160.32C43.0317 160.059 43.1157 159.76 43.1157 159.424C43.1157 159.097 43.0271 158.813 42.8497 158.57C42.6817 158.318 42.4391 158.094 42.1217 157.898C41.8137 157.702 41.4451 157.525 41.0157 157.366L40.7917 157.282C40.3811 157.459 40.0357 157.651 39.7557 157.856C39.4757 158.061 39.2611 158.295 39.1117 158.556C38.9717 158.817 38.9017 159.121 38.9017 159.466ZM40.9877 152.858C40.4744 152.858 40.0497 152.984 39.7137 153.236C39.3871 153.479 39.2237 153.833 39.2237 154.3C39.2237 154.645 39.3031 154.935 39.4617 155.168C39.6297 155.401 39.8537 155.602 40.1337 155.77C40.4137 155.929 40.7217 156.083 41.0577 156.232C41.3844 156.092 41.6737 155.938 41.9257 155.77C42.1871 155.602 42.3924 155.401 42.5417 155.168C42.7004 154.925 42.7797 154.636 42.7797 154.3C42.7797 153.833 42.6164 153.479 42.2897 153.236C41.9631 152.984 41.5291 152.858 40.9877 152.858ZM56.1922 154.496V162H54.9602V155.546H51.0822V162H49.8502V154.496H56.1922ZM65.1105 158.234C65.1105 158.859 65.0265 159.415 64.8585 159.9C64.6998 160.376 64.4665 160.782 64.1585 161.118C63.8598 161.454 63.4912 161.711 63.0525 161.888C62.6232 162.056 62.1425 162.14 61.6105 162.14C61.1158 162.14 60.6585 162.056 60.2385 161.888C59.8185 161.711 59.4545 161.454 59.1465 161.118C58.8385 160.782 58.5958 160.376 58.4185 159.9C58.2505 159.415 58.1665 158.859 58.1665 158.234C58.1665 157.403 58.3065 156.703 58.5865 156.134C58.8665 155.555 59.2678 155.117 59.7905 154.818C60.3132 154.51 60.9338 154.356 61.6525 154.356C62.3338 154.356 62.9312 154.51 63.4445 154.818C63.9672 155.117 64.3732 155.555 64.6625 156.134C64.9612 156.703 65.1105 157.403 65.1105 158.234ZM59.4405 158.234C59.4405 158.822 59.5152 159.335 59.6645 159.774C59.8232 160.203 60.0658 160.535 60.3925 160.768C60.7192 161.001 61.1345 161.118 61.6385 161.118C62.1425 161.118 62.5578 161.001 62.8845 160.768C63.2112 160.535 63.4492 160.203 63.5985 159.774C63.7572 159.335 63.8365 158.822 63.8365 158.234C63.8365 157.637 63.7572 157.128 63.5985 156.708C63.4398 156.288 63.1972 155.966 62.8705 155.742C62.5532 155.509 62.1378 155.392 61.6245 155.392C60.8592 155.392 60.3038 155.644 59.9585 156.148C59.6132 156.652 59.4405 157.347 59.4405 158.234ZM71.501 154.496H72.845L69.639 158.108L73.111 162H71.683L68.295 158.192V162H67.063V154.496H68.295V158.136L71.501 154.496ZM77.3152 154.37C78.2299 154.37 78.9065 154.571 79.3452 154.972C79.7839 155.373 80.0032 156.013 80.0032 156.89V162H79.1072L78.8692 160.936H78.8132C78.5985 161.207 78.3745 161.435 78.1412 161.622C77.9172 161.799 77.6559 161.93 77.3572 162.014C77.0679 162.098 76.7132 162.14 76.2932 162.14C75.8452 162.14 75.4392 162.061 75.0752 161.902C74.7205 161.743 74.4405 161.501 74.2352 161.174C74.0299 160.838 73.9272 160.418 73.9272 159.914C73.9272 159.167 74.2212 158.593 74.8092 158.192C75.3972 157.781 76.3025 157.557 77.5252 157.52L78.7992 157.478V157.03C78.7992 156.405 78.6639 155.971 78.3932 155.728C78.1225 155.485 77.7399 155.364 77.2452 155.364C76.8532 155.364 76.4799 155.425 76.1252 155.546C75.7705 155.658 75.4392 155.789 75.1312 155.938L74.7532 155.014C75.0799 154.837 75.4672 154.687 75.9152 154.566C76.3632 154.435 76.8299 154.37 77.3152 154.37ZM77.6792 158.374C76.7459 158.411 76.0972 158.561 75.7332 158.822C75.3785 159.083 75.2012 159.452 75.2012 159.928C75.2012 160.348 75.3272 160.656 75.5792 160.852C75.8405 161.048 76.1719 161.146 76.5732 161.146C77.2079 161.146 77.7352 160.973 78.1552 160.628C78.5752 160.273 78.7852 159.732 78.7852 159.004V158.332L77.6792 158.374ZM84.2949 154.356C84.8642 154.356 85.3589 154.435 85.7789 154.594C86.1989 154.743 86.5255 154.967 86.7589 155.266C86.9922 155.555 87.1089 155.91 87.1089 156.33C87.1089 156.787 86.9829 157.151 86.7309 157.422C86.4789 157.683 86.1335 157.875 85.6949 157.996V158.052C85.9935 158.136 86.2689 158.253 86.5209 158.402C86.7729 158.551 86.9735 158.747 87.1229 158.99C87.2815 159.233 87.3609 159.545 87.3609 159.928C87.3609 160.339 87.2442 160.712 87.0109 161.048C86.7869 161.384 86.4369 161.65 85.9609 161.846C85.4942 162.042 84.8922 162.14 84.1549 162.14C83.8002 162.14 83.4595 162.121 83.1329 162.084C82.8155 162.047 82.5262 161.991 82.2649 161.916C82.0129 161.841 81.7889 161.753 81.5929 161.65V160.544C81.9102 160.693 82.2835 160.829 82.7129 160.95C83.1515 161.071 83.6275 161.132 84.1409 161.132C84.5142 161.132 84.8502 161.09 85.1489 161.006C85.4569 160.922 85.6995 160.791 85.8769 160.614C86.0542 160.427 86.1429 160.175 86.1429 159.858C86.1429 159.569 86.0635 159.335 85.9049 159.158C85.7462 158.971 85.5082 158.831 85.1909 158.738C84.8829 158.645 84.4862 158.598 84.0009 158.598H82.9929V157.59H83.8049C84.4489 157.59 84.9622 157.506 85.3449 157.338C85.7369 157.161 85.9329 156.862 85.9329 156.442C85.9329 156.087 85.7835 155.821 85.4849 155.644C85.1955 155.467 84.7755 155.378 84.2249 155.378C83.8142 155.378 83.4502 155.42 83.1329 155.504C82.8249 155.579 82.4842 155.695 82.1109 155.854L81.6769 154.874C82.0782 154.697 82.4982 154.566 82.9369 154.482C83.3755 154.398 83.8282 154.356 84.2949 154.356ZM92.0261 154.37C92.9408 154.37 93.6175 154.571 94.0561 154.972C94.4948 155.373 94.7141 156.013 94.7141 156.89V162H93.8181L93.5801 160.936H93.5241C93.3095 161.207 93.0855 161.435 92.8521 161.622C92.6281 161.799 92.3668 161.93 92.0681 162.014C91.7788 162.098 91.4241 162.14 91.0041 162.14C90.5561 162.14 90.1501 162.061 89.7861 161.902C89.4315 161.743 89.1515 161.501 88.9461 161.174C88.7408 160.838 88.6381 160.418 88.6381 159.914C88.6381 159.167 88.9321 158.593 89.5201 158.192C90.1081 157.781 91.0135 157.557 92.2361 157.52L93.5101 157.478V157.03C93.5101 156.405 93.3748 155.971 93.1041 155.728C92.8335 155.485 92.4508 155.364 91.9561 155.364C91.5641 155.364 91.1908 155.425 90.8361 155.546C90.4815 155.658 90.1501 155.789 89.8421 155.938L89.4641 155.014C89.7908 154.837 90.1781 154.687 90.6261 154.566C91.0741 154.435 91.5408 154.37 92.0261 154.37ZM92.3901 158.374C91.4568 158.411 90.8081 158.561 90.4441 158.822C90.0895 159.083 89.9121 159.452 89.9121 159.928C89.9121 160.348 90.0381 160.656 90.2901 160.852C90.5515 161.048 90.8828 161.146 91.2841 161.146C91.9188 161.146 92.4461 160.973 92.8661 160.628C93.2861 160.273 93.4961 159.732 93.4961 159.004V158.332L92.3901 158.374ZM102.212 155.532H99.7618V162H98.5438V155.532H96.1218V154.496H102.212V155.532ZM106.451 154.356C107.095 154.356 107.646 154.496 108.103 154.776C108.57 155.056 108.925 155.453 109.167 155.966C109.419 156.47 109.545 157.063 109.545 157.744V158.486H104.407C104.426 159.335 104.641 159.984 105.051 160.432C105.471 160.871 106.055 161.09 106.801 161.09C107.277 161.09 107.697 161.048 108.061 160.964C108.435 160.871 108.817 160.74 109.209 160.572V161.65C108.827 161.818 108.449 161.939 108.075 162.014C107.702 162.098 107.259 162.14 106.745 162.14C106.036 162.14 105.406 161.995 104.855 161.706C104.314 161.417 103.889 160.987 103.581 160.418C103.283 159.839 103.133 159.135 103.133 158.304C103.133 157.483 103.269 156.778 103.539 156.19C103.819 155.602 104.207 155.149 104.701 154.832C105.205 154.515 105.789 154.356 106.451 154.356ZM106.437 155.364C105.849 155.364 105.383 155.555 105.037 155.938C104.701 156.311 104.501 156.834 104.435 157.506H108.257C108.257 157.077 108.192 156.703 108.061 156.386C107.931 156.069 107.73 155.821 107.459 155.644C107.198 155.457 106.857 155.364 106.437 155.364ZM117.168 162H115.922V155.518H113.71C113.616 156.703 113.5 157.716 113.36 158.556C113.22 159.387 113.042 160.063 112.828 160.586C112.613 161.109 112.356 161.491 112.058 161.734C111.759 161.977 111.409 162.098 111.008 162.098C110.886 162.098 110.765 162.089 110.644 162.07C110.532 162.061 110.438 162.037 110.364 162V161.076C110.42 161.095 110.48 161.109 110.546 161.118C110.611 161.127 110.676 161.132 110.742 161.132C110.947 161.132 111.134 161.048 111.302 160.88C111.47 160.712 111.619 160.455 111.75 160.11C111.89 159.765 112.016 159.331 112.128 158.808C112.24 158.276 112.338 157.651 112.422 156.932C112.506 156.213 112.58 155.401 112.646 154.496H117.168V162ZM122.447 154.356C123.091 154.356 123.642 154.496 124.099 154.776C124.566 155.056 124.921 155.453 125.163 155.966C125.415 156.47 125.541 157.063 125.541 157.744V158.486H120.403C120.422 159.335 120.637 159.984 121.047 160.432C121.467 160.871 122.051 161.09 122.797 161.09C123.273 161.09 123.693 161.048 124.057 160.964C124.431 160.871 124.813 160.74 125.205 160.572V161.65C124.823 161.818 124.445 161.939 124.071 162.014C123.698 162.098 123.255 162.14 122.741 162.14C122.032 162.14 121.402 161.995 120.851 161.706C120.31 161.417 119.885 160.987 119.577 160.418C119.279 159.839 119.129 159.135 119.129 158.304C119.129 157.483 119.265 156.778 119.535 156.19C119.815 155.602 120.203 155.149 120.697 154.832C121.201 154.515 121.785 154.356 122.447 154.356ZM122.433 155.364C121.845 155.364 121.379 155.555 121.033 155.938C120.697 156.311 120.497 156.834 120.431 157.506H124.253C124.253 157.077 124.188 156.703 124.057 156.386C123.927 156.069 123.726 155.821 123.455 155.644C123.194 155.457 122.853 155.364 122.433 155.364ZM133.528 151.388C133.49 151.855 133.374 152.247 133.178 152.564C132.991 152.881 132.711 153.119 132.338 153.278C131.964 153.437 131.479 153.516 130.882 153.516C130.275 153.516 129.785 153.437 129.412 153.278C129.048 153.119 128.782 152.886 128.614 152.578C128.446 152.261 128.343 151.864 128.306 151.388H129.454C129.5 151.892 129.631 152.233 129.846 152.41C130.07 152.578 130.424 152.662 130.91 152.662C131.339 152.662 131.675 152.573 131.918 152.396C132.17 152.209 132.319 151.873 132.366 151.388H133.528ZM128.614 159.074C128.614 159.158 128.609 159.279 128.6 159.438C128.6 159.587 128.595 159.751 128.586 159.928C128.576 160.096 128.567 160.259 128.558 160.418C128.548 160.567 128.539 160.689 128.53 160.782L132.548 154.496H134.06V162H132.912V157.576C132.912 157.427 132.912 157.231 132.912 156.988C132.921 156.745 132.93 156.507 132.94 156.274C132.949 156.031 132.958 155.849 132.968 155.728L128.978 162H127.452V154.496H128.614V159.074ZM137.54 159.186H136.742L136.392 152.004H137.89L137.54 159.186ZM136.266 161.244C136.266 160.899 136.35 160.656 136.518 160.516C136.686 160.376 136.891 160.306 137.134 160.306C137.367 160.306 137.568 160.376 137.736 160.516C137.913 160.656 138.002 160.899 138.002 161.244C138.002 161.58 137.913 161.823 137.736 161.972C137.568 162.121 137.367 162.196 137.134 162.196C136.891 162.196 136.686 162.121 136.518 161.972C136.35 161.823 136.266 161.58 136.266 161.244Z" fill="white" fill-opacity="0.75"/>
<rect x="29" y="186" width="111" height="36" rx="8" fill="white"/>
<path d="M52.164 208V199.432H58.596V208H57.528V200.38H53.244V208H52.164ZM66.3893 204.772C66.3893 205.308 66.3173 205.784 66.1733 206.2C66.0373 206.608 65.8373 206.956 65.5733 207.244C65.3173 207.532 65.0013 207.752 64.6253 207.904C64.2573 208.048 63.8453 208.12 63.3893 208.12C62.9653 208.12 62.5733 208.048 62.2133 207.904C61.8533 207.752 61.5413 207.532 61.2773 207.244C61.0133 206.956 60.8053 206.608 60.6533 206.2C60.5093 205.784 60.4373 205.308 60.4373 204.772C60.4373 204.06 60.5573 203.46 60.7973 202.972C61.0373 202.476 61.3813 202.1 61.8293 201.844C62.2773 201.58 62.8093 201.448 63.4253 201.448C64.0093 201.448 64.5213 201.58 64.9613 201.844C65.4093 202.1 65.7573 202.476 66.0053 202.972C66.2613 203.46 66.3893 204.06 66.3893 204.772ZM61.5293 204.772C61.5293 205.276 61.5933 205.716 61.7213 206.092C61.8573 206.46 62.0653 206.744 62.3453 206.944C62.6253 207.144 62.9813 207.244 63.4133 207.244C63.8453 207.244 64.2013 207.144 64.4813 206.944C64.7613 206.744 64.9653 206.46 65.0933 206.092C65.2293 205.716 65.2973 205.276 65.2973 204.772C65.2973 204.26 65.2293 203.824 65.0933 203.464C64.9573 203.104 64.7493 202.828 64.4693 202.636C64.1973 202.436 63.8413 202.336 63.4013 202.336C62.7453 202.336 62.2693 202.552 61.9733 202.984C61.6773 203.416 61.5293 204.012 61.5293 204.772ZM72.839 201.568V207.112H73.775V210.232H72.755V208H68.279V210.232H67.271V207.112H67.787C68.155 206.6 68.459 206.044 68.699 205.444C68.947 204.836 69.131 204.204 69.251 203.548C69.379 202.884 69.447 202.224 69.455 201.568H72.839ZM70.391 202.396C70.359 202.94 70.275 203.504 70.139 204.088C70.003 204.664 69.827 205.216 69.611 205.744C69.403 206.272 69.159 206.728 68.879 207.112H71.819V202.396H70.391ZM78.0956 201.448C78.8876 201.448 79.5236 201.724 80.0036 202.276C80.4916 202.828 80.7356 203.66 80.7356 204.772C80.7356 205.5 80.6236 206.116 80.3996 206.62C80.1836 207.116 79.8756 207.492 79.4756 207.748C79.0836 207.996 78.6196 208.12 78.0836 208.12C77.7556 208.12 77.4636 208.076 77.2076 207.988C76.9516 207.9 76.7316 207.788 76.5476 207.652C76.3716 207.508 76.2196 207.352 76.0916 207.184H76.0196C76.0356 207.32 76.0516 207.492 76.0676 207.7C76.0836 207.908 76.0916 208.088 76.0916 208.24V210.88H75.0356V201.568H75.8996L76.0436 202.444H76.0916C76.2196 202.26 76.3716 202.092 76.5476 201.94C76.7316 201.788 76.9476 201.668 77.1956 201.58C77.4516 201.492 77.7516 201.448 78.0956 201.448ZM77.9036 202.336C77.4716 202.336 77.1236 202.42 76.8596 202.588C76.5956 202.748 76.4036 202.992 76.2836 203.32C76.1636 203.648 76.0996 204.064 76.0916 204.568V204.772C76.0916 205.3 76.1476 205.748 76.2596 206.116C76.3716 206.484 76.5596 206.764 76.8236 206.956C77.0956 207.148 77.4636 207.244 77.9276 207.244C78.3196 207.244 78.6396 207.136 78.8876 206.92C79.1436 206.704 79.3316 206.412 79.4516 206.044C79.5796 205.668 79.6436 205.24 79.6436 204.76C79.6436 204.024 79.4996 203.436 79.2116 202.996C78.9316 202.556 78.4956 202.336 77.9036 202.336ZM88.0104 204.772C88.0104 205.308 87.9384 205.784 87.7944 206.2C87.6584 206.608 87.4584 206.956 87.1944 207.244C86.9384 207.532 86.6224 207.752 86.2464 207.904C85.8784 208.048 85.4664 208.12 85.0104 208.12C84.5864 208.12 84.1944 208.048 83.8344 207.904C83.4744 207.752 83.1624 207.532 82.8984 207.244C82.6344 206.956 82.4264 206.608 82.2744 206.2C82.1304 205.784 82.0584 205.308 82.0584 204.772C82.0584 204.06 82.1784 203.46 82.4184 202.972C82.6584 202.476 83.0024 202.1 83.4504 201.844C83.8984 201.58 84.4304 201.448 85.0464 201.448C85.6304 201.448 86.1424 201.58 86.5824 201.844C87.0304 202.1 87.3784 202.476 87.6264 202.972C87.8824 203.46 88.0104 204.06 88.0104 204.772ZM83.1504 204.772C83.1504 205.276 83.2144 205.716 83.3424 206.092C83.4784 206.46 83.6864 206.744 83.9664 206.944C84.2464 207.144 84.6024 207.244 85.0344 207.244C85.4664 207.244 85.8224 207.144 86.1024 206.944C86.3824 206.744 86.5864 206.46 86.7144 206.092C86.8504 205.716 86.9184 205.276 86.9184 204.772C86.9184 204.26 86.8504 203.824 86.7144 203.464C86.5784 203.104 86.3704 202.828 86.0904 202.636C85.8184 202.436 85.4624 202.336 85.0224 202.336C84.3664 202.336 83.8904 202.552 83.5944 202.984C83.2984 203.416 83.1504 204.012 83.1504 204.772ZM89.3481 204.136C89.3481 203.2 89.4401 202.404 89.6241 201.748C89.8161 201.084 90.1081 200.556 90.5001 200.164C90.9001 199.764 91.4121 199.496 92.0361 199.36C92.5561 199.248 93.0641 199.148 93.5601 199.06C94.0561 198.972 94.5201 198.892 94.9521 198.82L95.1321 199.744C94.9241 199.776 94.6921 199.816 94.4361 199.864C94.1801 199.904 93.9201 199.948 93.6561 199.996C93.3921 200.036 93.1361 200.08 92.8881 200.128C92.6481 200.168 92.4361 200.208 92.2521 200.248C91.9881 200.304 91.7521 200.4 91.5441 200.536C91.3361 200.664 91.1561 200.84 91.0041 201.064C90.8601 201.288 90.7441 201.564 90.6561 201.892C90.5681 202.22 90.5161 202.608 90.5001 203.056H90.5721C90.6841 202.904 90.8361 202.748 91.0281 202.588C91.2281 202.428 91.4641 202.292 91.7361 202.18C92.0161 202.068 92.3321 202.012 92.6841 202.012C93.2441 202.012 93.7081 202.136 94.0761 202.384C94.4521 202.624 94.7321 202.96 94.9161 203.392C95.1081 203.824 95.2041 204.328 95.2041 204.904C95.2041 205.616 95.0801 206.212 94.8321 206.692C94.5841 207.172 94.2401 207.532 93.8001 207.772C93.3601 208.004 92.8481 208.12 92.2641 208.12C91.8241 208.12 91.4241 208.036 91.0641 207.868C90.7041 207.692 90.3961 207.436 90.1401 207.1C89.8841 206.764 89.6881 206.348 89.5521 205.852C89.4161 205.356 89.3481 204.784 89.3481 204.136ZM92.3481 207.244C92.7001 207.244 93.0041 207.172 93.2601 207.028C93.5241 206.884 93.7281 206.648 93.8721 206.32C94.0161 205.992 94.0881 205.556 94.0881 205.012C94.0881 204.356 93.9641 203.84 93.7161 203.464C93.4761 203.08 93.0761 202.888 92.5161 202.888C92.1641 202.888 91.8441 202.968 91.5561 203.128C91.2681 203.28 91.0281 203.456 90.8361 203.656C90.6441 203.856 90.5081 204.024 90.4281 204.16C90.4281 204.552 90.4561 204.932 90.5121 205.3C90.5681 205.668 90.6641 206 90.8001 206.296C90.9441 206.584 91.1401 206.816 91.3881 206.992C91.6441 207.16 91.9641 207.244 92.3481 207.244ZM97.9237 201.568V204.244H101.416V201.568H102.472V208H101.416V205.132H97.9237V208H96.8677V201.568H97.9237ZM106.992 201.448C107.544 201.448 108.016 201.568 108.408 201.808C108.808 202.048 109.112 202.388 109.32 202.828C109.536 203.26 109.644 203.768 109.644 204.352V204.988H105.24C105.256 205.716 105.44 206.272 105.792 206.656C106.152 207.032 106.652 207.22 107.292 207.22C107.7 207.22 108.06 207.184 108.372 207.112C108.692 207.032 109.02 206.92 109.356 206.776V207.7C109.028 207.844 108.704 207.948 108.384 208.012C108.064 208.084 107.684 208.12 107.244 208.12C106.636 208.12 106.096 207.996 105.624 207.748C105.16 207.5 104.796 207.132 104.532 206.644C104.276 206.148 104.148 205.544 104.148 204.832C104.148 204.128 104.264 203.524 104.496 203.02C104.736 202.516 105.068 202.128 105.492 201.856C105.924 201.584 106.424 201.448 106.992 201.448ZM106.98 202.312C106.476 202.312 106.076 202.476 105.78 202.804C105.492 203.124 105.32 203.572 105.264 204.148H108.54C108.54 203.78 108.484 203.46 108.372 203.188C108.26 202.916 108.088 202.704 107.856 202.552C107.632 202.392 107.34 202.312 106.98 202.312ZM113.766 201.448C114.318 201.448 114.79 201.568 115.182 201.808C115.582 202.048 115.886 202.388 116.094 202.828C116.31 203.26 116.418 203.768 116.418 204.352V204.988H112.014C112.03 205.716 112.214 206.272 112.566 206.656C112.926 207.032 113.426 207.22 114.066 207.22C114.474 207.22 114.834 207.184 115.146 207.112C115.466 207.032 115.794 206.92 116.13 206.776V207.7C115.802 207.844 115.478 207.948 115.158 208.012C114.838 208.084 114.458 208.12 114.018 208.12C113.41 208.12 112.87 207.996 112.398 207.748C111.934 207.5 111.57 207.132 111.306 206.644C111.05 206.148 110.922 205.544 110.922 204.832C110.922 204.128 111.038 203.524 111.27 203.02C111.51 202.516 111.842 202.128 112.266 201.856C112.698 201.584 113.198 201.448 113.766 201.448ZM113.754 202.312C113.25 202.312 112.85 202.476 112.554 202.804C112.266 203.124 112.094 203.572 112.038 204.148H115.314C115.314 203.78 115.258 203.46 115.146 203.188C115.034 202.916 114.862 202.704 114.63 202.552C114.406 202.392 114.114 202.312 113.754 202.312Z" fill="black"/>
<mask id="mask0_1_105" style="mask-type:alpha" maskUnits="userSpaceOnUse" x="239" y="99" width="91" height="135">
<rect x="239" y="99" width="91" height="135" fill="#C4C4C4"/>
</mask>
<g mask="url(#mask0_1_105)">
<path d="M313.407 133.766C314.726 134.307 316.228 133.679 316.769 132.362C320.105 124.246 329.071 105.678 340.269 108.455C345.8 109.838 349.084 114.727 348.26 120.351C347.144 127.937 338.404 136.458 317.492 135.472C316.122 135.418 314.867 136.502 314.798 137.924C314.731 139.346 315.831 140.549 317.25 140.618C318.43 140.672 319.576 140.698 320.691 140.698C342.592 140.698 351.997 130.343 353.354 121.098C354.56 112.891 349.581 105.475 341.515 103.455C326.951 99.8486 316.778 118.782 312 130.405C311.465 131.721 312.09 133.225 313.407 133.766Z" fill="white" fill-opacity="0.4"/>
<path d="M271.39 108.456C282.866 105.568 291.928 124.913 295.295 133.353C295.82 134.674 297.322 135.323 298.641 134.793C299.962 134.267 300.606 132.768 300.081 131.446C295.282 119.401 285.012 99.7493 270.143 103.459C262.119 105.462 257.135 112.848 258.294 121.016C259.605 130.259 268.981 140.702 290.983 140.702C291.864 140.702 292.768 140.684 293.69 140.648C295.112 140.593 296.222 139.401 296.168 137.979C296.117 136.557 294.934 135.359 293.497 135.501C272.959 136.271 264.459 127.783 263.392 120.292C262.598 114.697 265.888 109.831 271.39 108.456Z" fill="white" fill-opacity="0.4"/>
<path d="M298.265 149.674C299.687 149.674 300.841 148.523 300.841 147.098C300.841 145.674 299.687 144.522 298.265 144.522H248.152C246.88 144.522 245.795 145.452 245.605 146.711L243.029 163.659C242.918 164.401 243.132 165.155 243.621 165.725C244.111 166.297 244.824 166.624 245.574 166.624H298.262C299.684 166.624 300.838 165.472 300.838 164.048C300.838 162.623 299.684 161.471 298.262 161.471H248.575L250.367 149.676H298.265V149.674Z" fill="white" fill-opacity="0.4"/>
<path d="M369.378 165.722C369.867 165.153 370.084 164.398 369.97 163.656L367.394 146.709C367.204 145.452 366.119 144.519 364.847 144.519H314.734C313.312 144.519 312.158 145.671 312.158 147.095C312.158 148.52 313.312 149.671 314.734 149.671H362.637L364.429 161.467H314.734C313.312 161.467 312.158 162.618 312.158 164.043C312.158 165.467 313.312 166.619 314.734 166.619H367.425C368.175 166.621 368.889 166.294 369.378 165.722Z" fill="white" fill-opacity="0.4"/>
<path d="M314.734 234.435H358.482C359.904 234.435 361.058 233.284 361.058 231.859V172.594C361.058 171.17 359.904 170.018 358.482 170.018H314.734C313.312 170.018 312.158 171.169 312.158 172.594V231.859C312.158 233.281 313.31 234.435 314.734 234.435ZM317.31 175.17H355.906V229.283H317.31V175.17Z" fill="white" fill-opacity="0.4"/>
<path d="M300.84 231.859V172.594C300.84 171.17 299.686 170.018 298.264 170.018H254.525C253.103 170.018 251.949 171.169 251.949 172.594V231.859C251.949 233.284 253.103 234.435 254.525 234.435H298.265C299.687 234.435 300.84 233.281 300.84 231.859ZM295.689 229.283H257.098V175.17H295.689V229.283Z" fill="white" fill-opacity="0.4"/>
</g>
<defs>
<linearGradient id="paint0_linear_1_105" x1="165" y1="-4.33996e-07" x2="180.021" y2="466.08" gradientUnits="userSpaceOnUse">
<stop stop-color="#35ADE3"/>
<stop offset="0.880289" stop-color="#35ADE3" stop-opacity="0"/>
<stop offset="1" stop-color="#35ADE3" stop-opacity="0"/>
</linearGradient>
</defs>
</svg>
