<svg width="87" height="131" viewBox="0 0 87 131" fill="none" xmlns="http://www.w3.org/2000/svg">
<path d="M70.4068 30.7662C71.7258 31.3072 73.2276 30.6788 73.7685 29.3624C77.1045 21.2456 86.0713 2.67798 97.269 5.45499C102.8 6.83826 106.084 11.7274 105.26 17.3508C104.144 24.9371 95.404 33.4583 74.4923 32.4718C73.122 32.4176 71.8674 33.502 71.7977 34.924C71.7308 36.3459 72.8308 37.5489 74.2499 37.6183C75.4297 37.6725 76.5759 37.6981 77.6914 37.6981C99.5922 37.6981 108.997 27.3427 110.354 18.0978C111.56 9.89066 106.581 2.47453 98.5153 0.454914C83.9509 -3.15143 73.7783 15.7819 69.0001 27.4045C68.4645 28.7209 69.0904 30.2253 70.4068 30.7662Z" fill="white" fill-opacity="0.4"/>
<path d="M28.3898 5.45581C39.8658 2.56821 48.9279 21.9135 52.2947 30.3526C52.8201 31.674 54.3219 32.323 55.6409 31.7926C56.9623 31.2671 57.6063 29.7679 57.0809 28.4464C52.2817 16.4013 42.0115 -3.25074 27.1432 0.458594C19.1192 2.46236 14.1347 9.84775 15.2939 18.0162C16.6049 27.2586 25.9814 37.7018 47.9829 37.7018C48.8639 37.7018 49.768 37.6838 50.6902 37.6476C52.1122 37.5934 53.2223 36.4009 53.1684 34.979C53.1167 33.5571 51.9344 32.3592 50.4972 32.5008C29.9591 33.2709 21.4586 24.7833 20.3919 17.2924C19.5984 11.6972 22.8878 6.83117 28.3898 5.45581Z" fill="white" fill-opacity="0.4"/>
<path d="M55.2649 46.6742C56.6868 46.6742 57.841 45.5229 57.841 44.0981C57.841 42.6736 56.6868 41.522 55.2649 41.522H5.15232C3.87964 41.522 2.7952 42.4518 2.60475 43.7114L0.0286545 60.6587C-0.082261 61.4006 0.131647 62.1554 0.62126 62.7246C1.11056 63.2966 1.82422 63.6236 2.57369 63.6236H55.2624C56.6843 63.6236 57.8385 62.4723 57.8385 61.0475C57.8385 59.6231 56.6843 58.4715 55.2624 58.4715H5.57475L7.36746 46.6761H55.2649V46.6742Z" fill="white" fill-opacity="0.4"/>
<path d="M126.378 62.7219C126.867 62.1527 127.084 61.3978 126.97 60.656L124.394 43.7087C124.204 42.4515 123.119 41.5192 121.847 41.5192H71.7343C70.3123 41.5192 69.1582 42.6705 69.1582 44.0953C69.1582 45.5201 70.3123 46.6714 71.7343 46.6714H119.637L121.429 58.4668H71.7343C70.3123 58.4668 69.1582 59.6181 69.1582 61.0429C69.1582 62.4674 70.3123 63.619 71.7343 63.619H124.425C125.175 63.6209 125.889 63.2935 126.378 62.7219Z" fill="white" fill-opacity="0.4"/>
<path d="M71.7343 131.435H115.482C116.904 131.435 118.058 130.284 118.058 128.859V69.5942C118.058 68.1697 116.904 67.0181 115.482 67.0181H71.7343C70.3123 67.0181 69.1582 68.1694 69.1582 69.5942V128.859C69.1582 130.281 70.3098 131.435 71.7343 131.435ZM74.3103 72.1702H112.906V126.283H74.3103V72.1702Z" fill="white" fill-opacity="0.4"/>
<path d="M57.8404 128.859V69.5942C57.8404 68.1697 56.6863 67.0181 55.2643 67.0181H11.525C10.103 67.0181 8.94887 68.1694 8.94887 69.5942V128.859C8.94887 130.284 10.103 131.435 11.525 131.435H55.2646C56.6866 131.435 57.8404 130.281 57.8404 128.859ZM52.6886 126.283H14.0982V72.1702H52.6886V126.283Z" fill="white" fill-opacity="0.4"/>
</svg>
