<svg width="17" height="17" viewBox="0 0 17 17" fill="none" xmlns="http://www.w3.org/2000/svg">
<path d="M12.0412 16.993C12.1178 16.9965 12.191 17 12.2677 17C13.0868 17 13.7699 16.7038 14.3066 16.1217C14.3101 16.1182 14.3171 16.1113 14.3205 16.1078C14.5122 15.8777 14.7283 15.6686 14.9583 15.4491C15.1152 15.2992 15.2755 15.1458 15.4254 14.9855C16.1399 14.2397 16.1364 13.2951 15.4184 12.5772L13.4318 10.5906C13.0902 10.2351 12.6825 10.0469 12.2503 10.0469C11.8216 10.0469 11.4103 10.2316 11.0583 10.5836L9.88378 11.7581C9.77922 11.6989 9.67118 11.6466 9.56662 11.5943C9.43418 11.5281 9.3122 11.4654 9.20415 11.3992C8.1272 10.716 7.15133 9.82381 6.21727 8.67716C5.74676 8.08466 5.43657 7.58975 5.217 7.0809C5.5237 6.80208 5.80949 6.5128 6.08483 6.23049C6.1859 6.12942 6.28698 6.02486 6.39153 5.9203C7.13738 5.17445 7.13738 4.25085 6.39153 3.50849L5.4052 2.52216C5.29019 2.40714 5.17866 2.29213 5.06713 2.1806C4.84756 1.95754 4.62101 1.72403 4.39447 1.51491C4.05291 1.17335 3.64862 0.995605 3.21993 0.995605C2.79473 0.995605 2.38347 1.17335 2.02797 1.51491L0.790694 2.7487C0.337608 3.20179 0.0796977 3.75246 0.0239333 4.39027C-0.0388017 5.18491 0.10758 6.02835 0.48399 7.04605C1.06603 8.61791 1.94084 10.0782 3.23736 11.6396C4.81619 13.5217 6.71218 15.0099 8.88002 16.059C9.70603 16.4528 10.8109 16.9129 12.0412 16.993ZM3.89608 11.0925C2.66229 9.60773 1.83628 8.22756 1.28909 6.7498C0.951017 5.84014 0.825547 5.13263 0.877826 4.45997C0.916164 4.02431 1.08346 3.66184 1.39713 3.35165L2.62744 2.12135C2.81564 1.94012 3.02127 1.84601 3.22342 1.84601C3.42208 1.84601 3.61725 1.94012 3.80546 2.12484C4.02503 2.33047 4.23763 2.54655 4.46069 2.7731C4.57222 2.88811 4.68723 3.00661 4.80573 3.12162L5.79207 4.10796C6.19636 4.51225 6.19636 4.90957 5.79207 5.31386C5.68751 5.41842 5.58295 5.52298 5.48188 5.62754C5.17517 5.93773 4.88938 6.23049 4.57222 6.5128C4.56525 6.51977 4.56176 6.52326 4.55479 6.53023C4.27249 6.81253 4.31431 7.08439 4.38402 7.28653C4.3875 7.29699 4.39099 7.30396 4.39447 7.31441C4.6489 7.92782 5.00788 8.50986 5.55855 9.20692C6.55186 10.4303 7.59744 11.3817 8.75455 12.1171C8.89745 12.2077 9.04732 12.2844 9.1937 12.3576C9.32614 12.4238 9.44812 12.4866 9.55617 12.5528C9.57011 12.5598 9.58056 12.5667 9.5945 12.5737C9.70603 12.6295 9.81408 12.6573 9.92561 12.6573C10.2009 12.6573 10.3752 12.4831 10.431 12.4238L11.6682 11.1866C11.8564 10.9984 12.0586 10.9008 12.2573 10.9008C12.5012 10.9008 12.6999 11.0541 12.8288 11.1866L14.8224 13.1801C15.3104 13.6681 15.0873 14.1072 14.812 14.3965C14.6726 14.5464 14.5262 14.6858 14.3728 14.8356C14.1393 15.0587 13.8988 15.2922 13.6792 15.5536C13.3028 15.9579 12.8567 16.1461 12.2747 16.1461C12.2189 16.1461 12.1597 16.1426 12.1039 16.1391C11.02 16.0694 10.0162 15.6477 9.25992 15.2887C7.19663 14.2954 5.39475 12.8839 3.89608 11.0925Z" fill="#AFAFAF"/>
<path d="M9.34357 3.11118C9.11005 3.07284 8.89048 3.22968 8.85214 3.4597C8.81381 3.69322 8.97064 3.91279 9.20067 3.95113C10.1591 4.11494 11.0304 4.56802 11.7275 5.26159C12.4211 5.95516 12.8742 6.82997 13.038 7.78842C13.0728 7.99754 13.2541 8.14392 13.4597 8.14392C13.4841 8.14392 13.5085 8.14043 13.5329 8.13695C13.7664 8.09861 13.9232 7.87555 13.8814 7.64552C13.6897 6.51281 13.153 5.47768 12.3339 4.65864C11.5079 3.83611 10.4763 3.30287 9.34357 3.11118Z" fill="#AFAFAF"/>
<path d="M16.5616 7.99751C16.586 7.99751 16.6104 7.99402 16.6348 7.99054C16.8683 7.9522 17.0251 7.72914 16.9833 7.49911C16.6661 5.62404 15.7809 3.91974 14.4251 2.56396C13.0658 1.20819 11.3615 0.322929 9.48645 0.00576925C9.25294 -0.0325688 9.03337 0.124269 8.99503 0.354297C8.95669 0.587811 9.11353 0.807383 9.34355 0.845721C11.0409 1.135 12.5883 1.93661 13.8187 3.16692C15.049 4.39722 15.8506 5.94468 16.1398 7.64201C16.1747 7.85113 16.3559 7.99751 16.5616 7.99751Z" fill="#AFAFAF"/>
</svg>
