<svg width="40" height="40" viewBox="0 0 40 40" fill="none" xmlns="http://www.w3.org/2000/svg">
<circle cx="20" cy="20" r="19.5" fill="#35ADE3" stroke="#35ADE3"/>
<path fill-rule="evenodd" clip-rule="evenodd" d="M29.5365 14.8041C29.6755 14.3406 29.5365 14 28.875 14H26.6875C26.1313 14 25.8749 14.2942 25.7358 14.6187C25.7358 14.6187 24.6234 17.3301 23.0475 19.0914C22.5377 19.6013 22.3059 19.7635 22.0278 19.7635C21.8888 19.7635 21.6875 19.6013 21.6875 19.1378V14.8041C21.6875 14.2479 21.5261 14 21.0625 14H17.625C17.2774 14 17.0684 14.2582 17.0684 14.5028C17.0684 15.0301 17.8563 15.1517 17.9375 16.6349V19.8562C17.9375 20.5625 17.81 20.6905 17.5319 20.6905C16.7903 20.6905 14.9864 17.9669 13.9165 14.8504C13.7069 14.2447 13.4966 14 12.9375 14H10.75C10.125 14 10 14.2942 10 14.6187C10 15.198 10.7416 18.0718 13.4531 21.8724C15.2607 24.468 17.8075 25.875 20.125 25.875C21.5155 25.875 21.6875 25.5625 21.6875 25.0242V23.0625C21.6875 22.4375 21.8192 22.3128 22.2596 22.3128C22.584 22.3128 23.1402 22.475 24.438 23.7264C25.9212 25.2096 26.1657 25.875 27 25.875H29.1875C29.8125 25.875 30.125 25.5625 29.9447 24.9458C29.7475 24.3312 29.0393 23.4394 28.0997 22.3823C27.5898 21.7797 26.825 21.1309 26.5933 20.8064C26.2688 20.3893 26.3615 20.2038 26.5933 19.833C26.5933 19.833 29.2584 16.0787 29.5365 14.8041Z" fill="white"/>
</svg>
