<svg width="92" height="119" viewBox="0 0 92 119" fill="none" xmlns="http://www.w3.org/2000/svg">
<path fill-rule="evenodd" clip-rule="evenodd" d="M113.149 12.7014C106.491 4.13976 99.4949 0.152196 91.1344 0.152196C85.7212 0.152196 80.4683 1.80907 75.3977 3.4081L86.3216 0.550861C80.9118 2.24617 64.7107 6.75815 59.1974 6.75815C53.6724 6.75815 48.2573 5.02382 42.9868 3.33705C37.8165 1.6959 32.471 0 27.1199 0C18.7175 0 11.8861 4.06813 5.62443 12.7982C-4.22552 26.4887 1.36687 41.149 5.87829 52.9721C7.88726 58.2323 9.78434 63.2003 9.78434 66.9514C9.78434 86.2117 14.0405 118.806 29.9932 118.806C40.9109 118.806 44.2699 106.701 47.2415 95.9901C50.3965 84.7152 53.1286 76.7342 59.5847 76.7342C65.1547 76.7342 67.2859 81.9015 70.2404 94.2884C72.7972 105.111 75.9791 118.579 89.3968 118.579C108.119 118.579 109.574 79.0434 109.574 66.9265C109.574 63.3701 111.409 58.4439 113.352 53.2279L113.428 53.0196C117.898 40.9531 123.461 25.9366 113.149 12.7014ZM103.781 49.7645L103.71 49.9571C101.464 55.989 99.3421 61.6859 99.3421 66.9259C99.3421 78.4264 98.0748 89.5738 95.8639 97.5103C93.2812 106.782 90.3197 108.813 89.3968 108.813C85.2873 108.813 83.3149 105.229 80.2118 92.0938C77.6823 81.4899 74.2191 66.9677 59.5847 66.9677C44.772 66.9677 40.4851 82.2849 37.3417 93.5202C35.6267 99.7004 33.0357 109.04 29.9938 109.04C29.5219 109.04 26.5495 107.082 23.8284 97.7753C21.4067 89.4942 20.0183 78.2589 20.0183 66.95C20.0183 61.475 17.8204 55.7199 15.4784 49.5875C11.4052 38.9112 7.1934 27.8714 14.0657 18.3196C19.4705 10.7814 23.6982 9.76518 27.1199 9.76518C30.8146 9.76518 35.1588 11.1435 39.7646 12.6049C45.5006 14.4415 52.0011 16.5235 59.1968 16.5235C66.3466 16.5235 72.7626 14.5131 78.4225 12.739L78.5993 12.6837C83.1085 11.2613 87.3687 9.91815 91.1344 9.91815C94.648 9.91815 99.0358 10.9402 104.936 18.5254C111.997 27.5874 107.82 38.8619 103.781 49.7645Z" fill="#F6D03F"/>
</svg>
