<svg width="64" height="24" viewBox="0 0 64 24" fill="none" xmlns="http://www.w3.org/2000/svg">
<rect width="64" height="24" rx="8" fill="#35ADE3" fill-opacity="0.2"/>
<path d="M21.52 15.736V20.008H20.144V17H11.552V5.576H12.992V15.72H18.704V5.576H20.128V15.736H21.52ZM26.5314 8.264C27.2674 8.264 27.8967 8.424 28.4194 8.744C28.9527 9.064 29.358 9.51733 29.6354 10.104C29.9234 10.68 30.0674 11.3573 30.0674 12.136V12.984H24.1954C24.2167 13.9547 24.462 14.696 24.9314 15.208C25.4114 15.7093 26.078 15.96 26.9314 15.96C27.4754 15.96 27.9554 15.912 28.3714 15.816C28.798 15.7093 29.2354 15.56 29.6834 15.368V16.6C29.246 16.792 28.814 16.9307 28.3874 17.016C27.9607 17.112 27.454 17.16 26.8674 17.16C26.0567 17.16 25.3367 16.9947 24.7074 16.664C24.0887 16.3333 23.6034 15.8427 23.2514 15.192C22.91 14.5307 22.7394 13.7253 22.7394 12.776C22.7394 11.8373 22.894 11.032 23.2034 10.36C23.5234 9.688 23.966 9.17067 24.5314 8.808C25.1074 8.44533 25.774 8.264 26.5314 8.264ZM26.5154 9.416C25.8434 9.416 25.31 9.63467 24.9154 10.072C24.5314 10.4987 24.302 11.096 24.2274 11.864H28.5954C28.5954 11.3733 28.5207 10.9467 28.3714 10.584C28.222 10.2213 27.9927 9.93867 27.6834 9.736C27.3847 9.52267 26.9954 9.416 26.5154 9.416ZM33.6586 8.424V11.992H38.3146V8.424H39.7226V17H38.3146V13.176H33.6586V17H32.2506V8.424H33.6586ZM42.4381 17V8.424H43.8461V11.944H46.0701C46.8168 11.944 47.4301 12.0347 47.9101 12.216C48.3901 12.3973 48.7475 12.6693 48.9821 13.032C49.2168 13.384 49.3341 13.832 49.3341 14.376C49.3341 14.9093 49.2168 15.3733 48.9821 15.768C48.7581 16.1627 48.4008 16.4667 47.9101 16.68C47.4301 16.8933 46.7955 17 46.0061 17H42.4381ZM45.8781 15.864C46.4861 15.864 46.9821 15.7627 47.3661 15.56C47.7501 15.3467 47.9421 14.9787 47.9421 14.456C47.9421 13.9333 47.7661 13.5813 47.4141 13.4C47.0621 13.208 46.5555 13.112 45.8941 13.112H43.8461V15.864H45.8781ZM50.7581 17V8.424H52.1661V17H50.7581Z" fill="black"/>
</svg>
